<svg width="340" height="105" viewBox="0 0 340 105" fill="none" xmlns="http://www.w3.org/2000/svg">
<path d="M37.3313 17.24V19.208C37.3313 20.096 37.3313 20.552 37.3793 24.08C37.3793 24.512 37.4033 24.824 37.4033 25.16C37.4033 26 37.3553 26.384 37.2353 26.648C37.0913 27.032 36.7793 27.272 36.4193 27.272C35.9873 27.272 35.5793 27.008 35.1473 26.432C34.6673 25.784 34.3073 24.944 34.3073 24.44C34.3073 24.176 34.3313 24.08 34.4993 23.528C34.9073 22.304 35.0513 19.952 35.0513 14.168C35.0513 9.848 34.9793 9.032 34.6433 8.408C34.3553 7.904 33.8273 7.496 32.9873 7.16C33.3233 6.968 33.5153 6.92 33.9233 6.92C34.7393 6.92 35.8913 7.28 36.8753 7.856C37.7393 8.36 38.0753 8.744 38.0753 9.248C38.0753 9.44 38.0273 9.584 37.8833 9.848C37.4513 10.52 37.4273 10.88 37.3313 14.72C39.6833 14.888 41.7713 15.32 43.1393 15.944C44.3633 16.472 44.8913 17.192 44.8913 18.296C44.8913 19.304 44.4593 19.976 43.8353 19.976C43.4993 19.976 43.3073 19.856 42.7073 19.184C41.1713 17.504 39.0593 16.04 37.3313 15.44V17.24ZM41.2673 7.952L41.4833 7.544C42.6113 7.904 43.3553 8.216 44.0513 8.696C45.1553 9.44 45.6593 10.136 45.6593 10.904C45.6593 11.456 45.3473 11.84 44.9153 11.84C44.6033 11.84 44.4113 11.696 44.0993 11.144C43.3793 9.896 42.4193 8.84 41.2673 7.952ZM43.7393 6.056L43.9313 5.672C45.1313 5.936 46.0193 6.272 46.7393 6.728C47.6993 7.352 48.1313 7.904 48.1313 8.576C48.1313 9.152 47.8433 9.536 47.4113 9.536C47.1473 9.536 46.9793 9.392 46.6193 8.888C45.8033 7.712 44.9633 6.896 43.7393 6.056ZM56.5793 7.928L56.8433 7.76C57.7793 8.672 58.4513 8.984 59.4833 8.984C61.2353 8.984 63.8513 8.312 65.0033 7.592C65.1953 7.448 65.3873 7.4 65.6273 7.4C66.0833 7.4 66.9953 7.76 67.5233 8.168C67.9553 8.48 68.1233 8.744 68.1233 9.08C68.1233 9.632 67.7393 9.824 66.2753 10.064C63.8753 10.424 61.5473 10.688 60.5873 10.688C58.7153 10.688 57.7313 9.992 56.5793 7.928ZM57.6353 27.416L57.4913 27.176C59.9153 25.304 61.5953 23.6 63.1793 21.392C64.9793 18.896 66.2993 16.4 66.9953 14.12C63.9233 14.528 62.7713 14.744 60.6113 15.32C58.9553 15.752 58.5953 15.872 57.8273 16.256C57.4913 16.424 57.2033 16.496 56.9153 16.496C55.9073 16.496 54.2033 14.408 54.2033 13.112C54.2033 12.944 54.2273 12.824 54.3473 12.56C54.9713 13.64 55.7393 14.12 56.8673 14.12C57.7793 14.12 62.0273 13.52 65.1713 12.968C66.6113 12.728 66.6593 12.704 67.2113 12.32C67.4273 12.176 67.6193 12.128 67.8833 12.128C68.2193 12.128 68.7713 12.464 69.4433 13.04C70.1873 13.688 70.5473 14.192 70.5473 14.576C70.5473 14.888 70.4513 15.032 70.0913 15.32C69.7073 15.632 69.5393 15.872 68.9873 16.88C66.1793 22.184 62.6033 25.496 57.6353 27.416ZM75.5087 21.152L75.3887 20.888C78.3167 19.184 81.3887 16.736 84.3407 13.76C86.9087 11.168 88.3727 9.248 88.3727 8.456C88.3727 7.952 87.8207 7.328 86.9327 6.872C87.2447 6.8 87.3887 6.776 87.7007 6.776C88.4207 6.776 89.1887 7.04 90.1247 7.592C91.2287 8.24 91.8767 8.96 91.8767 9.512C91.8767 9.944 91.7567 10.088 90.9167 10.688C90.8207 10.76 90.8207 10.76 89.3567 12.152C87.6767 13.712 87.6767 13.712 85.9727 15.176C86.7887 15.704 87.4127 16.232 87.6287 16.592C87.8447 16.928 87.8687 17.168 87.8927 18.944C87.9167 20.048 87.9167 20.36 88.0607 24.92C88.0847 25.256 88.0847 25.592 88.0847 25.832C88.0847 26.816 87.7727 27.296 87.1007 27.296C86.2127 27.296 84.8927 25.832 84.8927 24.824C84.8927 24.584 84.9167 24.416 85.0367 24.056C85.3487 23.072 85.5647 20.456 85.5647 17.864C85.5647 16.64 85.4927 16.304 85.1567 15.848C83.1647 17.36 81.4607 18.488 80.0207 19.256C78.6047 20 76.8767 20.72 75.5087 21.152ZM110.741 8.576H115.685C116.549 7.664 116.813 7.376 117.677 6.536C118.877 7.448 119.213 7.736 120.317 8.696C120.413 8.816 120.461 8.888 120.461 8.936C120.461 9.008 120.365 9.08 120.221 9.08H110.741V11.312H113.789C114.389 10.736 114.581 10.544 115.157 9.968C116.045 10.568 116.309 10.736 117.149 11.36C117.365 11.504 117.437 11.624 117.437 11.744C117.437 11.936 117.293 12.08 116.597 12.464C116.573 13.592 116.573 14.528 116.573 15.104C116.573 17 116.621 19.328 116.669 20.696C116.669 21.224 116.381 21.32 114.989 21.32C114.053 21.32 113.981 21.296 113.957 20.936V20.336H105.149V20.864C105.149 21.344 104.957 21.416 103.661 21.416C102.581 21.416 102.461 21.368 102.461 20.912C102.533 18.2 102.533 17.456 102.533 14.984C102.533 12.656 102.509 11.744 102.437 9.968C103.733 10.496 104.117 10.688 105.317 11.312H108.101V9.08H100.757C100.061 9.08 99.6527 9.128 99.1487 9.224L99.0047 8.384C99.6047 8.528 100.061 8.576 100.733 8.576H108.101V8.384C108.101 7.232 108.077 6.824 107.957 5.768C111.653 6.152 111.773 6.176 111.773 6.512C111.773 6.752 111.509 6.896 110.741 7.088V8.576ZM105.149 14.048H113.957V11.816H105.149V14.048ZM113.957 14.552H105.149V16.808H113.957V14.552ZM113.957 17.312H105.149V19.832H113.957V17.312ZM100.421 22.304H116.237C117.101 21.44 117.365 21.176 118.205 20.336C119.405 21.2 119.741 21.488 120.869 22.424C120.989 22.52 121.037 22.592 121.037 22.664C121.037 22.736 120.917 22.808 120.773 22.808H100.421C99.6287 22.808 99.3167 22.832 98.6927 22.976L98.5247 22.088C99.1967 22.256 99.6527 22.304 100.421 22.304ZM98.6447 27.896L98.5487 27.656C100.517 26.792 101.597 26.192 102.869 25.256C103.877 24.488 104.405 24.008 105.101 23.144C105.893 23.432 106.493 23.648 106.877 23.792C108.437 24.32 108.773 24.488 108.773 24.728C108.773 24.968 108.461 25.088 107.765 25.088C107.693 25.088 107.525 25.088 107.381 25.088C104.453 26.744 102.725 27.296 98.6447 27.896ZM110.429 23.792L110.501 23.576C114.797 23.768 116.405 24.008 117.485 24.632C118.229 25.04 118.661 25.856 118.661 26.816C118.661 27.584 118.325 28.088 117.821 28.088C117.533 28.088 117.341 27.992 116.861 27.608C116.477 27.272 115.277 26.384 114.725 26.024C113.573 25.256 112.613 24.752 110.429 23.792ZM134.549 9.752H132.293C132.221 10.904 132.197 11.096 132.053 11.768C131.501 14.312 130.013 16.016 127.397 17.048C126.245 17.504 125.045 17.792 123.101 18.104L122.957 17.792C125.957 16.808 127.709 15.536 128.765 13.616C129.389 12.44 129.653 11.36 129.677 9.752H126.341C126.341 9.848 126.341 9.92 126.341 9.944C126.341 10.976 126.101 12.056 125.765 12.632C125.333 13.352 124.733 13.76 124.085 13.76C123.341 13.76 122.741 13.04 122.741 12.152C122.741 11.528 122.933 11.264 123.581 10.904C124.445 10.448 124.829 10.112 125.213 9.56C125.549 9.032 125.693 8.576 125.789 7.64H126.053C126.221 8.384 126.269 8.672 126.317 9.248H132.077V7.64C132.077 6.776 132.053 6.56 131.957 5.84C135.413 6.08 135.941 6.176 135.941 6.56C135.941 6.824 135.725 6.944 134.789 7.184V9.248H140.165C140.765 8.6 140.957 8.408 141.557 7.784C142.733 8.6 143.093 8.864 144.197 9.776C144.389 9.944 144.437 10.064 144.437 10.184C144.437 10.256 144.389 10.352 144.341 10.4C144.269 10.472 144.029 10.544 143.717 10.544L143.189 10.568C142.997 10.592 142.829 10.616 142.637 10.64C141.437 11.504 140.861 11.864 139.277 12.776L139.085 12.68C139.661 11.576 139.829 11.12 140.237 9.752H136.997V13.976C136.997 14.504 137.141 14.552 139.061 14.552C141.005 14.552 141.269 14.504 141.557 14.096C141.749 13.832 142.109 13.016 142.781 11.408H143.045L142.997 13.544L142.973 13.904C142.973 14.144 143.021 14.192 143.453 14.384C143.957 14.6 144.149 14.84 144.149 15.272C144.149 15.8 143.813 16.208 143.261 16.352C142.637 16.52 141.149 16.616 138.773 16.616C136.277 16.616 135.557 16.544 135.053 16.208C134.693 15.968 134.549 15.56 134.549 14.816V9.752ZM134.861 19.784V26.216H139.517C140.405 25.208 140.669 24.92 141.557 24.008C142.757 24.968 143.141 25.28 144.341 26.312C144.413 26.408 144.461 26.48 144.461 26.552C144.461 26.648 144.365 26.72 144.221 26.72H125.141C124.541 26.72 124.061 26.768 123.101 26.912L122.813 25.952C123.989 26.144 124.709 26.216 125.333 26.216H132.053V19.784H126.869C126.485 19.784 126.197 19.832 125.117 20L124.901 19.088C125.813 19.208 126.533 19.28 127.013 19.28H138.053C138.797 18.368 139.037 18.104 139.829 17.216C141.077 18.152 141.461 18.464 142.709 19.448C142.781 19.52 142.829 19.568 142.829 19.616C142.829 19.712 142.733 19.784 142.613 19.784H134.861ZM149.069 12.152L149.309 11.984C150.197 13.088 150.917 13.376 152.621 13.376C153.509 13.376 154.901 13.256 156.533 13.016C156.533 10.52 156.509 9.848 156.317 9.272C156.101 8.624 155.405 8.12 154.373 7.904C154.685 7.592 154.925 7.52 155.405 7.52C156.317 7.52 157.805 7.856 158.597 8.24C159.317 8.6 159.629 8.936 159.629 9.368C159.629 9.68 159.581 9.8 159.293 10.28C158.981 10.808 158.837 11.456 158.717 12.632C160.613 12.32 162.317 11.768 162.677 11.36C162.941 11.168 163.061 11.12 163.397 11.12C163.757 11.12 164.549 11.384 165.077 11.696C165.581 12.008 165.821 12.32 165.821 12.68C165.821 13.232 165.437 13.448 164.021 13.64C163.877 13.664 163.349 13.76 162.437 13.88C160.469 14.192 159.221 14.384 158.621 14.456C158.597 15.728 158.597 15.8 158.597 16.184C158.597 18.416 158.693 20.336 158.933 22.808C158.957 23.24 158.981 23.48 158.981 23.768C158.981 25.616 158.093 27.104 156.965 27.104C156.389 27.104 156.125 26.864 155.957 26.144C155.837 25.328 154.805 24.344 152.381 22.784L152.477 22.592C154.109 23.096 154.877 23.264 156.389 23.48C156.485 21.416 156.557 17.696 156.557 14.672C155.021 14.816 154.133 14.888 153.413 14.888C151.133 14.888 149.957 14.144 149.069 12.152ZM152.045 16.592L152.381 16.64C152.333 18.848 152.045 20.48 151.373 22.04C150.773 23.456 150.005 24.224 149.213 24.224C148.541 24.224 148.061 23.456 148.061 22.352C148.061 22.016 148.157 21.656 148.277 21.44C148.421 21.224 148.493 21.176 148.997 20.912C150.533 20.048 151.757 18.272 152.045 16.592ZM161.429 16.496L161.621 16.304C163.661 17.264 164.717 17.936 165.701 18.92C166.541 19.76 166.901 20.48 166.901 21.344C166.901 22.688 166.229 23.792 165.413 23.792C164.933 23.792 164.813 23.6 164.525 22.472C163.853 20.072 162.725 17.864 161.429 16.496ZM165.053 5.144C166.493 5.144 167.645 6.296 167.645 7.736C167.645 9.176 166.493 10.328 165.077 10.328C163.637 10.328 162.461 9.152 162.461 7.736C162.461 6.32 163.637 5.144 165.053 5.144ZM165.053 5.984C164.093 5.984 163.325 6.752 163.325 7.736C163.325 8.696 164.093 9.464 165.053 9.464C166.037 9.464 166.805 8.696 166.805 7.736C166.805 6.752 166.037 5.984 165.053 5.984ZM173.405 9.68L173.525 9.416C176.213 9.848 177.653 10.256 178.781 10.976C179.573 11.456 179.957 12.128 179.957 13.04C179.957 14.168 179.405 15.032 178.661 15.032C178.253 15.032 178.013 14.84 177.653 14.216C176.501 12.128 175.277 10.832 173.405 9.68ZM191.477 10.664L191.765 10.808C190.445 13.568 188.789 15.848 186.365 18.248C184.229 20.36 182.453 21.752 179.405 23.72C178.781 24.128 178.349 24.464 178.109 24.776C177.773 25.184 177.461 25.376 177.101 25.376C176.477 25.376 175.589 24.704 174.749 23.624C173.981 22.64 173.597 21.728 173.597 20.96C173.597 20.744 173.621 20.624 173.717 20.312C174.365 21.416 175.157 22.088 175.805 22.088C176.813 22.088 179.957 20.432 182.813 18.392C186.389 15.824 189.437 13.136 191.477 10.664ZM198.749 27.368L198.581 27.128C200.597 25.616 201.845 24.464 203.453 22.568C205.853 19.712 208.037 16.112 209.429 12.608C209.717 11.888 209.885 11.336 209.885 11.096C209.885 10.928 209.741 10.856 209.453 10.856C208.589 10.856 206.405 11.288 204.341 11.84C202.541 12.32 201.605 12.68 200.525 13.232C200.285 13.376 199.949 13.448 199.661 13.448C198.965 13.448 198.173 12.8 197.405 11.648C196.973 10.952 196.757 10.424 196.757 9.944C196.757 9.752 196.781 9.632 196.901 9.32C197.477 10.448 198.221 10.904 199.421 10.904C200.453 10.904 203.261 10.52 207.197 9.848C208.997 9.536 209.189 9.488 209.813 9.128C209.981 9.056 210.197 8.984 210.341 8.984C210.701 8.984 211.469 9.44 212.117 10.04C212.933 10.784 213.389 11.408 213.389 11.84C213.389 12.176 213.293 12.368 212.957 12.704C212.525 13.16 212.429 13.28 211.949 14.192C208.373 21.104 204.293 25.16 198.749 27.368ZM214.997 5.24C216.437 5.24 217.589 6.392 217.589 7.832C217.589 9.272 216.437 10.424 215.021 10.424C213.581 10.424 212.405 9.248 212.405 7.832C212.405 6.416 213.581 5.24 214.997 5.24ZM214.997 6.08C214.037 6.08 213.269 6.848 213.269 7.832C213.269 8.792 214.037 9.56 214.997 9.56C215.981 9.56 216.749 8.792 216.749 7.832C216.749 6.848 215.981 6.08 214.997 6.08ZM228.749 26.24L228.653 25.904C231.221 25.112 233.021 24.056 234.461 22.496C236.069 20.768 236.861 18.656 236.861 16.184C236.861 12.08 234.365 9.632 230.237 9.632C229.925 9.632 229.733 9.632 229.277 9.68C230.117 10.664 230.381 11.312 230.381 12.248C230.381 14.168 229.157 17.528 227.429 20.432C225.869 23.024 224.477 24.344 223.277 24.344C222.749 24.344 222.245 24.056 221.981 23.648C221.789 23.288 221.645 22.952 221.429 22.064C221.285 21.488 221.093 21.152 220.397 20.288C219.821 19.568 219.461 18.512 219.461 17.528C219.461 16.016 220.229 14.192 221.477 12.728C223.541 10.28 226.949 8.792 230.525 8.792C235.877 8.792 239.693 12.176 239.693 16.928C239.693 20.408 237.773 23.192 234.293 24.8C232.805 25.496 231.269 25.904 228.749 26.24ZM228.797 9.752C226.853 10.184 225.557 10.88 224.165 12.248C222.509 13.904 221.597 15.944 221.597 17.96C221.597 19.616 222.413 21.32 223.229 21.32C224.021 21.32 225.605 19.328 227.165 16.376C228.365 14.12 229.085 12.128 229.085 11.072C229.085 10.808 229.061 10.496 228.989 10.28C228.941 10.088 228.821 9.752 228.797 9.752ZM247.517 16.952L247.493 22.664C247.925 23.552 248.261 23.864 249.125 24.248C251.093 22.664 251.813 21.872 252.509 20.6C253.877 21.008 255.269 21.488 255.509 21.608C255.701 21.704 255.773 21.776 255.773 21.896C255.773 21.992 255.701 22.088 255.629 22.112C255.485 22.16 255.245 22.208 254.909 22.208C254.837 22.208 254.765 22.232 254.645 22.232C253.061 23.288 251.789 23.864 249.581 24.44C250.589 24.752 252.125 24.896 254.429 24.896C256.613 24.896 256.613 24.896 262.541 24.536C263.933 24.44 264.173 24.44 265.037 24.344L265.061 24.584C264.029 25.088 263.717 25.52 263.477 26.84C263.429 27.056 263.357 27.128 263.069 27.128C262.685 27.152 257.789 27.224 256.637 27.224C253.325 27.224 251.621 27.056 250.469 26.6C248.885 25.976 247.925 24.896 246.989 22.736C245.765 24.8 245.525 25.136 244.325 26.6C244.373 26.888 244.397 27.104 244.397 27.2C244.397 27.488 244.277 27.704 244.085 27.704C243.941 27.704 243.749 27.488 243.533 27.104C242.573 25.352 242.573 25.352 242.117 24.392C243.173 24.008 243.365 23.912 244.997 23V16.328H243.629C243.125 16.328 242.861 16.352 242.453 16.448L242.189 15.656C242.813 15.776 243.269 15.824 243.629 15.824H244.805C245.333 15.176 245.525 14.96 246.149 14.312C246.989 14.936 247.229 15.128 248.045 15.752C248.213 15.92 248.309 16.064 248.309 16.136C248.309 16.256 248.189 16.424 248.021 16.544C247.661 16.832 247.661 16.832 247.517 16.952ZM255.605 10.568L255.461 11.48C255.461 11.504 255.461 11.504 255.461 11.504C255.461 11.624 255.557 11.72 255.797 11.792C256.157 11.912 256.349 12.176 256.349 12.56C256.349 13.04 256.061 13.376 255.557 13.568C255.197 13.688 254.117 13.784 253.013 13.784C252.149 13.784 250.637 13.736 250.397 13.712C249.221 13.568 248.957 13.256 248.957 11.936C248.957 11.888 248.957 11.816 248.957 11.696C248.981 11 249.005 10.712 249.005 9.8C249.005 9.2 248.981 8.888 248.885 8.264C249.917 8.72 250.253 8.888 251.261 9.44H253.325V7.448H250.085C249.581 7.448 249.149 7.496 248.573 7.568L248.381 6.752C248.885 6.872 249.533 6.944 250.085 6.944H253.157C253.661 6.416 253.829 6.272 254.357 5.792C254.957 6.2 255.509 6.608 256.061 7.016C256.205 7.136 256.253 7.208 256.253 7.28C256.253 7.472 256.205 7.52 255.581 7.976C255.557 8.216 255.557 8.336 255.557 8.504C255.557 8.624 255.557 8.768 255.557 8.984C255.581 9.536 255.581 9.656 255.581 10.088C255.509 10.472 255.173 10.568 253.901 10.568C253.493 10.568 253.373 10.496 253.325 10.208V9.944H251.141V11.528C251.141 11.888 251.189 11.984 251.501 12.008C251.597 12.032 252.317 12.056 252.917 12.056C253.061 12.056 253.181 12.056 253.301 12.056C253.349 12.056 253.421 12.056 253.469 12.056C254.381 12.056 254.549 11.888 255.413 10.52L255.605 10.568ZM263.309 10.544L263.477 10.592L263.381 11.288V11.36C263.429 11.6 263.453 11.624 263.789 11.744C264.293 11.912 264.509 12.152 264.509 12.56C264.509 12.896 264.293 13.232 263.933 13.424C263.453 13.664 262.589 13.76 260.597 13.76C260.381 13.76 260.141 13.76 259.901 13.76C259.661 13.784 259.493 13.784 259.421 13.784C258.413 13.784 257.525 13.592 257.285 13.352C256.997 13.016 256.973 12.896 256.949 10.856C256.925 9.344 256.901 8.504 256.877 8.336C257.933 8.696 258.245 8.84 259.253 9.44H261.293V7.448H257.957C257.501 7.448 257.213 7.472 256.685 7.568L256.517 6.8C256.973 6.872 257.693 6.944 257.957 6.944H261.125C261.581 6.416 261.725 6.272 262.205 5.768C262.997 6.296 263.237 6.464 264.005 7.064C264.149 7.16 264.197 7.232 264.197 7.304C264.197 7.424 264.101 7.568 263.957 7.664C263.645 7.88 263.645 7.88 263.549 7.952C263.549 8.096 263.549 8.168 263.549 8.24V9.776C263.549 9.848 263.549 9.944 263.573 10.088C263.525 10.448 263.117 10.568 261.941 10.568C261.437 10.568 261.317 10.496 261.293 10.184V9.944H259.133V11.648C259.133 11.912 259.253 12.008 259.589 12.008L259.829 11.984C260.117 11.984 260.189 11.984 260.669 12.008C260.717 12.008 260.789 12.008 260.837 12.008C261.629 12.008 262.109 11.936 262.301 11.792C262.421 11.72 262.613 11.504 262.853 11.192L263.093 10.832C263.165 10.736 263.237 10.64 263.309 10.544ZM254.501 16.496H257.453V15.824C257.453 15.152 257.429 14.864 257.333 14.216C259.709 14.36 260.573 14.528 260.573 14.84C260.573 15.032 260.333 15.176 259.805 15.368V16.496H260.621C261.149 15.848 261.341 15.632 261.893 14.984C262.805 15.68 263.069 15.92 263.981 16.688C264.053 16.76 264.101 16.832 264.101 16.856C264.101 16.952 263.981 17 263.837 17H259.805V19.88H260.957C261.605 19.112 261.797 18.896 262.445 18.2C263.405 18.992 263.693 19.232 264.605 20.024C264.677 20.096 264.725 20.168 264.725 20.216C264.725 20.312 264.605 20.384 264.461 20.384H249.893C249.797 20.384 249.653 20.384 249.437 20.408C249.413 20.408 249.341 20.432 249.293 20.432C249.101 20.432 249.101 20.432 248.909 20.48C248.789 20.504 248.789 20.504 248.693 20.504L248.453 19.688C248.981 19.808 249.557 19.88 249.893 19.88H252.125V17H250.565C250.421 17 250.013 17.024 249.365 17.096L249.197 16.304C249.701 16.424 250.157 16.496 250.565 16.496H252.125V15.872C252.125 15.176 252.101 14.84 251.981 14.216C252.461 14.24 252.821 14.264 253.037 14.288C253.565 14.36 253.901 14.384 254.045 14.384C254.837 14.408 255.293 14.576 255.293 14.84C255.293 15.032 255.053 15.2 254.501 15.392V16.496ZM254.501 17V19.88H257.453V17H254.501ZM257.069 21.104L257.189 20.888C258.821 21.032 259.853 21.176 260.741 21.392C261.341 21.536 261.917 21.8 262.253 22.112C262.517 22.352 262.637 22.664 262.637 23.168C262.637 23.96 262.205 24.464 261.557 24.464C261.173 24.464 260.909 24.296 260.453 23.792C259.469 22.616 258.341 21.728 257.069 21.104ZM243.005 6.392L243.197 6.224C243.533 6.416 243.533 6.416 244.805 7.088C246.749 8.144 247.589 9.008 247.589 10.016C247.589 11.072 246.677 12.224 245.837 12.224C245.405 12.224 245.213 11.96 244.973 11.024C244.421 8.864 244.013 7.904 243.005 6.392ZM267.653 9.272L267.893 9.08C268.565 9.92 269.069 10.184 270.029 10.184C271.445 10.184 273.149 9.632 274.205 8.816C274.613 8.528 274.757 8.456 274.949 8.456C275.765 8.456 276.989 9.512 276.989 10.232C276.989 10.592 276.845 10.736 276.053 11.12C275.261 11.48 274.061 12.392 273.269 13.256C271.301 15.296 270.221 17.744 270.221 20.048C270.221 23.096 271.997 24.944 274.949 24.944C277.157 24.944 279.029 23.864 280.133 21.968C280.925 20.552 281.381 18.44 281.381 16.016C281.381 14.072 281.069 12.032 280.541 10.28C280.181 9.128 280.181 9.128 280.181 8.864C280.181 8.432 280.541 8.072 280.949 8.072C281.405 8.072 282.029 8.36 282.461 8.816C282.941 9.272 282.965 9.32 283.109 10.28C283.277 11.696 284.093 13.808 285.197 15.752C285.749 16.712 286.109 17.12 286.949 17.84C287.453 18.272 287.693 18.992 287.693 20.048C287.693 21.104 287.333 21.752 286.733 21.752C286.085 21.752 285.437 21.032 284.477 19.256C283.517 17.432 282.725 15.44 281.717 12.272H281.645C282.293 15.776 282.413 16.784 282.413 18.608C282.413 21.656 281.693 23.936 280.253 25.472C279.053 26.744 277.229 27.488 275.285 27.488C271.469 27.488 269.045 24.704 269.045 20.312C269.045 17.312 270.005 14.696 272.213 11.648C271.589 11.744 271.277 11.768 270.917 11.768C269.285 11.768 268.373 11.048 267.653 9.272ZM282.725 6.632L282.989 6.272C284.093 6.752 284.813 7.184 285.389 7.736C286.325 8.552 286.733 9.248 286.733 9.968C286.733 10.592 286.445 10.976 285.965 10.976C285.581 10.976 285.389 10.808 285.125 10.16C284.597 8.864 283.853 7.736 282.725 6.632ZM285.557 5.312L285.797 4.976C286.973 5.408 287.813 5.84 288.437 6.368C289.277 7.088 289.613 7.616 289.613 8.216C289.613 8.864 289.325 9.248 288.893 9.248C288.653 9.248 288.461 9.128 288.293 8.864C288.197 8.744 288.197 8.744 287.813 8.024C287.237 7.016 286.565 6.2 285.557 5.312ZM302.741 10.544H307.973C308.765 9.584 309.005 9.296 309.821 8.384C311.021 9.32 311.405 9.608 312.581 10.616C312.701 10.712 312.749 10.808 312.749 10.88C312.749 10.976 312.629 11.048 312.461 11.048H300.869C300.845 12.344 300.701 14.168 300.557 15.152H306.365C307.061 14.384 307.061 14.384 307.781 13.592C308.549 14.144 309.245 14.672 309.893 15.152C310.181 15.44 310.277 15.584 310.277 15.728C310.277 15.8 310.229 15.896 310.133 15.944C310.061 16.016 309.941 16.088 309.773 16.184C309.701 16.232 309.557 16.328 309.389 16.448C309.197 19.136 308.813 22.184 308.549 23.504C308.093 25.64 307.421 26.672 306.125 27.152C305.597 27.368 304.301 27.584 303.725 27.584C303.461 27.584 303.413 27.536 303.389 27.056C303.341 26.432 303.125 26.024 302.645 25.688C302.189 25.376 301.805 25.232 299.405 24.536L299.429 24.2C302.813 24.536 303.485 24.584 304.469 24.584C305.237 24.584 305.453 24.392 305.693 23.312C306.149 21.488 306.509 18.368 306.581 15.656H300.485C299.885 19.184 298.901 21.488 297.077 23.576C295.541 25.304 293.741 26.528 290.789 27.752L290.621 27.536C293.165 25.664 294.485 24.248 295.637 22.208C297.221 19.4 297.965 15.848 297.989 11.048H292.829C292.349 11.048 291.749 11.096 291.149 11.216L290.909 10.304C291.749 10.472 292.421 10.544 292.829 10.544H300.029V7.832C300.029 7.376 300.005 6.944 299.909 5.984C303.005 6.272 303.821 6.416 303.821 6.776C303.821 7.04 303.581 7.184 302.789 7.424L302.741 10.544Z" fill="#006281"/>
<path d="M100.659 60.06H98.0414C98.0854 64.394 98.0854 64.394 98.1514 67.166C98.1514 67.43 98.0854 67.562 97.9534 67.65C97.7334 67.76 97.1174 67.848 96.4574 67.848C95.8194 67.848 95.6874 67.76 95.6654 67.32C95.7534 64.922 95.7534 64.35 95.7974 60.06H93.3334V61.094C93.3114 61.336 93.2674 61.424 93.1354 61.512C92.9154 61.644 92.4534 61.71 91.7494 61.71C91.1334 61.71 90.9574 61.622 90.9574 61.226C91.0014 59.686 91.0014 59.686 91.0454 56.87C90.3194 57.376 89.8134 57.684 88.5814 58.366V62.304C88.5814 63.404 88.5814 63.404 88.5814 64.24C88.6034 65.032 88.6034 65.032 88.6034 65.736C88.6034 66.792 88.2954 67.276 87.4154 67.584C86.9534 67.738 86.2494 67.87 85.8754 67.87C85.6334 67.87 85.5674 67.782 85.5454 67.474C85.5014 66.396 85.0174 65.956 83.2574 65.406L83.2794 65.12C84.8634 65.252 84.9954 65.252 85.9634 65.274C85.9854 65.274 86.0294 65.274 86.0294 65.274C86.2274 65.274 86.2934 65.186 86.2934 64.966V59.598C85.8314 59.84 85.8314 59.84 84.9074 60.28C84.7974 60.94 84.6874 61.138 84.4894 61.138C84.2694 61.138 84.1594 60.808 83.4774 58.168C84.0714 58.146 85.0394 57.992 86.2934 57.684V52.932H85.1714C84.6214 52.932 84.2914 52.954 83.7194 53.064L83.5874 52.272C84.1814 52.426 84.6214 52.47 85.1714 52.47H86.2934V50.16C86.2934 48.884 86.2714 48.532 86.1834 47.542C89.1314 47.828 89.5274 47.894 89.5274 48.224C89.5274 48.444 89.3074 48.576 88.5814 48.84V52.47H88.7134C89.1314 51.832 89.2634 51.634 89.7034 50.952C90.2974 51.7 90.4514 51.92 91.0014 52.646L91.0454 52.756C91.0454 49.06 91.0454 49.06 90.9574 47.806C92.1014 48.312 92.4534 48.488 93.5534 49.104H100.461C100.989 48.51 101.143 48.334 101.693 47.762C102.485 48.334 102.727 48.51 103.475 49.126C103.673 49.302 103.761 49.412 103.761 49.522C103.761 49.698 103.607 49.852 102.969 50.248C102.969 57.112 102.969 57.112 103.057 60.918C103.057 61.138 103.035 61.248 102.969 61.336C102.793 61.512 102.265 61.622 101.451 61.622C100.769 61.622 100.659 61.578 100.659 61.204V60.06ZM100.659 59.598V54.736H98.0414V59.598H100.659ZM100.659 54.274V49.566H98.0414V54.274H100.659ZM95.7974 59.598V59.29V54.736H93.3334V59.598H95.7974ZM95.7974 54.274V49.566H93.3334V54.274H95.7974ZM91.0454 56.562V55.902V55.528C91.0454 55.11 91.0454 54.956 91.0454 54.296C91.0454 53.988 91.0454 53.482 91.0454 52.844C90.9794 52.91 90.9574 52.932 90.8474 52.932H88.5814V57.244C89.5274 57.024 89.9234 56.914 91.0454 56.562ZM118.347 49.962L118.479 49.764C119.513 50.16 120.525 50.424 121.053 50.424C121.141 50.424 121.141 50.424 121.559 50.38C121.647 50.358 121.757 50.358 121.845 50.358C122.439 50.358 122.857 50.732 122.857 51.304C122.857 51.722 122.615 52.074 121.955 52.536C121.119 53.108 119.887 53.724 118.545 54.252C119.557 55.594 120.701 57.222 121.493 58.454C121.999 59.224 122.153 59.686 122.153 60.39C122.153 61.534 121.691 62.216 120.943 62.216C120.503 62.216 120.459 62.172 119.557 61.27C118.523 60.214 116.587 59.576 114.453 59.576C112.099 59.576 110.691 60.456 110.691 61.974C110.691 63.47 112.253 64.372 114.893 64.372C115.839 64.372 116.191 64.328 117.093 64.086C117.247 64.064 117.379 64.042 117.511 64.042C118.391 64.042 119.491 65.032 119.491 65.78C119.491 66.572 118.809 66.836 116.697 66.836C114.937 66.836 113.397 66.616 112.121 66.176C110.185 65.516 108.997 64.108 108.997 62.502C108.997 60.148 111.417 58.63 115.201 58.63C116.719 58.63 118.127 58.806 119.469 59.136C118.985 57.794 118.171 56.364 117.005 54.758C115.355 55.242 113.837 55.484 112.341 55.484C110.933 55.484 110.075 55.242 109.129 54.56C108.491 54.098 108.095 53.724 107.655 53.108L107.853 52.932C108.975 53.79 109.943 54.098 111.417 54.098C112.825 54.098 114.453 53.834 115.817 53.394C114.563 52.074 113.485 51.172 112.517 50.666C111.681 50.248 111.461 50.028 111.461 49.676C111.461 49.016 112.495 48.51 113.859 48.51C114.959 48.51 115.729 48.664 116.653 49.038L116.565 49.302C116.169 49.258 116.103 49.258 115.817 49.258C115.157 49.258 114.783 49.368 114.783 49.61C114.783 49.742 114.915 49.918 115.773 50.864C116.301 51.436 116.345 51.502 116.895 52.184C117.181 52.536 117.181 52.536 117.423 52.822C118.831 52.25 119.337 51.986 120.151 51.436C119.535 50.864 119.447 50.798 118.347 49.962ZM134.341 47.718L134.517 47.586C135.243 48.202 135.705 48.444 136.585 48.686C137.267 48.884 138.037 48.994 138.697 48.994C138.895 48.994 138.895 48.994 139.445 48.95C139.489 48.95 139.533 48.95 139.599 48.95C140.523 48.95 141.645 49.962 141.645 50.798C141.645 51.304 141.271 51.656 140.743 51.656C140.633 51.656 140.479 51.656 140.325 51.634C139.819 51.59 139.577 51.568 139.247 51.568C138.675 51.568 137.641 51.634 136.739 51.766C136.497 51.788 136.497 51.788 135.111 52.008C134.649 52.074 134.605 52.074 134.099 52.14L134.033 51.92C136.915 50.82 137.179 50.71 137.685 50.534C136.585 50.138 136.079 49.852 135.485 49.28C134.957 48.796 134.671 48.378 134.341 47.718ZM131.393 53.57C131.811 54.89 132.163 55.264 132.867 55.264C133.439 55.264 134.033 55.11 136.717 54.296C138.433 53.768 138.543 53.724 138.895 53.504C139.159 53.306 139.247 53.284 139.423 53.284C139.731 53.284 140.127 53.482 140.545 53.834C141.337 54.472 141.799 55.132 141.799 55.594C141.799 55.88 141.601 56.078 141.161 56.298C140.105 56.76 139.445 57.332 135.309 61.27C136.409 60.698 137.069 60.478 137.773 60.478C138.367 60.478 138.873 60.632 139.291 60.984C139.775 61.38 139.995 61.798 140.303 62.942C140.699 64.372 140.985 64.658 142.151 64.658C143.251 64.658 143.735 64.57 144.549 64.218C144.681 64.174 144.769 64.152 144.901 64.152C145.143 64.152 145.605 64.35 145.957 64.636C146.551 65.076 146.881 65.538 146.881 65.934C146.881 66.704 146.045 66.99 143.867 66.99C141.623 66.99 140.435 66.726 139.577 66C139.071 65.56 138.741 65.01 138.543 64.218C138.499 63.932 138.499 63.932 138.323 62.524C138.257 62.04 138.037 61.556 137.773 61.38C137.641 61.292 137.465 61.248 137.201 61.248C135.837 61.248 134.121 62.722 131.987 65.714C131.239 66.77 131.019 66.968 130.645 66.968C130.073 66.968 129.501 65.89 129.501 64.834C129.501 64.482 129.611 64.24 129.853 64.02C130.007 63.866 130.007 63.866 130.777 63.294C132.273 62.216 135.705 58.762 137.949 56.078C138.565 55.352 138.829 54.978 138.829 54.824C138.829 54.758 138.741 54.692 138.609 54.692C138.059 54.692 136.057 55.616 134.121 56.76C133.197 57.31 133.065 57.354 132.735 57.354C132.383 57.354 132.097 57.2 131.855 56.892C131.371 56.276 131.019 55.308 131.019 54.604C131.019 54.23 131.107 53.988 131.393 53.57ZM149.075 51.282C149.559 52.338 150.219 52.844 151.077 52.844C151.781 52.844 152.573 52.668 156.995 51.546C158.095 51.26 158.865 51.084 161.879 50.424C162.759 50.226 163.023 50.138 163.661 49.852C163.969 49.72 164.255 49.654 164.475 49.654C164.871 49.654 165.597 49.918 166.125 50.27C166.697 50.644 166.983 51.062 166.983 51.48C166.983 52.008 166.565 52.338 165.905 52.338C165.773 52.338 165.575 52.316 165.333 52.294C165.047 52.272 164.959 52.272 164.695 52.272C162.693 52.272 160.801 53.152 159.415 54.736C158.293 56.034 157.699 57.53 157.699 59.07C157.699 60.94 158.667 62.392 160.339 63.03C160.889 63.25 161.593 63.382 162.099 63.382C162.143 63.382 162.231 63.382 162.341 63.36C162.429 63.36 162.495 63.36 162.561 63.36C162.979 63.36 163.375 63.514 163.705 63.822C164.233 64.284 164.563 64.9 164.563 65.384C164.563 66.088 164.057 66.44 163.001 66.44C161.417 66.44 159.591 65.78 158.337 64.768C156.841 63.58 156.049 61.864 156.049 59.884C156.049 58.014 156.951 55.99 158.513 54.362C159.371 53.46 160.163 52.888 162.033 51.832C160.119 52.25 157.985 52.888 156.093 53.592C154.223 54.296 153.739 54.516 152.859 55.088C152.463 55.352 152.111 55.462 151.759 55.462C150.571 55.462 148.899 53.372 148.899 51.92C148.899 51.7 148.943 51.568 149.075 51.282ZM170.833 53.35L171.031 53.174C171.867 54.01 172.681 54.362 173.803 54.362C174.485 54.362 175.233 54.252 176.091 54.032C176.113 53.482 176.113 53.218 176.113 52.778C176.113 51.106 176.025 50.314 175.827 49.896C175.563 49.346 175.057 49.038 174.067 48.84C174.485 48.51 174.749 48.422 175.321 48.422C176.223 48.422 177.367 48.664 178.115 49.038C178.643 49.302 178.929 49.676 178.929 50.094C178.929 50.314 178.885 50.468 178.621 50.886C178.269 51.502 178.093 52.206 177.961 53.482C178.863 53.13 179.171 52.954 179.831 52.426C180.161 52.162 180.403 52.052 180.667 52.052C181.085 52.052 181.745 52.272 182.009 52.514C182.163 52.646 182.251 52.844 182.251 53.064C182.251 53.482 181.811 53.834 180.777 54.274C179.743 54.714 178.753 55.022 177.763 55.242C177.675 56.496 177.675 56.936 177.653 58.916C179.831 58.102 181.525 57.75 183.241 57.75C186.563 57.75 188.653 59.378 188.653 61.974C188.653 64.416 186.783 66.308 184.363 66.308C183.043 66.308 181.899 65.714 180.997 64.548C180.447 63.822 180.139 63.162 179.809 61.864L180.051 61.776C181.019 63.492 182.097 64.306 183.417 64.306C185.133 64.306 186.299 63.052 186.299 61.226C186.299 59.598 185.177 58.696 183.131 58.696C181.437 58.696 179.413 59.29 177.675 60.302C177.697 61.292 177.697 61.292 177.807 63.36C177.829 63.734 177.851 64.064 177.851 64.35C177.851 65.142 177.653 65.78 177.235 66.308C176.839 66.814 176.421 67.056 175.981 67.056C175.695 67.056 175.431 66.946 175.211 66.726C175.123 66.616 175.123 66.616 174.749 66.198C173.847 65.142 173.429 64.834 172.615 64.658C172.065 64.548 171.955 64.504 171.735 64.328C171.471 64.13 171.317 63.822 171.317 63.47C171.317 63.03 171.581 62.546 172.109 62.018C173.077 61.072 173.935 60.522 175.981 59.532C176.025 58.212 176.047 56.87 176.091 55.528C175.409 55.638 175.101 55.682 174.595 55.682C172.857 55.682 171.779 55 170.833 53.35ZM175.893 61.204C174.441 62.128 173.341 63.25 173.341 63.756C173.341 63.91 173.451 64.064 173.671 64.196C174.133 64.438 174.815 64.636 175.255 64.636C175.585 64.636 175.673 64.526 175.739 64.108C175.783 63.756 175.893 61.886 175.893 61.204ZM183.703 51.084V50.842C184.165 50.798 184.363 50.798 184.693 50.798C186.013 50.798 187.047 51.04 187.993 51.59C189.005 52.162 189.555 52.954 189.555 53.812C189.555 54.604 189.115 55.066 188.411 55.066C188.213 55.066 188.037 55.022 187.707 54.912C187.399 54.824 187.223 54.78 186.981 54.78C186.497 54.78 185.529 54.934 184.253 55.198L184.165 55C185.859 54.12 186.871 53.482 186.871 53.262C186.871 53.086 186.585 52.624 186.233 52.272C185.573 51.634 184.935 51.326 183.703 51.084ZM194.263 51.656L194.439 51.48C195.451 52.184 196.287 52.448 197.497 52.448C198.487 52.448 200.049 52.184 201.237 51.81C200.709 50.908 199.917 49.94 199.433 49.588C199.037 49.28 198.355 49.104 197.629 49.104C197.585 49.104 197.453 49.104 197.321 49.104C197.563 48.62 197.805 48.466 198.553 48.29C198.993 48.18 199.477 48.136 200.027 48.136C200.951 48.136 201.611 48.268 201.897 48.554C202.139 48.752 202.161 48.84 202.227 49.5C202.249 49.896 202.403 50.292 202.931 51.304C204.691 50.644 205.219 50.358 205.879 49.698C206.033 49.544 206.319 49.456 206.715 49.456C207.639 49.456 208.211 49.786 208.211 50.292C208.211 50.93 207.243 51.414 203.635 52.624C203.811 52.91 203.811 52.91 204.031 53.284C204.141 53.482 204.427 53.988 204.911 54.824C206.253 54.318 206.847 54.054 207.397 53.68C206.957 53.218 206.781 53.064 206.099 52.448L206.231 52.272C207.023 52.668 207.617 52.844 208.145 52.844C208.277 52.844 208.277 52.844 208.805 52.756C208.893 52.734 208.959 52.734 209.025 52.734C209.553 52.734 209.905 53.064 209.905 53.548C209.905 54.384 208.805 55.066 205.659 56.21C206.231 57.2 206.319 57.354 206.539 57.75C207.023 58.586 207.023 58.586 207.485 59.356C207.881 59.994 208.013 60.39 208.013 60.852C208.013 61.424 207.837 62.062 207.595 62.392C207.419 62.656 207.155 62.788 206.847 62.788C206.561 62.788 206.363 62.678 206.033 62.37C205.329 61.666 205.087 61.512 204.449 61.204C203.305 60.654 201.985 60.346 200.819 60.346C198.685 60.346 197.189 61.248 197.189 62.568C197.189 63.866 198.553 64.57 201.083 64.57C201.985 64.57 202.381 64.526 203.503 64.24C203.701 64.174 203.899 64.152 204.031 64.152C204.955 64.152 206.011 65.032 206.011 65.824C206.011 66.198 205.769 66.484 205.307 66.616C204.691 66.814 203.613 66.924 202.315 66.924C199.785 66.924 198.025 66.506 196.837 65.604C196.023 64.966 195.539 64.064 195.539 63.118C195.539 60.984 197.981 59.488 201.435 59.488C202.645 59.488 203.921 59.62 205.637 59.928C205.417 59.136 204.955 58.08 204.185 56.628C202.557 57.156 200.775 57.464 199.301 57.464C197.453 57.464 196.419 56.804 195.539 55.044L195.737 54.89C196.573 55.858 197.321 56.21 198.509 56.21C199.851 56.21 201.523 55.902 203.481 55.308C203.107 54.582 202.689 53.9 202.139 53.086C200.621 53.504 199.279 53.724 198.179 53.724C196.617 53.724 195.297 53.02 194.263 51.656ZM214.855 52.8L215.075 52.668C215.933 53.636 216.571 53.944 217.671 53.944C218.485 53.944 219.387 53.834 220.311 53.614C220.707 52.14 220.949 50.842 220.949 50.072C220.949 49.654 220.795 49.28 220.487 49.016C220.223 48.774 219.937 48.642 219.211 48.444C219.607 48.202 219.761 48.158 220.355 48.158C221.147 48.158 222.093 48.378 222.885 48.752C223.479 49.016 223.853 49.434 223.853 49.83C223.853 50.094 223.831 50.16 223.479 50.6C223.171 51.018 222.929 51.524 222.335 53.042C223.633 52.558 224.051 52.316 224.843 51.656C225.085 51.436 225.349 51.326 225.591 51.326C225.987 51.326 226.625 51.502 226.955 51.722C227.197 51.854 227.307 52.074 227.307 52.36C227.307 53.108 225.701 53.856 221.653 54.978C221.367 55.77 221.367 55.77 220.685 57.816C220.267 59.092 220.267 59.092 219.079 62.568C218.441 64.482 218.111 65.362 217.869 65.802C217.649 66.176 217.341 66.374 216.989 66.374C216.725 66.374 216.439 66.22 216.285 66C215.955 65.538 215.735 64.68 215.735 63.998C215.735 63.404 215.801 63.25 216.285 62.678C217.363 61.358 218.595 58.74 219.805 55.22C219.299 55.308 218.925 55.33 218.375 55.33C216.637 55.33 215.647 54.604 214.855 52.8ZM224.711 57.134L224.623 56.914C226.163 55.704 228.121 54.978 229.859 54.978C231.311 54.978 232.257 55.572 232.257 56.452C232.257 57.068 231.905 57.376 231.179 57.376L230.321 57.354C229.705 57.354 229.067 57.508 228.385 57.838C228.231 57.904 228.231 57.904 227.461 58.344C227.197 58.498 227.131 58.542 226.867 58.696L226.735 58.498L228.957 56.408C228.715 56.408 228.539 56.408 228.407 56.408C227.329 56.408 226.009 56.672 224.711 57.134ZM224.007 60.5L224.271 60.566C224.227 60.984 224.205 61.204 224.205 61.402C224.205 63.294 225.459 64.196 228.055 64.196C229.023 64.196 229.573 64.108 230.453 63.8C230.607 63.734 230.761 63.712 230.893 63.712C231.333 63.712 232.103 64.108 232.543 64.592C232.763 64.834 232.873 65.076 232.873 65.406C232.873 66.176 231.861 66.528 229.595 66.528C227.483 66.528 225.855 66.11 224.931 65.34C224.095 64.636 223.633 63.602 223.633 62.392C223.633 61.732 223.743 61.204 224.007 60.5ZM244.863 56.562L245.083 56.672C244.203 58.96 244.027 59.51 243.763 60.588C243.587 61.336 243.477 62.062 243.477 62.436C243.477 62.832 243.521 63.008 243.785 63.778C243.829 63.954 243.851 64.064 243.851 64.262C243.851 64.856 243.411 65.318 242.795 65.318C241.893 65.318 240.727 64.46 239.891 63.206C238.791 61.534 238.241 59.224 238.241 56.254C238.241 56.1 238.241 56.1 238.285 54.164C238.285 54.01 238.285 53.878 238.285 53.812C238.285 52.052 238.065 51.414 236.987 50.182C237.493 50.182 237.801 50.292 238.483 50.71C239.539 51.326 240.309 52.096 240.749 52.976C240.903 53.284 240.947 53.504 240.947 53.834C240.947 54.032 240.903 54.208 240.793 54.648C240.485 55.682 240.309 56.936 240.309 57.904C240.309 58.872 240.463 59.862 240.749 60.698C240.947 61.292 241.145 61.578 241.607 61.93C243.037 59.466 243.895 58.036 244.863 56.562ZM249.175 52.932L249.263 52.69C251.265 53.02 252.695 53.834 253.817 55.242C254.851 56.518 255.357 57.992 255.357 59.642C255.357 61.138 254.609 62.194 253.531 62.194C253.179 62.194 252.959 62.084 252.651 61.732C252.123 61.138 251.661 61.05 249.285 61.006L249.241 60.786C251.177 60.214 252.013 59.95 252.365 59.796C252.761 59.62 252.827 59.532 252.827 59.092C252.827 58.124 252.541 56.848 252.123 55.924C251.463 54.494 250.539 53.548 249.175 52.932ZM72.8012 87.562C75.5292 88.772 76.6732 90.18 76.6732 92.292C76.6732 95.108 74.3852 96.912 70.7992 96.912C67.3892 96.912 65.2992 95.372 65.2992 92.842C65.2992 91.566 65.8712 90.422 66.9272 89.608C67.4552 89.19 67.9612 88.948 68.9072 88.574C66.5972 87.364 65.7612 86.308 65.7612 84.504C65.7612 81.82 67.8292 80.082 71.0632 80.082C74.0552 80.082 76.0572 81.644 76.0572 83.932C76.0572 85.67 74.9352 86.924 72.8012 87.562ZM72.1412 87.276C72.7352 86.946 72.9772 86.77 73.2852 86.352C73.7472 85.714 73.9672 84.966 73.9672 83.954C73.9672 83.25 73.7692 82.48 73.4612 81.952C72.9552 81.138 72.0752 80.676 70.9532 80.676C69.2152 80.676 68.1372 81.754 68.1372 83.448C68.1372 84.548 68.6212 85.34 69.7432 86.088C70.0732 86.286 70.4912 86.528 71.1732 86.836C71.4152 86.946 72.1412 87.276 72.1412 87.276ZM69.6112 88.926C68.9512 89.278 68.6432 89.52 68.3132 89.916C67.7632 90.554 67.4552 91.522 67.4552 92.578C67.4552 94.844 68.8632 96.34 70.9532 96.34C72.8672 96.34 74.1872 95.042 74.1872 93.172C74.1872 92.072 73.7252 91.28 72.6252 90.488C72.1852 90.158 71.4812 89.784 70.6012 89.366C70.3152 89.234 69.6332 88.926 69.6112 88.926ZM86.2268 96.406L86.1608 96.142C89.0428 95.35 91.3968 94.184 93.0028 92.732C94.4328 91.456 95.2468 89.718 95.2468 87.892C95.2468 85.67 93.7068 84.13 91.4848 84.13C89.5928 84.13 87.4368 85.01 85.1488 86.748C84.1588 87.474 83.8508 87.738 83.2348 88.376C82.9488 88.706 82.5528 88.86 82.1348 88.86C80.7488 88.86 78.9228 86.946 78.9228 85.494C78.9228 85.318 78.9668 85.186 79.0768 84.944C79.5608 85.802 80.0448 86.176 80.6828 86.176C81.2548 86.176 82.0908 85.912 83.3888 85.34C87.1728 83.624 89.2408 83.052 91.5728 83.052C95.3568 83.052 97.9748 85.296 97.9748 88.508C97.9748 91.346 96.1488 93.7 92.8708 95.042C90.9568 95.834 89.1308 96.208 86.2268 96.406ZM109.943 97.22L109.855 96.912C112.209 96.186 113.859 95.218 115.179 93.788C116.653 92.204 117.379 90.268 117.379 88.002C117.379 84.24 115.091 81.996 111.307 81.996C111.021 81.996 110.845 81.996 110.427 82.04C111.197 82.942 111.439 83.536 111.439 84.394C111.439 86.154 110.317 89.234 108.733 91.896C107.303 94.272 106.027 95.482 104.927 95.482C104.443 95.482 103.981 95.218 103.739 94.844C103.563 94.514 103.431 94.206 103.233 93.392C103.101 92.864 102.925 92.556 102.287 91.764C101.759 91.104 101.429 90.136 101.429 89.234C101.429 87.848 102.133 86.176 103.277 84.834C105.169 82.59 108.293 81.226 111.571 81.226C116.477 81.226 119.975 84.328 119.975 88.684C119.975 91.874 118.215 94.426 115.025 95.9C113.661 96.538 112.253 96.912 109.943 97.22ZM109.987 82.106C108.205 82.502 107.017 83.14 105.741 84.394C104.223 85.912 103.387 87.782 103.387 89.63C103.387 91.148 104.135 92.71 104.883 92.71C105.609 92.71 107.061 90.884 108.491 88.178C109.591 86.11 110.251 84.284 110.251 83.316C110.251 83.074 110.229 82.788 110.163 82.59C110.119 82.414 110.009 82.106 109.987 82.106ZM133.879 94.954V97.418H138.741C139.423 96.626 139.643 96.406 140.347 95.636C141.491 96.472 141.821 96.736 142.921 97.616C143.009 97.682 143.031 97.726 143.031 97.77C143.031 97.836 142.965 97.88 142.855 97.88H124.969C124.309 97.88 123.385 97.924 122.923 97.968L122.769 97.22C123.517 97.33 124.485 97.418 124.969 97.418H131.459V94.954H126.333C125.849 94.954 124.837 94.998 124.419 95.042L124.287 94.316C125.013 94.448 125.629 94.492 126.355 94.492H131.459V92.138H127.851V92.666C127.851 93.062 127.719 93.106 126.619 93.128C126.355 93.15 126.135 93.15 125.959 93.172C125.937 93.172 125.915 93.172 125.893 93.172C125.541 93.172 125.387 93.018 125.387 92.71C125.475 91.17 125.497 90.114 125.497 88.508C125.497 86.594 125.475 84.944 125.409 84.24C126.553 84.768 126.905 84.944 128.049 85.56H131.459V83.624H125.167C124.133 83.668 123.517 83.69 123.275 83.712L123.143 82.986C123.869 83.096 124.573 83.162 125.167 83.162H131.459V81.358C128.907 81.534 128.181 81.556 124.463 81.556L124.375 81.27C128.137 80.852 130.733 80.39 133.483 79.664C135.397 79.158 136.607 78.74 137.619 78.212C138.609 78.828 138.609 78.828 140.149 79.928C140.391 80.082 140.479 80.192 140.479 80.302C140.479 80.39 140.347 80.478 140.193 80.478C140.039 80.478 139.885 80.456 139.093 80.302C137.245 80.742 136.211 80.896 133.879 81.138V83.162H138.565C139.269 82.392 139.489 82.15 140.259 81.38C141.337 82.216 141.667 82.48 142.745 83.382C142.811 83.426 142.833 83.47 142.833 83.514C142.833 83.58 142.789 83.624 142.657 83.624H133.879V85.56H137.509C138.059 85.032 138.235 84.856 138.785 84.328C139.665 84.922 139.929 85.12 140.765 85.758C140.875 85.868 140.897 85.934 140.897 86.044C140.897 86.22 140.897 86.22 140.171 86.616V89.938C140.171 90.972 140.193 91.654 140.215 92.512C140.149 92.864 140.039 92.952 139.599 92.996L141.799 94.69C141.865 94.756 141.887 94.8 141.887 94.844C141.887 94.91 141.799 94.954 141.689 94.954H133.879ZM133.879 94.492H137.861C138.477 93.788 138.587 93.656 139.203 93.018C139.093 93.018 139.005 93.04 138.961 93.04C138.631 93.062 138.367 93.062 138.257 93.062C137.883 93.062 137.773 92.996 137.751 92.732V92.138H133.879V94.492ZM133.879 91.676H137.751V88.948H133.879V91.676ZM131.459 91.676V88.948H127.851V91.676H131.459ZM133.879 88.486H137.751V86.022H133.879V88.486ZM131.459 88.486V86.022H127.851V88.486H131.459ZM164.833 90.752H159.949C159.069 92.622 158.651 93.304 157.727 94.338C159.575 94.734 161.071 95.218 161.709 95.614C162.369 96.01 162.743 96.714 162.743 97.528C162.743 98.188 162.479 98.672 162.105 98.672C161.907 98.672 161.643 98.54 161.115 98.166C159.641 97.11 158.365 96.384 156.429 95.526C155.241 96.45 154.009 97.066 152.205 97.616C150.181 98.254 148.289 98.518 145.055 98.672L145.011 98.386C148.025 97.814 149.697 97.286 151.589 96.362C152.645 95.856 153.481 95.328 154.295 94.668C153.019 94.25 152.249 94.008 150.863 93.7L150.247 94.514C150.027 94.8 149.851 94.888 149.477 94.888C148.949 94.888 147.959 94.734 147.695 94.602C147.585 94.558 147.541 94.492 147.541 94.404C147.541 94.338 147.585 94.25 147.673 94.14C148.949 92.6 149.455 91.94 150.247 90.752H146.463C145.913 90.752 145.539 90.796 144.967 90.884L144.813 90.092C145.407 90.224 145.935 90.29 146.463 90.29H150.555C151.501 88.794 151.699 88.42 151.897 87.782C154.999 88.332 154.999 88.332 154.999 88.552C154.999 88.728 154.735 88.86 154.031 88.992C153.635 89.652 153.547 89.806 153.239 90.29H160.873C161.621 89.542 161.841 89.3 162.567 88.64C163.623 89.41 163.953 89.63 164.943 90.444C165.009 90.532 165.053 90.576 165.053 90.642C165.053 90.708 164.965 90.752 164.833 90.752ZM157.243 90.752H152.931C152.447 91.522 151.897 92.314 151.149 93.326C154.515 93.744 154.515 93.744 155.175 93.854C156.055 92.93 156.495 92.27 157.243 90.752ZM158.123 80.148V82.832H160.455C160.961 82.282 161.115 82.128 161.621 81.6C162.435 82.106 162.677 82.282 163.425 82.832C163.623 83.008 163.711 83.096 163.711 83.206C163.711 83.382 163.535 83.536 162.985 83.844C162.985 85.23 162.985 85.23 163.051 87.98C163.051 88.2 163.007 88.288 162.897 88.354C162.721 88.442 162.105 88.508 161.379 88.508C160.785 88.508 160.675 88.442 160.653 88.156V87.628H148.817V88.112C148.817 88.486 148.575 88.574 147.365 88.574C146.661 88.574 146.485 88.508 146.485 88.2C146.485 88.2 146.485 88.156 146.485 88.134C146.529 86.99 146.529 86.572 146.529 85.34C146.529 83.888 146.507 82.942 146.463 81.622C147.629 82.084 147.981 82.238 149.125 82.832H151.281V80.148H146.705C146.177 80.148 145.715 80.192 145.165 80.28L145.033 79.488C145.627 79.62 146.111 79.686 146.705 79.686H160.389C161.093 78.938 161.313 78.74 161.995 78.08C163.183 78.806 163.535 79.048 164.635 79.862C164.723 79.95 164.745 79.994 164.745 80.038C164.745 80.104 164.679 80.148 164.569 80.148H158.123ZM155.901 80.148H153.481V82.832H155.901V80.148ZM151.281 83.294H148.817V87.166H151.281V83.294ZM153.481 83.294V87.166H155.901V83.294H153.481ZM158.123 83.294V87.166H160.653V83.294H158.123ZM167.781 82.942L168.001 82.81C168.991 83.822 169.651 84.13 170.861 84.13C171.411 84.13 172.093 84.064 172.929 83.888C173.435 82.414 173.633 81.49 173.633 80.72C173.633 79.906 173.237 79.466 172.115 79.048C172.423 78.85 172.555 78.806 172.907 78.806C173.611 78.806 174.469 79.026 175.283 79.4C176.097 79.774 176.405 80.104 176.405 80.544C176.405 80.83 176.361 80.94 176.031 81.38C175.767 81.732 175.745 81.754 174.887 83.448C176.163 82.986 176.405 82.876 176.911 82.48C177.329 82.15 177.461 82.084 177.791 82.084C178.737 82.084 179.485 82.524 179.485 83.052C179.485 83.536 179.089 83.866 178.099 84.218C177.087 84.57 175.921 84.878 174.205 85.252C172.357 89.454 171.235 91.962 170.861 92.754C170.113 94.338 169.827 94.668 169.277 94.668C168.947 94.668 168.727 94.514 168.507 94.162C168.287 93.788 168.155 93.216 168.155 92.688C168.155 92.072 168.243 91.874 168.705 91.368C169.871 90.158 171.279 87.848 172.335 85.428C171.917 85.472 171.697 85.494 171.499 85.494C169.695 85.494 168.617 84.768 167.781 82.942ZM180.233 84.46L180.277 84.196C180.497 84.196 180.673 84.196 180.783 84.196C182.147 84.196 183.687 84.614 184.721 85.23C185.491 85.714 185.953 86.396 185.953 87.078C185.953 87.804 185.557 88.288 184.985 88.288C184.787 88.288 184.633 88.222 184.303 88.002C183.621 87.496 182.983 87.32 181.949 87.32C180.541 87.32 180.079 87.694 180.079 88.816C180.079 89.564 180.233 90.598 180.673 92.666C182.015 93.04 183.159 93.524 183.863 94.052C184.545 94.558 184.919 95.24 184.919 96.01C184.919 96.78 184.567 97.33 184.105 97.33C183.841 97.33 183.687 97.22 183.225 96.736C182.433 95.856 181.905 95.438 180.871 94.844C180.871 94.998 180.871 95.13 180.871 95.262C180.871 97.088 179.441 98.166 176.999 98.166C174.799 98.166 173.303 97.088 173.303 95.504C173.303 93.678 175.217 92.358 177.879 92.358C178.187 92.358 178.451 92.38 178.781 92.424C178.759 91.346 178.759 91.28 178.759 91.038C178.759 89.476 178.935 88.596 179.331 87.98C179.925 87.056 180.695 86.682 183.027 86.132C182.411 85.362 181.751 84.966 180.233 84.46ZM178.737 94.162C178.165 93.964 177.549 93.876 176.955 93.876C175.129 93.876 173.985 94.47 173.985 95.438C173.985 96.186 174.711 96.626 176.031 96.626C177.175 96.626 178.011 96.34 178.407 95.812C178.649 95.504 178.759 95.064 178.759 94.47C178.759 94.206 178.759 94.162 178.737 94.162ZM190.903 84.306L191.123 84.152C191.937 85.164 192.597 85.428 194.159 85.428C194.973 85.428 196.249 85.318 197.745 85.098C197.745 82.81 197.723 82.194 197.547 81.666C197.349 81.072 196.711 80.61 195.765 80.412C196.051 80.126 196.271 80.06 196.711 80.06C197.547 80.06 198.911 80.368 199.637 80.72C200.297 81.05 200.583 81.358 200.583 81.754C200.583 82.04 200.539 82.15 200.275 82.59C199.989 83.074 199.857 83.668 199.747 84.746C201.485 84.46 203.047 83.954 203.377 83.58C203.619 83.404 203.729 83.36 204.037 83.36C204.367 83.36 205.093 83.602 205.577 83.888C206.039 84.174 206.259 84.46 206.259 84.79C206.259 85.296 205.907 85.494 204.609 85.67C204.477 85.692 203.993 85.78 203.157 85.89C201.353 86.176 200.209 86.352 199.659 86.418C199.637 87.584 199.637 87.65 199.637 88.002C199.637 90.048 199.725 91.808 199.945 94.074C199.967 94.47 199.989 94.69 199.989 94.954C199.989 96.648 199.175 98.012 198.141 98.012C197.613 98.012 197.371 97.792 197.217 97.132C197.107 96.384 196.161 95.482 193.939 94.052L194.027 93.876C195.523 94.338 196.227 94.492 197.613 94.69C197.701 92.798 197.767 89.388 197.767 86.616C196.359 86.748 195.545 86.814 194.885 86.814C192.795 86.814 191.717 86.132 190.903 84.306ZM193.631 88.376L193.939 88.42C193.895 90.444 193.631 91.94 193.015 93.37C192.465 94.668 191.761 95.372 191.035 95.372C190.419 95.372 189.979 94.668 189.979 93.656C189.979 93.348 190.067 93.018 190.177 92.82C190.309 92.622 190.375 92.578 190.837 92.336C192.245 91.544 193.367 89.916 193.631 88.376ZM202.233 88.288L202.409 88.112C204.279 88.992 205.247 89.608 206.149 90.51C206.919 91.28 207.249 91.94 207.249 92.732C207.249 93.964 206.633 94.976 205.885 94.976C205.445 94.976 205.335 94.8 205.071 93.766C204.455 91.566 203.421 89.542 202.233 88.288ZM205.555 77.882C206.875 77.882 207.931 78.938 207.931 80.258C207.931 81.578 206.875 82.634 205.577 82.634C204.257 82.634 203.179 81.556 203.179 80.258C203.179 78.96 204.257 77.882 205.555 77.882ZM205.555 78.652C204.675 78.652 203.971 79.356 203.971 80.258C203.971 81.138 204.675 81.842 205.555 81.842C206.457 81.842 207.161 81.138 207.161 80.258C207.161 79.356 206.457 78.652 205.555 78.652ZM211.473 92.556L211.363 92.314C214.047 90.752 216.863 88.508 219.569 85.78C221.923 83.404 223.265 81.644 223.265 80.918C223.265 80.456 222.759 79.884 221.945 79.466C222.231 79.4 222.363 79.378 222.649 79.378C223.309 79.378 224.013 79.62 224.871 80.126C225.883 80.72 226.477 81.38 226.477 81.886C226.477 82.282 226.367 82.414 225.597 82.964C225.509 83.03 225.509 83.03 224.167 84.306C222.627 85.736 222.627 85.736 221.065 87.078C221.813 87.562 222.385 88.046 222.583 88.376C222.781 88.684 222.803 88.904 222.825 90.532C222.847 91.544 222.847 91.83 222.979 96.01C223.001 96.318 223.001 96.626 223.001 96.846C223.001 97.748 222.715 98.188 222.099 98.188C221.285 98.188 220.075 96.846 220.075 95.922C220.075 95.702 220.097 95.548 220.207 95.218C220.493 94.316 220.691 91.918 220.691 89.542C220.691 88.42 220.625 88.112 220.317 87.694C218.491 89.08 216.929 90.114 215.609 90.818C214.311 91.5 212.727 92.16 211.473 92.556ZM235.211 82.04L235.321 81.798C237.785 82.194 239.105 82.568 240.139 83.228C240.865 83.668 241.217 84.284 241.217 85.12C241.217 86.154 240.711 86.946 240.029 86.946C239.655 86.946 239.435 86.77 239.105 86.198C238.049 84.284 236.927 83.096 235.211 82.04ZM251.777 82.942L252.041 83.074C250.831 85.604 249.313 87.694 247.091 89.894C245.133 91.83 243.505 93.106 240.711 94.91C240.139 95.284 239.743 95.592 239.523 95.878C239.215 96.252 238.929 96.428 238.599 96.428C238.027 96.428 237.213 95.812 236.443 94.822C235.739 93.92 235.387 93.084 235.387 92.38C235.387 92.182 235.409 92.072 235.497 91.786C236.091 92.798 236.817 93.414 237.411 93.414C238.335 93.414 241.217 91.896 243.835 90.026C247.113 87.672 249.907 85.208 251.777 82.942ZM260.269 79.62C260.599 79.444 260.775 79.4 261.127 79.4C261.787 79.4 262.755 79.664 263.547 80.038C264.515 80.522 264.977 80.984 264.977 81.49C264.977 81.688 264.933 81.798 264.779 82.084C264.515 82.568 264.471 82.744 264.405 83.536C264.361 83.976 264.317 85.406 264.273 86.572C266.253 86.66 268.299 87.1 269.575 87.65C270.697 88.156 271.181 88.816 271.181 89.806C271.181 90.752 270.785 91.368 270.213 91.368C269.883 91.368 269.751 91.28 269.179 90.642C267.771 89.08 266.077 87.87 264.273 87.21C264.273 87.474 264.273 88.618 264.273 90.664C264.273 92.512 264.273 92.512 264.339 95.13C264.361 95.504 264.361 95.812 264.361 96.186C264.361 96.912 264.317 97.264 264.229 97.506C264.097 97.858 263.811 98.056 263.459 98.056C263.063 98.056 262.667 97.814 262.271 97.286C261.809 96.714 261.479 95.966 261.479 95.504C261.479 95.24 261.501 95.152 261.677 94.624C262.051 93.546 262.183 90.994 262.183 85.362C262.183 82.194 262.117 81.358 261.787 80.764C261.545 80.302 261.039 79.906 260.269 79.62Z" fill="#4BCCBE"/>
<rect y="15" width="5" height="72" fill="#006281"/>
<rect x="335" y="15" width="5" height="72" fill="#006281"/>
</svg>
