<svg width="820" height="126" viewBox="0 0 820 126" fill="none" xmlns="http://www.w3.org/2000/svg">
<path d="M130.096 44.6489V48.7931C130.096 50.6631 130.096 51.6233 130.198 59.0526C130.198 59.9623 130.248 60.6193 130.248 61.3268C130.248 63.0957 130.147 63.9043 129.894 64.4603C129.591 65.2689 128.934 65.7743 128.176 65.7743C127.266 65.7743 126.407 65.2184 125.497 64.0054C124.487 62.6409 123.728 60.872 123.728 59.8107C123.728 59.2547 123.779 59.0526 124.133 57.8902C124.992 55.3127 125.295 50.3598 125.295 38.1799C125.295 29.0828 125.144 27.3645 124.436 26.0504C123.83 24.9891 122.718 24.13 120.949 23.4224C121.656 23.0181 122.061 22.917 122.92 22.917C124.638 22.917 127.064 23.6751 129.136 24.888C130.956 25.9494 131.663 26.758 131.663 27.8193C131.663 28.2236 131.562 28.5269 131.259 29.0828C130.349 30.4979 130.299 31.256 130.096 39.3423C135.049 39.696 139.446 40.6057 142.327 41.9198C144.904 43.0316 146.016 44.5478 146.016 46.8726C146.016 48.9953 145.107 50.4104 143.793 50.4104C143.085 50.4104 142.681 50.1577 141.417 48.7426C138.183 45.2048 133.735 42.1219 130.096 40.8584V44.6489ZM138.385 25.0902L138.84 24.231C141.215 24.9891 142.782 25.6461 144.247 26.6569C146.572 28.2236 147.634 29.6893 147.634 31.3065C147.634 32.4689 146.977 33.2776 146.067 33.2776C145.41 33.2776 145.006 32.9743 144.348 31.8119C142.832 29.1839 140.811 26.9602 138.385 25.0902ZM143.59 21.0976L143.995 20.289C146.522 20.8449 148.392 21.5525 149.908 22.5127C151.929 23.8267 152.839 24.9891 152.839 26.4042C152.839 27.6172 152.233 28.4258 151.323 28.4258C150.767 28.4258 150.413 28.1226 149.655 27.0612C147.937 24.5848 146.168 22.8665 143.59 21.0976ZM170.629 25.0397L171.185 24.6859C173.156 26.6064 174.571 27.2634 176.744 27.2634C180.433 27.2634 185.942 25.8483 188.368 24.3321C188.772 24.0289 189.177 23.9278 189.682 23.9278C190.642 23.9278 192.563 24.6859 193.675 25.5451C194.584 26.2021 194.938 26.758 194.938 27.4655C194.938 28.6279 194.13 29.0323 191.047 29.5377C185.993 30.2957 181.091 30.8517 179.069 30.8517C175.127 30.8517 173.055 29.386 170.629 25.0397ZM172.853 66.0775L172.549 65.5721C177.654 61.6301 181.192 58.0418 184.527 53.3922C188.318 48.1361 191.097 42.88 192.563 38.0788C186.094 38.938 183.668 39.3928 179.119 40.6057C175.632 41.5155 174.874 41.7681 173.257 42.5768C172.549 42.9306 171.943 43.0822 171.336 43.0822C169.214 43.0822 165.626 38.6853 165.626 35.9561C165.626 35.6024 165.676 35.3497 165.929 34.7937C167.243 37.068 168.86 38.0788 171.235 38.0788C173.156 38.0788 182.101 36.8153 188.722 35.6529C191.754 35.1475 191.855 35.097 193.018 34.2883C193.473 33.9851 193.877 33.884 194.433 33.884C195.14 33.884 196.303 34.5916 197.718 35.8045C199.285 37.1691 200.043 38.2304 200.043 39.039C200.043 39.696 199.841 39.9993 199.082 40.6057C198.274 41.2628 197.92 41.7681 196.758 43.8908C190.845 55.06 183.314 62.0344 172.853 66.0775ZM210.491 52.8868L210.238 52.3308C216.404 48.7426 222.873 43.5876 229.089 37.3207C234.497 31.8625 237.58 27.8193 237.58 26.1515C237.58 25.0902 236.417 23.7762 234.547 22.8159C235.204 22.6643 235.507 22.6138 236.164 22.6138C237.681 22.6138 239.298 23.1697 241.269 24.3321C243.594 25.6967 244.958 27.2129 244.958 28.3753C244.958 29.285 244.706 29.5882 242.937 30.8517C242.735 31.0033 242.735 31.0033 239.652 33.9346C236.114 37.2196 236.114 37.2196 232.526 40.3025C234.244 41.4144 235.558 42.5262 236.013 43.2843C236.468 43.9919 236.518 44.4973 236.569 48.2372C236.619 50.562 236.619 51.219 236.923 60.8214C236.973 61.529 236.973 62.2365 236.973 62.7419C236.973 64.814 236.316 65.8248 234.901 65.8248C233.031 65.8248 230.251 62.7419 230.251 60.6193C230.251 60.1139 230.302 59.7601 230.555 59.002C231.212 56.9299 231.666 51.4211 231.666 45.9629C231.666 43.3854 231.515 42.6779 230.807 41.7176C226.613 44.9016 223.024 47.2769 219.992 48.8942C217.01 50.4609 213.371 51.9771 210.491 52.8868ZM284.682 26.4042H295.093C296.913 24.4837 297.469 23.8773 299.288 22.1084C301.815 24.0289 302.522 24.6353 304.847 26.6569C305.049 26.9096 305.15 27.0612 305.15 27.1623C305.15 27.3139 304.948 27.4655 304.645 27.4655H284.682V32.1657H291.101C292.364 30.9528 292.768 30.5484 293.981 29.3355C295.851 30.599 296.407 30.9528 298.176 32.2668C298.631 32.57 298.783 32.8227 298.783 33.0754C298.783 33.4797 298.479 33.7829 297.014 34.5916C296.963 36.9669 296.963 38.938 296.963 40.1509C296.963 44.1435 297.064 49.0458 297.165 51.9265C297.165 53.0384 296.559 53.2406 293.628 53.2406C291.657 53.2406 291.505 53.19 291.454 52.4319V51.1684H272.906V52.2803C272.906 53.2911 272.502 53.4427 269.773 53.4427C267.499 53.4427 267.246 53.3416 267.246 52.3814C267.398 46.6705 267.398 45.1037 267.398 39.8982C267.398 34.9959 267.347 33.0754 267.196 29.3355C269.925 30.4474 270.733 30.8517 273.26 32.1657H279.123V27.4655H263.658C262.192 27.4655 261.333 27.5666 260.272 27.7688L259.968 25.9999C261.232 26.3031 262.192 26.4042 263.607 26.4042H279.123V25.9999C279.123 23.574 279.072 22.7149 278.82 20.4911C286.603 21.2998 286.855 21.3503 286.855 22.0578C286.855 22.5632 286.299 22.8665 284.682 23.2708V26.4042ZM272.906 37.9272H291.454V33.227H272.906V37.9272ZM291.454 38.9885H272.906V43.7392H291.454V38.9885ZM291.454 44.8005H272.906V50.1071H291.454V44.8005ZM262.95 55.3127H296.256C298.075 53.4932 298.631 52.9373 300.4 51.1684C302.927 52.9879 303.634 53.5943 306.01 55.5654C306.262 55.7675 306.363 55.9191 306.363 56.0707C306.363 56.2224 306.111 56.374 305.807 56.374H262.95C261.282 56.374 260.625 56.4245 259.311 56.7278L258.958 54.8578C260.373 55.2116 261.333 55.3127 262.95 55.3127ZM259.21 67.0883L259.008 66.5829C263.152 64.7635 265.427 63.5 268.105 61.529C270.228 59.9117 271.34 58.9009 272.805 57.0815C274.473 57.688 275.737 58.1429 276.545 58.4461C279.83 59.558 280.538 59.9117 280.538 60.4171C280.538 60.9225 279.881 61.1752 278.415 61.1752C278.264 61.1752 277.91 61.1752 277.607 61.1752C271.441 64.6624 267.802 65.8248 259.21 67.0883ZM284.025 58.4461L284.177 57.9912C293.223 58.3956 296.609 58.9009 298.884 60.215C300.45 61.0741 301.36 62.7925 301.36 64.814C301.36 66.4313 300.652 67.4926 299.591 67.4926C298.985 67.4926 298.58 67.2905 297.57 66.4818C296.761 65.7743 294.234 63.9043 293.072 63.1462C290.646 61.529 288.624 60.4677 284.025 58.4461ZM334.817 28.8806H330.066C329.915 31.3065 329.864 31.7108 329.561 33.1259C328.399 38.4831 325.265 42.0714 319.756 44.2446C317.33 45.2048 314.803 45.8113 310.71 46.4683L310.407 45.8113C316.724 43.7392 320.413 41.0606 322.637 37.0175C323.951 34.541 324.507 32.2668 324.558 28.8806H317.533C317.533 29.0828 317.533 29.2344 317.533 29.285C317.533 31.4581 317.027 33.7324 316.32 34.9454C315.41 36.4615 314.146 37.3207 312.782 37.3207C311.215 37.3207 309.952 35.8045 309.952 33.9346C309.952 32.6205 310.356 32.0646 311.721 31.3065C313.54 30.3463 314.349 29.6387 315.157 28.4763C315.865 27.3645 316.168 26.4042 316.37 24.4332H316.926C317.28 25.9999 317.381 26.6064 317.482 27.8193H329.611V24.4332C329.611 22.6138 329.561 22.1589 329.359 20.6428C336.636 21.1481 337.748 21.3503 337.748 22.1589C337.748 22.7149 337.293 22.9676 335.322 23.4729V27.8193H346.643C347.907 26.4548 348.311 26.0504 349.574 24.7364C352.051 26.4548 352.809 27.0107 355.134 28.9312C355.538 29.285 355.639 29.5377 355.639 29.7904C355.639 29.942 355.538 30.1441 355.437 30.2452C355.285 30.3968 354.78 30.5484 354.123 30.5484L353.011 30.599C352.607 30.6495 352.253 30.7001 351.849 30.7506C349.322 32.57 348.109 33.3281 344.773 35.2486L344.369 35.0464C345.582 32.7216 345.936 31.7614 346.795 28.8806H339.972V37.7755C339.972 38.8874 340.275 38.9885 344.318 38.9885C348.412 38.9885 348.968 38.8874 349.574 38.0282C349.979 37.4723 350.737 35.754 352.152 32.3679H352.708L352.607 36.8658L352.556 37.6239C352.556 38.1293 352.657 38.2304 353.567 38.6347C354.628 39.0896 355.033 39.595 355.033 40.5047C355.033 41.6165 354.325 42.4757 353.163 42.7789C351.849 43.1327 348.715 43.3349 343.712 43.3349C338.456 43.3349 336.94 43.1832 335.878 42.4757C335.12 41.9703 334.817 41.1111 334.817 39.5444V28.8806ZM335.474 50.006V63.5506H345.279C347.149 61.4279 347.705 60.8214 349.574 58.9009C352.101 60.9225 352.91 61.5795 355.437 63.7527C355.589 63.9549 355.69 64.1065 355.69 64.2581C355.69 64.4603 355.488 64.6119 355.184 64.6119H315.006C313.742 64.6119 312.731 64.713 310.71 65.0162L310.103 62.9946C312.58 63.3989 314.096 63.5506 315.41 63.5506H329.561V50.006H318.644C317.836 50.006 317.229 50.1071 314.955 50.4609L314.5 48.5404C316.421 48.7931 317.937 48.9447 318.948 48.9447H342.196C343.762 47.0242 344.268 46.4683 345.936 44.5983C348.564 46.5694 349.372 47.2264 352 49.2985C352.152 49.4501 352.253 49.5512 352.253 49.6523C352.253 49.8544 352.051 50.006 351.798 50.006H335.474ZM365.393 33.9346L365.899 33.5808C367.769 35.9056 369.285 36.5121 372.873 36.5121C374.743 36.5121 377.674 36.2594 381.111 35.754C381.111 30.4979 381.06 29.0828 380.656 27.8699C380.201 26.5053 378.736 25.444 376.562 24.9891C377.219 24.3321 377.725 24.1805 378.736 24.1805C380.656 24.1805 383.79 24.888 385.457 25.6967C386.973 26.4548 387.631 27.1623 387.631 28.072C387.631 28.729 387.529 28.9817 386.923 29.9925C386.266 31.1044 385.963 32.4689 385.71 34.9454C389.703 34.2883 393.291 33.1259 394.049 32.2668C394.605 31.8625 394.858 31.7614 395.565 31.7614C396.323 31.7614 397.991 32.3173 399.103 32.9743C400.164 33.6313 400.67 34.2883 400.67 35.0464C400.67 36.2088 399.861 36.6637 396.879 37.068C396.576 37.1185 395.464 37.3207 393.544 37.5734C389.399 38.2304 386.771 38.6347 385.508 38.7863C385.457 41.4649 385.457 41.6165 385.457 42.4252C385.457 47.1253 385.659 51.1684 386.165 56.374C386.215 57.2837 386.266 57.7891 386.266 58.3956C386.266 62.2871 384.396 65.4205 382.021 65.4205C380.808 65.4205 380.252 64.9151 379.898 63.3989C379.645 61.6806 377.472 59.6085 372.368 56.3234L372.57 55.9191C376.006 56.9805 377.624 57.3342 380.808 57.7891C381.01 53.4427 381.161 45.6091 381.161 39.2412C377.927 39.5444 376.057 39.696 374.541 39.696C369.74 39.696 367.263 38.1293 365.393 33.9346ZM371.66 43.2843L372.368 43.3854C372.267 48.035 371.66 51.4717 370.245 54.7567C368.982 57.7385 367.364 59.3558 365.696 59.3558C364.281 59.3558 363.271 57.7385 363.271 55.4137C363.271 54.7062 363.473 53.9481 363.725 53.4932C364.029 53.0384 364.18 52.9373 365.242 52.3814C368.476 50.562 371.054 46.8221 371.66 43.2843ZM391.421 43.0822L391.825 42.6779C396.121 44.6994 398.345 46.1145 400.417 48.1866C402.186 49.9555 402.944 51.4717 402.944 53.2911C402.944 56.1213 401.529 58.4461 399.81 58.4461C398.8 58.4461 398.547 58.0418 397.941 55.6664C396.525 50.6125 394.15 45.9629 391.421 43.0822ZM399.052 19.1771C402.085 19.1771 404.511 21.603 404.511 24.6353C404.511 27.6677 402.085 30.0936 399.103 30.0936C396.071 30.0936 393.594 27.6172 393.594 24.6353C393.594 21.6535 396.071 19.1771 399.052 19.1771ZM399.052 20.946C397.031 20.946 395.414 22.5632 395.414 24.6353C395.414 26.6569 397.031 28.2742 399.052 28.2742C401.124 28.2742 402.742 26.6569 402.742 24.6353C402.742 22.5632 401.124 20.946 399.052 20.946ZM416.64 28.729L416.893 28.1731C422.553 29.0828 425.585 29.942 427.961 31.4581C429.629 32.4689 430.437 33.884 430.437 35.8045C430.437 38.1799 429.275 39.9993 427.708 39.9993C426.849 39.9993 426.344 39.595 425.585 38.2809C423.16 33.884 420.582 31.1549 416.64 28.729ZM454.696 30.8011L455.303 31.1044C452.523 36.9164 449.036 41.7176 443.931 46.7715C439.433 51.219 435.693 54.1503 429.275 58.2945C427.961 59.1536 427.051 59.8612 426.546 60.5182C425.838 61.3774 425.181 61.7817 424.423 61.7817C423.109 61.7817 421.239 60.3666 419.47 58.0923C417.853 56.0202 417.044 54.0997 417.044 52.4825C417.044 52.0276 417.095 51.7749 417.297 51.1179C418.662 53.4427 420.329 54.8578 421.694 54.8578C423.817 54.8578 430.437 51.3706 436.451 47.0748C443.982 41.6671 450.4 36.0067 454.696 30.8011ZM470.009 65.9764L469.656 65.471C473.901 62.2871 476.529 59.8612 479.915 55.8686C484.969 49.8544 489.568 42.2735 492.499 34.8948C493.106 33.3786 493.46 32.2162 493.46 31.7108C493.46 31.3571 493.156 31.2054 492.55 31.2054C490.731 31.2054 486.131 32.1152 481.785 33.2776C477.995 34.2883 476.024 35.0464 473.749 36.2088C473.244 36.5121 472.536 36.6637 471.93 36.6637C470.464 36.6637 468.797 35.2991 467.179 32.8732C466.27 31.4076 465.815 30.2957 465.815 29.285C465.815 28.8806 465.865 28.6279 466.118 27.9709C467.331 30.3463 468.898 31.3065 471.425 31.3065C473.598 31.3065 479.511 30.4979 487.799 29.0828C491.59 28.4258 491.994 28.3247 493.308 27.5666C493.662 27.415 494.117 27.2634 494.42 27.2634C495.178 27.2634 496.795 28.2236 498.16 29.4871C499.878 31.0538 500.838 32.3679 500.838 33.2776C500.838 33.9851 500.636 34.3894 499.929 35.097C499.019 36.0572 498.817 36.3099 497.806 38.2304C490.276 52.7857 481.684 61.3268 470.009 65.9764ZM504.225 19.3793C507.257 19.3793 509.683 21.8052 509.683 24.8375C509.683 27.8699 507.257 30.2957 504.275 30.2957C501.243 30.2957 498.766 27.8193 498.766 24.8375C498.766 21.8557 501.243 19.3793 504.225 19.3793ZM504.225 21.1481C502.203 21.1481 500.586 22.7654 500.586 24.8375C500.586 26.8591 502.203 28.4763 504.225 28.4763C506.297 28.4763 507.914 26.8591 507.914 24.8375C507.914 22.7654 506.297 21.1481 504.225 21.1481ZM533.183 63.6011L532.981 62.8935C538.389 61.2258 542.179 59.002 545.212 55.717C548.598 52.0782 550.266 47.6307 550.266 42.4252C550.266 33.7829 545.01 28.6279 536.317 28.6279C535.66 28.6279 535.256 28.6279 534.295 28.729C536.064 30.8011 536.62 32.1657 536.62 34.1367C536.62 38.1799 534.043 45.2554 530.404 51.3706C527.119 56.8288 524.187 59.6085 521.661 59.6085C520.549 59.6085 519.487 59.002 518.931 58.1429C518.527 57.3848 518.224 56.6772 517.769 54.8073C517.466 53.5943 517.061 52.8868 515.596 51.0674C514.383 49.5512 513.625 47.3275 513.625 45.2554C513.625 42.0714 515.242 38.2304 517.87 35.1475C522.216 29.9925 529.393 26.8591 536.923 26.8591C548.194 26.8591 556.229 33.9851 556.229 43.9919C556.229 51.3201 552.186 57.1826 544.858 60.5687C541.725 62.0344 538.49 62.8935 533.183 63.6011ZM533.285 28.8806C529.191 29.7904 526.462 31.256 523.53 34.1367C520.043 37.6239 518.123 41.9198 518.123 46.1651C518.123 49.6523 519.841 53.2406 521.559 53.2406C523.227 53.2406 526.563 49.0458 529.848 42.8295C532.375 38.0788 533.891 33.884 533.891 31.6603C533.891 31.1044 533.84 30.4474 533.689 29.9925C533.588 29.5882 533.335 28.8806 533.285 28.8806ZM572.705 44.0424L572.655 56.0707C573.564 57.9407 574.272 58.5977 576.091 59.4063C580.236 56.0707 581.752 54.403 583.217 51.7244C586.098 52.5835 589.029 53.5943 589.535 53.847C589.939 54.0492 590.091 54.2008 590.091 54.4535C590.091 54.6557 589.939 54.8578 589.787 54.9083C589.484 55.0094 588.979 55.1105 588.271 55.1105C588.12 55.1105 587.968 55.161 587.715 55.161C584.38 57.3848 581.701 58.5977 577.052 59.8107C579.174 60.4677 582.409 60.7709 587.26 60.7709C591.86 60.7709 591.86 60.7709 604.343 60.0128C607.274 59.8107 607.779 59.8107 609.599 59.6085L609.649 60.1139C607.476 61.1752 606.819 62.0849 606.314 64.8646C606.213 65.3194 606.061 65.471 605.455 65.471C604.646 65.5216 594.336 65.6732 591.91 65.6732C584.936 65.6732 581.347 65.3194 578.921 64.3592C575.586 63.0452 573.564 60.7709 571.593 56.2224C569.016 60.5687 568.51 61.2763 565.983 64.3592C566.085 64.9657 566.135 65.4205 566.135 65.6227C566.135 66.2291 565.882 66.684 565.478 66.684C565.175 66.684 564.771 66.2291 564.316 65.4205C562.294 61.7311 562.294 61.7311 561.334 59.7096C563.558 58.9009 563.962 58.6988 567.399 56.7783V42.7284H564.518C563.456 42.7284 562.901 42.7789 562.041 42.9811L561.485 41.3133C562.799 41.566 563.76 41.6671 564.518 41.6671H566.994C568.106 40.3025 568.51 39.8477 569.824 38.4831C571.593 39.7971 572.099 40.2014 573.817 41.5155C574.171 41.8692 574.373 42.1725 574.373 42.3241C574.373 42.5768 574.12 42.9306 573.766 43.1832C573.008 43.7897 573.008 43.7897 572.705 44.0424ZM589.737 30.599L589.434 32.5195C589.434 32.57 589.434 32.57 589.434 32.57C589.434 32.8227 589.636 33.0249 590.141 33.1765C590.899 33.4292 591.304 33.9851 591.304 34.7937C591.304 35.8045 590.697 36.5121 589.636 36.9164C588.878 37.1691 586.603 37.3712 584.279 37.3712C582.459 37.3712 579.275 37.2702 578.77 37.2196C576.293 36.9164 575.738 36.2594 575.738 33.4797C575.738 33.3786 575.738 33.227 575.738 32.9743C575.788 31.5087 575.839 30.9022 575.839 28.9817C575.839 27.7182 575.788 27.0612 575.586 25.7472C577.759 26.7075 578.467 27.0612 580.589 28.2236H584.936V24.0289H578.113C577.052 24.0289 576.142 24.13 574.929 24.2816L574.525 22.5632C575.586 22.8159 576.95 22.9676 578.113 22.9676H584.582C585.643 21.8557 585.997 21.5525 587.109 20.5417C588.372 21.4008 589.535 22.26 590.697 23.1192C591 23.3719 591.101 23.5235 591.101 23.6751C591.101 24.0794 591 24.1805 589.686 25.1407C589.636 25.6461 589.636 25.8988 589.636 26.2526C589.636 26.5053 589.636 26.8085 589.636 27.2634C589.686 28.4258 589.686 28.6785 589.686 29.5882C589.535 30.3968 588.827 30.599 586.149 30.599C585.289 30.599 585.037 30.4474 584.936 29.8409V29.285H580.337V32.6205C580.337 33.3786 580.438 33.5808 581.095 33.6313C581.297 33.6819 582.813 33.7324 584.076 33.7324C584.38 33.7324 584.632 33.7324 584.885 33.7324C584.986 33.7324 585.138 33.7324 585.239 33.7324C587.159 33.7324 587.513 33.3786 589.333 30.4979L589.737 30.599ZM605.96 30.5484L606.314 30.6495L606.112 32.1152V32.2668C606.213 32.7722 606.263 32.8227 606.971 33.0754C608.032 33.4292 608.487 33.9346 608.487 34.7937C608.487 35.5013 608.032 36.2088 607.274 36.6131C606.263 37.1185 604.444 37.3207 600.249 37.3207C599.794 37.3207 599.289 37.3207 598.783 37.3207C598.278 37.3712 597.924 37.3712 597.773 37.3712C595.65 37.3712 593.78 36.9669 593.275 36.4615C592.668 35.754 592.618 35.5013 592.567 31.2054C592.517 28.0215 592.466 26.2526 592.415 25.8988C594.639 26.6569 595.296 26.9602 597.419 28.2236H601.715V24.0289H594.69C593.729 24.0289 593.123 24.0794 592.011 24.2816L591.657 22.6643C592.618 22.8159 594.134 22.9676 594.69 22.9676H601.361C602.321 21.8557 602.624 21.5525 603.635 20.4911C605.303 21.603 605.808 21.9568 607.426 23.2203C607.729 23.4224 607.83 23.574 607.83 23.7256C607.83 23.9783 607.628 24.2816 607.325 24.4837C606.668 24.9386 606.668 24.9386 606.465 25.0902C606.465 25.3934 606.465 25.5451 606.465 25.6967V28.9312C606.465 29.0828 606.465 29.285 606.516 29.5882C606.415 30.3463 605.556 30.599 603.079 30.599C602.018 30.599 601.765 30.4474 601.715 29.7904V29.285H597.166V32.8732C597.166 33.4292 597.419 33.6313 598.126 33.6313L598.632 33.5808C599.238 33.5808 599.39 33.5808 600.401 33.6313C600.502 33.6313 600.653 33.6313 600.754 33.6313C602.422 33.6313 603.433 33.4797 603.837 33.1765C604.09 33.0249 604.494 32.57 605 31.913L605.505 31.1549C605.657 30.9528 605.808 30.7506 605.96 30.5484ZM587.412 43.0822H593.628V41.6671C593.628 40.252 593.578 39.6455 593.376 38.2809C598.379 38.5842 600.199 38.938 600.199 39.595C600.199 39.9993 599.693 40.3025 598.581 40.7068V43.0822H600.3C601.411 41.7176 601.816 41.2628 602.978 39.8982C604.899 41.3638 605.455 41.8692 607.375 43.4865C607.527 43.6381 607.628 43.7897 607.628 43.8403C607.628 44.0424 607.375 44.1435 607.072 44.1435H598.581V50.2082H601.007C602.372 48.5909 602.776 48.1361 604.141 46.6705C606.162 48.3382 606.769 48.8436 608.689 50.5114C608.841 50.6631 608.942 50.8147 608.942 50.9157C608.942 51.1179 608.689 51.2695 608.386 51.2695H577.709C577.506 51.2695 577.203 51.2695 576.748 51.3201C576.698 51.3201 576.546 51.3706 576.445 51.3706C576.041 51.3706 576.041 51.3706 575.636 51.4717C575.384 51.5222 575.384 51.5222 575.182 51.5222L574.676 49.8039C575.788 50.0566 577.001 50.2082 577.709 50.2082H582.409V44.1435H579.124C578.82 44.1435 577.961 44.194 576.597 44.3456L576.243 42.6779C577.304 42.9306 578.264 43.0822 579.124 43.0822H582.409V41.7681C582.409 40.3025 582.358 39.595 582.105 38.2809C583.116 38.3315 583.874 38.382 584.329 38.4326C585.441 38.5842 586.149 38.6347 586.452 38.6347C588.12 38.6853 589.08 39.039 589.08 39.595C589.08 39.9993 588.574 40.3531 587.412 40.7574V43.0822ZM587.412 44.1435V50.2082H593.628V44.1435H587.412ZM592.82 52.7857L593.072 52.3308C596.509 52.6341 598.682 52.9373 600.552 53.3922C601.816 53.6954 603.029 54.2513 603.736 54.9083C604.292 55.4137 604.545 56.0707 604.545 57.1321C604.545 58.7999 603.635 59.8612 602.271 59.8612C601.462 59.8612 600.906 59.5074 599.946 58.4461C597.874 55.9697 595.498 54.0997 592.82 52.7857ZM563.204 21.8052L563.608 21.4514C564.316 21.8557 564.316 21.8557 566.994 23.2708C571.088 25.4945 572.857 27.3139 572.857 29.4366C572.857 31.6603 570.936 34.0862 569.167 34.0862C568.258 34.0862 567.853 33.5303 567.348 31.5592C566.186 27.0107 565.326 24.9891 563.204 21.8052ZM615.108 27.8699L615.613 27.4655C617.028 29.2344 618.089 29.7904 620.111 29.7904C623.093 29.7904 626.681 28.6279 628.905 26.9096C629.764 26.3031 630.067 26.1515 630.471 26.1515C632.19 26.1515 634.767 28.3753 634.767 29.8914C634.767 30.6495 634.464 30.9528 632.796 31.7614C631.129 32.5195 628.602 34.44 626.934 36.2594C622.79 40.5552 620.515 45.7102 620.515 50.562C620.515 56.9805 624.255 60.872 630.471 60.872C635.121 60.872 639.063 58.5977 641.388 54.6051C643.056 51.6233 644.016 47.1758 644.016 42.0714C644.016 37.9777 643.359 33.6819 642.247 29.9925C641.489 27.5666 641.489 27.5666 641.489 27.0107C641.489 26.101 642.247 25.3429 643.106 25.3429C644.067 25.3429 645.381 25.9494 646.29 26.9096C647.301 27.8699 647.352 27.9709 647.655 29.9925C648.009 32.9743 649.727 37.4218 652.052 41.5155C653.214 43.537 653.972 44.3962 655.741 45.9124C656.802 46.8221 657.308 48.3382 657.308 50.562C657.308 52.7857 656.55 54.1503 655.286 54.1503C653.922 54.1503 652.557 52.6341 650.536 48.8942C648.514 45.0532 646.846 40.8584 644.724 34.1873H644.572C645.936 41.566 646.189 43.6886 646.189 47.5296C646.189 53.9481 644.673 58.7493 641.641 61.9838C639.114 64.6624 635.273 66.2291 631.179 66.2291C623.143 66.2291 618.039 60.3666 618.039 51.1179C618.039 44.8005 620.06 39.2917 624.71 32.8732C623.396 33.0754 622.739 33.1259 621.981 33.1259C618.544 33.1259 616.624 31.6098 615.108 27.8699ZM646.846 22.3105L647.402 21.5525C649.727 22.5632 651.243 23.4729 652.456 24.6353C654.427 26.3537 655.286 27.8193 655.286 29.3355C655.286 30.6495 654.68 31.4581 653.669 31.4581C652.86 31.4581 652.456 31.1044 651.9 29.7398C650.788 27.0107 649.222 24.6353 646.846 22.3105ZM652.81 19.5309L653.315 18.8233C655.792 19.733 657.561 20.6428 658.875 21.7546C660.643 23.2708 661.351 24.3827 661.351 25.6461C661.351 27.0107 660.744 27.8193 659.835 27.8193C659.329 27.8193 658.925 27.5666 658.571 27.0107C658.369 26.758 658.369 26.758 657.561 25.2418C656.348 23.1192 654.932 21.4008 652.81 19.5309ZM688.996 30.5484H700.013C701.681 28.5269 702.187 27.9204 703.905 25.9999C706.432 27.9709 707.241 28.5774 709.717 30.7001C709.97 30.9022 710.071 31.1044 710.071 31.256C710.071 31.4581 709.818 31.6098 709.464 31.6098H685.054C685.003 34.3389 684.7 38.1799 684.397 40.252H696.627C698.093 38.6347 698.093 38.6347 699.609 36.9669C701.226 38.1293 702.692 39.2412 704.057 40.252C704.663 40.8584 704.865 41.1617 704.865 41.4649C704.865 41.6165 704.764 41.8187 704.562 41.9198C704.41 42.0714 704.158 42.223 703.804 42.4252C703.652 42.5262 703.349 42.7284 702.995 42.9811C702.591 48.6415 701.782 55.06 701.226 57.8396C700.266 62.3376 698.851 64.5108 696.122 65.5216C695.01 65.9764 692.281 66.4313 691.068 66.4313C690.512 66.4313 690.411 66.3302 690.36 65.3194C690.259 64.0054 689.805 63.1462 688.794 62.4387C687.834 61.7817 687.025 61.4784 681.971 60.0128L682.021 59.3053C689.148 60.0128 690.563 60.1139 692.635 60.1139C694.252 60.1139 694.707 59.7096 695.212 57.4353C696.172 53.5943 696.931 47.0242 697.082 41.3133H684.245C682.982 48.7426 680.91 53.5943 677.069 57.9912C673.834 61.6301 670.044 64.2076 663.827 66.7851L663.474 66.3302C668.831 62.3882 671.61 59.4063 674.036 55.1105C677.372 49.1974 678.939 41.7176 678.989 31.6098H668.123C667.112 31.6098 665.849 31.7108 664.585 31.9635L664.08 30.043C665.849 30.3968 667.264 30.5484 668.123 30.5484H683.285V24.8375C683.285 23.8773 683.234 22.9676 683.032 20.946C689.552 21.5525 691.27 21.8557 691.27 22.6138C691.27 23.1697 690.765 23.4729 689.097 23.9783L688.996 30.5484Z" fill="#006281"/>
<rect width="6" height="126" fill="#006281"/>
<rect x="814" width="6" height="126" fill="#006281"/>
<path d="M184.764 105.44H181.432C181.488 110.956 181.488 110.956 181.572 114.484C181.572 114.82 181.488 114.988 181.32 115.1C181.04 115.24 180.256 115.352 179.416 115.352C178.604 115.352 178.436 115.24 178.408 114.68C178.52 111.628 178.52 110.9 178.576 105.44H175.44V106.756C175.412 107.064 175.356 107.176 175.188 107.288C174.908 107.456 174.32 107.54 173.424 107.54C172.64 107.54 172.416 107.428 172.416 106.924C172.472 104.964 172.472 104.964 172.528 101.38C171.604 102.024 170.96 102.416 169.392 103.284V108.296C169.392 109.696 169.392 109.696 169.392 110.76C169.42 111.768 169.42 111.768 169.42 112.664C169.42 114.008 169.028 114.624 167.908 115.016C167.32 115.212 166.424 115.38 165.948 115.38C165.64 115.38 165.556 115.268 165.528 114.876C165.472 113.504 164.856 112.944 162.616 112.244L162.644 111.88C164.66 112.048 164.828 112.048 166.06 112.076C166.088 112.076 166.144 112.076 166.144 112.076C166.396 112.076 166.48 111.964 166.48 111.684V104.852C165.892 105.16 165.892 105.16 164.716 105.72C164.576 106.56 164.436 106.812 164.184 106.812C163.904 106.812 163.764 106.392 162.896 103.032C163.652 103.004 164.884 102.808 166.48 102.416V96.368H165.052C164.352 96.368 163.932 96.396 163.204 96.536L163.036 95.528C163.792 95.724 164.352 95.78 165.052 95.78H166.48V92.84C166.48 91.216 166.452 90.768 166.34 89.508C170.092 89.872 170.596 89.956 170.596 90.376C170.596 90.656 170.316 90.824 169.392 91.16V95.78H169.56C170.092 94.968 170.26 94.716 170.82 93.848C171.576 94.8 171.772 95.08 172.472 96.004L172.528 96.144C172.528 91.44 172.528 91.44 172.416 89.844C173.872 90.488 174.32 90.712 175.72 91.496H184.512C185.184 90.74 185.38 90.516 186.08 89.788C187.088 90.516 187.396 90.74 188.348 91.524C188.6 91.748 188.712 91.888 188.712 92.028C188.712 92.252 188.516 92.448 187.704 92.952C187.704 101.688 187.704 101.688 187.816 106.532C187.816 106.812 187.788 106.952 187.704 107.064C187.48 107.288 186.808 107.428 185.772 107.428C184.904 107.428 184.764 107.372 184.764 106.896V105.44ZM184.764 104.852V98.664H181.432V104.852H184.764ZM184.764 98.076V92.084H181.432V98.076H184.764ZM178.576 104.852V104.46V98.664H175.44V104.852H178.576ZM178.576 98.076V92.084H175.44V98.076H178.576ZM172.528 100.988V100.148V99.672C172.528 99.14 172.528 98.944 172.528 98.104C172.528 97.712 172.528 97.068 172.528 96.256C172.444 96.34 172.416 96.368 172.276 96.368H169.392V101.856C170.596 101.576 171.1 101.436 172.528 100.988ZM207.556 92.588L207.724 92.336C209.04 92.84 210.328 93.176 211 93.176C211.112 93.176 211.112 93.176 211.644 93.12C211.756 93.092 211.896 93.092 212.008 93.092C212.764 93.092 213.296 93.568 213.296 94.296C213.296 94.828 212.988 95.276 212.148 95.864C211.084 96.592 209.516 97.376 207.808 98.048C209.096 99.756 210.552 101.828 211.56 103.396C212.204 104.376 212.4 104.964 212.4 105.86C212.4 107.316 211.812 108.184 210.86 108.184C210.3 108.184 210.244 108.128 209.096 106.98C207.78 105.636 205.316 104.824 202.6 104.824C199.604 104.824 197.812 105.944 197.812 107.876C197.812 109.78 199.8 110.928 203.16 110.928C204.364 110.928 204.812 110.872 205.96 110.564C206.156 110.536 206.324 110.508 206.492 110.508C207.612 110.508 209.012 111.768 209.012 112.72C209.012 113.728 208.144 114.064 205.456 114.064C203.216 114.064 201.256 113.784 199.632 113.224C197.168 112.384 195.656 110.592 195.656 108.548C195.656 105.552 198.736 103.62 203.552 103.62C205.484 103.62 207.276 103.844 208.984 104.264C208.368 102.556 207.332 100.736 205.848 98.692C203.748 99.308 201.816 99.616 199.912 99.616C198.12 99.616 197.028 99.308 195.824 98.44C195.012 97.852 194.508 97.376 193.948 96.592L194.2 96.368C195.628 97.46 196.86 97.852 198.736 97.852C200.528 97.852 202.6 97.516 204.336 96.956C202.74 95.276 201.368 94.128 200.136 93.484C199.072 92.952 198.792 92.672 198.792 92.224C198.792 91.384 200.108 90.74 201.844 90.74C203.244 90.74 204.224 90.936 205.4 91.412L205.288 91.748C204.784 91.692 204.7 91.692 204.336 91.692C203.496 91.692 203.02 91.832 203.02 92.14C203.02 92.308 203.188 92.532 204.28 93.736C204.952 94.464 205.008 94.548 205.708 95.416C206.072 95.864 206.072 95.864 206.38 96.228C208.172 95.5 208.816 95.164 209.852 94.464C209.068 93.736 208.956 93.652 207.556 92.588ZM228.192 89.732L228.416 89.564C229.34 90.348 229.928 90.656 231.048 90.964C231.916 91.216 232.896 91.356 233.736 91.356C233.988 91.356 233.988 91.356 234.688 91.3C234.744 91.3 234.8 91.3 234.884 91.3C236.06 91.3 237.488 92.588 237.488 93.652C237.488 94.296 237.012 94.744 236.34 94.744C236.2 94.744 236.004 94.744 235.808 94.716C235.164 94.66 234.856 94.632 234.436 94.632C233.708 94.632 232.392 94.716 231.244 94.884C230.936 94.912 230.936 94.912 229.172 95.192C228.584 95.276 228.528 95.276 227.884 95.36L227.8 95.08C231.468 93.68 231.804 93.54 232.448 93.316C231.048 92.812 230.404 92.448 229.648 91.72C228.976 91.104 228.612 90.572 228.192 89.732ZM224.44 97.18C224.972 98.86 225.42 99.336 226.316 99.336C227.044 99.336 227.8 99.14 231.216 98.104C233.4 97.432 233.54 97.376 233.988 97.096C234.324 96.844 234.436 96.816 234.66 96.816C235.052 96.816 235.556 97.068 236.088 97.516C237.096 98.328 237.684 99.168 237.684 99.756C237.684 100.12 237.432 100.372 236.872 100.652C235.528 101.24 234.688 101.968 229.424 106.98C230.824 106.252 231.664 105.972 232.56 105.972C233.316 105.972 233.96 106.168 234.492 106.616C235.108 107.12 235.388 107.652 235.78 109.108C236.284 110.928 236.648 111.292 238.132 111.292C239.532 111.292 240.148 111.18 241.184 110.732C241.352 110.676 241.464 110.648 241.632 110.648C241.94 110.648 242.528 110.9 242.976 111.264C243.732 111.824 244.152 112.412 244.152 112.916C244.152 113.896 243.088 114.26 240.316 114.26C237.46 114.26 235.948 113.924 234.856 113C234.212 112.44 233.792 111.74 233.54 110.732C233.484 110.368 233.484 110.368 233.26 108.576C233.176 107.96 232.896 107.344 232.56 107.12C232.392 107.008 232.168 106.952 231.832 106.952C230.096 106.952 227.912 108.828 225.196 112.636C224.244 113.98 223.964 114.232 223.488 114.232C222.76 114.232 222.032 112.86 222.032 111.516C222.032 111.068 222.172 110.76 222.48 110.48C222.676 110.284 222.676 110.284 223.656 109.556C225.56 108.184 229.928 103.788 232.784 100.372C233.568 99.448 233.904 98.972 233.904 98.776C233.904 98.692 233.792 98.608 233.624 98.608C232.924 98.608 230.376 99.784 227.912 101.24C226.736 101.94 226.568 101.996 226.148 101.996C225.7 101.996 225.336 101.8 225.028 101.408C224.412 100.624 223.964 99.392 223.964 98.496C223.964 98.02 224.076 97.712 224.44 97.18ZM247.223 94.268C247.839 95.612 248.679 96.256 249.771 96.256C250.667 96.256 251.675 96.032 257.303 94.604C258.703 94.24 259.683 94.016 263.519 93.176C264.639 92.924 264.975 92.812 265.787 92.448C266.179 92.28 266.543 92.196 266.823 92.196C267.327 92.196 268.251 92.532 268.923 92.98C269.651 93.456 270.015 93.988 270.015 94.52C270.015 95.192 269.483 95.612 268.643 95.612C268.475 95.612 268.223 95.584 267.915 95.556C267.551 95.528 267.439 95.528 267.103 95.528C264.555 95.528 262.147 96.648 260.383 98.664C258.955 100.316 258.199 102.22 258.199 104.18C258.199 106.56 259.431 108.408 261.559 109.22C262.259 109.5 263.155 109.668 263.799 109.668C263.855 109.668 263.967 109.668 264.107 109.64C264.219 109.64 264.303 109.64 264.387 109.64C264.919 109.64 265.423 109.836 265.843 110.228C266.515 110.816 266.935 111.6 266.935 112.216C266.935 113.112 266.291 113.56 264.947 113.56C262.931 113.56 260.607 112.72 259.011 111.432C257.107 109.92 256.099 107.736 256.099 105.216C256.099 102.836 257.247 100.26 259.235 98.188C260.327 97.04 261.335 96.312 263.715 94.968C261.279 95.5 258.563 96.312 256.155 97.208C253.775 98.104 253.159 98.384 252.039 99.112C251.535 99.448 251.087 99.588 250.639 99.588C249.127 99.588 246.999 96.928 246.999 95.08C246.999 94.8 247.055 94.632 247.223 94.268ZM275.195 96.9L275.447 96.676C276.511 97.74 277.547 98.188 278.975 98.188C279.843 98.188 280.795 98.048 281.887 97.768C281.915 97.068 281.915 96.732 281.915 96.172C281.915 94.044 281.803 93.036 281.551 92.504C281.215 91.804 280.571 91.412 279.311 91.16C279.843 90.74 280.179 90.628 280.907 90.628C282.055 90.628 283.511 90.936 284.463 91.412C285.135 91.748 285.499 92.224 285.499 92.756C285.499 93.036 285.443 93.232 285.107 93.764C284.659 94.548 284.435 95.444 284.267 97.068C285.415 96.62 285.807 96.396 286.647 95.724C287.067 95.388 287.375 95.248 287.711 95.248C288.243 95.248 289.083 95.528 289.419 95.836C289.615 96.004 289.727 96.256 289.727 96.536C289.727 97.068 289.167 97.516 287.851 98.076C286.535 98.636 285.275 99.028 284.015 99.308C283.903 100.904 283.903 101.464 283.875 103.984C286.647 102.948 288.803 102.5 290.987 102.5C295.215 102.5 297.875 104.572 297.875 107.876C297.875 110.984 295.495 113.392 292.415 113.392C290.735 113.392 289.279 112.636 288.131 111.152C287.431 110.228 287.039 109.388 286.619 107.736L286.927 107.624C288.159 109.808 289.531 110.844 291.211 110.844C293.395 110.844 294.879 109.248 294.879 106.924C294.879 104.852 293.451 103.704 290.847 103.704C288.691 103.704 286.115 104.46 283.903 105.748C283.931 107.008 283.931 107.008 284.071 109.64C284.099 110.116 284.127 110.536 284.127 110.9C284.127 111.908 283.875 112.72 283.343 113.392C282.839 114.036 282.307 114.344 281.747 114.344C281.383 114.344 281.047 114.204 280.767 113.924C280.655 113.784 280.655 113.784 280.179 113.252C279.031 111.908 278.499 111.516 277.463 111.292C276.763 111.152 276.623 111.096 276.343 110.872C276.007 110.62 275.811 110.228 275.811 109.78C275.811 109.22 276.147 108.604 276.819 107.932C278.051 106.728 279.143 106.028 281.747 104.768C281.803 103.088 281.831 101.38 281.887 99.672C281.019 99.812 280.627 99.868 279.983 99.868C277.771 99.868 276.399 99 275.195 96.9ZM281.635 106.896C279.787 108.072 278.387 109.5 278.387 110.144C278.387 110.34 278.527 110.536 278.807 110.704C279.395 111.012 280.263 111.264 280.823 111.264C281.243 111.264 281.355 111.124 281.439 110.592C281.495 110.144 281.635 107.764 281.635 106.896ZM291.575 94.016V93.708C292.163 93.652 292.415 93.652 292.835 93.652C294.515 93.652 295.831 93.96 297.035 94.66C298.323 95.388 299.023 96.396 299.023 97.488C299.023 98.496 298.463 99.084 297.567 99.084C297.315 99.084 297.091 99.028 296.671 98.888C296.279 98.776 296.055 98.72 295.747 98.72C295.131 98.72 293.899 98.916 292.275 99.252L292.163 99C294.319 97.88 295.607 97.068 295.607 96.788C295.607 96.564 295.243 95.976 294.795 95.528C293.955 94.716 293.143 94.324 291.575 94.016ZM305.295 94.744L305.519 94.52C306.807 95.416 307.871 95.752 309.411 95.752C310.671 95.752 312.659 95.416 314.171 94.94C313.499 93.792 312.491 92.56 311.875 92.112C311.371 91.72 310.503 91.496 309.579 91.496C309.523 91.496 309.355 91.496 309.187 91.496C309.495 90.88 309.803 90.684 310.755 90.46C311.315 90.32 311.931 90.264 312.631 90.264C313.807 90.264 314.647 90.432 315.011 90.796C315.319 91.048 315.347 91.16 315.431 92C315.459 92.504 315.655 93.008 316.327 94.296C318.567 93.456 319.239 93.092 320.079 92.252C320.275 92.056 320.639 91.944 321.143 91.944C322.319 91.944 323.047 92.364 323.047 93.008C323.047 93.82 321.815 94.436 317.223 95.976C317.447 96.34 317.447 96.34 317.727 96.816C317.867 97.068 318.231 97.712 318.847 98.776C320.555 98.132 321.311 97.796 322.011 97.32C321.451 96.732 321.227 96.536 320.359 95.752L320.527 95.528C321.535 96.032 322.291 96.256 322.963 96.256C323.131 96.256 323.131 96.256 323.803 96.144C323.915 96.116 323.999 96.116 324.083 96.116C324.755 96.116 325.203 96.536 325.203 97.152C325.203 98.216 323.803 99.084 319.799 100.54C320.527 101.8 320.639 101.996 320.919 102.5C321.535 103.564 321.535 103.564 322.123 104.544C322.627 105.356 322.795 105.86 322.795 106.448C322.795 107.176 322.571 107.988 322.263 108.408C322.039 108.744 321.703 108.912 321.311 108.912C320.947 108.912 320.695 108.772 320.275 108.38C319.379 107.484 319.071 107.288 318.259 106.896C316.803 106.196 315.123 105.804 313.639 105.804C310.923 105.804 309.019 106.952 309.019 108.632C309.019 110.284 310.755 111.18 313.975 111.18C315.123 111.18 315.627 111.124 317.055 110.76C317.307 110.676 317.559 110.648 317.727 110.648C318.903 110.648 320.247 111.768 320.247 112.776C320.247 113.252 319.939 113.616 319.351 113.784C318.567 114.036 317.195 114.176 315.543 114.176C312.323 114.176 310.083 113.644 308.571 112.496C307.535 111.684 306.919 110.536 306.919 109.332C306.919 106.616 310.027 104.712 314.423 104.712C315.963 104.712 317.587 104.88 319.771 105.272C319.491 104.264 318.903 102.92 317.923 101.072C315.851 101.744 313.583 102.136 311.707 102.136C309.355 102.136 308.039 101.296 306.919 99.056L307.171 98.86C308.235 100.092 309.187 100.54 310.699 100.54C312.407 100.54 314.535 100.148 317.027 99.392C316.551 98.468 316.019 97.6 315.319 96.564C313.387 97.096 311.679 97.376 310.279 97.376C308.291 97.376 306.611 96.48 305.295 94.744ZM331.783 96.2L332.063 96.032C333.155 97.264 333.967 97.656 335.367 97.656C336.403 97.656 337.551 97.516 338.727 97.236C339.231 95.36 339.539 93.708 339.539 92.728C339.539 92.196 339.343 91.72 338.951 91.384C338.615 91.076 338.251 90.908 337.327 90.656C337.831 90.348 338.027 90.292 338.783 90.292C339.791 90.292 340.995 90.572 342.003 91.048C342.759 91.384 343.235 91.916 343.235 92.42C343.235 92.756 343.207 92.84 342.759 93.4C342.367 93.932 342.059 94.576 341.303 96.508C342.955 95.892 343.487 95.584 344.495 94.744C344.803 94.464 345.139 94.324 345.447 94.324C345.951 94.324 346.763 94.548 347.183 94.828C347.491 94.996 347.631 95.276 347.631 95.64C347.631 96.592 345.587 97.544 340.435 98.972C340.071 99.98 340.071 99.98 339.203 102.584C338.671 104.208 338.671 104.208 337.159 108.632C336.347 111.068 335.927 112.188 335.619 112.748C335.339 113.224 334.947 113.476 334.499 113.476C334.163 113.476 333.799 113.28 333.603 113C333.183 112.412 332.903 111.32 332.903 110.452C332.903 109.696 332.987 109.5 333.603 108.772C334.975 107.092 336.543 103.76 338.083 99.28C337.439 99.392 336.963 99.42 336.263 99.42C334.051 99.42 332.791 98.496 331.783 96.2ZM344.327 101.716L344.215 101.436C346.175 99.896 348.667 98.972 350.879 98.972C352.727 98.972 353.931 99.728 353.931 100.848C353.931 101.632 353.483 102.024 352.559 102.024L351.467 101.996C350.683 101.996 349.871 102.192 349.003 102.612C348.807 102.696 348.807 102.696 347.827 103.256C347.491 103.452 347.407 103.508 347.071 103.704L346.903 103.452L349.731 100.792C349.423 100.792 349.199 100.792 349.031 100.792C347.659 100.792 345.979 101.128 344.327 101.716ZM343.431 106L343.767 106.084C343.711 106.616 343.683 106.896 343.683 107.148C343.683 109.556 345.279 110.704 348.583 110.704C349.815 110.704 350.515 110.592 351.635 110.2C351.831 110.116 352.027 110.088 352.195 110.088C352.755 110.088 353.735 110.592 354.295 111.208C354.575 111.516 354.715 111.824 354.715 112.244C354.715 113.224 353.427 113.672 350.543 113.672C347.855 113.672 345.783 113.14 344.607 112.16C343.543 111.264 342.955 109.948 342.955 108.408C342.955 107.568 343.095 106.896 343.431 106ZM370.255 100.988L370.535 101.128C369.415 104.04 369.191 104.74 368.855 106.112C368.631 107.064 368.491 107.988 368.491 108.464C368.491 108.968 368.547 109.192 368.883 110.172C368.939 110.396 368.967 110.536 368.967 110.788C368.967 111.544 368.407 112.132 367.623 112.132C366.475 112.132 364.991 111.04 363.927 109.444C362.527 107.316 361.827 104.376 361.827 100.596C361.827 100.4 361.827 100.4 361.883 97.936C361.883 97.74 361.883 97.572 361.883 97.488C361.883 95.248 361.603 94.436 360.231 92.868C360.875 92.868 361.267 93.008 362.135 93.54C363.479 94.324 364.459 95.304 365.019 96.424C365.215 96.816 365.271 97.096 365.271 97.516C365.271 97.768 365.215 97.992 365.075 98.552C364.683 99.868 364.459 101.464 364.459 102.696C364.459 103.928 364.655 105.188 365.019 106.252C365.271 107.008 365.523 107.372 366.111 107.82C367.931 104.684 369.023 102.864 370.255 100.988ZM375.743 96.368L375.855 96.06C378.403 96.48 380.223 97.516 381.651 99.308C382.967 100.932 383.611 102.808 383.611 104.908C383.611 106.812 382.659 108.156 381.287 108.156C380.839 108.156 380.559 108.016 380.167 107.568C379.495 106.812 378.907 106.7 375.883 106.644L375.827 106.364C378.291 105.636 379.355 105.3 379.803 105.104C380.307 104.88 380.391 104.768 380.391 104.208C380.391 102.976 380.027 101.352 379.495 100.176C378.655 98.356 377.479 97.152 375.743 96.368ZM397.163 100.988C400.635 102.528 402.091 104.32 402.091 107.008C402.091 110.592 399.179 112.888 394.615 112.888C390.275 112.888 387.615 110.928 387.615 107.708C387.615 106.084 388.343 104.628 389.687 103.592C390.359 103.06 391.003 102.752 392.207 102.276C389.267 100.736 388.203 99.392 388.203 97.096C388.203 93.68 390.835 91.468 394.951 91.468C398.759 91.468 401.307 93.456 401.307 96.368C401.307 98.58 399.879 100.176 397.163 100.988ZM396.323 100.624C397.079 100.204 397.387 99.98 397.779 99.448C398.367 98.636 398.647 97.684 398.647 96.396C398.647 95.5 398.395 94.52 398.003 93.848C397.359 92.812 396.239 92.224 394.811 92.224C392.599 92.224 391.227 93.596 391.227 95.752C391.227 97.152 391.843 98.16 393.271 99.112C393.691 99.364 394.223 99.672 395.091 100.064C395.399 100.204 396.323 100.624 396.323 100.624ZM393.103 102.724C392.263 103.172 391.871 103.48 391.451 103.984C390.751 104.796 390.359 106.028 390.359 107.372C390.359 110.256 392.151 112.16 394.811 112.16C397.247 112.16 398.927 110.508 398.927 108.128C398.927 106.728 398.339 105.72 396.939 104.712C396.379 104.292 395.483 103.816 394.363 103.284C393.999 103.116 393.131 102.724 393.103 102.724ZM414.53 112.244L414.446 111.908C418.114 110.9 421.11 109.416 423.154 107.568C424.974 105.944 426.01 103.732 426.01 101.408C426.01 98.58 424.05 96.62 421.222 96.62C418.814 96.62 416.07 97.74 413.158 99.952C411.898 100.876 411.506 101.212 410.722 102.024C410.358 102.444 409.854 102.64 409.322 102.64C407.558 102.64 405.234 100.204 405.234 98.356C405.234 98.132 405.29 97.964 405.43 97.656C406.046 98.748 406.662 99.224 407.474 99.224C408.202 99.224 409.266 98.888 410.918 98.16C415.734 95.976 418.366 95.248 421.334 95.248C426.15 95.248 429.482 98.104 429.482 102.192C429.482 105.804 427.158 108.8 422.986 110.508C420.55 111.516 418.226 111.992 414.53 112.244ZM444.994 113.28L444.882 112.888C447.878 111.964 449.978 110.732 451.658 108.912C453.534 106.896 454.458 104.432 454.458 101.548C454.458 96.76 451.546 93.904 446.73 93.904C446.366 93.904 446.142 93.904 445.61 93.96C446.59 95.108 446.898 95.864 446.898 96.956C446.898 99.196 445.47 103.116 443.454 106.504C441.634 109.528 440.01 111.068 438.61 111.068C437.994 111.068 437.406 110.732 437.098 110.256C436.874 109.836 436.706 109.444 436.454 108.408C436.286 107.736 436.062 107.344 435.25 106.336C434.578 105.496 434.158 104.264 434.158 103.116C434.158 101.352 435.054 99.224 436.51 97.516C438.918 94.66 442.894 92.924 447.066 92.924C453.31 92.924 457.762 96.872 457.762 102.416C457.762 106.476 455.522 109.724 451.462 111.6C449.726 112.412 447.934 112.888 444.994 113.28ZM445.05 94.044C442.782 94.548 441.27 95.36 439.646 96.956C437.714 98.888 436.65 101.268 436.65 103.62C436.65 105.552 437.602 107.54 438.554 107.54C439.478 107.54 441.326 105.216 443.146 101.772C444.546 99.14 445.386 96.816 445.386 95.584C445.386 95.276 445.358 94.912 445.274 94.66C445.218 94.436 445.078 94.044 445.05 94.044ZM475.738 110.396V113.532H481.926C482.794 112.524 483.074 112.244 483.97 111.264C485.426 112.328 485.846 112.664 487.246 113.784C487.358 113.868 487.386 113.924 487.386 113.98C487.386 114.064 487.302 114.12 487.162 114.12H464.398C463.558 114.12 462.382 114.176 461.794 114.232L461.598 113.28C462.55 113.42 463.782 113.532 464.398 113.532H472.658V110.396H466.134C465.518 110.396 464.23 110.452 463.698 110.508L463.53 109.584C464.454 109.752 465.238 109.808 466.162 109.808H472.658V106.812H468.066V107.484C468.066 107.988 467.898 108.044 466.498 108.072C466.162 108.1 465.882 108.1 465.658 108.128C465.63 108.128 465.602 108.128 465.574 108.128C465.126 108.128 464.93 107.932 464.93 107.54C465.042 105.58 465.07 104.236 465.07 102.192C465.07 99.756 465.042 97.656 464.958 96.76C466.414 97.432 466.862 97.656 468.318 98.44H472.658V95.976H464.65C463.334 96.032 462.55 96.06 462.242 96.088L462.074 95.164C462.998 95.304 463.894 95.388 464.65 95.388H472.658V93.092C469.41 93.316 468.486 93.344 463.754 93.344L463.642 92.98C468.43 92.448 471.734 91.86 475.234 90.936C477.67 90.292 479.21 89.76 480.498 89.088C481.758 89.872 481.758 89.872 483.718 91.272C484.026 91.468 484.138 91.608 484.138 91.748C484.138 91.86 483.97 91.972 483.774 91.972C483.578 91.972 483.382 91.944 482.374 91.748C480.022 92.308 478.706 92.504 475.738 92.812V95.388H481.702C482.598 94.408 482.878 94.1 483.858 93.12C485.23 94.184 485.65 94.52 487.022 95.668C487.106 95.724 487.134 95.78 487.134 95.836C487.134 95.92 487.078 95.976 486.91 95.976H475.738V98.44H480.358C481.058 97.768 481.282 97.544 481.982 96.872C483.102 97.628 483.438 97.88 484.502 98.692C484.642 98.832 484.67 98.916 484.67 99.056C484.67 99.28 484.67 99.28 483.746 99.784V104.012C483.746 105.328 483.774 106.196 483.802 107.288C483.718 107.736 483.578 107.848 483.018 107.904L485.818 110.06C485.902 110.144 485.93 110.2 485.93 110.256C485.93 110.34 485.818 110.396 485.678 110.396H475.738ZM475.738 109.808H480.806C481.59 108.912 481.73 108.744 482.514 107.932C482.374 107.932 482.262 107.96 482.206 107.96C481.786 107.988 481.45 107.988 481.31 107.988C480.834 107.988 480.694 107.904 480.666 107.568V106.812H475.738V109.808ZM475.738 106.224H480.666V102.752H475.738V106.224ZM472.658 106.224V102.752H468.066V106.224H472.658ZM475.738 102.164H480.666V99.028H475.738V102.164ZM472.658 102.164V99.028H468.066V102.164H472.658ZM515.414 105.048H509.198C508.078 107.428 507.546 108.296 506.37 109.612C508.722 110.116 510.626 110.732 511.438 111.236C512.278 111.74 512.754 112.636 512.754 113.672C512.754 114.512 512.418 115.128 511.942 115.128C511.69 115.128 511.354 114.96 510.682 114.484C508.806 113.14 507.182 112.216 504.718 111.124C503.206 112.3 501.638 113.084 499.342 113.784C496.766 114.596 494.358 114.932 490.242 115.128L490.186 114.764C494.022 114.036 496.15 113.364 498.558 112.188C499.902 111.544 500.966 110.872 502.002 110.032C500.378 109.5 499.398 109.192 497.634 108.8L496.85 109.836C496.57 110.2 496.346 110.312 495.87 110.312C495.198 110.312 493.938 110.116 493.602 109.948C493.462 109.892 493.406 109.808 493.406 109.696C493.406 109.612 493.462 109.5 493.574 109.36C495.198 107.4 495.842 106.56 496.85 105.048H492.034C491.334 105.048 490.858 105.104 490.13 105.216L489.934 104.208C490.69 104.376 491.362 104.46 492.034 104.46H497.242C498.446 102.556 498.698 102.08 498.95 101.268C502.898 101.968 502.898 101.968 502.898 102.248C502.898 102.472 502.562 102.64 501.666 102.808C501.162 103.648 501.05 103.844 500.658 104.46H510.374C511.326 103.508 511.606 103.2 512.53 102.36C513.874 103.34 514.294 103.62 515.554 104.656C515.638 104.768 515.694 104.824 515.694 104.908C515.694 104.992 515.582 105.048 515.414 105.048ZM505.754 105.048H500.266C499.65 106.028 498.95 107.036 497.998 108.324C502.282 108.856 502.282 108.856 503.122 108.996C504.242 107.82 504.802 106.98 505.754 105.048ZM506.874 91.552V94.968H509.842C510.486 94.268 510.682 94.072 511.326 93.4C512.362 94.044 512.67 94.268 513.622 94.968C513.874 95.192 513.986 95.304 513.986 95.444C513.986 95.668 513.762 95.864 513.062 96.256C513.062 98.02 513.062 98.02 513.146 101.52C513.146 101.8 513.09 101.912 512.95 101.996C512.726 102.108 511.942 102.192 511.018 102.192C510.262 102.192 510.122 102.108 510.094 101.744V101.072H495.03V101.688C495.03 102.164 494.722 102.276 493.182 102.276C492.286 102.276 492.062 102.192 492.062 101.8C492.062 101.8 492.062 101.744 492.062 101.716C492.118 100.26 492.118 99.728 492.118 98.16C492.118 96.312 492.09 95.108 492.034 93.428C493.518 94.016 493.966 94.212 495.422 94.968H498.166V91.552H492.342C491.67 91.552 491.082 91.608 490.382 91.72L490.214 90.712C490.97 90.88 491.586 90.964 492.342 90.964H509.758C510.654 90.012 510.934 89.76 511.802 88.92C513.314 89.844 513.762 90.152 515.162 91.188C515.274 91.3 515.302 91.356 515.302 91.412C515.302 91.496 515.218 91.552 515.078 91.552H506.874ZM504.046 91.552H500.966V94.968H504.046V91.552ZM498.166 95.556H495.03V100.484H498.166V95.556ZM500.966 95.556V100.484H504.046V95.556H500.966ZM506.874 95.556V100.484H510.094V95.556H506.874ZM519.446 95.108L519.726 94.94C520.986 96.228 521.826 96.62 523.366 96.62C524.066 96.62 524.934 96.536 525.998 96.312C526.642 94.436 526.894 93.26 526.894 92.28C526.894 91.244 526.39 90.684 524.962 90.152C525.354 89.9 525.522 89.844 525.97 89.844C526.866 89.844 527.958 90.124 528.994 90.6C530.03 91.076 530.422 91.496 530.422 92.056C530.422 92.42 530.366 92.56 529.946 93.12C529.61 93.568 529.582 93.596 528.49 95.752C530.114 95.164 530.422 95.024 531.066 94.52C531.598 94.1 531.766 94.016 532.186 94.016C533.39 94.016 534.342 94.576 534.342 95.248C534.342 95.864 533.838 96.284 532.578 96.732C531.29 97.18 529.806 97.572 527.622 98.048C525.27 103.396 523.842 106.588 523.366 107.596C522.414 109.612 522.05 110.032 521.35 110.032C520.93 110.032 520.65 109.836 520.37 109.388C520.09 108.912 519.922 108.184 519.922 107.512C519.922 106.728 520.034 106.476 520.622 105.832C522.106 104.292 523.898 101.352 525.242 98.272C524.71 98.328 524.43 98.356 524.178 98.356C521.882 98.356 520.51 97.432 519.446 95.108ZM535.294 97.04L535.35 96.704C535.63 96.704 535.854 96.704 535.994 96.704C537.73 96.704 539.69 97.236 541.006 98.02C541.986 98.636 542.574 99.504 542.574 100.372C542.574 101.296 542.07 101.912 541.342 101.912C541.09 101.912 540.894 101.828 540.474 101.548C539.606 100.904 538.794 100.68 537.478 100.68C535.686 100.68 535.098 101.156 535.098 102.584C535.098 103.536 535.294 104.852 535.854 107.484C537.562 107.96 539.018 108.576 539.914 109.248C540.782 109.892 541.258 110.76 541.258 111.74C541.258 112.72 540.81 113.42 540.222 113.42C539.886 113.42 539.69 113.28 539.102 112.664C538.094 111.544 537.422 111.012 536.106 110.256C536.106 110.452 536.106 110.62 536.106 110.788C536.106 113.112 534.286 114.484 531.178 114.484C528.378 114.484 526.474 113.112 526.474 111.096C526.474 108.772 528.91 107.092 532.298 107.092C532.69 107.092 533.026 107.12 533.446 107.176C533.418 105.804 533.418 105.72 533.418 105.412C533.418 103.424 533.642 102.304 534.146 101.52C534.902 100.344 535.882 99.868 538.85 99.168C538.066 98.188 537.226 97.684 535.294 97.04ZM533.39 109.388C532.662 109.136 531.878 109.024 531.122 109.024C528.798 109.024 527.342 109.78 527.342 111.012C527.342 111.964 528.266 112.524 529.946 112.524C531.402 112.524 532.466 112.16 532.97 111.488C533.278 111.096 533.418 110.536 533.418 109.78C533.418 109.444 533.418 109.388 533.39 109.388ZM549.154 96.844L549.434 96.648C550.47 97.936 551.31 98.272 553.298 98.272C554.334 98.272 555.958 98.132 557.862 97.852C557.862 94.94 557.834 94.156 557.61 93.484C557.358 92.728 556.546 92.14 555.342 91.888C555.706 91.524 555.986 91.44 556.546 91.44C557.61 91.44 559.346 91.832 560.27 92.28C561.11 92.7 561.474 93.092 561.474 93.596C561.474 93.96 561.418 94.1 561.082 94.66C560.718 95.276 560.55 96.032 560.41 97.404C562.622 97.04 564.61 96.396 565.03 95.92C565.338 95.696 565.478 95.64 565.87 95.64C566.29 95.64 567.214 95.948 567.83 96.312C568.418 96.676 568.698 97.04 568.698 97.46C568.698 98.104 568.25 98.356 566.598 98.58C566.43 98.608 565.814 98.72 564.75 98.86C562.454 99.224 560.998 99.448 560.298 99.532C560.27 101.016 560.27 101.1 560.27 101.548C560.27 104.152 560.382 106.392 560.662 109.276C560.69 109.78 560.718 110.06 560.718 110.396C560.718 112.552 559.682 114.288 558.366 114.288C557.694 114.288 557.386 114.008 557.19 113.168C557.05 112.216 555.846 111.068 553.018 109.248L553.13 109.024C555.034 109.612 555.93 109.808 557.694 110.06C557.806 107.652 557.89 103.312 557.89 99.784C556.098 99.952 555.062 100.036 554.222 100.036C551.562 100.036 550.19 99.168 549.154 96.844ZM552.626 102.024L553.018 102.08C552.962 104.656 552.626 106.56 551.842 108.38C551.142 110.032 550.246 110.928 549.322 110.928C548.538 110.928 547.978 110.032 547.978 108.744C547.978 108.352 548.09 107.932 548.23 107.68C548.398 107.428 548.482 107.372 549.07 107.064C550.862 106.056 552.29 103.984 552.626 102.024ZM563.574 101.912L563.798 101.688C566.178 102.808 567.41 103.592 568.558 104.74C569.538 105.72 569.958 106.56 569.958 107.568C569.958 109.136 569.174 110.424 568.222 110.424C567.662 110.424 567.522 110.2 567.186 108.884C566.402 106.084 565.086 103.508 563.574 101.912ZM567.802 88.668C569.482 88.668 570.826 90.012 570.826 91.692C570.826 93.372 569.482 94.716 567.83 94.716C566.15 94.716 564.778 93.344 564.778 91.692C564.778 90.04 566.15 88.668 567.802 88.668ZM567.802 89.648C566.682 89.648 565.786 90.544 565.786 91.692C565.786 92.812 566.682 93.708 567.802 93.708C568.95 93.708 569.846 92.812 569.846 91.692C569.846 90.544 568.95 89.648 567.802 89.648ZM575.614 107.344L575.474 107.036C578.89 105.048 582.474 102.192 585.918 98.72C588.914 95.696 590.622 93.456 590.622 92.532C590.622 91.944 589.978 91.216 588.942 90.684C589.306 90.6 589.474 90.572 589.838 90.572C590.678 90.572 591.574 90.88 592.666 91.524C593.954 92.28 594.71 93.12 594.71 93.764C594.71 94.268 594.57 94.436 593.59 95.136C593.478 95.22 593.478 95.22 591.77 96.844C589.81 98.664 589.81 98.664 587.822 100.372C588.774 100.988 589.502 101.604 589.754 102.024C590.006 102.416 590.034 102.696 590.062 104.768C590.09 106.056 590.09 106.42 590.258 111.74C590.286 112.132 590.286 112.524 590.286 112.804C590.286 113.952 589.922 114.512 589.138 114.512C588.102 114.512 586.562 112.804 586.562 111.628C586.562 111.348 586.59 111.152 586.73 110.732C587.094 109.584 587.346 106.532 587.346 103.508C587.346 102.08 587.262 101.688 586.87 101.156C584.546 102.92 582.558 104.236 580.878 105.132C579.226 106 577.21 106.84 575.614 107.344ZM606.106 93.96L606.246 93.652C609.382 94.156 611.062 94.632 612.378 95.472C613.302 96.032 613.75 96.816 613.75 97.88C613.75 99.196 613.106 100.204 612.238 100.204C611.762 100.204 611.482 99.98 611.062 99.252C609.718 96.816 608.29 95.304 606.106 93.96ZM627.19 95.108L627.526 95.276C625.986 98.496 624.054 101.156 621.226 103.956C618.734 106.42 616.662 108.044 613.106 110.34C612.378 110.816 611.874 111.208 611.594 111.572C611.202 112.048 610.838 112.272 610.418 112.272C609.69 112.272 608.654 111.488 607.674 110.228C606.778 109.08 606.33 108.016 606.33 107.12C606.33 106.868 606.358 106.728 606.47 106.364C607.226 107.652 608.15 108.436 608.906 108.436C610.082 108.436 613.75 106.504 617.082 104.124C621.254 101.128 624.81 97.992 627.19 95.108ZM638.278 90.88C638.698 90.656 638.922 90.6 639.37 90.6C640.21 90.6 641.442 90.936 642.45 91.412C643.682 92.028 644.27 92.616 644.27 93.26C644.27 93.512 644.214 93.652 644.018 94.016C643.682 94.632 643.626 94.856 643.542 95.864C643.486 96.424 643.43 98.244 643.374 99.728C645.894 99.84 648.498 100.4 650.122 101.1C651.55 101.744 652.166 102.584 652.166 103.844C652.166 105.048 651.662 105.832 650.934 105.832C650.514 105.832 650.346 105.72 649.618 104.908C647.826 102.92 645.67 101.38 643.374 100.54C643.374 100.876 643.374 102.332 643.374 104.936C643.374 107.288 643.374 107.288 643.458 110.62C643.486 111.096 643.486 111.488 643.486 111.964C643.486 112.888 643.43 113.336 643.318 113.644C643.15 114.092 642.786 114.344 642.338 114.344C641.834 114.344 641.33 114.036 640.826 113.364C640.238 112.636 639.818 111.684 639.818 111.096C639.818 110.76 639.846 110.648 640.07 109.976C640.546 108.604 640.714 105.356 640.714 98.188C640.714 94.156 640.63 93.092 640.21 92.336C639.902 91.748 639.258 91.244 638.278 90.88Z" fill="#4BCCBE"/>
</svg>
