<svg width="321" height="72" viewBox="0 0 321 72" fill="none" xmlns="http://www.w3.org/2000/svg">
<path d="M64.504 12.28H66.592C66.592 9.544 66.568 9.256 66.424 7.864C67.144 7.936 67.696 8.008 68.056 8.032C69.712 8.2 70.096 8.296 70.096 8.584C70.096 8.776 69.832 8.944 69.088 9.208V12.28H71.464C72.016 11.656 72.208 11.464 72.808 10.84C73.648 11.488 73.888 11.68 74.68 12.28C74.896 12.472 74.968 12.592 74.968 12.688C74.968 12.904 74.752 13.072 74.104 13.336C74.128 20.152 74.128 21.16 74.248 23.92C74.248 24.184 74.176 24.304 73.936 24.4C73.72 24.496 73 24.568 72.4 24.568C71.8 24.568 71.632 24.472 71.632 24.112V23.032H69.112C69.112 24.208 69.112 24.832 69.208 29.344C69.208 29.656 69.112 29.776 68.824 29.872C68.632 29.944 67.72 30.016 67.192 30.016C66.64 30.016 66.472 29.872 66.472 29.44C66.52 27.568 66.52 27.568 66.568 23.032H64.264V23.968C64.24 24.208 64.192 24.304 64.072 24.376C63.832 24.496 63.184 24.592 62.464 24.592C61.888 24.592 61.72 24.472 61.72 24.04V23.992C61.792 20.416 61.816 19.312 61.816 16C61.816 14.848 61.816 14.392 61.792 13.552C61.6 13.672 61.552 13.696 61 13.816C59.848 15.904 59.296 16.792 58.24 18.064V18.112C58.648 18.256 59.2 18.52 59.752 18.856C60.904 19.528 61.432 20.2 61.432 20.968C61.432 21.856 60.784 22.792 60.16 22.792C59.728 22.792 59.584 22.6 59.488 21.904C59.344 20.776 59.032 19.696 58.672 19.024C58.576 18.856 58.456 18.736 58.24 18.568V23.848C58.24 26.872 58.24 27.664 58.288 29.368C58.264 29.872 57.88 29.992 56.464 29.992C55.816 29.992 55.672 29.896 55.672 29.44C55.696 28.984 55.744 27.208 55.792 24.136V20.488C54.856 21.256 54.208 21.736 52.624 22.744L52.432 22.456C53.824 21.088 54.832 19.816 55.984 18.016C57.016 16.432 57.64 15.112 58.384 13.144H54.664C53.872 13.144 53.56 13.168 53.032 13.264L52.888 12.4C53.536 12.568 54.016 12.64 54.616 12.64H55.792V10.024C55.792 9.376 55.744 8.896 55.624 7.912C58.504 8.248 58.696 8.272 58.96 8.392C59.128 8.464 59.224 8.56 59.224 8.656C59.224 8.896 58.96 9.064 58.24 9.28V12.64H58.816C59.32 12.088 59.32 12.088 59.896 11.488C60.664 12.112 60.88 12.304 61.576 12.952C61.672 13.048 61.696 13.096 61.792 13.192C61.768 12.28 61.744 11.944 61.672 10.84C62.944 11.44 63.304 11.632 64.504 12.28ZM69.112 22.528H71.632V17.728H69.088L69.112 22.528ZM66.568 22.528L66.592 17.728H64.264V22.528H66.568ZM69.088 17.224H71.632V12.784H69.088V17.224ZM64.264 17.224H66.592C66.592 16.96 66.592 16.96 66.592 12.784H64.264V17.224ZM86.968 19.84L86.824 19.024C85.192 20.68 83.608 21.736 81.064 22.816L80.968 22.624C82.792 21.136 83.656 20.248 84.64 18.832C85.216 17.992 85.528 17.464 86.008 16.384H84.4C83.776 16.384 83.392 16.408 82.84 16.528L82.696 15.688C83.32 15.832 83.8 15.88 84.424 15.88H86.056V12.016H85.12C84.544 12.016 84.112 12.064 83.56 12.16L83.44 11.32C84.04 11.464 84.52 11.512 85.072 11.512H86.056V10.024C86.056 9.352 86.032 8.944 85.936 8.032C86.68 8.104 87.232 8.152 87.616 8.176C89.152 8.32 89.536 8.416 89.536 8.68C89.536 8.92 89.272 9.064 88.576 9.232V11.512H91.624V9.832C91.624 9.16 91.6 8.824 91.504 8.056C92.224 8.104 92.824 8.152 93.184 8.2C94.744 8.32 95.128 8.416 95.128 8.68C95.128 8.896 94.888 9.04 94.168 9.256V11.512H94.96C95.56 10.744 95.752 10.504 96.376 9.736C97.432 10.552 97.744 10.792 98.752 11.68C98.824 11.752 98.872 11.848 98.872 11.896C98.872 11.968 98.776 12.016 98.632 12.016H94.168V15.88H95.248C95.896 15.016 96.088 14.752 96.76 13.936C97.864 14.824 98.176 15.088 99.256 16.048C99.328 16.12 99.376 16.192 99.376 16.264C99.376 16.336 99.28 16.384 99.112 16.384H92.632C93.328 17.128 93.736 17.464 94.504 17.92C95.944 18.736 97.336 19.144 99.592 19.408V19.672C99.088 19.984 98.896 20.176 98.56 20.728C98.344 21.112 98.152 21.568 98.08 21.928C98.032 22.12 97.96 22.192 97.816 22.192C97.72 22.192 97.504 22.096 96.88 21.736C96.04 21.28 95.32 20.728 94.576 19.984C94.408 20.104 94.336 20.152 94.168 20.248C94.168 21.4 94.168 21.4 94.24 23.776C94.216 24.232 93.88 24.352 92.608 24.352C91.816 24.352 91.744 24.328 91.72 23.992V23.2H87.424V26.512C87.424 27.136 87.496 27.16 88.72 27.16C89.224 27.16 89.968 27.16 90.952 27.184C91.024 27.184 91.144 27.184 91.144 27.184C93.16 27.184 94.168 27.112 94.48 26.968C94.96 26.752 95.392 25.864 96.52 22.816L96.76 22.864L96.568 26.008C96.568 26.056 96.568 26.128 96.568 26.176C96.568 26.488 96.64 26.584 96.976 26.704C97.624 26.92 97.912 27.256 97.912 27.808C97.912 28.384 97.504 28.864 96.856 29.056C96.04 29.296 94.672 29.368 91.528 29.368C86.296 29.368 85.96 29.344 85.456 29.032C85.048 28.744 84.904 28.408 84.904 27.616L84.928 25.648V23.344C84.928 22.504 84.928 22.192 84.88 21.256C86.128 21.832 86.488 22.024 87.664 22.696H91.72V19.696H88.48C87.856 19.696 87.544 19.72 86.968 19.84ZM92.224 16.384H88.816C87.976 17.704 87.64 18.16 86.848 19C87.352 19.12 87.952 19.192 88.48 19.192H91.528C92.032 18.664 92.176 18.52 92.632 18.088C93.184 18.544 93.376 18.688 93.952 19.168C93.256 18.328 92.848 17.68 92.224 16.384ZM91.624 15.88V12.016H88.576V15.88H91.624ZM76.576 22.672L76.624 22.408C77.56 22.6 77.92 22.672 78.184 22.672C78.736 22.672 78.928 22.384 79.96 20.224C81.04 17.944 82.12 15.424 83.224 12.616L83.512 12.736L80.68 22.696C80.56 23.128 80.488 23.44 80.488 23.632C80.488 23.944 80.536 24.16 80.824 25.024C81.184 26.032 81.304 26.584 81.304 27.088C81.304 28.504 80.128 29.728 78.832 29.728C78.352 29.728 78.088 29.44 78.088 28.984C78.088 28.792 78.088 28.72 78.304 27.208C78.472 26.056 78.544 25.336 78.544 24.736C78.544 23.632 78.304 23.392 76.576 22.672ZM78.016 8.56L78.16 8.344C81.496 9.112 82.768 9.832 82.768 10.984C82.768 12.016 82.048 13 81.328 13C81.016 13 80.872 12.856 80.584 12.184C79.96 10.744 79.312 9.808 78.016 8.56ZM76.48 13.768L76.576 13.552C78.184 13.912 79.024 14.2 79.912 14.68C80.632 15.064 80.944 15.52 80.944 16.192C80.944 17.176 80.2 18.16 79.432 18.16C79.048 18.16 78.952 18.016 78.664 17.248C78.232 15.952 77.656 15.04 76.48 13.768ZM106.984 16.792V18.592C109.24 19.36 110.224 20.152 110.224 21.208C110.224 22.096 109.504 23.104 108.856 23.104C108.544 23.104 108.424 22.888 108.28 22.144C107.968 20.536 107.608 19.72 106.984 19.096V20.536C106.984 23.752 106.984 24.832 107.08 29.464C107.056 29.92 106.792 29.992 105.448 29.992C104.656 29.992 104.536 29.944 104.536 29.56C104.56 28.432 104.56 28.432 104.608 26.944C104.656 25.552 104.656 25.168 104.704 23.248L104.752 21.184C103.432 23.728 102.736 24.664 100.768 26.512L100.576 26.32C101.656 24.52 102.352 22.984 103.192 20.632C103.672 19.192 104.08 17.8 104.296 16.792H102.304C101.872 16.792 101.56 16.84 101.152 16.936L101.008 16.096C101.464 16.24 101.872 16.288 102.28 16.288H104.656V11.104C104.656 9.664 104.608 9.088 104.464 7.864C107.32 8.128 107.416 8.128 107.656 8.224C107.848 8.296 107.92 8.392 107.92 8.512C107.92 8.704 107.776 8.8 107.008 9.112V16.288H107.56C108.088 15.664 108.256 15.472 108.76 14.848C109.456 15.424 109.648 15.592 110.176 16.096L110.296 16.288H114.688V13.72H112.048C111.688 13.72 111.424 13.744 111.016 13.84L110.872 13.072C111.28 13.168 111.616 13.216 112.048 13.216H114.688V10.984H111.352C111.016 11.032 110.944 11.032 110.728 11.08C109.624 12.928 109.24 13.408 107.44 15.448L107.272 15.352C108.112 12.88 108.448 11.416 108.664 9.4C110.032 9.856 110.224 9.928 111.448 10.48H114.688V10.288C114.688 9.136 114.664 8.704 114.544 7.816C117.544 8.08 117.568 8.08 117.832 8.176C118 8.248 118.072 8.32 118.072 8.44C118.072 8.68 117.856 8.824 117.088 9.112V10.48H119.248C119.92 9.736 120.136 9.496 120.832 8.776C121.888 9.568 122.2 9.808 123.136 10.648C123.208 10.744 123.256 10.792 123.256 10.84C123.256 10.936 123.136 10.984 122.992 10.984H117.088V13.216H118.888C119.512 12.496 119.728 12.28 120.376 11.584C121.336 12.352 121.624 12.592 122.512 13.384C122.584 13.48 122.632 13.528 122.632 13.576C122.632 13.672 122.536 13.72 122.392 13.72H117.088V16.288H119.56C120.064 15.712 120.592 15.136 121.144 14.512C122.176 15.328 122.488 15.592 123.424 16.48C123.496 16.552 123.544 16.624 123.544 16.672C123.544 16.744 123.448 16.792 123.328 16.792H106.984ZM118.912 24.568H113.176V26.392C113.176 27.328 113.176 27.952 113.2 29.344C113.176 29.848 112.936 29.944 111.568 29.944C110.824 29.944 110.728 29.872 110.728 29.44C110.8 27.424 110.824 26.176 110.824 22.48C110.824 19.816 110.8 18.952 110.704 17.32C111.952 17.848 112.312 18.016 113.512 18.592H118.696C119.248 18.04 119.416 17.872 119.944 17.368C120.832 17.92 121.072 18.088 121.864 18.688C122.032 18.808 122.104 18.904 122.104 19.024C122.104 19.216 121.936 19.336 121.36 19.672V24.232C121.36 24.28 121.384 25.576 121.432 27.592C121.408 28.672 121.096 29.224 120.28 29.536C119.776 29.752 118.936 29.92 118.336 29.92C118.024 29.92 117.976 29.872 117.952 29.536C117.808 28.264 117.472 28 115.264 27.4L115.288 27.136C116.68 27.232 117.16 27.256 118.576 27.256C118.84 27.256 118.912 27.184 118.912 26.92V24.568ZM113.176 21.304H118.912V19.096H113.176V21.304ZM118.912 21.808H113.176V24.064H118.912V21.808ZM101.2 9.472L101.368 9.352C103.024 10.768 103.984 12.232 103.984 13.384C103.984 14.272 103.168 15.328 102.496 15.328C102.136 15.328 102.04 15.112 101.992 14.32C101.92 11.896 101.824 11.32 101.2 9.472ZM144.28 14.632L144.496 14.464C145.624 15.112 146.032 15.376 146.368 15.736C146.8 16.144 146.992 16.552 146.992 16.96C146.992 17.704 146.296 18.544 145.672 18.544C145.384 18.544 145.24 18.328 145.12 17.536C145.096 17.248 145.048 17.056 144.976 16.744C144.712 16.84 143.416 17.2 141.136 17.872C141.016 18.424 140.992 18.496 140.92 18.544C140.752 18.688 140.752 18.688 140.752 18.688C140.728 18.664 140.728 18.664 140.632 18.616C140.488 18.544 140.488 18.544 140.32 17.848C140.176 17.296 140.128 17.008 139.96 16.264C140.2 16.312 140.296 16.312 140.488 16.312C140.512 16.312 140.584 16.312 140.68 16.312C140.752 16.312 140.848 16.312 140.992 16.312C142.576 14.2 143.92 12.04 144.376 10.792C144.928 11.056 145.384 11.248 145.672 11.392C146.8 11.92 147.04 12.064 147.04 12.28C147.04 12.496 146.8 12.544 146.08 12.544H145.984C143.512 15.04 143.08 15.424 142.024 16.264C142.576 16.24 143.512 16.168 144.832 16.072C144.616 15.376 144.544 15.16 144.28 14.632ZM140.416 20.248H144.088C144.592 19.696 145.048 19.168 145.504 18.688C146.344 19.408 146.608 19.648 147.424 20.392C147.496 20.488 147.544 20.56 147.544 20.608C147.544 20.704 147.448 20.752 147.256 20.752H140.536C140.824 21.736 141.112 22.408 141.64 23.32C142.336 22.408 142.528 22.072 142.936 21.112C145.984 22.384 145.984 22.384 145.984 22.6C145.984 22.84 145.72 22.912 144.904 22.912H144.784C143.92 23.968 143.56 24.376 142.912 25C143.656 25.792 144.064 26.128 145.12 26.704C145.84 25.624 145.84 25.624 147.232 23.104L147.472 23.2L146.776 26.32C146.68 26.968 146.68 26.968 146.68 27.112C146.68 27.28 146.704 27.328 147.088 27.808C147.28 28.024 147.376 28.288 147.376 28.576C147.376 29.296 146.848 29.824 146.152 29.824C144.784 29.824 142.912 28.6 141.136 26.56C140.176 27.256 139.216 27.808 138.136 28.312C136.888 28.888 135.904 29.2 133.672 29.728L133.576 29.44C136.504 28.096 138.112 27.016 140.032 25.096C139.216 23.8 138.664 22.432 138.28 20.752H135.208C135.16 21.544 135.136 21.88 135.088 22.288C137.224 23.104 138.112 23.872 138.112 24.856C138.112 25.672 137.464 26.512 136.84 26.512C136.528 26.512 136.384 26.272 136.216 25.456C135.856 23.92 135.616 23.344 135.04 22.648C134.824 24.112 134.464 25.24 133.888 26.32C133.168 27.688 132.352 28.552 130.48 29.896L130.288 29.68C131.56 27.88 132.136 26.536 132.52 24.52C132.736 23.248 132.76 23.056 132.784 20.752H132.28C131.8 20.752 131.44 20.8 131.008 20.92L130.816 20.08C131.44 20.224 131.704 20.248 132.28 20.248H138.184C137.944 18.976 137.728 17.512 137.608 16C137.536 15.208 137.536 15.208 137.488 12.64H137.2C135.952 14.296 134.56 15.904 133.456 16.888C134.248 16.864 134.248 16.864 135.976 16.72C135.904 16.144 135.88 15.952 135.616 15.04L135.784 14.896C136.912 15.688 137.56 16.648 137.56 17.512C137.56 18.232 137.008 18.976 136.48 18.976C136.216 18.976 136.168 18.832 136.096 18.016C136.096 17.752 136.096 17.752 136.048 17.368C135.16 17.776 134.584 18.016 132.904 18.616C132.808 19.144 132.712 19.336 132.544 19.336C132.352 19.336 132.328 19.312 131.968 17.824C131.872 18.64 131.392 19.312 130.888 19.312C130.672 19.312 130.576 19.12 130.528 18.472C130.384 17.056 130.216 16.48 129.736 15.664C129.736 21.304 129.76 27.52 129.784 29.248C129.784 29.272 129.784 29.32 129.784 29.32C129.784 29.8 129.448 29.92 128.224 29.92C127.408 29.92 127.288 29.872 127.288 29.44C127.288 29.128 127.36 26.704 127.48 22.168L127.504 19.672C126.592 21.928 125.992 22.888 124.432 24.592L124.216 24.424C125.632 21.424 126.616 17.8 127.168 13.648H125.92C125.488 13.648 125.176 13.696 124.72 13.792L124.576 12.952C125.08 13.096 125.416 13.144 125.92 13.144H127.384V10.648C127.384 9.568 127.36 9.016 127.264 7.84C130.552 8.104 130.696 8.128 130.696 8.44C130.696 8.632 130.6 8.68 129.736 8.992V13.144H129.976C130.432 12.592 130.552 12.424 130.984 11.872C131.656 12.52 131.848 12.712 132.424 13.36C132.496 13.432 132.52 13.48 132.52 13.528C132.52 13.6 132.424 13.648 132.28 13.648H129.736V15.232C129.928 15.352 129.928 15.352 130.216 15.544C130.984 16.024 131.272 16.288 131.728 16.912C132.088 16.912 132.352 16.912 132.52 16.912C133.912 14.92 134.992 12.808 135.664 10.912C137.128 11.68 137.128 11.68 137.488 11.872C137.44 9.28 137.44 9.28 137.344 7.84C140.008 8.056 140.248 8.08 140.536 8.176C140.704 8.248 140.8 8.32 140.8 8.44C140.8 8.656 140.536 8.8 139.816 8.968C139.792 11.536 139.792 11.704 139.792 12.496C139.792 15.856 139.984 18.328 140.416 20.248ZM131.416 10.816L131.584 10.648C132.184 10.912 132.376 10.984 132.736 11.176C133.216 10.096 133.504 8.92 133.6 7.936C136.336 8.896 136.624 9.016 136.624 9.256C136.624 9.448 136.408 9.52 135.568 9.592C134.44 10.624 134.056 10.984 133.36 11.512C133.72 11.728 133.816 11.8 133.936 11.896C134.248 12.136 134.416 12.472 134.416 12.832C134.416 13.648 133.888 14.488 133.36 14.488C133.096 14.488 133.048 14.416 132.784 13.504C132.472 12.424 132.232 11.944 131.416 10.816ZM140.008 10.744L140.152 10.552C140.728 10.816 140.92 10.912 141.304 11.128C141.928 9.928 142.264 9.088 142.552 7.984C143.176 8.248 143.632 8.416 143.944 8.536C145.288 9.064 145.504 9.16 145.504 9.376C145.504 9.592 145.312 9.664 144.352 9.664C143.152 10.648 142.912 10.816 141.928 11.512C142.552 11.92 142.768 12.256 142.768 12.76C142.768 13.432 142.216 14.152 141.688 14.152C141.376 14.152 141.256 13.936 141.112 13.168C140.92 12.136 140.632 11.488 140.008 10.744ZM141.784 17.896L141.928 17.728C143.752 18.184 144.328 18.52 144.328 19.072C144.328 19.624 143.848 20.2 143.392 20.2C143.056 20.2 142.912 20.032 142.648 19.336C142.432 18.784 142.168 18.376 141.784 17.896ZM164.536 18.016H167.152C167.824 17.152 168.064 16.864 168.712 15.976C169.84 16.888 170.176 17.176 171.232 18.112C171.328 18.232 171.376 18.304 171.376 18.352C171.376 18.448 171.256 18.52 171.112 18.52H164.776C165.256 19.672 165.904 20.656 166.816 21.664C168.28 23.2 169.792 24.16 171.808 24.808V25.048C170.92 25.648 170.656 26.104 170.344 27.616C170.272 27.856 170.2 27.976 170.056 27.976C169.84 27.976 169.024 27.28 168.28 26.464C166.6 24.592 165.616 22.648 164.56 19.048L164.584 23.248C164.608 26.44 164.608 26.44 164.68 29.248C164.68 29.536 164.632 29.68 164.488 29.752C164.248 29.92 163.624 30.016 162.832 30.016C162.112 30.016 161.944 29.92 161.944 29.488C162.064 26.56 162.064 26.56 162.088 23.944L162.112 21.784C160 24.808 158.272 26.32 155.008 28.024L154.864 27.832C156.904 25.816 157.864 24.616 159.136 22.432C159.928 21.04 160.528 19.84 161.032 18.52H157.408C157.552 18.808 157.576 18.952 157.576 19.168C157.576 20.104 156.808 21.088 156.088 21.088C155.704 21.088 155.512 20.8 155.464 20.056C155.32 18.376 155.032 17.488 154.36 16.48C154.36 17.056 154.36 17.056 154.36 17.656C154.36 22.792 154.36 26.464 154.384 29.2C154.384 29.824 154.072 29.944 152.536 29.944C151.888 29.944 151.72 29.848 151.72 29.44C151.84 26.704 151.84 26.704 151.936 21.424L151.984 19.336C150.976 21.616 150.112 22.96 148.648 24.52L148.408 24.352C149.392 22.384 149.968 20.8 150.664 18.28C151.144 16.552 151.336 15.688 151.648 13.792H150.208C149.656 13.792 149.392 13.816 148.912 13.936L148.72 13.072C149.248 13.24 149.632 13.288 150.208 13.288H151.84V10.84C151.84 9.688 151.816 9.088 151.696 7.936C152.44 8.008 152.992 8.056 153.376 8.08C154.84 8.224 155.248 8.32 155.248 8.584C155.248 8.8 155.008 8.944 154.36 9.16V13.288H154.72C155.224 12.592 155.392 12.376 155.872 11.752C156.712 12.472 156.904 12.64 157.696 13.408C158.152 11.68 158.296 10.864 158.44 9.208C161.464 9.952 161.824 10.072 161.824 10.336C161.824 10.528 161.632 10.624 160.912 10.792C160.408 11.968 160.168 12.4 159.736 13.192H161.992V10.624C161.992 9.232 161.992 8.872 161.944 7.864C162.64 7.96 163.168 8.032 163.528 8.056C165.256 8.248 165.52 8.32 165.52 8.608C165.52 8.824 165.28 8.968 164.536 9.256V13.192H166.504C167.176 12.352 167.392 12.064 168.04 11.272C169.144 12.136 169.456 12.4 170.512 13.336C170.608 13.432 170.656 13.504 170.656 13.552C170.656 13.648 170.56 13.696 170.416 13.696H164.536V18.016ZM161.992 18.016V13.696H159.448C158.752 14.872 157.72 16.096 156.592 17.104L156.4 16.96C156.952 15.712 157.168 15.16 157.6 13.792H154.36V16.048C155.632 16.672 156.256 17.128 157.096 18.016H161.992ZM175.36 12.928H185.488C185.464 12.232 185.44 11.824 185.44 10.96C185.392 9.424 185.368 8.968 185.248 7.936C188.44 8.224 188.608 8.248 188.896 8.392C188.992 8.44 189.064 8.56 189.064 8.632C189.064 8.872 188.824 9.016 188.08 9.208C188.056 10.36 188.056 11.056 188.056 11.344C188.056 11.776 188.056 12.04 188.08 12.928H190.744C191.128 12.496 191.224 12.376 191.488 12.064C191.08 12.016 191.032 11.944 190.744 11.08C190.456 10.288 190.072 9.64 189.208 8.56L189.304 8.368C190.744 8.728 191.296 8.896 191.848 9.184C192.664 9.592 193 10 193 10.552C193 10.816 192.952 10.984 192.784 11.32C193.816 12.064 193.984 12.208 194.944 13.024C195.04 13.144 195.088 13.216 195.088 13.288C195.088 13.384 194.968 13.432 194.8 13.432H188.104C188.176 15.544 188.32 17.008 188.56 18.352C188.896 20.272 189.616 22.168 190.552 23.584C191.056 24.352 191.488 24.808 192.616 25.72C193.624 23.8 193.912 23.176 194.8 21.208L195.064 21.28L194.344 25.432C194.296 25.72 194.248 26.08 194.248 26.272C194.248 26.584 194.32 26.728 194.704 27.16C194.992 27.52 195.112 27.784 195.112 28.144C195.112 28.912 194.512 29.56 193.816 29.56C192.856 29.56 191.56 28.744 190.168 27.304C187.792 24.832 186.424 21.616 185.848 17.176C185.68 16 185.608 15.04 185.512 13.432H175.36C174.472 13.432 173.896 13.48 173.32 13.6L173.176 12.688C173.8 12.832 174.64 12.928 175.36 12.928ZM180.856 18.112V24.232C182.584 23.872 184.096 23.488 186.136 22.912L186.232 23.2C183.352 24.832 179.44 26.608 175.408 28.096C175.288 29.008 175.168 29.32 174.904 29.32C174.616 29.32 174.424 28.816 173.416 25.528C174.664 25.432 175.456 25.312 178.216 24.784V18.112H175.84C175.24 18.112 174.736 18.16 174.184 18.304L174.04 17.368C174.64 17.536 175.24 17.608 175.84 17.608H181.192C181.912 16.792 182.152 16.528 182.848 15.76C183.904 16.6 184.24 16.864 185.296 17.752C185.392 17.872 185.416 17.92 185.416 17.968C185.416 18.064 185.32 18.112 185.2 18.112H180.856ZM218.104 21.16H208C206.176 23.584 204.88 25.096 203.392 26.488C207.856 26.416 210.112 26.296 212.536 26.08C211.576 24.376 211.144 23.752 209.872 22.408L210.064 22.216C211.984 23.128 213.232 23.872 214.48 24.856C215.728 25.864 216.232 26.536 216.232 27.256C216.232 28.504 215.368 29.8 214.552 29.8C214.24 29.8 214.144 29.68 213.88 29.056C213.424 27.832 213.28 27.52 212.92 26.776C212.704 26.848 212.704 26.848 212.368 26.944C209.92 27.592 205.36 28.504 200.464 29.272C200.296 29.992 200.176 30.232 199.936 30.232C199.672 30.232 199.672 30.232 198.784 26.392C199.744 26.488 200.32 26.512 201.496 26.512C201.52 26.512 202 26.512 202.288 26.512C203.2 24.544 203.632 23.392 204.304 21.16H199.504C198.976 21.16 198.64 21.184 198.016 21.304L197.824 20.44C198.52 20.608 199 20.656 199.576 20.656H213.52C214.288 19.744 214.528 19.48 215.296 18.616C216.592 19.528 217 19.792 218.224 20.776C218.32 20.848 218.368 20.944 218.368 20.992C218.368 21.088 218.248 21.16 218.104 21.16ZM196.816 19.12L196.648 18.856C198.88 17.224 200.56 15.664 202.216 13.648C204.04 11.44 205.12 9.616 205.696 7.816C206.512 7.984 207.16 8.104 207.592 8.2C209.32 8.536 209.848 8.704 209.848 8.968C209.848 9.184 209.656 9.28 208.864 9.448C210.28 11.44 211.528 12.52 213.688 13.624C215.536 14.56 217.024 15.016 219.616 15.424V15.688C218.824 16.024 218.44 16.456 217.984 17.44C217.888 17.656 217.768 18.04 217.696 18.232C217.624 18.472 217.552 18.544 217.408 18.544C217.168 18.544 216.208 18.112 215.344 17.584C213.568 16.528 211.96 15.064 210.568 13.24C209.536 11.896 209.032 11.032 208.504 9.64C205.528 14.128 201.856 17.104 196.816 19.12ZM202.264 17.392L202.072 16.576C202.744 16.72 203.2 16.768 203.848 16.768H208.744C209.488 15.88 209.728 15.616 210.496 14.8C211.672 15.664 212.032 15.952 213.208 16.888C213.328 16.984 213.376 17.056 213.376 17.128C213.376 17.224 213.28 17.272 213.088 17.272H203.704C203.224 17.272 202.912 17.296 202.264 17.392ZM226.72 18.064V18.304C227.752 18.568 228.088 18.688 228.832 19C230.488 19.696 231.112 20.32 231.112 21.232C231.112 22.168 230.392 23.128 229.696 23.128C229.36 23.128 229.168 22.888 228.88 22.168C228.16 20.344 227.584 19.408 226.72 18.688V24.016C226.72 26.488 226.72 27.832 226.768 29.344C226.768 29.584 226.72 29.68 226.576 29.776C226.336 29.944 225.76 30.04 225.04 30.04C224.224 30.04 224.008 29.92 223.984 29.488C224.056 27.544 224.128 25.288 224.128 24.208V20.584C223.096 21.424 222.376 21.904 220.72 22.888L220.528 22.6C222.088 21.184 223.048 20.08 224.2 18.4C225.496 16.504 226.216 15.16 226.888 13.312H222.592C221.8 13.312 221.512 13.336 220.984 13.432L220.816 12.568C221.392 12.736 221.968 12.808 222.616 12.808H224.056V10.072C224.056 9.184 224.032 8.848 223.912 8.056C227.464 8.368 227.608 8.416 227.608 8.728C227.608 8.944 227.392 9.088 226.672 9.352V12.808H227.296C227.824 12.16 227.968 11.992 228.544 11.392C229.432 12.136 229.696 12.376 230.512 13.12C230.728 13.36 230.776 13.432 230.776 13.504C230.776 13.744 230.56 13.84 229.552 14.032C228.496 15.808 227.776 16.864 226.72 18.064ZM234.184 16.744H231.376C230.584 16.744 230.272 16.768 229.672 16.888L229.504 16.024C230.224 16.192 230.584 16.24 231.376 16.24H234.184V11.224C234.184 9.928 234.136 9.28 233.992 8.032C234.784 8.104 235.408 8.152 235.816 8.176C237.496 8.32 237.952 8.44 237.952 8.728C237.952 8.968 237.664 9.136 236.92 9.376V16.24H238.432C239.224 15.304 239.464 15.016 240.232 14.08C241.456 15.016 241.816 15.328 242.944 16.36C243.04 16.456 243.064 16.528 243.064 16.576C243.064 16.672 242.968 16.744 242.824 16.744H236.92V28.312H238.696C239.608 27.256 239.608 27.256 240.616 26.104C241.792 27.088 242.152 27.4 243.304 28.48C243.4 28.576 243.424 28.624 243.424 28.696C243.424 28.768 243.328 28.816 243.184 28.816H230.2C229.336 28.816 228.928 28.84 228.28 28.96L228.088 28.12C228.76 28.264 229.36 28.312 230.176 28.312H234.184V16.744ZM255.112 28.24L255.016 27.904C257.584 27.112 259.384 26.056 260.824 24.496C262.432 22.768 263.224 20.656 263.224 18.184C263.224 14.08 260.728 11.632 256.6 11.632C256.288 11.632 256.096 11.632 255.64 11.68C256.48 12.664 256.744 13.312 256.744 14.248C256.744 16.168 255.52 19.528 253.792 22.432C252.232 25.024 250.84 26.344 249.64 26.344C249.112 26.344 248.608 26.056 248.344 25.648C248.152 25.288 248.008 24.952 247.792 24.064C247.648 23.488 247.456 23.152 246.76 22.288C246.184 21.568 245.824 20.512 245.824 19.528C245.824 18.016 246.592 16.192 247.84 14.728C249.904 12.28 253.312 10.792 256.888 10.792C262.24 10.792 266.056 14.176 266.056 18.928C266.056 22.408 264.136 25.192 260.656 26.8C259.168 27.496 257.632 27.904 255.112 28.24ZM255.16 11.752C253.216 12.184 251.92 12.88 250.528 14.248C248.872 15.904 247.96 17.944 247.96 19.96C247.96 21.616 248.776 23.32 249.592 23.32C250.384 23.32 251.968 21.328 253.528 18.376C254.728 16.12 255.448 14.128 255.448 13.072C255.448 12.808 255.424 12.496 255.352 12.28C255.304 12.088 255.184 11.752 255.16 11.752ZM27.3313 53.24V55.208C27.3313 56.096 27.3313 56.552 27.3793 60.08C27.3793 60.512 27.4033 60.824 27.4033 61.16C27.4033 62 27.3553 62.384 27.2353 62.648C27.0913 63.032 26.7793 63.272 26.4193 63.272C25.9873 63.272 25.5793 63.008 25.1473 62.432C24.6673 61.784 24.3073 60.944 24.3073 60.44C24.3073 60.176 24.3313 60.08 24.4993 59.528C24.9073 58.304 25.0513 55.952 25.0513 50.168C25.0513 45.848 24.9793 45.032 24.6433 44.408C24.3553 43.904 23.8273 43.496 22.9873 43.16C23.3233 42.968 23.5153 42.92 23.9233 42.92C24.7393 42.92 25.8913 43.28 26.8753 43.856C27.7393 44.36 28.0753 44.744 28.0753 45.248C28.0753 45.44 28.0273 45.584 27.8833 45.848C27.4513 46.52 27.4273 46.88 27.3313 50.72C29.6833 50.888 31.7713 51.32 33.1393 51.944C34.3633 52.472 34.8913 53.192 34.8913 54.296C34.8913 55.304 34.4593 55.976 33.8353 55.976C33.4993 55.976 33.3073 55.856 32.7073 55.184C31.1713 53.504 29.0593 52.04 27.3313 51.44V53.24ZM31.2673 43.952L31.4833 43.544C32.6113 43.904 33.3553 44.216 34.0513 44.696C35.1553 45.44 35.6593 46.136 35.6593 46.904C35.6593 47.456 35.3473 47.84 34.9153 47.84C34.6033 47.84 34.4113 47.696 34.0993 47.144C33.3793 45.896 32.4193 44.84 31.2673 43.952ZM33.7393 42.056L33.9313 41.672C35.1313 41.936 36.0193 42.272 36.7393 42.728C37.6993 43.352 38.1313 43.904 38.1313 44.576C38.1313 45.152 37.8433 45.536 37.4113 45.536C37.1473 45.536 36.9793 45.392 36.6193 44.888C35.8033 43.712 34.9633 42.896 33.7393 42.056ZM46.5793 43.928L46.8433 43.76C47.7793 44.672 48.4513 44.984 49.4833 44.984C51.2353 44.984 53.8513 44.312 55.0033 43.592C55.1953 43.448 55.3873 43.4 55.6273 43.4C56.0833 43.4 56.9953 43.76 57.5233 44.168C57.9553 44.48 58.1233 44.744 58.1233 45.08C58.1233 45.632 57.7393 45.824 56.2753 46.064C53.8753 46.424 51.5473 46.688 50.5873 46.688C48.7153 46.688 47.7313 45.992 46.5793 43.928ZM47.6353 63.416L47.4913 63.176C49.9153 61.304 51.5953 59.6 53.1793 57.392C54.9793 54.896 56.2993 52.4 56.9953 50.12C53.9233 50.528 52.7713 50.744 50.6113 51.32C48.9553 51.752 48.5953 51.872 47.8273 52.256C47.4913 52.424 47.2033 52.496 46.9153 52.496C45.9073 52.496 44.2033 50.408 44.2033 49.112C44.2033 48.944 44.2273 48.824 44.3473 48.56C44.9713 49.64 45.7393 50.12 46.8673 50.12C47.7793 50.12 52.0273 49.52 55.1713 48.968C56.6113 48.728 56.6593 48.704 57.2113 48.32C57.4273 48.176 57.6193 48.128 57.8833 48.128C58.2193 48.128 58.7713 48.464 59.4433 49.04C60.1873 49.688 60.5473 50.192 60.5473 50.576C60.5473 50.888 60.4513 51.032 60.0913 51.32C59.7073 51.632 59.5393 51.872 58.9873 52.88C56.1793 58.184 52.6033 61.496 47.6353 63.416ZM65.5087 57.152L65.3887 56.888C68.3167 55.184 71.3887 52.736 74.3407 49.76C76.9087 47.168 78.3727 45.248 78.3727 44.456C78.3727 43.952 77.8207 43.328 76.9327 42.872C77.2447 42.8 77.3887 42.776 77.7007 42.776C78.4207 42.776 79.1887 43.04 80.1247 43.592C81.2287 44.24 81.8767 44.96 81.8767 45.512C81.8767 45.944 81.7567 46.088 80.9167 46.688C80.8207 46.76 80.8207 46.76 79.3567 48.152C77.6767 49.712 77.6767 49.712 75.9727 51.176C76.7887 51.704 77.4127 52.232 77.6287 52.592C77.8447 52.928 77.8687 53.168 77.8927 54.944C77.9167 56.048 77.9167 56.36 78.0607 60.92C78.0847 61.256 78.0847 61.592 78.0847 61.832C78.0847 62.816 77.7727 63.296 77.1007 63.296C76.2127 63.296 74.8927 61.832 74.8927 60.824C74.8927 60.584 74.9167 60.416 75.0367 60.056C75.3487 59.072 75.5647 56.456 75.5647 53.864C75.5647 52.64 75.4927 52.304 75.1567 51.848C73.1647 53.36 71.4607 54.488 70.0207 55.256C68.6047 56 66.8767 56.72 65.5087 57.152ZM100.741 44.576H105.685C106.549 43.664 106.813 43.376 107.677 42.536C108.877 43.448 109.213 43.736 110.317 44.696C110.413 44.816 110.461 44.888 110.461 44.936C110.461 45.008 110.365 45.08 110.221 45.08H100.741V47.312H103.789C104.389 46.736 104.581 46.544 105.157 45.968C106.045 46.568 106.309 46.736 107.149 47.36C107.365 47.504 107.437 47.624 107.437 47.744C107.437 47.936 107.293 48.08 106.597 48.464C106.573 49.592 106.573 50.528 106.573 51.104C106.573 53 106.621 55.328 106.669 56.696C106.669 57.224 106.381 57.32 104.989 57.32C104.053 57.32 103.981 57.296 103.957 56.936V56.336H95.1487V56.864C95.1487 57.344 94.9567 57.416 93.6607 57.416C92.5807 57.416 92.4607 57.368 92.4607 56.912C92.5327 54.2 92.5327 53.456 92.5327 50.984C92.5327 48.656 92.5087 47.744 92.4367 45.968C93.7327 46.496 94.1167 46.688 95.3167 47.312H98.1007V45.08H90.7567C90.0607 45.08 89.6527 45.128 89.1487 45.224L89.0047 44.384C89.6047 44.528 90.0607 44.576 90.7327 44.576H98.1007V44.384C98.1007 43.232 98.0767 42.824 97.9567 41.768C101.653 42.152 101.773 42.176 101.773 42.512C101.773 42.752 101.509 42.896 100.741 43.088V44.576ZM95.1487 50.048H103.957V47.816H95.1487V50.048ZM103.957 50.552H95.1487V52.808H103.957V50.552ZM103.957 53.312H95.1487V55.832H103.957V53.312ZM90.4207 58.304H106.237C107.101 57.44 107.365 57.176 108.205 56.336C109.405 57.2 109.741 57.488 110.869 58.424C110.989 58.52 111.037 58.592 111.037 58.664C111.037 58.736 110.917 58.808 110.773 58.808H90.4207C89.6287 58.808 89.3167 58.832 88.6927 58.976L88.5247 58.088C89.1967 58.256 89.6527 58.304 90.4207 58.304ZM88.6447 63.896L88.5487 63.656C90.5167 62.792 91.5967 62.192 92.8687 61.256C93.8767 60.488 94.4047 60.008 95.1007 59.144C95.8927 59.432 96.4927 59.648 96.8767 59.792C98.4367 60.32 98.7727 60.488 98.7727 60.728C98.7727 60.968 98.4607 61.088 97.7647 61.088C97.6927 61.088 97.5247 61.088 97.3807 61.088C94.4527 62.744 92.7247 63.296 88.6447 63.896ZM100.429 59.792L100.501 59.576C104.797 59.768 106.405 60.008 107.485 60.632C108.229 61.04 108.661 61.856 108.661 62.816C108.661 63.584 108.325 64.088 107.821 64.088C107.533 64.088 107.341 63.992 106.861 63.608C106.477 63.272 105.277 62.384 104.725 62.024C103.573 61.256 102.613 60.752 100.429 59.792ZM124.549 45.752H122.293C122.221 46.904 122.197 47.096 122.053 47.768C121.501 50.312 120.013 52.016 117.397 53.048C116.245 53.504 115.045 53.792 113.101 54.104L112.957 53.792C115.957 52.808 117.709 51.536 118.765 49.616C119.389 48.44 119.653 47.36 119.677 45.752H116.341C116.341 45.848 116.341 45.92 116.341 45.944C116.341 46.976 116.101 48.056 115.765 48.632C115.333 49.352 114.733 49.76 114.085 49.76C113.341 49.76 112.741 49.04 112.741 48.152C112.741 47.528 112.933 47.264 113.581 46.904C114.445 46.448 114.829 46.112 115.213 45.56C115.549 45.032 115.693 44.576 115.789 43.64H116.053C116.221 44.384 116.269 44.672 116.317 45.248H122.077V43.64C122.077 42.776 122.053 42.56 121.957 41.84C125.413 42.08 125.941 42.176 125.941 42.56C125.941 42.824 125.725 42.944 124.789 43.184V45.248H130.165C130.765 44.6 130.957 44.408 131.557 43.784C132.733 44.6 133.093 44.864 134.197 45.776C134.389 45.944 134.437 46.064 134.437 46.184C134.437 46.256 134.389 46.352 134.341 46.4C134.269 46.472 134.029 46.544 133.717 46.544L133.189 46.568C132.997 46.592 132.829 46.616 132.637 46.64C131.437 47.504 130.861 47.864 129.277 48.776L129.085 48.68C129.661 47.576 129.829 47.12 130.237 45.752H126.997V49.976C126.997 50.504 127.141 50.552 129.061 50.552C131.005 50.552 131.269 50.504 131.557 50.096C131.749 49.832 132.109 49.016 132.781 47.408H133.045L132.997 49.544L132.973 49.904C132.973 50.144 133.021 50.192 133.453 50.384C133.957 50.6 134.149 50.84 134.149 51.272C134.149 51.8 133.813 52.208 133.261 52.352C132.637 52.52 131.149 52.616 128.773 52.616C126.277 52.616 125.557 52.544 125.053 52.208C124.693 51.968 124.549 51.56 124.549 50.816V45.752ZM124.861 55.784V62.216H129.517C130.405 61.208 130.669 60.92 131.557 60.008C132.757 60.968 133.141 61.28 134.341 62.312C134.413 62.408 134.461 62.48 134.461 62.552C134.461 62.648 134.365 62.72 134.221 62.72H115.141C114.541 62.72 114.061 62.768 113.101 62.912L112.813 61.952C113.989 62.144 114.709 62.216 115.333 62.216H122.053V55.784H116.869C116.485 55.784 116.197 55.832 115.117 56L114.901 55.088C115.813 55.208 116.533 55.28 117.013 55.28H128.053C128.797 54.368 129.037 54.104 129.829 53.216C131.077 54.152 131.461 54.464 132.709 55.448C132.781 55.52 132.829 55.568 132.829 55.616C132.829 55.712 132.733 55.784 132.613 55.784H124.861ZM139.069 48.152L139.309 47.984C140.197 49.088 140.917 49.376 142.621 49.376C143.509 49.376 144.901 49.256 146.533 49.016C146.533 46.52 146.509 45.848 146.317 45.272C146.101 44.624 145.405 44.12 144.373 43.904C144.685 43.592 144.925 43.52 145.405 43.52C146.317 43.52 147.805 43.856 148.597 44.24C149.317 44.6 149.629 44.936 149.629 45.368C149.629 45.68 149.581 45.8 149.293 46.28C148.981 46.808 148.837 47.456 148.717 48.632C150.613 48.32 152.317 47.768 152.677 47.36C152.941 47.168 153.061 47.12 153.397 47.12C153.757 47.12 154.549 47.384 155.077 47.696C155.581 48.008 155.821 48.32 155.821 48.68C155.821 49.232 155.437 49.448 154.021 49.64C153.877 49.664 153.349 49.76 152.437 49.88C150.469 50.192 149.221 50.384 148.621 50.456C148.597 51.728 148.597 51.8 148.597 52.184C148.597 54.416 148.693 56.336 148.933 58.808C148.957 59.24 148.981 59.48 148.981 59.768C148.981 61.616 148.093 63.104 146.965 63.104C146.389 63.104 146.125 62.864 145.957 62.144C145.837 61.328 144.805 60.344 142.381 58.784L142.477 58.592C144.109 59.096 144.877 59.264 146.389 59.48C146.485 57.416 146.557 53.696 146.557 50.672C145.021 50.816 144.133 50.888 143.413 50.888C141.133 50.888 139.957 50.144 139.069 48.152ZM142.045 52.592L142.381 52.64C142.333 54.848 142.045 56.48 141.373 58.04C140.773 59.456 140.005 60.224 139.213 60.224C138.541 60.224 138.061 59.456 138.061 58.352C138.061 58.016 138.157 57.656 138.277 57.44C138.421 57.224 138.493 57.176 138.997 56.912C140.533 56.048 141.757 54.272 142.045 52.592ZM151.429 52.496L151.621 52.304C153.661 53.264 154.717 53.936 155.701 54.92C156.541 55.76 156.901 56.48 156.901 57.344C156.901 58.688 156.229 59.792 155.413 59.792C154.933 59.792 154.813 59.6 154.525 58.472C153.853 56.072 152.725 53.864 151.429 52.496ZM155.053 41.144C156.493 41.144 157.645 42.296 157.645 43.736C157.645 45.176 156.493 46.328 155.077 46.328C153.637 46.328 152.461 45.152 152.461 43.736C152.461 42.32 153.637 41.144 155.053 41.144ZM155.053 41.984C154.093 41.984 153.325 42.752 153.325 43.736C153.325 44.696 154.093 45.464 155.053 45.464C156.037 45.464 156.805 44.696 156.805 43.736C156.805 42.752 156.037 41.984 155.053 41.984ZM163.405 45.68L163.525 45.416C166.213 45.848 167.653 46.256 168.781 46.976C169.573 47.456 169.957 48.128 169.957 49.04C169.957 50.168 169.405 51.032 168.661 51.032C168.253 51.032 168.013 50.84 167.653 50.216C166.501 48.128 165.277 46.832 163.405 45.68ZM181.477 46.664L181.765 46.808C180.445 49.568 178.789 51.848 176.365 54.248C174.229 56.36 172.453 57.752 169.405 59.72C168.781 60.128 168.349 60.464 168.109 60.776C167.773 61.184 167.461 61.376 167.101 61.376C166.477 61.376 165.589 60.704 164.749 59.624C163.981 58.64 163.597 57.728 163.597 56.96C163.597 56.744 163.621 56.624 163.717 56.312C164.365 57.416 165.157 58.088 165.805 58.088C166.813 58.088 169.957 56.432 172.813 54.392C176.389 51.824 179.437 49.136 181.477 46.664ZM188.749 63.368L188.581 63.128C190.597 61.616 191.845 60.464 193.453 58.568C195.853 55.712 198.037 52.112 199.429 48.608C199.717 47.888 199.885 47.336 199.885 47.096C199.885 46.928 199.741 46.856 199.453 46.856C198.589 46.856 196.405 47.288 194.341 47.84C192.541 48.32 191.605 48.68 190.525 49.232C190.285 49.376 189.949 49.448 189.661 49.448C188.965 49.448 188.173 48.8 187.405 47.648C186.973 46.952 186.757 46.424 186.757 45.944C186.757 45.752 186.781 45.632 186.901 45.32C187.477 46.448 188.221 46.904 189.421 46.904C190.453 46.904 193.261 46.52 197.197 45.848C198.997 45.536 199.189 45.488 199.813 45.128C199.981 45.056 200.197 44.984 200.341 44.984C200.701 44.984 201.469 45.44 202.117 46.04C202.933 46.784 203.389 47.408 203.389 47.84C203.389 48.176 203.293 48.368 202.957 48.704C202.525 49.16 202.429 49.28 201.949 50.192C198.373 57.104 194.293 61.16 188.749 63.368ZM204.997 41.24C206.437 41.24 207.589 42.392 207.589 43.832C207.589 45.272 206.437 46.424 205.021 46.424C203.581 46.424 202.405 45.248 202.405 43.832C202.405 42.416 203.581 41.24 204.997 41.24ZM204.997 42.08C204.037 42.08 203.269 42.848 203.269 43.832C203.269 44.792 204.037 45.56 204.997 45.56C205.981 45.56 206.749 44.792 206.749 43.832C206.749 42.848 205.981 42.08 204.997 42.08ZM223.285 56.912H222.493C218.797 56.912 216.973 56.648 215.725 55.928C214.717 55.352 214.261 54.8 213.685 53.504C212.989 54.392 212.557 54.896 212.053 55.424C210.877 56.648 210.877 56.648 210.565 57.008C210.541 57.128 210.541 57.224 210.517 57.272C210.493 57.728 210.445 57.848 210.253 57.848C210.133 57.848 210.037 57.776 209.893 57.56C209.341 56.312 209.341 56.312 208.717 54.872C209.677 54.68 210.589 54.32 211.693 53.72V49.592H210.157C210.061 49.592 209.629 49.616 208.909 49.664L208.765 48.92C209.317 49.016 209.893 49.088 210.205 49.088H211.645C212.173 48.536 212.341 48.344 212.893 47.792C213.733 48.416 213.997 48.608 214.789 49.256C214.909 49.4 214.957 49.472 214.957 49.544C214.957 49.688 214.741 49.88 214.213 50.216V53.456C214.645 54.176 215.029 54.464 215.821 54.656C216.757 54.896 217.885 54.992 219.949 54.992C222.925 54.992 227.437 54.728 231.013 54.368V54.584C230.149 54.992 229.789 55.448 229.549 56.384C229.453 56.672 229.429 56.696 229.213 56.744C228.949 56.768 228.949 56.768 225.853 56.864V58.52H226.693C227.437 57.8 227.437 57.8 228.229 57.008C229.237 57.704 229.549 57.92 230.581 58.688C230.701 58.76 230.749 58.832 230.749 58.904C230.749 58.976 230.653 59.024 230.485 59.024H225.853V59.504C225.853 59.72 225.853 60.584 225.901 62.096C225.877 62.744 225.757 63.08 225.421 63.392C224.917 63.848 224.101 64.112 222.877 64.232C222.661 64.256 222.565 64.256 222.493 64.256C222.277 64.256 222.229 64.208 222.205 63.92C222.157 63.488 222.013 63.08 221.821 62.864C221.485 62.456 221.485 62.456 218.965 61.688V61.472C220.549 61.568 220.765 61.568 223.021 61.616C223.213 61.568 223.285 61.496 223.285 61.28V59.024H210.901C210.637 59.024 209.365 59.096 209.053 59.12L208.909 58.4C209.485 58.472 210.493 58.52 210.949 58.52H223.285V56.912ZM220.549 44.576H222.949C223.477 43.664 223.981 42.368 224.125 41.504C226.957 42.224 227.413 42.368 227.413 42.584C227.413 42.8 227.173 42.896 226.477 42.992C225.541 43.616 225.541 43.616 223.957 44.576H226.885C227.317 44.048 227.773 43.52 228.205 42.992C229.237 43.712 229.549 43.952 230.581 44.72C230.653 44.816 230.701 44.888 230.701 44.936C230.701 45.032 230.605 45.08 230.485 45.08H223.549C222.757 45.8 222.397 46.088 221.485 46.76H225.421C225.925 46.208 226.069 46.064 226.621 45.512C227.533 46.136 227.797 46.304 228.661 46.928C228.733 47.024 228.781 47.072 228.781 47.144C228.781 47.336 228.637 47.48 228.085 47.792C228.085 51.392 228.085 51.392 228.157 53.624C228.133 53.84 228.061 53.912 227.893 53.984C227.629 54.104 226.885 54.176 226.213 54.176C225.805 54.176 225.685 54.128 225.613 53.888V53.456H218.917V53.696C218.821 54.08 218.581 54.176 217.669 54.176C217.477 54.176 217.333 54.2 217.213 54.2C217.117 54.2 217.069 54.2 217.045 54.2C216.613 54.2 216.469 54.104 216.445 53.792C216.493 52.448 216.517 51.824 216.517 49.424C216.517 47.216 216.493 46.664 216.421 45.584C217.645 46.04 218.005 46.208 219.205 46.76H220.405C220.573 45.992 220.573 45.992 220.645 45.08H216.733C216.421 45.08 215.485 45.152 215.005 45.2L214.837 44.408C215.389 44.504 216.325 44.576 216.877 44.576H219.157C218.965 44.36 218.941 44.288 218.845 43.928C218.533 42.896 218.173 42.344 217.405 41.744L217.549 41.528C220.261 42.032 221.125 42.488 221.125 43.424C221.125 43.832 220.909 44.24 220.549 44.576ZM218.917 48.704H225.613V47.264H218.917V48.704ZM225.613 49.208H218.917V50.744H225.613V49.208ZM225.613 51.248H218.917V52.952H225.613V51.248ZM209.461 42.512L209.605 42.296C211.717 42.848 212.965 43.328 213.685 43.856C214.237 44.24 214.405 44.552 214.405 45.152C214.405 46.112 213.733 47.12 213.085 47.12C212.821 47.12 212.677 47 212.341 46.376C211.429 44.648 210.757 43.76 209.461 42.512ZM213.661 59.624L213.733 59.432C217.117 60.008 218.389 60.632 218.389 61.76C218.389 62.744 217.717 63.68 216.973 63.68C216.637 63.68 216.421 63.488 216.181 62.96C215.509 61.472 214.885 60.632 213.661 59.624ZM255.037 60.056L255.013 60.296C253.789 60.8 253.069 61.544 252.637 62.792C252.541 63.032 252.445 63.128 252.325 63.128C252.109 63.128 251.245 62.624 250.525 62.048C248.509 60.464 246.829 58.28 245.677 55.712C244.933 54.128 244.525 52.76 243.973 50.36C242.341 56.912 238.717 61.112 232.717 63.464L232.573 63.2C235.693 60.992 237.517 58.976 239.029 55.976C239.893 54.272 240.517 52.472 240.949 50.36C241.261 48.92 241.501 47.312 241.501 46.64C241.501 46.568 241.501 46.448 241.501 46.28C242.629 46.496 242.629 46.496 243.445 46.664C243.421 45.776 243.397 45.344 243.397 44.84C243.397 44.792 243.397 44.672 243.397 44.552H239.101C238.717 44.552 238.381 44.576 237.493 44.648L237.373 43.832C238.117 43.976 238.717 44.048 239.197 44.048H242.917C243.373 43.448 243.517 43.28 243.997 42.68C244.669 43.208 244.885 43.376 245.533 43.928C245.725 44.096 245.797 44.192 245.797 44.264C245.797 44.48 245.461 44.648 243.901 45.152C244.141 47.792 244.501 49.448 245.341 51.416C246.517 54.2 248.221 56.336 250.453 57.896C251.821 58.832 252.973 59.384 255.037 60.056ZM266.269 53.072H260.149C259.525 53.072 259.213 53.096 258.757 53.216L258.637 52.376C259.213 52.52 259.597 52.568 260.173 52.568H266.269V50.552H262.213V51.032C262.189 51.608 261.949 51.704 260.509 51.704C259.693 51.704 259.573 51.656 259.573 51.272C259.621 49.952 259.645 48.92 259.645 47.72C259.645 47.048 259.621 46.544 259.549 45.584C260.821 46.064 261.205 46.232 262.429 46.808H266.269V45.968C266.269 45.728 266.269 45.56 266.269 44.96H258.469C257.845 44.96 257.581 44.984 257.005 45.104L256.861 44.24C257.533 44.408 257.893 44.456 258.469 44.456H266.245C266.245 43.112 266.221 42.776 266.101 41.696C266.845 41.768 267.445 41.84 267.829 41.864C269.437 42.008 269.821 42.104 269.821 42.416C269.821 42.656 269.557 42.8 268.861 42.992V44.456H274.261C275.029 43.616 275.269 43.376 276.037 42.584C277.237 43.424 277.573 43.688 278.701 44.6C278.773 44.696 278.821 44.744 278.821 44.792C278.821 44.888 278.701 44.96 278.581 44.96H268.861V46.808H272.845C273.373 46.256 273.541 46.112 274.117 45.584C274.981 46.088 275.245 46.256 276.037 46.808C276.253 46.952 276.349 47.072 276.349 47.192C276.349 47.384 276.253 47.456 275.581 47.84C275.581 49.736 275.581 49.736 275.605 50.744C275.605 51.224 275.413 51.32 274.453 51.392C275.461 52.04 275.461 52.04 276.229 52.568C276.421 52.736 276.493 52.832 276.493 52.928C276.493 53.096 276.325 53.24 275.797 53.528V55.352H276.061C276.613 54.68 276.805 54.464 277.357 53.84C278.149 54.56 278.389 54.776 279.133 55.52C279.181 55.592 279.229 55.664 279.229 55.736C279.229 55.808 279.133 55.856 278.989 55.856H275.797C275.845 57.656 275.845 58.208 275.917 59.792C275.917 60.368 275.581 60.488 274.093 60.488C273.373 60.488 273.253 60.416 273.253 59.984V58.808H268.909C268.933 60.2 268.933 60.2 268.957 61.208C268.957 62.744 268.501 63.32 266.917 63.752C266.461 63.872 265.741 63.992 265.405 63.992C265.165 63.992 265.093 63.896 265.069 63.56C265.021 63.008 264.781 62.576 264.253 62.264C263.797 62 263.437 61.88 261.109 61.328L261.133 61.016C264.109 61.232 264.229 61.232 265.909 61.232C265.933 61.232 265.957 61.232 265.981 61.232C266.197 61.232 266.269 61.16 266.269 60.968V58.808H260.029C259.477 58.808 259.165 58.832 258.637 58.952L258.469 58.112C258.997 58.256 259.453 58.304 260.029 58.304H266.269V55.856H257.989C257.461 55.856 257.173 55.88 256.621 56L256.477 55.136C257.053 55.28 257.509 55.352 257.989 55.352H266.269V53.072ZM266.269 50.048V47.312H262.213V50.048H266.269ZM268.861 52.568H273.013C273.469 52.088 273.469 52.088 274.189 51.392C273.133 51.392 273.037 51.368 273.037 50.984V50.552H268.861V52.568ZM273.037 50.048V47.312H268.861V50.048H273.037ZM268.861 53.072V55.352H273.253V53.072H268.861ZM273.253 55.856H268.861V56.336L268.909 58.304H273.253V55.856ZM284.005 49.328L284.653 49.424C285.709 49.568 285.853 49.616 285.853 49.856C285.853 50.048 285.685 50.168 285.037 50.384V55.304C285.037 55.856 285.037 56.864 285.037 58.208C285.061 60.368 285.061 60.44 285.061 63.2C285.061 63.44 284.989 63.536 284.869 63.608C284.653 63.728 284.005 63.824 283.237 63.824C282.733 63.824 282.541 63.68 282.541 63.344C282.541 63.32 282.541 63.272 282.541 63.224C282.613 60.152 282.661 57.32 282.661 55.52V51.344C281.845 52.472 281.245 53.144 280.069 54.272L279.853 54.08C281.125 51.848 281.821 50.264 282.661 47.672C283.549 45.008 283.909 43.376 283.981 41.816C287.221 42.392 287.605 42.488 287.605 42.8C287.605 42.992 287.317 43.16 286.669 43.304C285.853 45.632 284.917 47.816 284.005 49.328ZM286.717 44.504L286.597 43.784C287.173 43.88 287.413 43.904 287.773 43.904H291.925C292.693 43.016 292.693 43.016 293.413 42.2C294.373 42.968 294.637 43.208 295.525 44.024C295.597 44.12 295.645 44.192 295.645 44.216C295.645 44.264 295.621 44.288 295.621 44.336C298.189 44.576 298.429 44.624 298.429 44.936C298.429 45.128 298.261 45.248 297.637 45.488V51.224C297.637 51.368 297.661 55.352 297.685 57.944C297.661 58.232 297.565 58.328 297.349 58.424C297.133 58.496 296.389 58.592 295.885 58.592C295.333 58.592 295.165 58.472 295.165 58.04C295.237 54.104 295.261 52.424 295.261 49.28C295.261 46.592 295.237 45.704 295.165 44.408H290.893C290.653 46.088 290.413 47.24 290.029 48.416H291.949C292.429 47.912 292.573 47.744 293.077 47.216C293.845 47.768 294.085 47.936 294.781 48.488C295.021 48.656 295.093 48.776 295.093 48.896C295.093 49.088 294.949 49.232 294.349 49.52C293.821 52.736 293.413 54.32 292.597 56.12C291.637 58.304 290.317 60.056 288.541 61.568C287.821 62.192 287.173 62.672 285.685 63.632L285.541 63.44C287.701 61.208 288.733 59.768 289.885 57.296C291.061 54.728 291.589 52.712 292.045 48.92H289.861C289.477 49.976 289.405 50.144 288.925 51.104C289.381 51.416 289.837 51.824 290.293 52.328C290.749 52.88 290.941 53.312 290.941 53.84C290.941 54.848 290.149 55.904 289.405 55.904C289.141 55.904 288.949 55.64 288.949 55.256C288.949 55.184 288.949 55.088 288.973 54.992C289.117 53.96 289.165 53.432 289.165 52.976C289.165 52.448 289.021 51.872 288.757 51.44C287.821 53.192 286.885 54.416 285.421 55.856L285.253 55.688C287.077 52.4 288.013 48.968 288.349 44.408H287.749C287.365 44.408 287.149 44.432 286.717 44.504ZM294.277 61.208L294.301 60.92C297.157 61.064 297.253 61.064 298.813 61.088C299.077 61.064 299.149 60.968 299.149 60.632V44.576C299.149 43.4 299.149 43.16 299.077 42.248C299.797 42.32 300.373 42.392 300.757 42.44C302.293 42.608 302.653 42.728 302.653 43.016C302.653 43.232 302.365 43.4 301.645 43.616V54.344C301.645 55.64 301.669 57.872 301.693 61.112C301.669 62.36 301.333 62.936 300.421 63.32C299.773 63.608 298.861 63.8 298.261 63.8C298.021 63.8 297.973 63.752 297.925 63.368C297.853 62.84 297.613 62.384 297.205 62.12C296.797 61.832 296.461 61.736 294.277 61.208Z" fill="#006281"/>
<rect width="5" height="72" fill="#006281"/>
<rect x="316" width="5" height="72" fill="#006281"/>
</svg>
