<svg width="798" height="62" viewBox="0 0 798 62" fill="none" xmlns="http://www.w3.org/2000/svg">
<path d="M39.8009 22.42H42.9329C42.9329 18.316 42.8969 17.884 42.6809 15.796C43.7609 15.904 44.5889 16.012 45.1289 16.048C47.6129 16.3 48.1889 16.444 48.1889 16.876C48.1889 17.164 47.7929 17.416 46.6769 17.812V22.42H50.2409C51.0689 21.484 51.3569 21.196 52.2569 20.26C53.5169 21.232 53.8769 21.52 55.0649 22.42C55.3889 22.708 55.4969 22.888 55.4969 23.032C55.4969 23.356 55.1729 23.608 54.2009 24.004C54.2369 34.228 54.2369 35.74 54.4169 39.88C54.4169 40.276 54.3089 40.456 53.9489 40.6C53.6249 40.744 52.5449 40.852 51.6449 40.852C50.7449 40.852 50.4929 40.708 50.4929 40.168V38.548H46.7129C46.7129 40.312 46.7129 41.248 46.8569 48.016C46.8569 48.484 46.7129 48.664 46.2809 48.808C45.9929 48.916 44.6249 49.024 43.8329 49.024C43.0049 49.024 42.7529 48.808 42.7529 48.16C42.8249 45.352 42.8249 45.352 42.8969 38.548H39.4409V39.952C39.4049 40.312 39.3329 40.456 39.1529 40.564C38.7929 40.744 37.8209 40.888 36.7409 40.888C35.8769 40.888 35.6249 40.708 35.6249 40.06V39.988C35.7329 34.624 35.7689 32.968 35.7689 28C35.7689 26.272 35.7689 25.588 35.7329 24.328C35.4449 24.508 35.3729 24.544 34.5449 24.724C32.8169 27.856 31.9889 29.188 30.4049 31.096V31.168C31.0169 31.384 31.8449 31.78 32.6729 32.284C34.4009 33.292 35.1929 34.3 35.1929 35.452C35.1929 36.784 34.2209 38.188 33.2849 38.188C32.6369 38.188 32.4209 37.9 32.2769 36.856C32.0609 35.164 31.5929 33.544 31.0529 32.536C30.9089 32.284 30.7289 32.104 30.4049 31.852V39.772C30.4049 44.308 30.4049 45.496 30.4769 48.052C30.4409 48.808 29.8649 48.988 27.7409 48.988C26.7689 48.988 26.5529 48.844 26.5529 48.16C26.5889 47.476 26.6609 44.812 26.7329 40.204V34.732C25.3289 35.884 24.3569 36.604 21.9809 38.116L21.6929 37.684C23.7809 35.632 25.2929 33.724 27.0209 31.024C28.5689 28.648 29.5049 26.668 30.6209 23.716H25.0409C23.8529 23.716 23.3849 23.752 22.5929 23.896L22.3769 22.6C23.3489 22.852 24.0689 22.96 24.9689 22.96H26.7329V19.036C26.7329 18.064 26.6609 17.344 26.4809 15.868C30.8009 16.372 31.0889 16.408 31.4849 16.588C31.7369 16.696 31.8809 16.84 31.8809 16.984C31.8809 17.344 31.4849 17.596 30.4049 17.92V22.96H31.2689C32.0249 22.132 32.0249 22.132 32.8889 21.232C34.0409 22.168 34.3649 22.456 35.4089 23.428C35.5529 23.572 35.5889 23.644 35.7329 23.788C35.6969 22.42 35.6609 21.916 35.5529 20.26C37.4609 21.16 38.0009 21.448 39.8009 22.42ZM46.7129 37.792H50.4929V30.592H46.6769L46.7129 37.792ZM42.8969 37.792L42.9329 30.592H39.4409V37.792H42.8969ZM46.6769 29.836H50.4929V23.176H46.6769V29.836ZM39.4409 29.836H42.9329C42.9329 29.44 42.9329 29.44 42.9329 23.176H39.4409V29.836ZM73.4969 33.76L73.2809 32.536C70.8329 35.02 68.4569 36.604 64.6409 38.224L64.4969 37.936C67.2329 35.704 68.5289 34.372 70.0049 32.248C70.8689 30.988 71.3369 30.196 72.0569 28.576H69.6449C68.7089 28.576 68.1329 28.612 67.3049 28.792L67.0889 27.532C68.0249 27.748 68.7449 27.82 69.6809 27.82H72.1289V22.024H70.7249C69.8609 22.024 69.2129 22.096 68.3849 22.24L68.2049 20.98C69.1049 21.196 69.8249 21.268 70.6529 21.268H72.1289V19.036C72.1289 18.028 72.0929 17.416 71.9489 16.048C73.0649 16.156 73.8929 16.228 74.4689 16.264C76.7729 16.48 77.3489 16.624 77.3489 17.02C77.3489 17.38 76.9529 17.596 75.9089 17.848V21.268H80.4809V18.748C80.4809 17.74 80.4449 17.236 80.3009 16.084C81.3809 16.156 82.2809 16.228 82.8209 16.3C85.1609 16.48 85.7369 16.624 85.7369 17.02C85.7369 17.344 85.3769 17.56 84.2969 17.884V21.268H85.4849C86.3849 20.116 86.6729 19.756 87.6089 18.604C89.1929 19.828 89.6609 20.188 91.1729 21.52C91.2809 21.628 91.3529 21.772 91.3529 21.844C91.3529 21.952 91.2089 22.024 90.9929 22.024H84.2969V27.82H85.9169C86.8889 26.524 87.1769 26.128 88.1849 24.904C89.8409 26.236 90.3089 26.632 91.9289 28.072C92.0369 28.18 92.1089 28.288 92.1089 28.396C92.1089 28.504 91.9649 28.576 91.7129 28.576H81.9929C83.0369 29.692 83.6489 30.196 84.8009 30.88C86.9609 32.104 89.0489 32.716 92.4329 33.112V33.508C91.6769 33.976 91.3889 34.264 90.8849 35.092C90.5609 35.668 90.2729 36.352 90.1649 36.892C90.0929 37.18 89.9849 37.288 89.7689 37.288C89.6249 37.288 89.3009 37.144 88.3649 36.604C87.1049 35.92 86.0249 35.092 84.9089 33.976C84.6569 34.156 84.5489 34.228 84.2969 34.372C84.2969 36.1 84.2969 36.1 84.4049 39.664C84.3689 40.348 83.8649 40.528 81.9569 40.528C80.7689 40.528 80.6609 40.492 80.6249 39.988V38.8H74.1809V43.768C74.1809 44.704 74.2889 44.74 76.1249 44.74C76.8809 44.74 77.9969 44.74 79.4729 44.776C79.5809 44.776 79.7609 44.776 79.7609 44.776C82.7849 44.776 84.2969 44.668 84.7649 44.452C85.4849 44.128 86.1329 42.796 87.8249 38.224L88.1849 38.296L87.8969 43.012C87.8969 43.084 87.8969 43.192 87.8969 43.264C87.8969 43.732 88.0049 43.876 88.5089 44.056C89.4809 44.38 89.9129 44.884 89.9129 45.712C89.9129 46.576 89.3009 47.296 88.3289 47.584C87.1049 47.944 85.0529 48.052 80.3369 48.052C72.4889 48.052 71.9849 48.016 71.2289 47.548C70.6169 47.116 70.4009 46.612 70.4009 45.424L70.4369 42.472V39.016C70.4369 37.756 70.4369 37.288 70.3649 35.884C72.2369 36.748 72.7769 37.036 74.5409 38.044H80.6249V33.544H75.7649C74.8289 33.544 74.3609 33.58 73.4969 33.76ZM81.3809 28.576H76.2689C75.0089 30.556 74.5049 31.24 73.3169 32.5C74.0729 32.68 74.9729 32.788 75.7649 32.788H80.3369C81.0929 31.996 81.3089 31.78 81.9929 31.132C82.8209 31.816 83.1089 32.032 83.9729 32.752C82.9289 31.492 82.3169 30.52 81.3809 28.576ZM80.4809 27.82V22.024H75.9089V27.82H80.4809ZM57.9089 38.008L57.9809 37.612C59.3849 37.9 59.9249 38.008 60.3209 38.008C61.1489 38.008 61.4369 37.576 62.9849 34.336C64.6049 30.916 66.2249 27.136 67.8809 22.924L68.3129 23.104L64.0649 38.044C63.8849 38.692 63.7769 39.16 63.7769 39.448C63.7769 39.916 63.8489 40.24 64.2809 41.536C64.8209 43.048 65.0009 43.876 65.0009 44.632C65.0009 46.756 63.2369 48.592 61.2929 48.592C60.5729 48.592 60.1769 48.16 60.1769 47.476C60.1769 47.188 60.1769 47.08 60.5009 44.812C60.7529 43.084 60.8609 42.004 60.8609 41.104C60.8609 39.448 60.5009 39.088 57.9089 38.008ZM60.0689 16.84L60.2849 16.516C65.2889 17.668 67.1969 18.748 67.1969 20.476C67.1969 22.024 66.1169 23.5 65.0369 23.5C64.5689 23.5 64.3529 23.284 63.9209 22.276C62.9849 20.116 62.0129 18.712 60.0689 16.84ZM57.7649 24.652L57.9089 24.328C60.3209 24.868 61.5809 25.3 62.9129 26.02C63.9929 26.596 64.4609 27.28 64.4609 28.288C64.4609 29.764 63.3449 31.24 62.1929 31.24C61.6169 31.24 61.4729 31.024 61.0409 29.872C60.3929 27.928 59.5289 26.56 57.7649 24.652ZM103.521 29.188V31.888C106.905 33.04 108.381 34.228 108.381 35.812C108.381 37.144 107.301 38.656 106.329 38.656C105.861 38.656 105.681 38.332 105.465 37.216C104.997 34.804 104.457 33.58 103.521 32.644V34.804C103.521 39.628 103.521 41.248 103.665 48.196C103.629 48.88 103.233 48.988 101.217 48.988C100.029 48.988 99.8489 48.916 99.8489 48.34C99.8849 46.648 99.8849 46.648 99.9569 44.416C100.029 42.328 100.029 41.752 100.101 38.872L100.173 35.776C98.1929 39.592 97.1489 40.996 94.1969 43.768L93.9089 43.48C95.5289 40.78 96.5729 38.476 97.8329 34.948C98.5529 32.788 99.1649 30.7 99.4889 29.188H96.5009C95.8529 29.188 95.3849 29.26 94.7729 29.404L94.5569 28.144C95.2409 28.36 95.8529 28.432 96.4649 28.432H100.029V20.656C100.029 18.496 99.9569 17.632 99.7409 15.796C104.025 16.192 104.169 16.192 104.529 16.336C104.817 16.444 104.925 16.588 104.925 16.768C104.925 17.056 104.709 17.2 103.557 17.668V28.432H104.385C105.177 27.496 105.429 27.208 106.185 26.272C107.229 27.136 107.517 27.388 108.309 28.144L108.489 28.432H115.077V24.58H111.117C110.577 24.58 110.181 24.616 109.569 24.76L109.353 23.608C109.965 23.752 110.469 23.824 111.117 23.824H115.077V20.476H110.073C109.569 20.548 109.461 20.548 109.137 20.62C107.481 23.392 106.905 24.112 104.205 27.172L103.953 27.028C105.213 23.32 105.717 21.124 106.041 18.1C108.093 18.784 108.381 18.892 110.217 19.72H115.077V19.432C115.077 17.704 115.041 17.056 114.861 15.724C119.361 16.12 119.397 16.12 119.793 16.264C120.045 16.372 120.153 16.48 120.153 16.66C120.153 17.02 119.829 17.236 118.677 17.668V19.72H121.917C122.925 18.604 123.249 18.244 124.293 17.164C125.877 18.352 126.345 18.712 127.749 19.972C127.857 20.116 127.929 20.188 127.929 20.26C127.929 20.404 127.749 20.476 127.533 20.476H118.677V23.824H121.377C122.313 22.744 122.637 22.42 123.609 21.376C125.049 22.528 125.481 22.888 126.813 24.076C126.921 24.22 126.993 24.292 126.993 24.364C126.993 24.508 126.849 24.58 126.633 24.58H118.677V28.432H122.385C123.141 27.568 123.933 26.704 124.761 25.768C126.309 26.992 126.777 27.388 128.181 28.72C128.289 28.828 128.361 28.936 128.361 29.008C128.361 29.116 128.217 29.188 128.037 29.188H103.521ZM121.413 40.852H112.809V43.588C112.809 44.992 112.809 45.928 112.845 48.016C112.809 48.772 112.449 48.916 110.397 48.916C109.281 48.916 109.137 48.808 109.137 48.16C109.245 45.136 109.281 43.264 109.281 37.72C109.281 33.724 109.245 32.428 109.101 29.98C110.973 30.772 111.513 31.024 113.313 31.888H121.089C121.917 31.06 122.169 30.808 122.961 30.052C124.293 30.88 124.653 31.132 125.841 32.032C126.093 32.212 126.201 32.356 126.201 32.536C126.201 32.824 125.949 33.004 125.085 33.508V40.348C125.085 40.42 125.121 42.364 125.193 45.388C125.157 47.008 124.689 47.836 123.465 48.304C122.709 48.628 121.449 48.88 120.549 48.88C120.081 48.88 120.009 48.808 119.973 48.304C119.757 46.396 119.253 46 115.941 45.1L115.977 44.704C118.065 44.848 118.785 44.884 120.909 44.884C121.305 44.884 121.413 44.776 121.413 44.38V40.852ZM112.809 35.956H121.413V32.644H112.809V35.956ZM121.413 36.712H112.809V40.096H121.413V36.712ZM94.8449 18.208L95.0969 18.028C97.5809 20.152 99.0209 22.348 99.0209 24.076C99.0209 25.408 97.7969 26.992 96.7889 26.992C96.2489 26.992 96.1049 26.668 96.0329 25.48C95.9249 21.844 95.7809 20.98 94.8449 18.208ZM159.465 25.948L159.789 25.696C161.481 26.668 162.093 27.064 162.597 27.604C163.245 28.216 163.533 28.828 163.533 29.44C163.533 30.556 162.489 31.816 161.553 31.816C161.121 31.816 160.905 31.492 160.725 30.304C160.689 29.872 160.617 29.584 160.509 29.116C160.113 29.26 158.169 29.8 154.749 30.808C154.569 31.636 154.533 31.744 154.425 31.816C154.173 32.032 154.173 32.032 154.173 32.032C154.137 31.996 154.137 31.996 153.993 31.924C153.777 31.816 153.777 31.816 153.525 30.772C153.309 29.944 153.237 29.512 152.985 28.396C153.345 28.468 153.489 28.468 153.777 28.468C153.813 28.468 153.921 28.468 154.065 28.468C154.173 28.468 154.317 28.468 154.533 28.468C156.909 25.3 158.925 22.06 159.609 20.188C160.437 20.584 161.121 20.872 161.553 21.088C163.245 21.88 163.605 22.096 163.605 22.42C163.605 22.744 163.245 22.816 162.165 22.816H162.021C158.313 26.56 157.665 27.136 156.081 28.396C156.909 28.36 158.313 28.252 160.293 28.108C159.969 27.064 159.861 26.74 159.465 25.948ZM153.669 34.372H159.177C159.933 33.544 160.617 32.752 161.301 32.032C162.561 33.112 162.957 33.472 164.181 34.588C164.289 34.732 164.361 34.84 164.361 34.912C164.361 35.056 164.217 35.128 163.929 35.128H153.849C154.281 36.604 154.713 37.612 155.505 38.98C156.549 37.612 156.837 37.108 157.449 35.668C162.021 37.576 162.021 37.576 162.021 37.9C162.021 38.26 161.625 38.368 160.401 38.368H160.221C158.925 39.952 158.385 40.564 157.413 41.5C158.529 42.688 159.141 43.192 160.725 44.056C161.805 42.436 161.805 42.436 163.893 38.656L164.253 38.8L163.209 43.48C163.065 44.452 163.065 44.452 163.065 44.668C163.065 44.92 163.101 44.992 163.677 45.712C163.965 46.036 164.109 46.432 164.109 46.864C164.109 47.944 163.317 48.736 162.273 48.736C160.221 48.736 157.413 46.9 154.749 43.84C153.309 44.884 151.869 45.712 150.249 46.468C148.377 47.332 146.901 47.8 143.553 48.592L143.409 48.16C147.801 46.144 150.213 44.524 153.093 41.644C151.869 39.7 151.041 37.648 150.465 35.128H145.857C145.785 36.316 145.749 36.82 145.677 37.432C148.881 38.656 150.213 39.808 150.213 41.284C150.213 42.508 149.241 43.768 148.305 43.768C147.837 43.768 147.621 43.408 147.369 42.184C146.829 39.88 146.469 39.016 145.605 37.972C145.281 40.168 144.741 41.86 143.877 43.48C142.797 45.532 141.573 46.828 138.765 48.844L138.477 48.52C140.385 45.82 141.249 43.804 141.825 40.78C142.149 38.872 142.185 38.584 142.221 35.128H141.465C140.745 35.128 140.205 35.2 139.557 35.38L139.269 34.12C140.205 34.336 140.601 34.372 141.465 34.372H150.321C149.961 32.464 149.637 30.268 149.457 28C149.349 26.812 149.349 26.812 149.277 22.96H148.845C146.973 25.444 144.885 27.856 143.229 29.332C144.417 29.296 144.417 29.296 147.009 29.08C146.901 28.216 146.865 27.928 146.469 26.56L146.721 26.344C148.413 27.532 149.385 28.972 149.385 30.268C149.385 31.348 148.557 32.464 147.765 32.464C147.369 32.464 147.297 32.248 147.189 31.024C147.189 30.628 147.189 30.628 147.117 30.052C145.785 30.664 144.921 31.024 142.401 31.924C142.257 32.716 142.113 33.004 141.861 33.004C141.573 33.004 141.537 32.968 140.997 30.736C140.853 31.96 140.133 32.968 139.377 32.968C139.053 32.968 138.909 32.68 138.837 31.708C138.621 29.584 138.369 28.72 137.649 27.496C137.649 35.956 137.685 45.28 137.721 47.872C137.721 47.908 137.721 47.98 137.721 47.98C137.721 48.7 137.217 48.88 135.381 48.88C134.157 48.88 133.977 48.808 133.977 48.16C133.977 47.692 134.085 44.056 134.265 37.252L134.301 33.508C132.933 36.892 132.033 38.332 129.693 40.888L129.369 40.636C131.493 36.136 132.969 30.7 133.797 24.472H131.925C131.277 24.472 130.809 24.544 130.125 24.688L129.909 23.428C130.665 23.644 131.169 23.716 131.925 23.716H134.121V19.972C134.121 18.352 134.085 17.524 133.941 15.76C138.873 16.156 139.089 16.192 139.089 16.66C139.089 16.948 138.945 17.02 137.649 17.488V23.716H138.009C138.693 22.888 138.873 22.636 139.521 21.808C140.529 22.78 140.817 23.068 141.681 24.04C141.789 24.148 141.825 24.22 141.825 24.292C141.825 24.4 141.681 24.472 141.465 24.472H137.649V26.848C137.937 27.028 137.937 27.028 138.369 27.316C139.521 28.036 139.953 28.432 140.637 29.368C141.177 29.368 141.573 29.368 141.825 29.368C143.913 26.38 145.533 23.212 146.541 20.368C148.737 21.52 148.737 21.52 149.277 21.808C149.205 17.92 149.205 17.92 149.061 15.76C153.057 16.084 153.417 16.12 153.849 16.264C154.101 16.372 154.245 16.48 154.245 16.66C154.245 16.984 153.849 17.2 152.769 17.452C152.733 21.304 152.733 21.556 152.733 22.744C152.733 27.784 153.021 31.492 153.669 34.372ZM140.169 20.224L140.421 19.972C141.321 20.368 141.609 20.476 142.149 20.764C142.869 19.144 143.301 17.38 143.445 15.904C147.549 17.344 147.981 17.524 147.981 17.884C147.981 18.172 147.657 18.28 146.397 18.388C144.705 19.936 144.129 20.476 143.085 21.268C143.625 21.592 143.769 21.7 143.949 21.844C144.417 22.204 144.669 22.708 144.669 23.248C144.669 24.472 143.877 25.732 143.085 25.732C142.689 25.732 142.617 25.624 142.221 24.256C141.753 22.636 141.393 21.916 140.169 20.224ZM153.057 20.116L153.273 19.828C154.137 20.224 154.425 20.368 155.001 20.692C155.937 18.892 156.441 17.632 156.873 15.976C157.809 16.372 158.493 16.624 158.961 16.804C160.977 17.596 161.301 17.74 161.301 18.064C161.301 18.388 161.013 18.496 159.573 18.496C157.773 19.972 157.413 20.224 155.937 21.268C156.873 21.88 157.197 22.384 157.197 23.14C157.197 24.148 156.369 25.228 155.577 25.228C155.109 25.228 154.929 24.904 154.713 23.752C154.425 22.204 153.993 21.232 153.057 20.116ZM155.721 30.844L155.937 30.592C158.673 31.276 159.537 31.78 159.537 32.608C159.537 33.436 158.817 34.3 158.133 34.3C157.629 34.3 157.413 34.048 157.017 33.004C156.693 32.176 156.297 31.564 155.721 30.844ZM189.849 31.024H193.773C194.781 29.728 195.141 29.296 196.113 27.964C197.805 29.332 198.309 29.764 199.893 31.168C200.037 31.348 200.109 31.456 200.109 31.528C200.109 31.672 199.929 31.78 199.713 31.78H190.209C190.929 33.508 191.901 34.984 193.269 36.496C195.465 38.8 197.733 40.24 200.757 41.212V41.572C199.425 42.472 199.029 43.156 198.561 45.424C198.453 45.784 198.345 45.964 198.129 45.964C197.805 45.964 196.581 44.92 195.465 43.696C192.945 40.888 191.469 37.972 189.885 32.572L189.921 38.872C189.957 43.66 189.957 43.66 190.065 47.872C190.065 48.304 189.993 48.52 189.777 48.628C189.417 48.88 188.481 49.024 187.293 49.024C186.213 49.024 185.961 48.88 185.961 48.232C186.141 43.84 186.141 43.84 186.177 39.916L186.213 36.676C183.045 41.212 180.453 43.48 175.557 46.036L175.341 45.748C178.401 42.724 179.841 40.924 181.749 37.648C182.937 35.56 183.837 33.76 184.593 31.78H179.157C179.373 32.212 179.409 32.428 179.409 32.752C179.409 34.156 178.257 35.632 177.177 35.632C176.601 35.632 176.313 35.2 176.241 34.084C176.025 31.564 175.593 30.232 174.585 28.72C174.585 29.584 174.585 29.584 174.585 30.484C174.585 38.188 174.585 43.696 174.621 47.8C174.621 48.736 174.153 48.916 171.849 48.916C170.877 48.916 170.625 48.772 170.625 48.16C170.805 44.056 170.805 44.056 170.949 36.136L171.021 33.004C169.509 36.424 168.213 38.44 166.017 40.78L165.657 40.528C167.133 37.576 167.997 35.2 169.041 31.42C169.761 28.828 170.049 27.532 170.517 24.688H168.357C167.529 24.688 167.133 24.724 166.413 24.904L166.125 23.608C166.917 23.86 167.493 23.932 168.357 23.932H170.805V20.26C170.805 18.532 170.769 17.632 170.589 15.904C171.705 16.012 172.533 16.084 173.109 16.12C175.305 16.336 175.917 16.48 175.917 16.876C175.917 17.2 175.557 17.416 174.585 17.74V23.932H175.125C175.881 22.888 176.133 22.564 176.853 21.628C178.113 22.708 178.401 22.96 179.589 24.112C180.273 21.52 180.489 20.296 180.705 17.812C185.241 18.928 185.781 19.108 185.781 19.504C185.781 19.792 185.493 19.936 184.413 20.188C183.657 21.952 183.297 22.6 182.649 23.788H186.033V19.936C186.033 17.848 186.033 17.308 185.961 15.796C187.005 15.94 187.797 16.048 188.337 16.084C190.929 16.372 191.325 16.48 191.325 16.912C191.325 17.236 190.965 17.452 189.849 17.884V23.788H192.801C193.809 22.528 194.133 22.096 195.105 20.908C196.761 22.204 197.229 22.6 198.813 24.004C198.957 24.148 199.029 24.256 199.029 24.328C199.029 24.472 198.885 24.544 198.669 24.544H189.849V31.024ZM186.033 31.024V24.544H182.217C181.173 26.308 179.625 28.144 177.933 29.656L177.645 29.44C178.473 27.568 178.797 26.74 179.445 24.688H174.585V28.072C176.493 29.008 177.429 29.692 178.689 31.024H186.033ZM206.085 23.392H221.277C221.241 22.348 221.205 21.736 221.205 20.44C221.133 18.136 221.097 17.452 220.917 15.904C225.705 16.336 225.957 16.372 226.389 16.588C226.533 16.66 226.641 16.84 226.641 16.948C226.641 17.308 226.281 17.524 225.165 17.812C225.129 19.54 225.129 20.584 225.129 21.016C225.129 21.664 225.129 22.06 225.165 23.392H229.161C229.737 22.744 229.881 22.564 230.277 22.096C229.665 22.024 229.593 21.916 229.161 20.62C228.729 19.432 228.153 18.46 226.857 16.84L227.001 16.552C229.161 17.092 229.989 17.344 230.817 17.776C232.041 18.388 232.545 19 232.545 19.828C232.545 20.224 232.473 20.476 232.221 20.98C233.769 22.096 234.021 22.312 235.461 23.536C235.605 23.716 235.677 23.824 235.677 23.932C235.677 24.076 235.497 24.148 235.245 24.148H225.201C225.309 27.316 225.525 29.512 225.885 31.528C226.389 34.408 227.469 37.252 228.873 39.376C229.629 40.528 230.277 41.212 231.969 42.58C233.481 39.7 233.913 38.764 235.245 35.812L235.641 35.92L234.561 42.148C234.489 42.58 234.417 43.12 234.417 43.408C234.417 43.876 234.525 44.092 235.101 44.74C235.533 45.28 235.713 45.676 235.713 46.216C235.713 47.368 234.813 48.34 233.769 48.34C232.329 48.34 230.385 47.116 228.297 44.956C224.733 41.248 222.681 36.424 221.817 29.764C221.565 28 221.457 26.56 221.313 24.148H206.085C204.753 24.148 203.889 24.22 203.025 24.4L202.809 23.032C203.745 23.248 205.005 23.392 206.085 23.392ZM214.329 31.168V40.348C216.921 39.808 219.189 39.232 222.249 38.368L222.393 38.8C218.073 41.248 212.205 43.912 206.157 46.144C205.977 47.512 205.797 47.98 205.401 47.98C204.969 47.98 204.681 47.224 203.169 42.292C205.041 42.148 206.229 41.968 210.369 41.176V31.168H206.805C205.905 31.168 205.149 31.24 204.321 31.456L204.105 30.052C205.005 30.304 205.905 30.412 206.805 30.412H214.833C215.913 29.188 216.273 28.792 217.317 27.64C218.901 28.9 219.405 29.296 220.989 30.628C221.133 30.808 221.169 30.88 221.169 30.952C221.169 31.096 221.025 31.168 220.845 31.168H214.329ZM270.201 35.74H255.045C252.309 39.376 250.365 41.644 248.133 43.732C254.829 43.624 258.213 43.444 261.849 43.12C260.409 40.564 259.761 39.628 257.853 37.612L258.141 37.324C261.021 38.692 262.893 39.808 264.765 41.284C266.637 42.796 267.393 43.804 267.393 44.884C267.393 46.756 266.097 48.7 264.873 48.7C264.405 48.7 264.261 48.52 263.865 47.584C263.181 45.748 262.965 45.28 262.425 44.164C262.101 44.272 262.101 44.272 261.597 44.416C257.925 45.388 251.085 46.756 243.741 47.908C243.489 48.988 243.309 49.348 242.949 49.348C242.553 49.348 242.553 49.348 241.221 43.588C242.661 43.732 243.525 43.768 245.289 43.768C245.325 43.768 246.045 43.768 246.477 43.768C247.845 40.816 248.493 39.088 249.501 35.74H242.301C241.509 35.74 241.005 35.776 240.069 35.956L239.781 34.66C240.825 34.912 241.545 34.984 242.409 34.984H263.325C264.477 33.616 264.837 33.22 265.989 31.924C267.933 33.292 268.545 33.688 270.381 35.164C270.525 35.272 270.597 35.416 270.597 35.488C270.597 35.632 270.417 35.74 270.201 35.74ZM238.269 32.68L238.017 32.284C241.365 29.836 243.885 27.496 246.369 24.472C249.105 21.16 250.725 18.424 251.589 15.724C252.813 15.976 253.785 16.156 254.433 16.3C257.025 16.804 257.817 17.056 257.817 17.452C257.817 17.776 257.529 17.92 256.341 18.172C258.465 21.16 260.337 22.78 263.577 24.436C266.349 25.84 268.581 26.524 272.469 27.136V27.532C271.281 28.036 270.705 28.684 270.021 30.16C269.877 30.484 269.697 31.06 269.589 31.348C269.481 31.708 269.373 31.816 269.157 31.816C268.797 31.816 267.357 31.168 266.061 30.376C263.397 28.792 260.985 26.596 258.897 23.86C257.349 21.844 256.593 20.548 255.801 18.46C251.337 25.192 245.829 29.656 238.269 32.68ZM246.441 30.088L246.153 28.864C247.161 29.08 247.845 29.152 248.817 29.152H256.161C257.277 27.82 257.637 27.424 258.789 26.2C260.553 27.496 261.093 27.928 262.857 29.332C263.037 29.476 263.109 29.584 263.109 29.692C263.109 29.836 262.965 29.908 262.677 29.908H248.601C247.881 29.908 247.413 29.944 246.441 30.088ZM283.125 31.096V31.456C284.673 31.852 285.177 32.032 286.293 32.5C288.777 33.544 289.713 34.48 289.713 35.848C289.713 37.252 288.633 38.692 287.589 38.692C287.085 38.692 286.797 38.332 286.365 37.252C285.285 34.516 284.421 33.112 283.125 32.032V40.024C283.125 43.732 283.125 45.748 283.197 48.016C283.197 48.376 283.125 48.52 282.909 48.664C282.549 48.916 281.685 49.06 280.605 49.06C279.381 49.06 279.057 48.88 279.021 48.232C279.129 45.316 279.237 41.932 279.237 40.312V34.876C277.689 36.136 276.609 36.856 274.125 38.332L273.837 37.9C276.177 35.776 277.617 34.12 279.345 31.6C281.289 28.756 282.369 26.74 283.377 23.968H276.933C275.745 23.968 275.313 24.004 274.521 24.148L274.269 22.852C275.133 23.104 275.997 23.212 276.969 23.212H279.129V19.108C279.129 17.776 279.093 17.272 278.913 16.084C284.241 16.552 284.457 16.624 284.457 17.092C284.457 17.416 284.133 17.632 283.053 18.028V23.212H283.989C284.781 22.24 284.997 21.988 285.861 21.088C287.193 22.204 287.589 22.564 288.813 23.68C289.137 24.04 289.209 24.148 289.209 24.256C289.209 24.616 288.885 24.76 287.373 25.048C285.789 27.712 284.709 29.296 283.125 31.096ZM294.321 29.116H290.109C288.921 29.116 288.453 29.152 287.553 29.332L287.301 28.036C288.381 28.288 288.921 28.36 290.109 28.36H294.321V20.836C294.321 18.892 294.249 17.92 294.033 16.048C295.221 16.156 296.157 16.228 296.769 16.264C299.289 16.48 299.973 16.66 299.973 17.092C299.973 17.452 299.541 17.704 298.425 18.064V28.36H300.693C301.881 26.956 302.241 26.524 303.393 25.12C305.229 26.524 305.769 26.992 307.461 28.54C307.605 28.684 307.641 28.792 307.641 28.864C307.641 29.008 307.497 29.116 307.281 29.116H298.425V46.468H301.089C302.457 44.884 302.457 44.884 303.969 43.156C305.733 44.632 306.273 45.1 308.001 46.72C308.145 46.864 308.181 46.936 308.181 47.044C308.181 47.152 308.037 47.224 307.821 47.224H288.345C287.049 47.224 286.437 47.26 285.465 47.44L285.177 46.18C286.185 46.396 287.085 46.468 288.309 46.468H294.321V29.116ZM325.713 46.36L325.569 45.856C329.421 44.668 332.121 43.084 334.281 40.744C336.693 38.152 337.881 34.984 337.881 31.276C337.881 25.12 334.137 21.448 327.945 21.448C327.477 21.448 327.189 21.448 326.505 21.52C327.765 22.996 328.161 23.968 328.161 25.372C328.161 28.252 326.325 33.292 323.733 37.648C321.393 41.536 319.305 43.516 317.505 43.516C316.713 43.516 315.957 43.084 315.561 42.472C315.273 41.932 315.057 41.428 314.733 40.096C314.517 39.232 314.229 38.728 313.185 37.432C312.321 36.352 311.781 34.768 311.781 33.292C311.781 31.024 312.933 28.288 314.805 26.092C317.901 22.42 323.013 20.188 328.377 20.188C336.405 20.188 342.129 25.264 342.129 32.392C342.129 37.612 339.249 41.788 334.029 44.2C331.797 45.244 329.493 45.856 325.713 46.36ZM325.785 21.628C322.869 22.276 320.925 23.32 318.837 25.372C316.353 27.856 314.985 30.916 314.985 33.94C314.985 36.424 316.209 38.98 317.433 38.98C318.621 38.98 320.997 35.992 323.337 31.564C325.137 28.18 326.217 25.192 326.217 23.608C326.217 23.212 326.181 22.744 326.073 22.42C326.001 22.132 325.821 21.628 325.785 21.628ZM361.497 32.86V35.812C361.497 37.144 361.497 37.828 361.569 43.12C361.569 43.768 361.605 44.236 361.605 44.74C361.605 46 361.533 46.576 361.353 46.972C361.137 47.548 360.669 47.908 360.129 47.908C359.481 47.908 358.869 47.512 358.221 46.648C357.501 45.676 356.961 44.416 356.961 43.66C356.961 43.264 356.997 43.12 357.249 42.292C357.861 40.456 358.077 36.928 358.077 28.252C358.077 21.772 357.969 20.548 357.465 19.612C357.033 18.856 356.241 18.244 354.981 17.74C355.485 17.452 355.773 17.38 356.385 17.38C357.609 17.38 359.337 17.92 360.813 18.784C362.109 19.54 362.613 20.116 362.613 20.872C362.613 21.16 362.541 21.376 362.325 21.772C361.677 22.78 361.641 23.32 361.497 29.08C365.025 29.332 368.157 29.98 370.209 30.916C372.045 31.708 372.837 32.788 372.837 34.444C372.837 35.956 372.189 36.964 371.253 36.964C370.749 36.964 370.461 36.784 369.561 35.776C367.257 33.256 364.089 31.06 361.497 30.16V32.86ZM367.401 18.928L367.725 18.316C369.417 18.856 370.533 19.324 371.577 20.044C373.233 21.16 373.989 22.204 373.989 23.356C373.989 24.184 373.521 24.76 372.873 24.76C372.405 24.76 372.117 24.544 371.649 23.716C370.569 21.844 369.129 20.26 367.401 18.928ZM371.109 16.084L371.397 15.508C373.197 15.904 374.529 16.408 375.609 17.092C377.049 18.028 377.697 18.856 377.697 19.864C377.697 20.728 377.265 21.304 376.617 21.304C376.221 21.304 375.969 21.088 375.429 20.332C374.205 18.568 372.945 17.344 371.109 16.084ZM390.369 18.892L390.765 18.64C392.169 20.008 393.177 20.476 394.725 20.476C397.353 20.476 401.277 19.468 403.005 18.388C403.293 18.172 403.581 18.1 403.941 18.1C404.625 18.1 405.993 18.64 406.785 19.252C407.433 19.72 407.685 20.116 407.685 20.62C407.685 21.448 407.109 21.736 404.913 22.096C401.313 22.636 397.821 23.032 396.381 23.032C393.573 23.032 392.097 21.988 390.369 18.892ZM391.953 48.124L391.737 47.764C395.373 44.956 397.893 42.4 400.269 39.088C402.969 35.344 404.949 31.6 405.993 28.18C401.385 28.792 399.657 29.116 396.417 29.98C393.933 30.628 393.393 30.808 392.241 31.384C391.737 31.636 391.305 31.744 390.873 31.744C389.361 31.744 386.805 28.612 386.805 26.668C386.805 26.416 386.841 26.236 387.021 25.84C387.957 27.46 389.109 28.18 390.801 28.18C392.169 28.18 398.541 27.28 403.257 26.452C405.417 26.092 405.489 26.056 406.317 25.48C406.641 25.264 406.929 25.192 407.325 25.192C407.829 25.192 408.657 25.696 409.665 26.56C410.781 27.532 411.321 28.288 411.321 28.864C411.321 29.332 411.177 29.548 410.637 29.98C410.061 30.448 409.809 30.808 408.981 32.32C404.769 40.276 399.405 45.244 391.953 48.124ZM418.763 38.728L418.583 38.332C422.975 35.776 427.583 32.104 432.011 27.64C435.863 23.752 438.059 20.872 438.059 19.684C438.059 18.928 437.231 17.992 435.899 17.308C436.367 17.2 436.583 17.164 437.051 17.164C438.131 17.164 439.283 17.56 440.687 18.388C442.343 19.36 443.315 20.44 443.315 21.268C443.315 21.916 443.135 22.132 441.875 23.032C441.731 23.14 441.731 23.14 439.535 25.228C437.015 27.568 437.015 27.568 434.459 29.764C435.683 30.556 436.619 31.348 436.943 31.888C437.267 32.392 437.303 32.752 437.339 35.416C437.375 37.072 437.375 37.54 437.591 44.38C437.627 44.884 437.627 45.388 437.627 45.748C437.627 47.224 437.159 47.944 436.151 47.944C434.819 47.944 432.839 45.748 432.839 44.236C432.839 43.876 432.875 43.624 433.055 43.084C433.523 41.608 433.847 37.684 433.847 33.796C433.847 31.96 433.739 31.456 433.235 30.772C430.247 33.04 427.691 34.732 425.531 35.884C423.407 37 420.815 38.08 418.763 38.728ZM471.611 19.864H479.027C480.323 18.496 480.719 18.064 482.015 16.804C483.815 18.172 484.319 18.604 485.975 20.044C486.119 20.224 486.191 20.332 486.191 20.404C486.191 20.512 486.047 20.62 485.831 20.62H471.611V23.968H476.183C477.083 23.104 477.371 22.816 478.235 21.952C479.567 22.852 479.963 23.104 481.223 24.04C481.547 24.256 481.655 24.436 481.655 24.616C481.655 24.904 481.439 25.12 480.395 25.696C480.359 27.388 480.359 28.792 480.359 29.656C480.359 32.5 480.431 35.992 480.503 38.044C480.503 38.836 480.071 38.98 477.983 38.98C476.579 38.98 476.471 38.944 476.435 38.404V37.504H463.223V38.296C463.223 39.016 462.935 39.124 460.991 39.124C459.371 39.124 459.191 39.052 459.191 38.368C459.299 34.3 459.299 33.184 459.299 29.476C459.299 25.984 459.263 24.616 459.155 21.952C461.099 22.744 461.675 23.032 463.475 23.968H467.651V20.62H456.635C455.591 20.62 454.979 20.692 454.223 20.836L454.007 19.576C454.907 19.792 455.591 19.864 456.599 19.864H467.651V19.576C467.651 17.848 467.615 17.236 467.435 15.652C472.979 16.228 473.159 16.264 473.159 16.768C473.159 17.128 472.763 17.344 471.611 17.632V19.864ZM463.223 28.072H476.435V24.724H463.223V28.072ZM476.435 28.828H463.223V32.212H476.435V28.828ZM476.435 32.968H463.223V36.748H476.435V32.968ZM456.131 40.456H479.855C481.151 39.16 481.547 38.764 482.807 37.504C484.607 38.8 485.111 39.232 486.803 40.636C486.983 40.78 487.055 40.888 487.055 40.996C487.055 41.104 486.875 41.212 486.659 41.212H456.131C454.943 41.212 454.475 41.248 453.539 41.464L453.287 40.132C454.295 40.384 454.979 40.456 456.131 40.456ZM453.467 48.844L453.323 48.484C456.275 47.188 457.895 46.288 459.803 44.884C461.315 43.732 462.107 43.012 463.151 41.716C464.339 42.148 465.239 42.472 465.815 42.688C468.155 43.48 468.659 43.732 468.659 44.092C468.659 44.452 468.191 44.632 467.147 44.632C467.039 44.632 466.787 44.632 466.571 44.632C462.179 47.116 459.587 47.944 453.467 48.844ZM471.143 42.688L471.251 42.364C477.695 42.652 480.107 43.012 481.727 43.948C482.843 44.56 483.491 45.784 483.491 47.224C483.491 48.376 482.987 49.132 482.231 49.132C481.799 49.132 481.511 48.988 480.791 48.412C480.215 47.908 478.415 46.576 477.587 46.036C475.859 44.884 474.419 44.128 471.143 42.688ZM507.323 21.628H503.939C503.831 23.356 503.795 23.644 503.579 24.652C502.751 28.468 500.519 31.024 496.595 32.572C494.867 33.256 493.067 33.688 490.151 34.156L489.935 33.688C494.435 32.212 497.063 30.304 498.647 27.424C499.583 25.66 499.979 24.04 500.015 21.628H495.011C495.011 21.772 495.011 21.88 495.011 21.916C495.011 23.464 494.651 25.084 494.147 25.948C493.499 27.028 492.599 27.64 491.627 27.64C490.511 27.64 489.611 26.56 489.611 25.228C489.611 24.292 489.899 23.896 490.871 23.356C492.167 22.672 492.743 22.168 493.319 21.34C493.823 20.548 494.039 19.864 494.183 18.46H494.579C494.831 19.576 494.903 20.008 494.975 20.872H503.615V18.46C503.615 17.164 503.579 16.84 503.435 15.76C508.619 16.12 509.411 16.264 509.411 16.84C509.411 17.236 509.087 17.416 507.683 17.776V20.872H515.747C516.647 19.9 516.935 19.612 517.835 18.676C519.599 19.9 520.139 20.296 521.795 21.664C522.083 21.916 522.155 22.096 522.155 22.276C522.155 22.384 522.083 22.528 522.011 22.6C521.903 22.708 521.543 22.816 521.075 22.816L520.283 22.852C519.995 22.888 519.743 22.924 519.455 22.96C517.655 24.256 516.791 24.796 514.415 26.164L514.127 26.02C514.991 24.364 515.243 23.68 515.855 21.628H510.995V27.964C510.995 28.756 511.211 28.828 514.091 28.828C517.007 28.828 517.403 28.756 517.835 28.144C518.123 27.748 518.663 26.524 519.671 24.112H520.067L519.995 27.316L519.959 27.856C519.959 28.216 520.031 28.288 520.679 28.576C521.435 28.9 521.723 29.26 521.723 29.908C521.723 30.7 521.219 31.312 520.391 31.528C519.455 31.78 517.223 31.924 513.659 31.924C509.915 31.924 508.835 31.816 508.079 31.312C507.539 30.952 507.323 30.34 507.323 29.224V21.628ZM507.791 36.676V46.324H514.775C516.107 44.812 516.503 44.38 517.835 43.012C519.635 44.452 520.211 44.92 522.011 46.468C522.119 46.612 522.191 46.72 522.191 46.828C522.191 46.972 522.047 47.08 521.831 47.08H493.211C492.311 47.08 491.591 47.152 490.151 47.368L489.719 45.928C491.483 46.216 492.563 46.324 493.499 46.324H503.579V36.676H495.803C495.227 36.676 494.795 36.748 493.175 37L492.851 35.632C494.219 35.812 495.299 35.92 496.019 35.92H512.579C513.695 34.552 514.055 34.156 515.243 32.824C517.115 34.228 517.691 34.696 519.563 36.172C519.671 36.28 519.743 36.352 519.743 36.424C519.743 36.568 519.599 36.676 519.419 36.676H507.791ZM529.103 25.228L529.463 24.976C530.795 26.632 531.875 27.064 534.431 27.064C535.763 27.064 537.851 26.884 540.299 26.524C540.299 22.78 540.263 21.772 539.975 20.908C539.651 19.936 538.607 19.18 537.059 18.856C537.527 18.388 537.887 18.28 538.607 18.28C539.975 18.28 542.207 18.784 543.395 19.36C544.475 19.9 544.943 20.404 544.943 21.052C544.943 21.52 544.871 21.7 544.439 22.42C543.971 23.212 543.755 24.184 543.575 25.948C546.419 25.48 548.975 24.652 549.515 24.04C549.911 23.752 550.091 23.68 550.595 23.68C551.135 23.68 552.323 24.076 553.115 24.544C553.871 25.012 554.231 25.48 554.231 26.02C554.231 26.848 553.655 27.172 551.531 27.46C551.315 27.496 550.523 27.64 549.155 27.82C546.203 28.288 544.331 28.576 543.431 28.684C543.395 30.592 543.395 30.7 543.395 31.276C543.395 34.624 543.539 37.504 543.899 41.212C543.935 41.86 543.971 42.22 543.971 42.652C543.971 45.424 542.639 47.656 540.947 47.656C540.083 47.656 539.687 47.296 539.435 46.216C539.255 44.992 537.707 43.516 534.071 41.176L534.215 40.888C536.663 41.644 537.815 41.896 540.083 42.22C540.227 39.124 540.335 33.544 540.335 29.008C538.031 29.224 536.699 29.332 535.619 29.332C532.199 29.332 530.435 28.216 529.103 25.228ZM533.567 31.888L534.071 31.96C533.999 35.272 533.567 37.72 532.559 40.06C531.659 42.184 530.507 43.336 529.319 43.336C528.311 43.336 527.591 42.184 527.591 40.528C527.591 40.024 527.735 39.484 527.915 39.16C528.131 38.836 528.239 38.764 528.995 38.368C531.299 37.072 533.135 34.408 533.567 31.888ZM547.643 31.744L547.931 31.456C550.991 32.896 552.575 33.904 554.051 35.38C555.311 36.64 555.851 37.72 555.851 39.016C555.851 41.032 554.843 42.688 553.619 42.688C552.899 42.688 552.719 42.4 552.287 40.708C551.279 37.108 549.587 33.796 547.643 31.744ZM553.079 14.716C555.239 14.716 556.967 16.444 556.967 18.604C556.967 20.764 555.239 22.492 553.115 22.492C550.955 22.492 549.191 20.728 549.191 18.604C549.191 16.48 550.955 14.716 553.079 14.716ZM553.079 15.976C551.639 15.976 550.487 17.128 550.487 18.604C550.487 20.044 551.639 21.196 553.079 21.196C554.555 21.196 555.707 20.044 555.707 18.604C555.707 17.128 554.555 15.976 553.079 15.976ZM565.607 21.52L565.787 21.124C569.819 21.772 571.979 22.384 573.671 23.464C574.859 24.184 575.435 25.192 575.435 26.56C575.435 28.252 574.607 29.548 573.491 29.548C572.879 29.548 572.519 29.26 571.979 28.324C570.251 25.192 568.415 23.248 565.607 21.52ZM592.715 22.996L593.147 23.212C591.167 27.352 588.683 30.772 585.047 34.372C581.843 37.54 579.179 39.628 574.607 42.58C573.671 43.192 573.023 43.696 572.663 44.164C572.159 44.776 571.691 45.064 571.151 45.064C570.215 45.064 568.883 44.056 567.623 42.436C566.471 40.96 565.895 39.592 565.895 38.44C565.895 38.116 565.931 37.936 566.075 37.468C567.047 39.124 568.235 40.132 569.207 40.132C570.719 40.132 575.435 37.648 579.719 34.588C585.083 30.736 589.655 26.704 592.715 22.996ZM603.623 48.052L603.371 47.692C606.395 45.424 608.267 43.696 610.679 40.852C614.279 36.568 617.555 31.168 619.643 25.912C620.075 24.832 620.327 24.004 620.327 23.644C620.327 23.392 620.111 23.284 619.679 23.284C618.383 23.284 615.107 23.932 612.011 24.76C609.311 25.48 607.907 26.02 606.287 26.848C605.927 27.064 605.423 27.172 604.991 27.172C603.947 27.172 602.759 26.2 601.607 24.472C600.959 23.428 600.635 22.636 600.635 21.916C600.635 21.628 600.671 21.448 600.851 20.98C601.715 22.672 602.831 23.356 604.631 23.356C606.179 23.356 610.391 22.78 616.295 21.772C618.995 21.304 619.283 21.232 620.219 20.692C620.471 20.584 620.795 20.476 621.011 20.476C621.551 20.476 622.703 21.16 623.675 22.06C624.899 23.176 625.583 24.112 625.583 24.76C625.583 25.264 625.439 25.552 624.935 26.056C624.287 26.74 624.143 26.92 623.423 28.288C618.059 38.656 611.939 44.74 603.623 48.052ZM627.995 14.86C630.155 14.86 631.883 16.588 631.883 18.748C631.883 20.908 630.155 22.636 628.031 22.636C625.871 22.636 624.107 20.872 624.107 18.748C624.107 16.624 625.871 14.86 627.995 14.86ZM627.995 16.12C626.555 16.12 625.403 17.272 625.403 18.748C625.403 20.188 626.555 21.34 627.995 21.34C629.471 21.34 630.623 20.188 630.623 18.748C630.623 17.272 629.471 16.12 627.995 16.12ZM655.427 38.368H654.239C648.695 38.368 645.959 37.972 644.087 36.892C642.575 36.028 641.891 35.2 641.027 33.256C639.983 34.588 639.335 35.344 638.579 36.136C636.815 37.972 636.815 37.972 636.347 38.512C636.311 38.692 636.311 38.836 636.275 38.908C636.239 39.592 636.167 39.772 635.879 39.772C635.699 39.772 635.555 39.664 635.339 39.34C634.511 37.468 634.511 37.468 633.575 35.308C635.015 35.02 636.383 34.48 638.039 33.58V27.388H635.735C635.591 27.388 634.943 27.424 633.863 27.496L633.647 26.38C634.475 26.524 635.339 26.632 635.807 26.632H637.967C638.759 25.804 639.011 25.516 639.839 24.688C641.099 25.624 641.495 25.912 642.683 26.884C642.863 27.1 642.935 27.208 642.935 27.316C642.935 27.532 642.611 27.82 641.819 28.324V33.184C642.467 34.264 643.043 34.696 644.231 34.984C645.635 35.344 647.327 35.488 650.423 35.488C654.887 35.488 661.655 35.092 667.019 34.552V34.876C665.723 35.488 665.183 36.172 664.823 37.576C664.679 38.008 664.643 38.044 664.319 38.116C663.923 38.152 663.923 38.152 659.279 38.296V40.78H660.539C661.655 39.7 661.655 39.7 662.843 38.512C664.355 39.556 664.823 39.88 666.371 41.032C666.551 41.14 666.623 41.248 666.623 41.356C666.623 41.464 666.479 41.536 666.227 41.536H659.279V42.256C659.279 42.58 659.279 43.876 659.351 46.144C659.315 47.116 659.135 47.62 658.631 48.088C657.875 48.772 656.651 49.168 654.815 49.348C654.491 49.384 654.347 49.384 654.239 49.384C653.915 49.384 653.843 49.312 653.807 48.88C653.735 48.232 653.519 47.62 653.231 47.296C652.727 46.684 652.727 46.684 648.947 45.532V45.208C651.323 45.352 651.647 45.352 655.031 45.424C655.319 45.352 655.427 45.244 655.427 44.92V41.536H636.851C636.455 41.536 634.547 41.644 634.079 41.68L633.863 40.6C634.727 40.708 636.239 40.78 636.923 40.78H655.427V38.368ZM651.323 19.864H654.923C655.715 18.496 656.471 16.552 656.687 15.256C660.935 16.336 661.619 16.552 661.619 16.876C661.619 17.2 661.259 17.344 660.215 17.488C658.811 18.424 658.811 18.424 656.435 19.864H660.827C661.475 19.072 662.159 18.28 662.807 17.488C664.355 18.568 664.823 18.928 666.371 20.08C666.479 20.224 666.551 20.332 666.551 20.404C666.551 20.548 666.407 20.62 666.227 20.62H655.823C654.635 21.7 654.095 22.132 652.727 23.14H658.631C659.387 22.312 659.603 22.096 660.431 21.268C661.799 22.204 662.195 22.456 663.491 23.392C663.599 23.536 663.671 23.608 663.671 23.716C663.671 24.004 663.455 24.22 662.627 24.688C662.627 30.088 662.627 30.088 662.735 33.436C662.699 33.76 662.591 33.868 662.339 33.976C661.943 34.156 660.827 34.264 659.819 34.264C659.207 34.264 659.027 34.192 658.919 33.832V33.184H648.875V33.544C648.731 34.12 648.371 34.264 647.003 34.264C646.715 34.264 646.499 34.3 646.319 34.3C646.175 34.3 646.103 34.3 646.067 34.3C645.419 34.3 645.203 34.156 645.167 33.688C645.239 31.672 645.275 30.736 645.275 27.136C645.275 23.824 645.239 22.996 645.131 21.376C646.967 22.06 647.507 22.312 649.307 23.14H651.107C651.359 21.988 651.359 21.988 651.467 20.62H645.599C645.131 20.62 643.727 20.728 643.007 20.8L642.755 19.612C643.583 19.756 644.987 19.864 645.815 19.864H649.235C648.947 19.54 648.911 19.432 648.767 18.892C648.299 17.344 647.759 16.516 646.607 15.616L646.823 15.292C650.891 16.048 652.187 16.732 652.187 18.136C652.187 18.748 651.863 19.36 651.323 19.864ZM648.875 26.056H658.919V23.896H648.875V26.056ZM658.919 26.812H648.875V29.116H658.919V26.812ZM658.919 29.872H648.875V32.428H658.919V29.872ZM634.691 16.768L634.907 16.444C638.075 17.272 639.947 17.992 641.027 18.784C641.855 19.36 642.107 19.828 642.107 20.728C642.107 22.168 641.099 23.68 640.127 23.68C639.731 23.68 639.515 23.5 639.011 22.564C637.643 19.972 636.635 18.64 634.691 16.768ZM640.991 42.436L641.099 42.148C646.175 43.012 648.083 43.948 648.083 45.64C648.083 47.116 647.075 48.52 645.959 48.52C645.455 48.52 645.131 48.232 644.771 47.44C643.763 45.208 642.827 43.948 640.991 42.436ZM703.055 43.084L703.019 43.444C701.183 44.2 700.103 45.316 699.455 47.188C699.311 47.548 699.167 47.692 698.987 47.692C698.663 47.692 697.367 46.936 696.287 46.072C693.263 43.696 690.743 40.42 689.015 36.568C687.899 34.192 687.287 32.14 686.459 28.54C684.011 38.368 678.575 44.668 669.575 48.196L669.359 47.8C674.039 44.488 676.775 41.464 679.043 36.964C680.339 34.408 681.275 31.708 681.923 28.54C682.391 26.38 682.751 23.968 682.751 22.96C682.751 22.852 682.751 22.672 682.751 22.42C684.443 22.744 684.443 22.744 685.667 22.996C685.631 21.664 685.595 21.016 685.595 20.26C685.595 20.188 685.595 20.008 685.595 19.828H679.151C678.575 19.828 678.071 19.864 676.739 19.972L676.559 18.748C677.675 18.964 678.575 19.072 679.295 19.072H684.875C685.559 18.172 685.775 17.92 686.495 17.02C687.503 17.812 687.827 18.064 688.799 18.892C689.087 19.144 689.195 19.288 689.195 19.396C689.195 19.72 688.691 19.972 686.351 20.728C686.711 24.688 687.251 27.172 688.511 30.124C690.275 34.3 692.831 37.504 696.179 39.844C698.231 41.248 699.959 42.076 703.055 43.084ZM719.903 32.608H710.723C709.787 32.608 709.319 32.644 708.635 32.824L708.455 31.564C709.319 31.78 709.895 31.852 710.759 31.852H719.903V28.828H713.819V29.548C713.783 30.412 713.423 30.556 711.263 30.556C710.039 30.556 709.859 30.484 709.859 29.908C709.931 27.928 709.967 26.38 709.967 24.58C709.967 23.572 709.931 22.816 709.823 21.376C711.731 22.096 712.307 22.348 714.143 23.212H719.903V21.952C719.903 21.592 719.903 21.34 719.903 20.44H708.203C707.267 20.44 706.871 20.476 706.007 20.656L705.791 19.36C706.799 19.612 707.339 19.684 708.203 19.684H719.867C719.867 17.668 719.831 17.164 719.651 15.544C720.767 15.652 721.667 15.76 722.243 15.796C724.655 16.012 725.231 16.156 725.231 16.624C725.231 16.984 724.835 17.2 723.791 17.488V19.684H731.891C733.043 18.424 733.403 18.064 734.555 16.876C736.355 18.136 736.859 18.532 738.551 19.9C738.659 20.044 738.731 20.116 738.731 20.188C738.731 20.332 738.551 20.44 738.371 20.44H723.791V23.212H729.767C730.559 22.384 730.811 22.168 731.675 21.376C732.971 22.132 733.367 22.384 734.555 23.212C734.879 23.428 735.023 23.608 735.023 23.788C735.023 24.076 734.879 24.184 733.871 24.76C733.871 27.604 733.871 27.604 733.907 29.116C733.907 29.836 733.619 29.98 732.179 30.088C733.691 31.06 733.691 31.06 734.843 31.852C735.131 32.104 735.239 32.248 735.239 32.392C735.239 32.644 734.987 32.86 734.195 33.292V36.028H734.591C735.419 35.02 735.707 34.696 736.535 33.76C737.723 34.84 738.083 35.164 739.199 36.28C739.271 36.388 739.343 36.496 739.343 36.604C739.343 36.712 739.199 36.784 738.983 36.784H734.195C734.267 39.484 734.267 40.312 734.375 42.688C734.375 43.552 733.871 43.732 731.639 43.732C730.559 43.732 730.379 43.624 730.379 42.976V41.212H723.863C723.899 43.3 723.899 43.3 723.935 44.812C723.935 47.116 723.251 47.98 720.875 48.628C720.191 48.808 719.111 48.988 718.607 48.988C718.247 48.988 718.139 48.844 718.103 48.34C718.031 47.512 717.671 46.864 716.879 46.396C716.195 46 715.655 45.82 712.163 44.992L712.199 44.524C716.663 44.848 716.843 44.848 719.363 44.848C719.399 44.848 719.435 44.848 719.471 44.848C719.795 44.848 719.903 44.74 719.903 44.452V41.212H710.543C709.715 41.212 709.247 41.248 708.455 41.428L708.203 40.168C708.995 40.384 709.679 40.456 710.543 40.456H719.903V36.784H707.483C706.691 36.784 706.259 36.82 705.431 37L705.215 35.704C706.079 35.92 706.763 36.028 707.483 36.028H719.903V32.608ZM719.903 28.072V23.968H713.819V28.072H719.903ZM723.791 31.852H730.019C730.703 31.132 730.703 31.132 731.783 30.088C730.199 30.088 730.055 30.052 730.055 29.476V28.828H723.791V31.852ZM730.055 28.072V23.968H723.791V28.072H730.055ZM723.791 32.608V36.028H730.379V32.608H723.791ZM730.379 36.784H723.791V37.504L723.863 40.456H730.379V36.784ZM746.507 26.992L747.479 27.136C749.063 27.352 749.279 27.424 749.279 27.784C749.279 28.072 749.027 28.252 748.055 28.576V35.956C748.055 36.784 748.055 38.296 748.055 40.312C748.091 43.552 748.091 43.66 748.091 47.8C748.091 48.16 747.983 48.304 747.803 48.412C747.479 48.592 746.507 48.736 745.355 48.736C744.599 48.736 744.311 48.52 744.311 48.016C744.311 47.98 744.311 47.908 744.311 47.836C744.419 43.228 744.491 38.98 744.491 36.28V30.016C743.267 31.708 742.367 32.716 740.603 34.408L740.279 34.12C742.187 30.772 743.231 28.396 744.491 24.508C745.823 20.512 746.363 18.064 746.471 15.724C751.331 16.588 751.907 16.732 751.907 17.2C751.907 17.488 751.475 17.74 750.503 17.956C749.279 21.448 747.875 24.724 746.507 26.992ZM750.575 19.756L750.395 18.676C751.259 18.82 751.619 18.856 752.159 18.856H758.387C759.539 17.524 759.539 17.524 760.619 16.3C762.059 17.452 762.455 17.812 763.787 19.036C763.895 19.18 763.967 19.288 763.967 19.324C763.967 19.396 763.931 19.432 763.931 19.504C767.783 19.864 768.143 19.936 768.143 20.404C768.143 20.692 767.891 20.872 766.955 21.232V29.836C766.955 30.052 766.991 36.028 767.027 39.916C766.991 40.348 766.847 40.492 766.523 40.636C766.199 40.744 765.083 40.888 764.327 40.888C763.499 40.888 763.247 40.708 763.247 40.06C763.355 34.156 763.391 31.636 763.391 26.92C763.391 22.888 763.355 21.556 763.247 19.612H756.839C756.479 22.132 756.119 23.86 755.543 25.624H758.423C759.143 24.868 759.359 24.616 760.115 23.824C761.267 24.652 761.627 24.904 762.671 25.732C763.031 25.984 763.139 26.164 763.139 26.344C763.139 26.632 762.923 26.848 762.023 27.28C761.231 32.104 760.619 34.48 759.395 37.18C757.955 40.456 755.975 43.084 753.311 45.352C752.231 46.288 751.259 47.008 749.027 48.448L748.811 48.16C752.051 44.812 753.599 42.652 755.327 38.944C757.091 35.092 757.883 32.068 758.567 26.38H755.291C754.715 27.964 754.607 28.216 753.887 29.656C754.571 30.124 755.255 30.736 755.939 31.492C756.623 32.32 756.911 32.968 756.911 33.76C756.911 35.272 755.723 36.856 754.607 36.856C754.211 36.856 753.923 36.46 753.923 35.884C753.923 35.776 753.923 35.632 753.959 35.488C754.175 33.94 754.247 33.148 754.247 32.464C754.247 31.672 754.031 30.808 753.635 30.16C752.231 32.788 750.827 34.624 748.631 36.784L748.379 36.532C751.115 31.6 752.519 26.452 753.023 19.612H752.123C751.547 19.612 751.223 19.648 750.575 19.756ZM761.915 44.812L761.951 44.38C766.235 44.596 766.379 44.596 768.719 44.632C769.115 44.596 769.223 44.452 769.223 43.948V19.864C769.223 18.1 769.223 17.74 769.115 16.372C770.195 16.48 771.059 16.588 771.635 16.66C773.939 16.912 774.479 17.092 774.479 17.524C774.479 17.848 774.047 18.1 772.967 18.424V34.516C772.967 36.46 773.003 39.808 773.039 44.668C773.003 46.54 772.499 47.404 771.131 47.98C770.159 48.412 768.791 48.7 767.891 48.7C767.531 48.7 767.459 48.628 767.387 48.052C767.279 47.26 766.919 46.576 766.307 46.18C765.695 45.748 765.191 45.604 761.915 44.812Z" fill="#006281"/>
<rect y="2" width="3" height="60" fill="#006281"/>
<rect x="795" width="3" height="60" fill="#006281"/>
</svg>
