<svg width="321" height="72" viewBox="0 0 321 72" fill="none" xmlns="http://www.w3.org/2000/svg">
<path d="M57.2508 18.016H59.8668C60.5388 17.152 60.7788 16.864 61.4268 15.976C62.5548 16.888 62.8908 17.176 63.9468 18.112C64.0428 18.232 64.0908 18.304 64.0908 18.352C64.0908 18.448 63.9708 18.52 63.8268 18.52H57.4908C57.9708 19.672 58.6188 20.656 59.5308 21.664C60.9948 23.2 62.5068 24.16 64.5228 24.808V25.048C63.6348 25.648 63.3708 26.104 63.0588 27.616C62.9868 27.856 62.9148 27.976 62.7708 27.976C62.5548 27.976 61.7388 27.28 60.9948 26.464C59.3148 24.592 58.3308 22.648 57.2748 19.048L57.2988 23.248C57.3228 26.44 57.3228 26.44 57.3948 29.248C57.3948 29.536 57.3468 29.68 57.2028 29.752C56.9628 29.92 56.3388 30.016 55.5468 30.016C54.8268 30.016 54.6588 29.92 54.6588 29.488C54.7788 26.56 54.7788 26.56 54.8028 23.944L54.8268 21.784C52.7148 24.808 50.9868 26.32 47.7228 28.024L47.5788 27.832C49.6188 25.816 50.5788 24.616 51.8508 22.432C52.6428 21.04 53.2428 19.84 53.7468 18.52H50.1228C50.2668 18.808 50.2908 18.952 50.2908 19.168C50.2908 20.104 49.5228 21.088 48.8028 21.088C48.4188 21.088 48.2268 20.8 48.1788 20.056C48.0348 18.376 47.7468 17.488 47.0748 16.48C47.0748 17.056 47.0748 17.056 47.0748 17.656C47.0748 22.792 47.0748 26.464 47.0988 29.2C47.0988 29.824 46.7868 29.944 45.2508 29.944C44.6028 29.944 44.4348 29.848 44.4348 29.44C44.5548 26.704 44.5548 26.704 44.6508 21.424L44.6988 19.336C43.6908 21.616 42.8268 22.96 41.3628 24.52L41.1228 24.352C42.1068 22.384 42.6828 20.8 43.3788 18.28C43.8588 16.552 44.0508 15.688 44.3628 13.792H42.9228C42.3708 13.792 42.1068 13.816 41.6268 13.936L41.4348 13.072C41.9628 13.24 42.3468 13.288 42.9228 13.288H44.5548V10.84C44.5548 9.688 44.5308 9.088 44.4108 7.936C45.1548 8.008 45.7068 8.056 46.0908 8.08C47.5548 8.224 47.9628 8.32 47.9628 8.584C47.9628 8.8 47.7228 8.944 47.0748 9.16V13.288H47.4348C47.9388 12.592 48.1068 12.376 48.5868 11.752C49.4268 12.472 49.6188 12.64 50.4108 13.408C50.8668 11.68 51.0108 10.864 51.1548 9.208C54.1788 9.952 54.5388 10.072 54.5388 10.336C54.5388 10.528 54.3468 10.624 53.6268 10.792C53.1228 11.968 52.8828 12.4 52.4508 13.192H54.7068V10.624C54.7068 9.232 54.7068 8.872 54.6588 7.864C55.3548 7.96 55.8828 8.032 56.2428 8.056C57.9708 8.248 58.2348 8.32 58.2348 8.608C58.2348 8.824 57.9948 8.968 57.2508 9.256V13.192H59.2188C59.8908 12.352 60.1068 12.064 60.7548 11.272C61.8588 12.136 62.1708 12.4 63.2268 13.336C63.3228 13.432 63.3708 13.504 63.3708 13.552C63.3708 13.648 63.2748 13.696 63.1308 13.696H57.2508V18.016ZM54.7068 18.016V13.696H52.1628C51.4668 14.872 50.4348 16.096 49.3068 17.104L49.1148 16.96C49.6668 15.712 49.8828 15.16 50.3148 13.792H47.0748V16.048C48.3468 16.672 48.9708 17.128 49.8108 18.016H54.7068ZM68.0748 12.928H78.2028C78.1788 12.232 78.1548 11.824 78.1548 10.96C78.1068 9.424 78.0828 8.968 77.9628 7.936C81.1548 8.224 81.3228 8.248 81.6108 8.392C81.7068 8.44 81.7788 8.56 81.7788 8.632C81.7788 8.872 81.5388 9.016 80.7948 9.208C80.7708 10.36 80.7708 11.056 80.7708 11.344C80.7708 11.776 80.7708 12.04 80.7948 12.928H83.4588C83.8428 12.496 83.9388 12.376 84.2028 12.064C83.7948 12.016 83.7468 11.944 83.4588 11.08C83.1708 10.288 82.7868 9.64 81.9228 8.56L82.0188 8.368C83.4588 8.728 84.0108 8.896 84.5628 9.184C85.3788 9.592 85.7148 10 85.7148 10.552C85.7148 10.816 85.6668 10.984 85.4988 11.32C86.5308 12.064 86.6988 12.208 87.6588 13.024C87.7548 13.144 87.8028 13.216 87.8028 13.288C87.8028 13.384 87.6828 13.432 87.5148 13.432H80.8188C80.8908 15.544 81.0348 17.008 81.2748 18.352C81.6108 20.272 82.3308 22.168 83.2668 23.584C83.7708 24.352 84.2028 24.808 85.3308 25.72C86.3388 23.8 86.6268 23.176 87.5148 21.208L87.7788 21.28L87.0588 25.432C87.0108 25.72 86.9628 26.08 86.9628 26.272C86.9628 26.584 87.0348 26.728 87.4188 27.16C87.7068 27.52 87.8268 27.784 87.8268 28.144C87.8268 28.912 87.2268 29.56 86.5308 29.56C85.5708 29.56 84.2748 28.744 82.8828 27.304C80.5068 24.832 79.1388 21.616 78.5628 17.176C78.3948 16 78.3228 15.04 78.2268 13.432H68.0748C67.1868 13.432 66.6108 13.48 66.0348 13.6L65.8908 12.688C66.5148 12.832 67.3548 12.928 68.0748 12.928ZM73.5708 18.112V24.232C75.2988 23.872 76.8108 23.488 78.8508 22.912L78.9468 23.2C76.0668 24.832 72.1548 26.608 68.1228 28.096C68.0028 29.008 67.8828 29.32 67.6188 29.32C67.3308 29.32 67.1388 28.816 66.1308 25.528C67.3788 25.432 68.1708 25.312 70.9308 24.784V18.112H68.5548C67.9548 18.112 67.4508 18.16 66.8988 18.304L66.7548 17.368C67.3548 17.536 67.9548 17.608 68.5548 17.608H73.9068C74.6268 16.792 74.8668 16.528 75.5628 15.76C76.6188 16.6 76.9548 16.864 78.0108 17.752C78.1068 17.872 78.1308 17.92 78.1308 17.968C78.1308 18.064 78.0348 18.112 77.9148 18.112H73.5708ZM110.819 21.16H100.715C98.8908 23.584 97.5948 25.096 96.1068 26.488C100.571 26.416 102.827 26.296 105.251 26.08C104.291 24.376 103.859 23.752 102.587 22.408L102.779 22.216C104.699 23.128 105.947 23.872 107.195 24.856C108.443 25.864 108.947 26.536 108.947 27.256C108.947 28.504 108.083 29.8 107.267 29.8C106.955 29.8 106.859 29.68 106.595 29.056C106.139 27.832 105.995 27.52 105.635 26.776C105.419 26.848 105.419 26.848 105.083 26.944C102.635 27.592 98.0748 28.504 93.1788 29.272C93.0108 29.992 92.8908 30.232 92.6508 30.232C92.3868 30.232 92.3868 30.232 91.4988 26.392C92.4588 26.488 93.0348 26.512 94.2108 26.512C94.2348 26.512 94.7148 26.512 95.0028 26.512C95.9148 24.544 96.3468 23.392 97.0188 21.16H92.2188C91.6908 21.16 91.3548 21.184 90.7308 21.304L90.5388 20.44C91.2348 20.608 91.7148 20.656 92.2908 20.656H106.235C107.003 19.744 107.243 19.48 108.011 18.616C109.307 19.528 109.715 19.792 110.939 20.776C111.035 20.848 111.083 20.944 111.083 20.992C111.083 21.088 110.963 21.16 110.819 21.16ZM89.5308 19.12L89.3628 18.856C91.5948 17.224 93.2748 15.664 94.9308 13.648C96.7548 11.44 97.8348 9.616 98.4108 7.816C99.2268 7.984 99.8748 8.104 100.307 8.2C102.035 8.536 102.563 8.704 102.563 8.968C102.563 9.184 102.371 9.28 101.579 9.448C102.995 11.44 104.243 12.52 106.403 13.624C108.251 14.56 109.739 15.016 112.331 15.424V15.688C111.539 16.024 111.155 16.456 110.699 17.44C110.603 17.656 110.483 18.04 110.411 18.232C110.339 18.472 110.267 18.544 110.123 18.544C109.883 18.544 108.923 18.112 108.059 17.584C106.283 16.528 104.675 15.064 103.283 13.24C102.251 11.896 101.747 11.032 101.219 9.64C98.2428 14.128 94.5708 17.104 89.5308 19.12ZM94.9788 17.392L94.7868 16.576C95.4588 16.72 95.9148 16.768 96.5628 16.768H101.459C102.203 15.88 102.443 15.616 103.211 14.8C104.387 15.664 104.747 15.952 105.923 16.888C106.043 16.984 106.091 17.056 106.091 17.128C106.091 17.224 105.995 17.272 105.803 17.272H96.4188C95.9388 17.272 95.6268 17.296 94.9788 17.392ZM119.435 18.064V18.304C120.467 18.568 120.803 18.688 121.547 19C123.203 19.696 123.827 20.32 123.827 21.232C123.827 22.168 123.107 23.128 122.411 23.128C122.075 23.128 121.883 22.888 121.595 22.168C120.875 20.344 120.299 19.408 119.435 18.688V24.016C119.435 26.488 119.435 27.832 119.483 29.344C119.483 29.584 119.435 29.68 119.291 29.776C119.051 29.944 118.475 30.04 117.755 30.04C116.939 30.04 116.723 29.92 116.699 29.488C116.771 27.544 116.843 25.288 116.843 24.208V20.584C115.811 21.424 115.091 21.904 113.435 22.888L113.243 22.6C114.803 21.184 115.763 20.08 116.915 18.4C118.211 16.504 118.931 15.16 119.603 13.312H115.307C114.515 13.312 114.227 13.336 113.699 13.432L113.531 12.568C114.107 12.736 114.683 12.808 115.331 12.808H116.771V10.072C116.771 9.184 116.747 8.848 116.627 8.056C120.179 8.368 120.323 8.416 120.323 8.728C120.323 8.944 120.107 9.088 119.387 9.352V12.808H120.011C120.539 12.16 120.683 11.992 121.259 11.392C122.147 12.136 122.411 12.376 123.227 13.12C123.443 13.36 123.491 13.432 123.491 13.504C123.491 13.744 123.275 13.84 122.267 14.032C121.211 15.808 120.491 16.864 119.435 18.064ZM126.899 16.744H124.091C123.299 16.744 122.987 16.768 122.387 16.888L122.219 16.024C122.939 16.192 123.299 16.24 124.091 16.24H126.899V11.224C126.899 9.928 126.851 9.28 126.707 8.032C127.499 8.104 128.123 8.152 128.531 8.176C130.211 8.32 130.667 8.44 130.667 8.728C130.667 8.968 130.379 9.136 129.635 9.376V16.24H131.147C131.939 15.304 132.179 15.016 132.947 14.08C134.171 15.016 134.531 15.328 135.659 16.36C135.755 16.456 135.779 16.528 135.779 16.576C135.779 16.672 135.683 16.744 135.539 16.744H129.635V28.312H131.411C132.323 27.256 132.323 27.256 133.331 26.104C134.507 27.088 134.867 27.4 136.019 28.48C136.115 28.576 136.139 28.624 136.139 28.696C136.139 28.768 136.043 28.816 135.899 28.816H122.915C122.051 28.816 121.643 28.84 120.995 28.96L120.803 28.12C121.475 28.264 122.075 28.312 122.891 28.312H126.899V16.744ZM141.827 29.248L141.635 29.032C143.603 27.232 145.067 25.12 146.099 22.576C146.843 20.752 147.467 18.28 147.467 17.08C147.467 16.552 147.299 16.24 146.867 15.904C146.579 15.664 146.243 15.496 145.811 15.376C146.075 15.136 146.291 15.064 146.723 15.064C147.611 15.064 149.531 15.904 150.419 16.672C152.315 15.352 154.931 12.784 154.931 12.28C154.931 12.064 154.715 11.992 154.043 11.992C152.747 11.992 149.891 12.4 147.467 12.904C145.547 13.336 144.419 13.696 143.243 14.296C142.667 14.584 142.475 14.632 142.187 14.632C141.563 14.632 140.723 13.984 140.051 12.952C139.619 12.28 139.307 11.488 139.307 11.008C139.307 10.792 139.355 10.576 139.451 10.312C140.051 11.416 140.843 11.872 142.115 11.872C142.955 11.872 143.339 11.848 146.651 11.464C150.851 10.96 152.171 10.816 153.131 10.672C153.851 10.576 153.851 10.576 154.571 10.288C154.739 10.216 154.859 10.192 155.003 10.192C155.435 10.192 155.867 10.432 156.635 11.08C157.835 12.112 158.579 13.072 158.579 13.6C158.579 13.936 158.411 14.2 158.099 14.344C157.931 14.44 157.859 14.464 157.379 14.56C157.091 14.632 156.827 14.704 156.443 14.896C154.355 15.88 153.539 16.216 150.539 17.368C150.131 18.736 149.867 19.648 149.699 20.104C148.691 22.96 147.395 25 145.355 26.824C144.179 27.88 143.123 28.624 141.827 29.248ZM162.203 28.144L162.011 27.928C163.019 26.872 163.547 26.152 164.243 24.88C165.443 22.672 166.139 20.704 166.619 18.064C166.787 17.2 166.907 16.144 166.907 15.616C166.907 14.584 166.379 13.96 165.131 13.528C165.419 13.336 165.611 13.288 166.043 13.288C166.643 13.288 167.771 13.696 168.731 14.272C169.547 14.776 169.979 15.256 169.979 15.688C169.979 15.952 169.907 16.144 169.691 16.6C169.547 16.864 169.547 16.888 168.755 19.648C168.011 22.168 166.739 24.376 165.107 25.96C164.171 26.848 163.427 27.424 162.203 28.144ZM183.851 17.056L184.067 17.224C183.059 19.168 182.411 20.08 181.235 21.424C179.963 22.84 177.731 24.76 176.003 25.936C175.331 26.392 175.211 26.488 174.755 26.944C174.515 27.184 174.299 27.304 174.059 27.304C173.267 27.304 171.971 25.624 171.971 24.592C171.971 24.424 171.971 24.424 172.091 24.088C172.331 23.416 172.379 22.552 172.379 17.272C172.379 15.016 172.283 12.712 172.187 12.016C172.019 11.08 171.443 10.552 170.339 10.264C170.627 9.976 170.819 9.904 171.203 9.904C171.947 9.904 173.099 10.24 174.107 10.768C175.019 11.224 175.451 11.68 175.451 12.16C175.451 12.424 175.403 12.568 175.139 13.096C175.019 13.384 174.923 13.936 174.827 14.992C174.659 16.696 174.395 21.784 174.395 23.128C174.395 23.224 174.395 23.464 174.419 23.704C177.587 22.48 181.475 19.744 183.851 17.056ZM183.981 25.744L183.861 25.552C185.661 24.064 187.389 22.072 188.901 19.744C190.173 17.8 190.869 16.288 190.869 15.544C190.869 15.232 190.677 14.896 190.317 14.56C190.125 14.368 189.933 14.248 189.405 13.984C189.741 13.864 189.885 13.816 190.149 13.816C190.869 13.816 191.781 14.152 192.813 14.872C193.821 15.52 194.301 16.096 194.301 16.576C194.301 16.84 194.181 17.08 193.845 17.344C193.413 17.68 193.389 17.728 192.693 18.64C190.389 21.784 186.885 24.64 183.981 25.744ZM196.845 14.128L197.061 13.888C199.413 14.968 201.741 16.576 203.301 18.256C204.813 19.912 205.317 20.872 205.317 22.168C205.317 23.656 204.645 24.784 203.757 24.784C203.229 24.784 203.061 24.568 202.701 23.464C201.573 19.792 199.509 16.48 196.845 14.128ZM202.221 9.064L202.413 8.68C203.637 8.944 204.525 9.28 205.221 9.736C206.181 10.36 206.613 10.912 206.613 11.584C206.613 12.16 206.325 12.544 205.893 12.544C205.629 12.544 205.461 12.4 205.101 11.896C204.285 10.72 203.445 9.904 202.221 9.064ZM199.749 10.96L199.965 10.552C201.093 10.912 201.837 11.224 202.533 11.704C203.637 12.448 204.141 13.144 204.141 13.912C204.141 14.464 203.853 14.848 203.397 14.848C203.085 14.848 202.893 14.704 202.581 14.152C201.861 12.904 200.925 11.848 199.749 10.96ZM211.773 16.24L211.917 16.072C214.845 17.248 215.901 18.136 215.901 19.384C215.901 20.296 215.325 21.088 214.677 21.088C214.317 21.088 214.101 20.872 213.909 20.272C213.285 18.304 212.781 17.344 211.773 16.24ZM216.093 15.232L216.261 15.04C217.581 15.52 218.397 15.928 219.117 16.504C219.741 17.056 220.005 17.512 220.005 18.184C220.005 19.096 219.357 19.96 218.685 19.96C218.445 19.96 218.229 19.816 218.109 19.576C218.037 19.408 218.037 19.408 217.797 18.52C217.365 16.936 216.957 16.144 216.093 15.232ZM214.677 29.032L214.485 28.792C216.957 26.92 218.997 24.616 220.869 21.568C222.093 19.552 223.077 17.272 223.077 16.432C223.077 15.832 222.741 15.424 221.805 14.944C222.045 14.824 222.141 14.8 222.357 14.8C223.125 14.8 224.229 15.232 225.165 15.928C225.741 16.336 226.005 16.696 226.005 17.056C226.005 17.344 225.957 17.416 225.669 17.776C225.453 18.016 225.189 18.448 224.757 19.192C222.861 22.6 221.229 24.664 219.045 26.44C217.725 27.496 216.285 28.336 214.677 29.032ZM234.381 20.728L234.213 20.488C236.517 18.568 238.629 16 240.381 13.072C241.125 11.824 241.413 11.152 241.413 10.672C241.413 10.336 241.317 10.12 241.077 9.832C240.765 9.448 240.597 9.328 239.925 9.016C240.213 8.896 240.333 8.872 240.549 8.872C241.413 8.872 242.733 9.4 243.741 10.144C244.245 10.504 244.509 10.912 244.509 11.248C244.509 11.584 244.461 11.68 243.861 12.448C243.837 12.472 243.549 12.856 243.189 13.336C243.405 13.36 243.573 13.384 243.669 13.384C244.053 13.384 245.397 13.192 246.165 13.048C247.029 12.88 247.341 12.784 247.821 12.52C248.253 12.304 248.349 12.256 248.541 12.256C248.925 12.256 249.525 12.616 250.197 13.264C250.821 13.864 251.133 14.344 251.133 14.728C251.133 15.016 251.013 15.232 250.677 15.496C250.173 15.856 250.149 15.88 249.453 17.056C247.773 19.864 246.741 21.256 245.229 22.84C242.301 25.912 238.677 28.144 234.813 29.248L234.693 28.984C236.205 28.144 236.997 27.64 238.173 26.68C241.173 24.28 243.501 21.712 245.397 18.76C246.261 17.416 247.389 15.28 247.605 14.608C247.653 14.44 247.701 14.344 247.701 14.296C247.725 14.248 247.749 14.2 247.749 14.176C247.749 14.128 247.701 14.08 247.677 14.056C247.653 14.056 247.653 14.056 247.605 14.056C247.581 14.056 247.557 14.056 247.509 14.032C247.485 14.032 247.461 14.056 247.413 14.08C247.365 14.104 247.269 14.104 247.149 14.128C246.933 14.128 245.901 14.368 245.325 14.536C244.821 14.704 244.821 14.704 244.413 14.824C244.269 14.848 244.173 14.872 244.101 14.872C243.669 14.872 243.141 14.584 242.613 14.056C240.213 17.104 237.261 19.504 234.381 20.728ZM266.397 28.24L266.301 27.904C268.869 27.112 270.669 26.056 272.109 24.496C273.717 22.768 274.509 20.656 274.509 18.184C274.509 14.08 272.013 11.632 267.885 11.632C267.573 11.632 267.381 11.632 266.925 11.68C267.765 12.664 268.029 13.312 268.029 14.248C268.029 16.168 266.805 19.528 265.077 22.432C263.517 25.024 262.125 26.344 260.925 26.344C260.397 26.344 259.893 26.056 259.629 25.648C259.437 25.288 259.293 24.952 259.077 24.064C258.933 23.488 258.741 23.152 258.045 22.288C257.469 21.568 257.109 20.512 257.109 19.528C257.109 18.016 257.877 16.192 259.125 14.728C261.189 12.28 264.597 10.792 268.173 10.792C273.525 10.792 277.341 14.176 277.341 18.928C277.341 22.408 275.421 25.192 271.941 26.8C270.453 27.496 268.917 27.904 266.397 28.24ZM266.445 11.752C264.501 12.184 263.205 12.88 261.813 14.248C260.157 15.904 259.245 17.944 259.245 19.96C259.245 21.616 260.061 23.32 260.877 23.32C261.669 23.32 263.253 21.328 264.813 18.376C266.013 16.12 266.733 14.128 266.733 13.072C266.733 12.808 266.709 12.496 266.637 12.28C266.589 12.088 266.469 11.752 266.445 11.752ZM27.3313 53.24V55.208C27.3313 56.096 27.3313 56.552 27.3793 60.08C27.3793 60.512 27.4033 60.824 27.4033 61.16C27.4033 62 27.3553 62.384 27.2353 62.648C27.0913 63.032 26.7793 63.272 26.4193 63.272C25.9873 63.272 25.5793 63.008 25.1473 62.432C24.6673 61.784 24.3073 60.944 24.3073 60.44C24.3073 60.176 24.3313 60.08 24.4993 59.528C24.9073 58.304 25.0513 55.952 25.0513 50.168C25.0513 45.848 24.9793 45.032 24.6433 44.408C24.3553 43.904 23.8273 43.496 22.9873 43.16C23.3233 42.968 23.5153 42.92 23.9233 42.92C24.7393 42.92 25.8913 43.28 26.8753 43.856C27.7393 44.36 28.0753 44.744 28.0753 45.248C28.0753 45.44 28.0273 45.584 27.8833 45.848C27.4513 46.52 27.4273 46.88 27.3313 50.72C29.6833 50.888 31.7713 51.32 33.1393 51.944C34.3633 52.472 34.8913 53.192 34.8913 54.296C34.8913 55.304 34.4593 55.976 33.8353 55.976C33.4993 55.976 33.3073 55.856 32.7073 55.184C31.1713 53.504 29.0593 52.04 27.3313 51.44V53.24ZM31.2673 43.952L31.4833 43.544C32.6113 43.904 33.3553 44.216 34.0513 44.696C35.1553 45.44 35.6593 46.136 35.6593 46.904C35.6593 47.456 35.3473 47.84 34.9153 47.84C34.6033 47.84 34.4113 47.696 34.0993 47.144C33.3793 45.896 32.4193 44.84 31.2673 43.952ZM33.7393 42.056L33.9313 41.672C35.1313 41.936 36.0193 42.272 36.7393 42.728C37.6993 43.352 38.1313 43.904 38.1313 44.576C38.1313 45.152 37.8433 45.536 37.4113 45.536C37.1473 45.536 36.9793 45.392 36.6193 44.888C35.8033 43.712 34.9633 42.896 33.7393 42.056ZM46.5793 43.928L46.8433 43.76C47.7793 44.672 48.4513 44.984 49.4833 44.984C51.2353 44.984 53.8513 44.312 55.0033 43.592C55.1953 43.448 55.3873 43.4 55.6273 43.4C56.0833 43.4 56.9953 43.76 57.5233 44.168C57.9553 44.48 58.1233 44.744 58.1233 45.08C58.1233 45.632 57.7393 45.824 56.2753 46.064C53.8753 46.424 51.5473 46.688 50.5873 46.688C48.7153 46.688 47.7313 45.992 46.5793 43.928ZM47.6353 63.416L47.4913 63.176C49.9153 61.304 51.5953 59.6 53.1793 57.392C54.9793 54.896 56.2993 52.4 56.9953 50.12C53.9233 50.528 52.7713 50.744 50.6113 51.32C48.9553 51.752 48.5953 51.872 47.8273 52.256C47.4913 52.424 47.2033 52.496 46.9153 52.496C45.9073 52.496 44.2033 50.408 44.2033 49.112C44.2033 48.944 44.2273 48.824 44.3473 48.56C44.9713 49.64 45.7393 50.12 46.8673 50.12C47.7793 50.12 52.0273 49.52 55.1713 48.968C56.6113 48.728 56.6593 48.704 57.2113 48.32C57.4273 48.176 57.6193 48.128 57.8833 48.128C58.2193 48.128 58.7713 48.464 59.4433 49.04C60.1873 49.688 60.5473 50.192 60.5473 50.576C60.5473 50.888 60.4513 51.032 60.0913 51.32C59.7073 51.632 59.5393 51.872 58.9873 52.88C56.1793 58.184 52.6033 61.496 47.6353 63.416ZM65.5087 57.152L65.3887 56.888C68.3167 55.184 71.3887 52.736 74.3407 49.76C76.9087 47.168 78.3727 45.248 78.3727 44.456C78.3727 43.952 77.8207 43.328 76.9327 42.872C77.2447 42.8 77.3887 42.776 77.7007 42.776C78.4207 42.776 79.1887 43.04 80.1247 43.592C81.2287 44.24 81.8767 44.96 81.8767 45.512C81.8767 45.944 81.7567 46.088 80.9167 46.688C80.8207 46.76 80.8207 46.76 79.3567 48.152C77.6767 49.712 77.6767 49.712 75.9727 51.176C76.7887 51.704 77.4127 52.232 77.6287 52.592C77.8447 52.928 77.8687 53.168 77.8927 54.944C77.9167 56.048 77.9167 56.36 78.0607 60.92C78.0847 61.256 78.0847 61.592 78.0847 61.832C78.0847 62.816 77.7727 63.296 77.1007 63.296C76.2127 63.296 74.8927 61.832 74.8927 60.824C74.8927 60.584 74.9167 60.416 75.0367 60.056C75.3487 59.072 75.5647 56.456 75.5647 53.864C75.5647 52.64 75.4927 52.304 75.1567 51.848C73.1647 53.36 71.4607 54.488 70.0207 55.256C68.6047 56 66.8767 56.72 65.5087 57.152ZM100.741 44.576H105.685C106.549 43.664 106.813 43.376 107.677 42.536C108.877 43.448 109.213 43.736 110.317 44.696C110.413 44.816 110.461 44.888 110.461 44.936C110.461 45.008 110.365 45.08 110.221 45.08H100.741V47.312H103.789C104.389 46.736 104.581 46.544 105.157 45.968C106.045 46.568 106.309 46.736 107.149 47.36C107.365 47.504 107.437 47.624 107.437 47.744C107.437 47.936 107.293 48.08 106.597 48.464C106.573 49.592 106.573 50.528 106.573 51.104C106.573 53 106.621 55.328 106.669 56.696C106.669 57.224 106.381 57.32 104.989 57.32C104.053 57.32 103.981 57.296 103.957 56.936V56.336H95.1487V56.864C95.1487 57.344 94.9567 57.416 93.6607 57.416C92.5807 57.416 92.4607 57.368 92.4607 56.912C92.5327 54.2 92.5327 53.456 92.5327 50.984C92.5327 48.656 92.5087 47.744 92.4367 45.968C93.7327 46.496 94.1167 46.688 95.3167 47.312H98.1007V45.08H90.7567C90.0607 45.08 89.6527 45.128 89.1487 45.224L89.0047 44.384C89.6047 44.528 90.0607 44.576 90.7327 44.576H98.1007V44.384C98.1007 43.232 98.0767 42.824 97.9567 41.768C101.653 42.152 101.773 42.176 101.773 42.512C101.773 42.752 101.509 42.896 100.741 43.088V44.576ZM95.1487 50.048H103.957V47.816H95.1487V50.048ZM103.957 50.552H95.1487V52.808H103.957V50.552ZM103.957 53.312H95.1487V55.832H103.957V53.312ZM90.4207 58.304H106.237C107.101 57.44 107.365 57.176 108.205 56.336C109.405 57.2 109.741 57.488 110.869 58.424C110.989 58.52 111.037 58.592 111.037 58.664C111.037 58.736 110.917 58.808 110.773 58.808H90.4207C89.6287 58.808 89.3167 58.832 88.6927 58.976L88.5247 58.088C89.1967 58.256 89.6527 58.304 90.4207 58.304ZM88.6447 63.896L88.5487 63.656C90.5167 62.792 91.5967 62.192 92.8687 61.256C93.8767 60.488 94.4047 60.008 95.1007 59.144C95.8927 59.432 96.4927 59.648 96.8767 59.792C98.4367 60.32 98.7727 60.488 98.7727 60.728C98.7727 60.968 98.4607 61.088 97.7647 61.088C97.6927 61.088 97.5247 61.088 97.3807 61.088C94.4527 62.744 92.7247 63.296 88.6447 63.896ZM100.429 59.792L100.501 59.576C104.797 59.768 106.405 60.008 107.485 60.632C108.229 61.04 108.661 61.856 108.661 62.816C108.661 63.584 108.325 64.088 107.821 64.088C107.533 64.088 107.341 63.992 106.861 63.608C106.477 63.272 105.277 62.384 104.725 62.024C103.573 61.256 102.613 60.752 100.429 59.792ZM124.549 45.752H122.293C122.221 46.904 122.197 47.096 122.053 47.768C121.501 50.312 120.013 52.016 117.397 53.048C116.245 53.504 115.045 53.792 113.101 54.104L112.957 53.792C115.957 52.808 117.709 51.536 118.765 49.616C119.389 48.44 119.653 47.36 119.677 45.752H116.341C116.341 45.848 116.341 45.92 116.341 45.944C116.341 46.976 116.101 48.056 115.765 48.632C115.333 49.352 114.733 49.76 114.085 49.76C113.341 49.76 112.741 49.04 112.741 48.152C112.741 47.528 112.933 47.264 113.581 46.904C114.445 46.448 114.829 46.112 115.213 45.56C115.549 45.032 115.693 44.576 115.789 43.64H116.053C116.221 44.384 116.269 44.672 116.317 45.248H122.077V43.64C122.077 42.776 122.053 42.56 121.957 41.84C125.413 42.08 125.941 42.176 125.941 42.56C125.941 42.824 125.725 42.944 124.789 43.184V45.248H130.165C130.765 44.6 130.957 44.408 131.557 43.784C132.733 44.6 133.093 44.864 134.197 45.776C134.389 45.944 134.437 46.064 134.437 46.184C134.437 46.256 134.389 46.352 134.341 46.4C134.269 46.472 134.029 46.544 133.717 46.544L133.189 46.568C132.997 46.592 132.829 46.616 132.637 46.64C131.437 47.504 130.861 47.864 129.277 48.776L129.085 48.68C129.661 47.576 129.829 47.12 130.237 45.752H126.997V49.976C126.997 50.504 127.141 50.552 129.061 50.552C131.005 50.552 131.269 50.504 131.557 50.096C131.749 49.832 132.109 49.016 132.781 47.408H133.045L132.997 49.544L132.973 49.904C132.973 50.144 133.021 50.192 133.453 50.384C133.957 50.6 134.149 50.84 134.149 51.272C134.149 51.8 133.813 52.208 133.261 52.352C132.637 52.52 131.149 52.616 128.773 52.616C126.277 52.616 125.557 52.544 125.053 52.208C124.693 51.968 124.549 51.56 124.549 50.816V45.752ZM124.861 55.784V62.216H129.517C130.405 61.208 130.669 60.92 131.557 60.008C132.757 60.968 133.141 61.28 134.341 62.312C134.413 62.408 134.461 62.48 134.461 62.552C134.461 62.648 134.365 62.72 134.221 62.72H115.141C114.541 62.72 114.061 62.768 113.101 62.912L112.813 61.952C113.989 62.144 114.709 62.216 115.333 62.216H122.053V55.784H116.869C116.485 55.784 116.197 55.832 115.117 56L114.901 55.088C115.813 55.208 116.533 55.28 117.013 55.28H128.053C128.797 54.368 129.037 54.104 129.829 53.216C131.077 54.152 131.461 54.464 132.709 55.448C132.781 55.52 132.829 55.568 132.829 55.616C132.829 55.712 132.733 55.784 132.613 55.784H124.861ZM139.069 48.152L139.309 47.984C140.197 49.088 140.917 49.376 142.621 49.376C143.509 49.376 144.901 49.256 146.533 49.016C146.533 46.52 146.509 45.848 146.317 45.272C146.101 44.624 145.405 44.12 144.373 43.904C144.685 43.592 144.925 43.52 145.405 43.52C146.317 43.52 147.805 43.856 148.597 44.24C149.317 44.6 149.629 44.936 149.629 45.368C149.629 45.68 149.581 45.8 149.293 46.28C148.981 46.808 148.837 47.456 148.717 48.632C150.613 48.32 152.317 47.768 152.677 47.36C152.941 47.168 153.061 47.12 153.397 47.12C153.757 47.12 154.549 47.384 155.077 47.696C155.581 48.008 155.821 48.32 155.821 48.68C155.821 49.232 155.437 49.448 154.021 49.64C153.877 49.664 153.349 49.76 152.437 49.88C150.469 50.192 149.221 50.384 148.621 50.456C148.597 51.728 148.597 51.8 148.597 52.184C148.597 54.416 148.693 56.336 148.933 58.808C148.957 59.24 148.981 59.48 148.981 59.768C148.981 61.616 148.093 63.104 146.965 63.104C146.389 63.104 146.125 62.864 145.957 62.144C145.837 61.328 144.805 60.344 142.381 58.784L142.477 58.592C144.109 59.096 144.877 59.264 146.389 59.48C146.485 57.416 146.557 53.696 146.557 50.672C145.021 50.816 144.133 50.888 143.413 50.888C141.133 50.888 139.957 50.144 139.069 48.152ZM142.045 52.592L142.381 52.64C142.333 54.848 142.045 56.48 141.373 58.04C140.773 59.456 140.005 60.224 139.213 60.224C138.541 60.224 138.061 59.456 138.061 58.352C138.061 58.016 138.157 57.656 138.277 57.44C138.421 57.224 138.493 57.176 138.997 56.912C140.533 56.048 141.757 54.272 142.045 52.592ZM151.429 52.496L151.621 52.304C153.661 53.264 154.717 53.936 155.701 54.92C156.541 55.76 156.901 56.48 156.901 57.344C156.901 58.688 156.229 59.792 155.413 59.792C154.933 59.792 154.813 59.6 154.525 58.472C153.853 56.072 152.725 53.864 151.429 52.496ZM155.053 41.144C156.493 41.144 157.645 42.296 157.645 43.736C157.645 45.176 156.493 46.328 155.077 46.328C153.637 46.328 152.461 45.152 152.461 43.736C152.461 42.32 153.637 41.144 155.053 41.144ZM155.053 41.984C154.093 41.984 153.325 42.752 153.325 43.736C153.325 44.696 154.093 45.464 155.053 45.464C156.037 45.464 156.805 44.696 156.805 43.736C156.805 42.752 156.037 41.984 155.053 41.984ZM163.405 45.68L163.525 45.416C166.213 45.848 167.653 46.256 168.781 46.976C169.573 47.456 169.957 48.128 169.957 49.04C169.957 50.168 169.405 51.032 168.661 51.032C168.253 51.032 168.013 50.84 167.653 50.216C166.501 48.128 165.277 46.832 163.405 45.68ZM181.477 46.664L181.765 46.808C180.445 49.568 178.789 51.848 176.365 54.248C174.229 56.36 172.453 57.752 169.405 59.72C168.781 60.128 168.349 60.464 168.109 60.776C167.773 61.184 167.461 61.376 167.101 61.376C166.477 61.376 165.589 60.704 164.749 59.624C163.981 58.64 163.597 57.728 163.597 56.96C163.597 56.744 163.621 56.624 163.717 56.312C164.365 57.416 165.157 58.088 165.805 58.088C166.813 58.088 169.957 56.432 172.813 54.392C176.389 51.824 179.437 49.136 181.477 46.664ZM188.749 63.368L188.581 63.128C190.597 61.616 191.845 60.464 193.453 58.568C195.853 55.712 198.037 52.112 199.429 48.608C199.717 47.888 199.885 47.336 199.885 47.096C199.885 46.928 199.741 46.856 199.453 46.856C198.589 46.856 196.405 47.288 194.341 47.84C192.541 48.32 191.605 48.68 190.525 49.232C190.285 49.376 189.949 49.448 189.661 49.448C188.965 49.448 188.173 48.8 187.405 47.648C186.973 46.952 186.757 46.424 186.757 45.944C186.757 45.752 186.781 45.632 186.901 45.32C187.477 46.448 188.221 46.904 189.421 46.904C190.453 46.904 193.261 46.52 197.197 45.848C198.997 45.536 199.189 45.488 199.813 45.128C199.981 45.056 200.197 44.984 200.341 44.984C200.701 44.984 201.469 45.44 202.117 46.04C202.933 46.784 203.389 47.408 203.389 47.84C203.389 48.176 203.293 48.368 202.957 48.704C202.525 49.16 202.429 49.28 201.949 50.192C198.373 57.104 194.293 61.16 188.749 63.368ZM204.997 41.24C206.437 41.24 207.589 42.392 207.589 43.832C207.589 45.272 206.437 46.424 205.021 46.424C203.581 46.424 202.405 45.248 202.405 43.832C202.405 42.416 203.581 41.24 204.997 41.24ZM204.997 42.08C204.037 42.08 203.269 42.848 203.269 43.832C203.269 44.792 204.037 45.56 204.997 45.56C205.981 45.56 206.749 44.792 206.749 43.832C206.749 42.848 205.981 42.08 204.997 42.08ZM223.285 56.912H222.493C218.797 56.912 216.973 56.648 215.725 55.928C214.717 55.352 214.261 54.8 213.685 53.504C212.989 54.392 212.557 54.896 212.053 55.424C210.877 56.648 210.877 56.648 210.565 57.008C210.541 57.128 210.541 57.224 210.517 57.272C210.493 57.728 210.445 57.848 210.253 57.848C210.133 57.848 210.037 57.776 209.893 57.56C209.341 56.312 209.341 56.312 208.717 54.872C209.677 54.68 210.589 54.32 211.693 53.72V49.592H210.157C210.061 49.592 209.629 49.616 208.909 49.664L208.765 48.92C209.317 49.016 209.893 49.088 210.205 49.088H211.645C212.173 48.536 212.341 48.344 212.893 47.792C213.733 48.416 213.997 48.608 214.789 49.256C214.909 49.4 214.957 49.472 214.957 49.544C214.957 49.688 214.741 49.88 214.213 50.216V53.456C214.645 54.176 215.029 54.464 215.821 54.656C216.757 54.896 217.885 54.992 219.949 54.992C222.925 54.992 227.437 54.728 231.013 54.368V54.584C230.149 54.992 229.789 55.448 229.549 56.384C229.453 56.672 229.429 56.696 229.213 56.744C228.949 56.768 228.949 56.768 225.853 56.864V58.52H226.693C227.437 57.8 227.437 57.8 228.229 57.008C229.237 57.704 229.549 57.92 230.581 58.688C230.701 58.76 230.749 58.832 230.749 58.904C230.749 58.976 230.653 59.024 230.485 59.024H225.853V59.504C225.853 59.72 225.853 60.584 225.901 62.096C225.877 62.744 225.757 63.08 225.421 63.392C224.917 63.848 224.101 64.112 222.877 64.232C222.661 64.256 222.565 64.256 222.493 64.256C222.277 64.256 222.229 64.208 222.205 63.92C222.157 63.488 222.013 63.08 221.821 62.864C221.485 62.456 221.485 62.456 218.965 61.688V61.472C220.549 61.568 220.765 61.568 223.021 61.616C223.213 61.568 223.285 61.496 223.285 61.28V59.024H210.901C210.637 59.024 209.365 59.096 209.053 59.12L208.909 58.4C209.485 58.472 210.493 58.52 210.949 58.52H223.285V56.912ZM220.549 44.576H222.949C223.477 43.664 223.981 42.368 224.125 41.504C226.957 42.224 227.413 42.368 227.413 42.584C227.413 42.8 227.173 42.896 226.477 42.992C225.541 43.616 225.541 43.616 223.957 44.576H226.885C227.317 44.048 227.773 43.52 228.205 42.992C229.237 43.712 229.549 43.952 230.581 44.72C230.653 44.816 230.701 44.888 230.701 44.936C230.701 45.032 230.605 45.08 230.485 45.08H223.549C222.757 45.8 222.397 46.088 221.485 46.76H225.421C225.925 46.208 226.069 46.064 226.621 45.512C227.533 46.136 227.797 46.304 228.661 46.928C228.733 47.024 228.781 47.072 228.781 47.144C228.781 47.336 228.637 47.48 228.085 47.792C228.085 51.392 228.085 51.392 228.157 53.624C228.133 53.84 228.061 53.912 227.893 53.984C227.629 54.104 226.885 54.176 226.213 54.176C225.805 54.176 225.685 54.128 225.613 53.888V53.456H218.917V53.696C218.821 54.08 218.581 54.176 217.669 54.176C217.477 54.176 217.333 54.2 217.213 54.2C217.117 54.2 217.069 54.2 217.045 54.2C216.613 54.2 216.469 54.104 216.445 53.792C216.493 52.448 216.517 51.824 216.517 49.424C216.517 47.216 216.493 46.664 216.421 45.584C217.645 46.04 218.005 46.208 219.205 46.76H220.405C220.573 45.992 220.573 45.992 220.645 45.08H216.733C216.421 45.08 215.485 45.152 215.005 45.2L214.837 44.408C215.389 44.504 216.325 44.576 216.877 44.576H219.157C218.965 44.36 218.941 44.288 218.845 43.928C218.533 42.896 218.173 42.344 217.405 41.744L217.549 41.528C220.261 42.032 221.125 42.488 221.125 43.424C221.125 43.832 220.909 44.24 220.549 44.576ZM218.917 48.704H225.613V47.264H218.917V48.704ZM225.613 49.208H218.917V50.744H225.613V49.208ZM225.613 51.248H218.917V52.952H225.613V51.248ZM209.461 42.512L209.605 42.296C211.717 42.848 212.965 43.328 213.685 43.856C214.237 44.24 214.405 44.552 214.405 45.152C214.405 46.112 213.733 47.12 213.085 47.12C212.821 47.12 212.677 47 212.341 46.376C211.429 44.648 210.757 43.76 209.461 42.512ZM213.661 59.624L213.733 59.432C217.117 60.008 218.389 60.632 218.389 61.76C218.389 62.744 217.717 63.68 216.973 63.68C216.637 63.68 216.421 63.488 216.181 62.96C215.509 61.472 214.885 60.632 213.661 59.624ZM255.037 60.056L255.013 60.296C253.789 60.8 253.069 61.544 252.637 62.792C252.541 63.032 252.445 63.128 252.325 63.128C252.109 63.128 251.245 62.624 250.525 62.048C248.509 60.464 246.829 58.28 245.677 55.712C244.933 54.128 244.525 52.76 243.973 50.36C242.341 56.912 238.717 61.112 232.717 63.464L232.573 63.2C235.693 60.992 237.517 58.976 239.029 55.976C239.893 54.272 240.517 52.472 240.949 50.36C241.261 48.92 241.501 47.312 241.501 46.64C241.501 46.568 241.501 46.448 241.501 46.28C242.629 46.496 242.629 46.496 243.445 46.664C243.421 45.776 243.397 45.344 243.397 44.84C243.397 44.792 243.397 44.672 243.397 44.552H239.101C238.717 44.552 238.381 44.576 237.493 44.648L237.373 43.832C238.117 43.976 238.717 44.048 239.197 44.048H242.917C243.373 43.448 243.517 43.28 243.997 42.68C244.669 43.208 244.885 43.376 245.533 43.928C245.725 44.096 245.797 44.192 245.797 44.264C245.797 44.48 245.461 44.648 243.901 45.152C244.141 47.792 244.501 49.448 245.341 51.416C246.517 54.2 248.221 56.336 250.453 57.896C251.821 58.832 252.973 59.384 255.037 60.056ZM266.269 53.072H260.149C259.525 53.072 259.213 53.096 258.757 53.216L258.637 52.376C259.213 52.52 259.597 52.568 260.173 52.568H266.269V50.552H262.213V51.032C262.189 51.608 261.949 51.704 260.509 51.704C259.693 51.704 259.573 51.656 259.573 51.272C259.621 49.952 259.645 48.92 259.645 47.72C259.645 47.048 259.621 46.544 259.549 45.584C260.821 46.064 261.205 46.232 262.429 46.808H266.269V45.968C266.269 45.728 266.269 45.56 266.269 44.96H258.469C257.845 44.96 257.581 44.984 257.005 45.104L256.861 44.24C257.533 44.408 257.893 44.456 258.469 44.456H266.245C266.245 43.112 266.221 42.776 266.101 41.696C266.845 41.768 267.445 41.84 267.829 41.864C269.437 42.008 269.821 42.104 269.821 42.416C269.821 42.656 269.557 42.8 268.861 42.992V44.456H274.261C275.029 43.616 275.269 43.376 276.037 42.584C277.237 43.424 277.573 43.688 278.701 44.6C278.773 44.696 278.821 44.744 278.821 44.792C278.821 44.888 278.701 44.96 278.581 44.96H268.861V46.808H272.845C273.373 46.256 273.541 46.112 274.117 45.584C274.981 46.088 275.245 46.256 276.037 46.808C276.253 46.952 276.349 47.072 276.349 47.192C276.349 47.384 276.253 47.456 275.581 47.84C275.581 49.736 275.581 49.736 275.605 50.744C275.605 51.224 275.413 51.32 274.453 51.392C275.461 52.04 275.461 52.04 276.229 52.568C276.421 52.736 276.493 52.832 276.493 52.928C276.493 53.096 276.325 53.24 275.797 53.528V55.352H276.061C276.613 54.68 276.805 54.464 277.357 53.84C278.149 54.56 278.389 54.776 279.133 55.52C279.181 55.592 279.229 55.664 279.229 55.736C279.229 55.808 279.133 55.856 278.989 55.856H275.797C275.845 57.656 275.845 58.208 275.917 59.792C275.917 60.368 275.581 60.488 274.093 60.488C273.373 60.488 273.253 60.416 273.253 59.984V58.808H268.909C268.933 60.2 268.933 60.2 268.957 61.208C268.957 62.744 268.501 63.32 266.917 63.752C266.461 63.872 265.741 63.992 265.405 63.992C265.165 63.992 265.093 63.896 265.069 63.56C265.021 63.008 264.781 62.576 264.253 62.264C263.797 62 263.437 61.88 261.109 61.328L261.133 61.016C264.109 61.232 264.229 61.232 265.909 61.232C265.933 61.232 265.957 61.232 265.981 61.232C266.197 61.232 266.269 61.16 266.269 60.968V58.808H260.029C259.477 58.808 259.165 58.832 258.637 58.952L258.469 58.112C258.997 58.256 259.453 58.304 260.029 58.304H266.269V55.856H257.989C257.461 55.856 257.173 55.88 256.621 56L256.477 55.136C257.053 55.28 257.509 55.352 257.989 55.352H266.269V53.072ZM266.269 50.048V47.312H262.213V50.048H266.269ZM268.861 52.568H273.013C273.469 52.088 273.469 52.088 274.189 51.392C273.133 51.392 273.037 51.368 273.037 50.984V50.552H268.861V52.568ZM273.037 50.048V47.312H268.861V50.048H273.037ZM268.861 53.072V55.352H273.253V53.072H268.861ZM273.253 55.856H268.861V56.336L268.909 58.304H273.253V55.856ZM284.005 49.328L284.653 49.424C285.709 49.568 285.853 49.616 285.853 49.856C285.853 50.048 285.685 50.168 285.037 50.384V55.304C285.037 55.856 285.037 56.864 285.037 58.208C285.061 60.368 285.061 60.44 285.061 63.2C285.061 63.44 284.989 63.536 284.869 63.608C284.653 63.728 284.005 63.824 283.237 63.824C282.733 63.824 282.541 63.68 282.541 63.344C282.541 63.32 282.541 63.272 282.541 63.224C282.613 60.152 282.661 57.32 282.661 55.52V51.344C281.845 52.472 281.245 53.144 280.069 54.272L279.853 54.08C281.125 51.848 281.821 50.264 282.661 47.672C283.549 45.008 283.909 43.376 283.981 41.816C287.221 42.392 287.605 42.488 287.605 42.8C287.605 42.992 287.317 43.16 286.669 43.304C285.853 45.632 284.917 47.816 284.005 49.328ZM286.717 44.504L286.597 43.784C287.173 43.88 287.413 43.904 287.773 43.904H291.925C292.693 43.016 292.693 43.016 293.413 42.2C294.373 42.968 294.637 43.208 295.525 44.024C295.597 44.12 295.645 44.192 295.645 44.216C295.645 44.264 295.621 44.288 295.621 44.336C298.189 44.576 298.429 44.624 298.429 44.936C298.429 45.128 298.261 45.248 297.637 45.488V51.224C297.637 51.368 297.661 55.352 297.685 57.944C297.661 58.232 297.565 58.328 297.349 58.424C297.133 58.496 296.389 58.592 295.885 58.592C295.333 58.592 295.165 58.472 295.165 58.04C295.237 54.104 295.261 52.424 295.261 49.28C295.261 46.592 295.237 45.704 295.165 44.408H290.893C290.653 46.088 290.413 47.24 290.029 48.416H291.949C292.429 47.912 292.573 47.744 293.077 47.216C293.845 47.768 294.085 47.936 294.781 48.488C295.021 48.656 295.093 48.776 295.093 48.896C295.093 49.088 294.949 49.232 294.349 49.52C293.821 52.736 293.413 54.32 292.597 56.12C291.637 58.304 290.317 60.056 288.541 61.568C287.821 62.192 287.173 62.672 285.685 63.632L285.541 63.44C287.701 61.208 288.733 59.768 289.885 57.296C291.061 54.728 291.589 52.712 292.045 48.92H289.861C289.477 49.976 289.405 50.144 288.925 51.104C289.381 51.416 289.837 51.824 290.293 52.328C290.749 52.88 290.941 53.312 290.941 53.84C290.941 54.848 290.149 55.904 289.405 55.904C289.141 55.904 288.949 55.64 288.949 55.256C288.949 55.184 288.949 55.088 288.973 54.992C289.117 53.96 289.165 53.432 289.165 52.976C289.165 52.448 289.021 51.872 288.757 51.44C287.821 53.192 286.885 54.416 285.421 55.856L285.253 55.688C287.077 52.4 288.013 48.968 288.349 44.408H287.749C287.365 44.408 287.149 44.432 286.717 44.504ZM294.277 61.208L294.301 60.92C297.157 61.064 297.253 61.064 298.813 61.088C299.077 61.064 299.149 60.968 299.149 60.632V44.576C299.149 43.4 299.149 43.16 299.077 42.248C299.797 42.32 300.373 42.392 300.757 42.44C302.293 42.608 302.653 42.728 302.653 43.016C302.653 43.232 302.365 43.4 301.645 43.616V54.344C301.645 55.64 301.669 57.872 301.693 61.112C301.669 62.36 301.333 62.936 300.421 63.32C299.773 63.608 298.861 63.8 298.261 63.8C298.021 63.8 297.973 63.752 297.925 63.368C297.853 62.84 297.613 62.384 297.205 62.12C296.797 61.832 296.461 61.736 294.277 61.208Z" fill="#006281"/>
<rect width="5" height="72" fill="#006281"/>
<rect x="316" width="5" height="72" fill="#006281"/>
</svg>
