<svg width="828" height="62" viewBox="0 0 828 62" fill="none" xmlns="http://www.w3.org/2000/svg">
<path d="M44.9212 31.024H48.8452C49.8532 29.728 50.2132 29.296 51.1852 27.964C52.8772 29.332 53.3812 29.764 54.9652 31.168C55.1092 31.348 55.1812 31.456 55.1812 31.528C55.1812 31.672 55.0012 31.78 54.7852 31.78H45.2812C46.0012 33.508 46.9732 34.984 48.3412 36.496C50.5372 38.8 52.8052 40.24 55.8292 41.212V41.572C54.4972 42.472 54.1012 43.156 53.6332 45.424C53.5252 45.784 53.4172 45.964 53.2012 45.964C52.8772 45.964 51.6532 44.92 50.5372 43.696C48.0172 40.888 46.5412 37.972 44.9572 32.572L44.9932 38.872C45.0292 43.66 45.0292 43.66 45.1372 47.872C45.1372 48.304 45.0652 48.52 44.8492 48.628C44.4892 48.88 43.5532 49.024 42.3652 49.024C41.2852 49.024 41.0332 48.88 41.0332 48.232C41.2132 43.84 41.2132 43.84 41.2492 39.916L41.2852 36.676C38.1172 41.212 35.5252 43.48 30.6292 46.036L30.4132 45.748C33.4732 42.724 34.9132 40.924 36.8212 37.648C38.0092 35.56 38.9092 33.76 39.6652 31.78H34.2292C34.4452 32.212 34.4812 32.428 34.4812 32.752C34.4812 34.156 33.3292 35.632 32.2492 35.632C31.6732 35.632 31.3852 35.2 31.3132 34.084C31.0972 31.564 30.6652 30.232 29.6572 28.72C29.6572 29.584 29.6572 29.584 29.6572 30.484C29.6572 38.188 29.6572 43.696 29.6932 47.8C29.6932 48.736 29.2252 48.916 26.9212 48.916C25.9492 48.916 25.6972 48.772 25.6972 48.16C25.8772 44.056 25.8772 44.056 26.0212 36.136L26.0932 33.004C24.5812 36.424 23.2852 38.44 21.0892 40.78L20.7292 40.528C22.2052 37.576 23.0692 35.2 24.1132 31.42C24.8332 28.828 25.1212 27.532 25.5892 24.688H23.4292C22.6012 24.688 22.2052 24.724 21.4852 24.904L21.1972 23.608C21.9892 23.86 22.5652 23.932 23.4292 23.932H25.8772V20.26C25.8772 18.532 25.8412 17.632 25.6612 15.904C26.7772 16.012 27.6052 16.084 28.1812 16.12C30.3772 16.336 30.9892 16.48 30.9892 16.876C30.9892 17.2 30.6292 17.416 29.6572 17.74V23.932H30.1972C30.9532 22.888 31.2052 22.564 31.9252 21.628C33.1852 22.708 33.4732 22.96 34.6612 24.112C35.3452 21.52 35.5612 20.296 35.7772 17.812C40.3132 18.928 40.8532 19.108 40.8532 19.504C40.8532 19.792 40.5652 19.936 39.4852 20.188C38.7292 21.952 38.3692 22.6 37.7212 23.788H41.1052V19.936C41.1052 17.848 41.1052 17.308 41.0332 15.796C42.0772 15.94 42.8692 16.048 43.4092 16.084C46.0012 16.372 46.3972 16.48 46.3972 16.912C46.3972 17.236 46.0372 17.452 44.9212 17.884V23.788H47.8732C48.8812 22.528 49.2052 22.096 50.1772 20.908C51.8332 22.204 52.3012 22.6 53.8852 24.004C54.0292 24.148 54.1012 24.256 54.1012 24.328C54.1012 24.472 53.9572 24.544 53.7412 24.544H44.9212V31.024ZM41.1052 31.024V24.544H37.2892C36.2452 26.308 34.6972 28.144 33.0052 29.656L32.7172 29.44C33.5452 27.568 33.8692 26.74 34.5172 24.688H29.6572V28.072C31.5652 29.008 32.5012 29.692 33.7612 31.024H41.1052ZM61.1572 23.392H76.3492C76.3132 22.348 76.2772 21.736 76.2772 20.44C76.2052 18.136 76.1692 17.452 75.9892 15.904C80.7772 16.336 81.0292 16.372 81.4612 16.588C81.6052 16.66 81.7132 16.84 81.7132 16.948C81.7132 17.308 81.3532 17.524 80.2372 17.812C80.2012 19.54 80.2012 20.584 80.2012 21.016C80.2012 21.664 80.2012 22.06 80.2372 23.392H84.2332C84.8092 22.744 84.9532 22.564 85.3492 22.096C84.7372 22.024 84.6652 21.916 84.2332 20.62C83.8012 19.432 83.2252 18.46 81.9292 16.84L82.0732 16.552C84.2332 17.092 85.0612 17.344 85.8892 17.776C87.1132 18.388 87.6172 19 87.6172 19.828C87.6172 20.224 87.5452 20.476 87.2932 20.98C88.8412 22.096 89.0932 22.312 90.5332 23.536C90.6772 23.716 90.7492 23.824 90.7492 23.932C90.7492 24.076 90.5692 24.148 90.3172 24.148H80.2732C80.3812 27.316 80.5972 29.512 80.9572 31.528C81.4612 34.408 82.5412 37.252 83.9452 39.376C84.7012 40.528 85.3492 41.212 87.0412 42.58C88.5532 39.7 88.9852 38.764 90.3172 35.812L90.7132 35.92L89.6332 42.148C89.5612 42.58 89.4892 43.12 89.4892 43.408C89.4892 43.876 89.5972 44.092 90.1732 44.74C90.6052 45.28 90.7852 45.676 90.7852 46.216C90.7852 47.368 89.8852 48.34 88.8412 48.34C87.4012 48.34 85.4572 47.116 83.3692 44.956C79.8052 41.248 77.7532 36.424 76.8892 29.764C76.6372 28 76.5292 26.56 76.3852 24.148H61.1572C59.8252 24.148 58.9612 24.22 58.0972 24.4L57.8812 23.032C58.8172 23.248 60.0772 23.392 61.1572 23.392ZM69.4012 31.168V40.348C71.9932 39.808 74.2612 39.232 77.3212 38.368L77.4652 38.8C73.1452 41.248 67.2772 43.912 61.2292 46.144C61.0492 47.512 60.8692 47.98 60.4732 47.98C60.0412 47.98 59.7532 47.224 58.2412 42.292C60.1132 42.148 61.3012 41.968 65.4412 41.176V31.168H61.8772C60.9772 31.168 60.2212 31.24 59.3932 31.456L59.1772 30.052C60.0772 30.304 60.9772 30.412 61.8772 30.412H69.9052C70.9852 29.188 71.3452 28.792 72.3892 27.64C73.9732 28.9 74.4772 29.296 76.0612 30.628C76.2052 30.808 76.2412 30.88 76.2412 30.952C76.2412 31.096 76.0972 31.168 75.9172 31.168H69.4012ZM125.273 35.74H110.117C107.381 39.376 105.437 41.644 103.205 43.732C109.901 43.624 113.285 43.444 116.921 43.12C115.481 40.564 114.833 39.628 112.925 37.612L113.213 37.324C116.093 38.692 117.965 39.808 119.837 41.284C121.709 42.796 122.465 43.804 122.465 44.884C122.465 46.756 121.169 48.7 119.945 48.7C119.477 48.7 119.333 48.52 118.937 47.584C118.253 45.748 118.037 45.28 117.497 44.164C117.173 44.272 117.173 44.272 116.669 44.416C112.997 45.388 106.157 46.756 98.8132 47.908C98.5612 48.988 98.3812 49.348 98.0212 49.348C97.6252 49.348 97.6252 49.348 96.2932 43.588C97.7332 43.732 98.5972 43.768 100.361 43.768C100.397 43.768 101.117 43.768 101.549 43.768C102.917 40.816 103.565 39.088 104.573 35.74H97.3732C96.5812 35.74 96.0772 35.776 95.1412 35.956L94.8532 34.66C95.8972 34.912 96.6172 34.984 97.4812 34.984H118.397C119.549 33.616 119.909 33.22 121.061 31.924C123.005 33.292 123.617 33.688 125.453 35.164C125.597 35.272 125.669 35.416 125.669 35.488C125.669 35.632 125.489 35.74 125.273 35.74ZM93.3412 32.68L93.0892 32.284C96.4372 29.836 98.9572 27.496 101.441 24.472C104.177 21.16 105.797 18.424 106.661 15.724C107.885 15.976 108.857 16.156 109.505 16.3C112.097 16.804 112.889 17.056 112.889 17.452C112.889 17.776 112.601 17.92 111.413 18.172C113.537 21.16 115.409 22.78 118.649 24.436C121.421 25.84 123.653 26.524 127.541 27.136V27.532C126.353 28.036 125.777 28.684 125.093 30.16C124.949 30.484 124.769 31.06 124.661 31.348C124.553 31.708 124.445 31.816 124.229 31.816C123.869 31.816 122.429 31.168 121.133 30.376C118.469 28.792 116.057 26.596 113.969 23.86C112.421 21.844 111.665 20.548 110.873 18.46C106.409 25.192 100.901 29.656 93.3412 32.68ZM101.513 30.088L101.225 28.864C102.233 29.08 102.917 29.152 103.889 29.152H111.233C112.349 27.82 112.709 27.424 113.861 26.2C115.625 27.496 116.165 27.928 117.929 29.332C118.109 29.476 118.181 29.584 118.181 29.692C118.181 29.836 118.037 29.908 117.749 29.908H103.673C102.953 29.908 102.485 29.944 101.513 30.088ZM138.197 31.096V31.456C139.745 31.852 140.249 32.032 141.365 32.5C143.849 33.544 144.785 34.48 144.785 35.848C144.785 37.252 143.705 38.692 142.661 38.692C142.157 38.692 141.869 38.332 141.437 37.252C140.357 34.516 139.493 33.112 138.197 32.032V40.024C138.197 43.732 138.197 45.748 138.269 48.016C138.269 48.376 138.197 48.52 137.981 48.664C137.621 48.916 136.757 49.06 135.677 49.06C134.453 49.06 134.129 48.88 134.093 48.232C134.201 45.316 134.309 41.932 134.309 40.312V34.876C132.761 36.136 131.681 36.856 129.197 38.332L128.909 37.9C131.249 35.776 132.689 34.12 134.417 31.6C136.361 28.756 137.441 26.74 138.449 23.968H132.005C130.817 23.968 130.385 24.004 129.593 24.148L129.341 22.852C130.205 23.104 131.069 23.212 132.041 23.212H134.201V19.108C134.201 17.776 134.165 17.272 133.985 16.084C139.313 16.552 139.529 16.624 139.529 17.092C139.529 17.416 139.205 17.632 138.125 18.028V23.212H139.061C139.853 22.24 140.069 21.988 140.933 21.088C142.265 22.204 142.661 22.564 143.885 23.68C144.209 24.04 144.281 24.148 144.281 24.256C144.281 24.616 143.957 24.76 142.445 25.048C140.861 27.712 139.781 29.296 138.197 31.096ZM149.393 29.116H145.181C143.993 29.116 143.525 29.152 142.625 29.332L142.373 28.036C143.453 28.288 143.993 28.36 145.181 28.36H149.393V20.836C149.393 18.892 149.321 17.92 149.105 16.048C150.293 16.156 151.229 16.228 151.841 16.264C154.361 16.48 155.045 16.66 155.045 17.092C155.045 17.452 154.613 17.704 153.497 18.064V28.36H155.765C156.953 26.956 157.313 26.524 158.465 25.12C160.301 26.524 160.841 26.992 162.533 28.54C162.677 28.684 162.713 28.792 162.713 28.864C162.713 29.008 162.569 29.116 162.353 29.116H153.497V46.468H156.161C157.529 44.884 157.529 44.884 159.041 43.156C160.805 44.632 161.345 45.1 163.073 46.72C163.217 46.864 163.253 46.936 163.253 47.044C163.253 47.152 163.109 47.224 162.893 47.224H143.417C142.121 47.224 141.509 47.26 140.537 47.44L140.249 46.18C141.257 46.396 142.157 46.468 143.381 46.468H149.393V29.116ZM171.785 47.872L171.497 47.548C174.449 44.848 176.645 41.68 178.193 37.864C179.309 35.128 180.245 31.42 180.245 29.62C180.245 28.828 179.993 28.36 179.345 27.856C178.913 27.496 178.409 27.244 177.761 27.064C178.157 26.704 178.481 26.596 179.129 26.596C180.461 26.596 183.341 27.856 184.673 29.008C187.517 27.028 191.441 23.176 191.441 22.42C191.441 22.096 191.117 21.988 190.109 21.988C188.165 21.988 183.881 22.6 180.245 23.356C177.365 24.004 175.673 24.544 173.909 25.444C173.045 25.876 172.757 25.948 172.325 25.948C171.389 25.948 170.129 24.976 169.121 23.428C168.473 22.42 168.005 21.232 168.005 20.512C168.005 20.188 168.077 19.864 168.221 19.468C169.121 21.124 170.309 21.808 172.217 21.808C173.477 21.808 174.053 21.772 179.021 21.196C185.321 20.44 187.301 20.224 188.741 20.008C189.821 19.864 189.821 19.864 190.901 19.432C191.153 19.324 191.333 19.288 191.549 19.288C192.197 19.288 192.845 19.648 193.997 20.62C195.797 22.168 196.913 23.608 196.913 24.4C196.913 24.904 196.661 25.3 196.193 25.516C195.941 25.66 195.833 25.696 195.113 25.84C194.681 25.948 194.285 26.056 193.709 26.344C190.577 27.82 189.353 28.324 184.853 30.052C184.241 32.104 183.845 33.472 183.593 34.156C182.081 38.44 180.137 41.5 177.077 44.236C175.313 45.82 173.729 46.936 171.785 47.872ZM202.349 46.216L202.061 45.892C203.573 44.308 204.365 43.228 205.409 41.32C207.209 38.008 208.253 35.056 208.973 31.096C209.225 29.8 209.405 28.216 209.405 27.424C209.405 25.876 208.613 24.94 206.741 24.292C207.173 24.004 207.461 23.932 208.109 23.932C209.009 23.932 210.701 24.544 212.141 25.408C213.365 26.164 214.013 26.884 214.013 27.532C214.013 27.928 213.905 28.216 213.581 28.9C213.365 29.296 213.365 29.332 212.177 33.472C211.061 37.252 209.153 40.564 206.705 42.94C205.301 44.272 204.185 45.136 202.349 46.216ZM234.821 29.584L235.145 29.836C233.633 32.752 232.661 34.12 230.897 36.136C228.989 38.26 225.641 41.14 223.049 42.904C222.041 43.588 221.861 43.732 221.177 44.416C220.817 44.776 220.493 44.956 220.133 44.956C218.945 44.956 217.001 42.436 217.001 40.888C217.001 40.636 217.001 40.636 217.181 40.132C217.541 39.124 217.613 37.828 217.613 29.908C217.613 26.524 217.469 23.068 217.325 22.024C217.073 20.62 216.209 19.828 214.553 19.396C214.985 18.964 215.273 18.856 215.849 18.856C216.965 18.856 218.693 19.36 220.205 20.152C221.573 20.836 222.221 21.52 222.221 22.24C222.221 22.636 222.149 22.852 221.753 23.644C221.573 24.076 221.429 24.904 221.285 26.488C221.033 29.044 220.637 36.676 220.637 38.692C220.637 38.836 220.637 39.196 220.673 39.556C225.425 37.72 231.257 33.616 234.821 29.584ZM235.017 42.616L234.837 42.328C237.537 40.096 240.129 37.108 242.397 33.616C244.305 30.7 245.349 28.432 245.349 27.316C245.349 26.848 245.061 26.344 244.521 25.84C244.233 25.552 243.945 25.372 243.153 24.976C243.657 24.796 243.873 24.724 244.269 24.724C245.349 24.724 246.717 25.228 248.265 26.308C249.777 27.28 250.497 28.144 250.497 28.864C250.497 29.26 250.317 29.62 249.813 30.016C249.165 30.52 249.129 30.592 248.085 31.96C244.629 36.676 239.373 40.96 235.017 42.616ZM254.313 25.192L254.637 24.832C258.165 26.452 261.657 28.864 263.997 31.384C266.265 33.868 267.021 35.308 267.021 37.252C267.021 39.484 266.013 41.176 264.681 41.176C263.889 41.176 263.637 40.852 263.097 39.196C261.405 33.688 258.309 28.72 254.313 25.192ZM262.377 17.596L262.665 17.02C264.501 17.416 265.833 17.92 266.877 18.604C268.317 19.54 268.965 20.368 268.965 21.376C268.965 22.24 268.533 22.816 267.885 22.816C267.489 22.816 267.237 22.6 266.697 21.844C265.473 20.08 264.213 18.856 262.377 17.596ZM258.669 20.44L258.993 19.828C260.685 20.368 261.801 20.836 262.845 21.556C264.501 22.672 265.257 23.716 265.257 24.868C265.257 25.696 264.825 26.272 264.141 26.272C263.673 26.272 263.385 26.056 262.917 25.228C261.837 23.356 260.433 21.772 258.669 20.44ZM276.705 28.36L276.921 28.108C281.313 29.872 282.897 31.204 282.897 33.076C282.897 34.444 282.033 35.632 281.061 35.632C280.521 35.632 280.197 35.308 279.909 34.408C278.973 31.456 278.217 30.016 276.705 28.36ZM283.185 26.848L283.437 26.56C285.417 27.28 286.641 27.892 287.721 28.756C288.657 29.584 289.053 30.268 289.053 31.276C289.053 32.644 288.081 33.94 287.073 33.94C286.713 33.94 286.389 33.724 286.209 33.364C286.101 33.112 286.101 33.112 285.741 31.78C285.093 29.404 284.481 28.216 283.185 26.848ZM281.061 47.548L280.773 47.188C284.481 44.38 287.541 40.924 290.349 36.352C292.185 33.328 293.661 29.908 293.661 28.648C293.661 27.748 293.157 27.136 291.753 26.416C292.113 26.236 292.257 26.2 292.581 26.2C293.733 26.2 295.389 26.848 296.793 27.892C297.657 28.504 298.053 29.044 298.053 29.584C298.053 30.016 297.981 30.124 297.549 30.664C297.225 31.024 296.829 31.672 296.181 32.788C293.337 37.9 290.889 40.996 287.613 43.66C285.633 45.244 283.473 46.504 281.061 47.548ZM310.617 35.092L310.365 34.732C313.821 31.852 316.989 28 319.617 23.608C320.733 21.736 321.165 20.728 321.165 20.008C321.165 19.504 321.021 19.18 320.661 18.748C320.193 18.172 319.941 17.992 318.933 17.524C319.365 17.344 319.545 17.308 319.869 17.308C321.165 17.308 323.145 18.1 324.657 19.216C325.413 19.756 325.809 20.368 325.809 20.872C325.809 21.376 325.737 21.52 324.837 22.672C324.801 22.708 324.369 23.284 323.829 24.004C324.153 24.04 324.405 24.076 324.549 24.076C325.125 24.076 327.141 23.788 328.293 23.572C329.589 23.32 330.057 23.176 330.777 22.78C331.425 22.456 331.569 22.384 331.857 22.384C332.433 22.384 333.333 22.924 334.341 23.896C335.277 24.796 335.745 25.516 335.745 26.092C335.745 26.524 335.565 26.848 335.061 27.244C334.305 27.784 334.269 27.82 333.225 29.584C330.705 33.796 329.157 35.884 326.889 38.26C322.497 42.868 317.061 46.216 311.265 47.872L311.085 47.476C313.353 46.216 314.541 45.46 316.305 44.02C320.805 40.42 324.297 36.568 327.141 32.14C328.437 30.124 330.129 26.92 330.453 25.912C330.525 25.66 330.597 25.516 330.597 25.444C330.633 25.372 330.669 25.3 330.669 25.264C330.669 25.192 330.597 25.12 330.561 25.084C330.525 25.084 330.525 25.084 330.453 25.084C330.417 25.084 330.381 25.084 330.309 25.048C330.273 25.048 330.237 25.084 330.165 25.12C330.093 25.156 329.949 25.156 329.769 25.192C329.445 25.192 327.897 25.552 327.033 25.804C326.277 26.056 326.277 26.056 325.665 26.236C325.449 26.272 325.305 26.308 325.197 26.308C324.549 26.308 323.757 25.876 322.965 25.084C319.365 29.656 314.937 33.256 310.617 35.092ZM358.641 46.36L358.497 45.856C362.349 44.668 365.049 43.084 367.209 40.744C369.621 38.152 370.809 34.984 370.809 31.276C370.809 25.12 367.065 21.448 360.873 21.448C360.405 21.448 360.117 21.448 359.433 21.52C360.693 22.996 361.089 23.968 361.089 25.372C361.089 28.252 359.253 33.292 356.661 37.648C354.321 41.536 352.233 43.516 350.433 43.516C349.641 43.516 348.885 43.084 348.489 42.472C348.201 41.932 347.985 41.428 347.661 40.096C347.445 39.232 347.157 38.728 346.113 37.432C345.249 36.352 344.709 34.768 344.709 33.292C344.709 31.024 345.861 28.288 347.733 26.092C350.829 22.42 355.941 20.188 361.305 20.188C369.333 20.188 375.057 25.264 375.057 32.392C375.057 37.612 372.177 41.788 366.957 44.2C364.725 45.244 362.421 45.856 358.641 46.36ZM358.713 21.628C355.797 22.276 353.853 23.32 351.765 25.372C349.281 27.856 347.913 30.916 347.913 33.94C347.913 36.424 349.137 38.98 350.361 38.98C351.549 38.98 353.925 35.992 356.265 31.564C358.065 28.18 359.145 25.192 359.145 23.608C359.145 23.212 359.109 22.744 359.001 22.42C358.929 22.132 358.749 21.628 358.713 21.628ZM394.425 32.86V35.812C394.425 37.144 394.425 37.828 394.497 43.12C394.497 43.768 394.533 44.236 394.533 44.74C394.533 46 394.461 46.576 394.281 46.972C394.065 47.548 393.597 47.908 393.057 47.908C392.409 47.908 391.797 47.512 391.149 46.648C390.429 45.676 389.889 44.416 389.889 43.66C389.889 43.264 389.925 43.12 390.177 42.292C390.789 40.456 391.005 36.928 391.005 28.252C391.005 21.772 390.897 20.548 390.393 19.612C389.961 18.856 389.169 18.244 387.909 17.74C388.413 17.452 388.701 17.38 389.313 17.38C390.537 17.38 392.265 17.92 393.741 18.784C395.037 19.54 395.541 20.116 395.541 20.872C395.541 21.16 395.469 21.376 395.253 21.772C394.605 22.78 394.569 23.32 394.425 29.08C397.953 29.332 401.085 29.98 403.137 30.916C404.973 31.708 405.765 32.788 405.765 34.444C405.765 35.956 405.117 36.964 404.181 36.964C403.677 36.964 403.389 36.784 402.489 35.776C400.185 33.256 397.017 31.06 394.425 30.16V32.86ZM400.329 18.928L400.653 18.316C402.345 18.856 403.461 19.324 404.505 20.044C406.161 21.16 406.917 22.204 406.917 23.356C406.917 24.184 406.449 24.76 405.801 24.76C405.333 24.76 405.045 24.544 404.577 23.716C403.497 21.844 402.057 20.26 400.329 18.928ZM404.037 16.084L404.325 15.508C406.125 15.904 407.457 16.408 408.537 17.092C409.977 18.028 410.625 18.856 410.625 19.864C410.625 20.728 410.193 21.304 409.545 21.304C409.149 21.304 408.897 21.088 408.357 20.332C407.133 18.568 405.873 17.344 404.037 16.084ZM423.297 18.892L423.693 18.64C425.097 20.008 426.105 20.476 427.653 20.476C430.281 20.476 434.205 19.468 435.933 18.388C436.221 18.172 436.509 18.1 436.869 18.1C437.553 18.1 438.921 18.64 439.713 19.252C440.361 19.72 440.613 20.116 440.613 20.62C440.613 21.448 440.037 21.736 437.841 22.096C434.241 22.636 430.749 23.032 429.309 23.032C426.501 23.032 425.025 21.988 423.297 18.892ZM424.881 48.124L424.665 47.764C428.301 44.956 430.821 42.4 433.197 39.088C435.897 35.344 437.877 31.6 438.921 28.18C434.313 28.792 432.585 29.116 429.345 29.98C426.861 30.628 426.321 30.808 425.169 31.384C424.665 31.636 424.233 31.744 423.801 31.744C422.289 31.744 419.733 28.612 419.733 26.668C419.733 26.416 419.769 26.236 419.949 25.84C420.885 27.46 422.037 28.18 423.729 28.18C425.097 28.18 431.469 27.28 436.185 26.452C438.345 26.092 438.417 26.056 439.245 25.48C439.569 25.264 439.857 25.192 440.253 25.192C440.757 25.192 441.585 25.696 442.593 26.56C443.709 27.532 444.249 28.288 444.249 28.864C444.249 29.332 444.105 29.548 443.565 29.98C442.989 30.448 442.737 30.808 441.909 32.32C437.697 40.276 432.333 45.244 424.881 48.124ZM451.691 38.728L451.511 38.332C455.903 35.776 460.511 32.104 464.939 27.64C468.791 23.752 470.987 20.872 470.987 19.684C470.987 18.928 470.159 17.992 468.827 17.308C469.295 17.2 469.511 17.164 469.979 17.164C471.059 17.164 472.211 17.56 473.615 18.388C475.271 19.36 476.243 20.44 476.243 21.268C476.243 21.916 476.063 22.132 474.803 23.032C474.659 23.14 474.659 23.14 472.463 25.228C469.943 27.568 469.943 27.568 467.387 29.764C468.611 30.556 469.547 31.348 469.871 31.888C470.195 32.392 470.231 32.752 470.267 35.416C470.303 37.072 470.303 37.54 470.519 44.38C470.555 44.884 470.555 45.388 470.555 45.748C470.555 47.224 470.087 47.944 469.079 47.944C467.747 47.944 465.767 45.748 465.767 44.236C465.767 43.876 465.803 43.624 465.983 43.084C466.451 41.608 466.775 37.684 466.775 33.796C466.775 31.96 466.667 31.456 466.163 30.772C463.175 33.04 460.619 34.732 458.459 35.884C456.335 37 453.743 38.08 451.691 38.728ZM504.539 19.864H511.955C513.251 18.496 513.647 18.064 514.943 16.804C516.743 18.172 517.247 18.604 518.903 20.044C519.047 20.224 519.119 20.332 519.119 20.404C519.119 20.512 518.975 20.62 518.759 20.62H504.539V23.968H509.111C510.011 23.104 510.299 22.816 511.163 21.952C512.495 22.852 512.891 23.104 514.151 24.04C514.475 24.256 514.583 24.436 514.583 24.616C514.583 24.904 514.367 25.12 513.323 25.696C513.287 27.388 513.287 28.792 513.287 29.656C513.287 32.5 513.359 35.992 513.431 38.044C513.431 38.836 512.999 38.98 510.911 38.98C509.507 38.98 509.399 38.944 509.363 38.404V37.504H496.151V38.296C496.151 39.016 495.863 39.124 493.919 39.124C492.299 39.124 492.119 39.052 492.119 38.368C492.227 34.3 492.227 33.184 492.227 29.476C492.227 25.984 492.191 24.616 492.083 21.952C494.027 22.744 494.603 23.032 496.403 23.968H500.579V20.62H489.563C488.519 20.62 487.907 20.692 487.151 20.836L486.935 19.576C487.835 19.792 488.519 19.864 489.527 19.864H500.579V19.576C500.579 17.848 500.543 17.236 500.363 15.652C505.907 16.228 506.087 16.264 506.087 16.768C506.087 17.128 505.691 17.344 504.539 17.632V19.864ZM496.151 28.072H509.363V24.724H496.151V28.072ZM509.363 28.828H496.151V32.212H509.363V28.828ZM509.363 32.968H496.151V36.748H509.363V32.968ZM489.059 40.456H512.783C514.079 39.16 514.475 38.764 515.735 37.504C517.535 38.8 518.039 39.232 519.731 40.636C519.911 40.78 519.983 40.888 519.983 40.996C519.983 41.104 519.803 41.212 519.587 41.212H489.059C487.871 41.212 487.403 41.248 486.467 41.464L486.215 40.132C487.223 40.384 487.907 40.456 489.059 40.456ZM486.395 48.844L486.251 48.484C489.203 47.188 490.823 46.288 492.731 44.884C494.243 43.732 495.035 43.012 496.079 41.716C497.267 42.148 498.167 42.472 498.743 42.688C501.083 43.48 501.587 43.732 501.587 44.092C501.587 44.452 501.119 44.632 500.075 44.632C499.967 44.632 499.715 44.632 499.499 44.632C495.107 47.116 492.515 47.944 486.395 48.844ZM504.071 42.688L504.179 42.364C510.623 42.652 513.035 43.012 514.655 43.948C515.771 44.56 516.419 45.784 516.419 47.224C516.419 48.376 515.915 49.132 515.159 49.132C514.727 49.132 514.439 48.988 513.719 48.412C513.143 47.908 511.343 46.576 510.515 46.036C508.787 44.884 507.347 44.128 504.071 42.688ZM540.251 21.628H536.867C536.759 23.356 536.723 23.644 536.507 24.652C535.679 28.468 533.447 31.024 529.523 32.572C527.795 33.256 525.995 33.688 523.079 34.156L522.863 33.688C527.363 32.212 529.991 30.304 531.575 27.424C532.511 25.66 532.907 24.04 532.943 21.628H527.939C527.939 21.772 527.939 21.88 527.939 21.916C527.939 23.464 527.579 25.084 527.075 25.948C526.427 27.028 525.527 27.64 524.555 27.64C523.439 27.64 522.539 26.56 522.539 25.228C522.539 24.292 522.827 23.896 523.799 23.356C525.095 22.672 525.671 22.168 526.247 21.34C526.751 20.548 526.967 19.864 527.111 18.46H527.507C527.759 19.576 527.831 20.008 527.903 20.872H536.543V18.46C536.543 17.164 536.507 16.84 536.363 15.76C541.547 16.12 542.339 16.264 542.339 16.84C542.339 17.236 542.015 17.416 540.611 17.776V20.872H548.675C549.575 19.9 549.863 19.612 550.763 18.676C552.527 19.9 553.067 20.296 554.723 21.664C555.011 21.916 555.083 22.096 555.083 22.276C555.083 22.384 555.011 22.528 554.939 22.6C554.831 22.708 554.471 22.816 554.003 22.816L553.211 22.852C552.923 22.888 552.671 22.924 552.383 22.96C550.583 24.256 549.719 24.796 547.343 26.164L547.055 26.02C547.919 24.364 548.171 23.68 548.783 21.628H543.923V27.964C543.923 28.756 544.139 28.828 547.019 28.828C549.935 28.828 550.331 28.756 550.763 28.144C551.051 27.748 551.591 26.524 552.599 24.112H552.995L552.923 27.316L552.887 27.856C552.887 28.216 552.959 28.288 553.607 28.576C554.363 28.9 554.651 29.26 554.651 29.908C554.651 30.7 554.147 31.312 553.319 31.528C552.383 31.78 550.151 31.924 546.587 31.924C542.843 31.924 541.763 31.816 541.007 31.312C540.467 30.952 540.251 30.34 540.251 29.224V21.628ZM540.719 36.676V46.324H547.703C549.035 44.812 549.431 44.38 550.763 43.012C552.563 44.452 553.139 44.92 554.939 46.468C555.047 46.612 555.119 46.72 555.119 46.828C555.119 46.972 554.975 47.08 554.759 47.08H526.139C525.239 47.08 524.519 47.152 523.079 47.368L522.647 45.928C524.411 46.216 525.491 46.324 526.427 46.324H536.507V36.676H528.731C528.155 36.676 527.723 36.748 526.103 37L525.779 35.632C527.147 35.812 528.227 35.92 528.947 35.92H545.507C546.623 34.552 546.983 34.156 548.171 32.824C550.043 34.228 550.619 34.696 552.491 36.172C552.599 36.28 552.671 36.352 552.671 36.424C552.671 36.568 552.527 36.676 552.347 36.676H540.719ZM562.031 25.228L562.391 24.976C563.723 26.632 564.803 27.064 567.359 27.064C568.691 27.064 570.779 26.884 573.227 26.524C573.227 22.78 573.191 21.772 572.903 20.908C572.579 19.936 571.535 19.18 569.987 18.856C570.455 18.388 570.815 18.28 571.535 18.28C572.903 18.28 575.135 18.784 576.323 19.36C577.403 19.9 577.871 20.404 577.871 21.052C577.871 21.52 577.799 21.7 577.367 22.42C576.899 23.212 576.683 24.184 576.503 25.948C579.347 25.48 581.903 24.652 582.443 24.04C582.839 23.752 583.019 23.68 583.523 23.68C584.063 23.68 585.251 24.076 586.043 24.544C586.799 25.012 587.159 25.48 587.159 26.02C587.159 26.848 586.583 27.172 584.459 27.46C584.243 27.496 583.451 27.64 582.083 27.82C579.131 28.288 577.259 28.576 576.359 28.684C576.323 30.592 576.323 30.7 576.323 31.276C576.323 34.624 576.467 37.504 576.827 41.212C576.863 41.86 576.899 42.22 576.899 42.652C576.899 45.424 575.567 47.656 573.875 47.656C573.011 47.656 572.615 47.296 572.363 46.216C572.183 44.992 570.635 43.516 566.999 41.176L567.143 40.888C569.591 41.644 570.743 41.896 573.011 42.22C573.155 39.124 573.263 33.544 573.263 29.008C570.959 29.224 569.627 29.332 568.547 29.332C565.127 29.332 563.363 28.216 562.031 25.228ZM566.495 31.888L566.999 31.96C566.927 35.272 566.495 37.72 565.487 40.06C564.587 42.184 563.435 43.336 562.247 43.336C561.239 43.336 560.519 42.184 560.519 40.528C560.519 40.024 560.663 39.484 560.843 39.16C561.059 38.836 561.167 38.764 561.923 38.368C564.227 37.072 566.063 34.408 566.495 31.888ZM580.571 31.744L580.859 31.456C583.919 32.896 585.503 33.904 586.979 35.38C588.239 36.64 588.779 37.72 588.779 39.016C588.779 41.032 587.771 42.688 586.547 42.688C585.827 42.688 585.647 42.4 585.215 40.708C584.207 37.108 582.515 33.796 580.571 31.744ZM586.007 14.716C588.167 14.716 589.895 16.444 589.895 18.604C589.895 20.764 588.167 22.492 586.043 22.492C583.883 22.492 582.119 20.728 582.119 18.604C582.119 16.48 583.883 14.716 586.007 14.716ZM586.007 15.976C584.567 15.976 583.415 17.128 583.415 18.604C583.415 20.044 584.567 21.196 586.007 21.196C587.483 21.196 588.635 20.044 588.635 18.604C588.635 17.128 587.483 15.976 586.007 15.976ZM598.535 21.52L598.715 21.124C602.747 21.772 604.907 22.384 606.599 23.464C607.787 24.184 608.363 25.192 608.363 26.56C608.363 28.252 607.535 29.548 606.419 29.548C605.807 29.548 605.447 29.26 604.907 28.324C603.179 25.192 601.343 23.248 598.535 21.52ZM625.643 22.996L626.075 23.212C624.095 27.352 621.611 30.772 617.975 34.372C614.771 37.54 612.107 39.628 607.535 42.58C606.599 43.192 605.951 43.696 605.591 44.164C605.087 44.776 604.619 45.064 604.079 45.064C603.143 45.064 601.811 44.056 600.551 42.436C599.399 40.96 598.823 39.592 598.823 38.44C598.823 38.116 598.859 37.936 599.003 37.468C599.975 39.124 601.163 40.132 602.135 40.132C603.647 40.132 608.363 37.648 612.647 34.588C618.011 30.736 622.583 26.704 625.643 22.996ZM636.551 48.052L636.299 47.692C639.323 45.424 641.195 43.696 643.607 40.852C647.207 36.568 650.483 31.168 652.571 25.912C653.003 24.832 653.255 24.004 653.255 23.644C653.255 23.392 653.039 23.284 652.607 23.284C651.311 23.284 648.035 23.932 644.939 24.76C642.239 25.48 640.835 26.02 639.215 26.848C638.855 27.064 638.351 27.172 637.919 27.172C636.875 27.172 635.687 26.2 634.535 24.472C633.887 23.428 633.563 22.636 633.563 21.916C633.563 21.628 633.599 21.448 633.779 20.98C634.643 22.672 635.759 23.356 637.559 23.356C639.107 23.356 643.319 22.78 649.223 21.772C651.923 21.304 652.211 21.232 653.147 20.692C653.399 20.584 653.723 20.476 653.939 20.476C654.479 20.476 655.631 21.16 656.603 22.06C657.827 23.176 658.511 24.112 658.511 24.76C658.511 25.264 658.367 25.552 657.863 26.056C657.215 26.74 657.071 26.92 656.351 28.288C650.987 38.656 644.867 44.74 636.551 48.052ZM660.923 14.86C663.083 14.86 664.811 16.588 664.811 18.748C664.811 20.908 663.083 22.636 660.959 22.636C658.799 22.636 657.035 20.872 657.035 18.748C657.035 16.624 658.799 14.86 660.923 14.86ZM660.923 16.12C659.483 16.12 658.331 17.272 658.331 18.748C658.331 20.188 659.483 21.34 660.923 21.34C662.399 21.34 663.551 20.188 663.551 18.748C663.551 17.272 662.399 16.12 660.923 16.12ZM688.355 38.368H687.167C681.623 38.368 678.887 37.972 677.015 36.892C675.503 36.028 674.819 35.2 673.955 33.256C672.911 34.588 672.263 35.344 671.507 36.136C669.743 37.972 669.743 37.972 669.275 38.512C669.239 38.692 669.239 38.836 669.203 38.908C669.167 39.592 669.095 39.772 668.807 39.772C668.627 39.772 668.483 39.664 668.267 39.34C667.439 37.468 667.439 37.468 666.503 35.308C667.943 35.02 669.311 34.48 670.967 33.58V27.388H668.663C668.519 27.388 667.871 27.424 666.791 27.496L666.575 26.38C667.403 26.524 668.267 26.632 668.735 26.632H670.895C671.687 25.804 671.939 25.516 672.767 24.688C674.027 25.624 674.423 25.912 675.611 26.884C675.791 27.1 675.863 27.208 675.863 27.316C675.863 27.532 675.539 27.82 674.747 28.324V33.184C675.395 34.264 675.971 34.696 677.159 34.984C678.563 35.344 680.255 35.488 683.351 35.488C687.815 35.488 694.583 35.092 699.947 34.552V34.876C698.651 35.488 698.111 36.172 697.751 37.576C697.607 38.008 697.571 38.044 697.247 38.116C696.851 38.152 696.851 38.152 692.207 38.296V40.78H693.467C694.583 39.7 694.583 39.7 695.771 38.512C697.283 39.556 697.751 39.88 699.299 41.032C699.479 41.14 699.551 41.248 699.551 41.356C699.551 41.464 699.407 41.536 699.155 41.536H692.207V42.256C692.207 42.58 692.207 43.876 692.279 46.144C692.243 47.116 692.063 47.62 691.559 48.088C690.803 48.772 689.579 49.168 687.743 49.348C687.419 49.384 687.275 49.384 687.167 49.384C686.843 49.384 686.771 49.312 686.735 48.88C686.663 48.232 686.447 47.62 686.159 47.296C685.655 46.684 685.655 46.684 681.875 45.532V45.208C684.251 45.352 684.575 45.352 687.959 45.424C688.247 45.352 688.355 45.244 688.355 44.92V41.536H669.779C669.383 41.536 667.475 41.644 667.007 41.68L666.791 40.6C667.655 40.708 669.167 40.78 669.851 40.78H688.355V38.368ZM684.251 19.864H687.851C688.643 18.496 689.399 16.552 689.615 15.256C693.863 16.336 694.547 16.552 694.547 16.876C694.547 17.2 694.187 17.344 693.143 17.488C691.739 18.424 691.739 18.424 689.363 19.864H693.755C694.403 19.072 695.087 18.28 695.735 17.488C697.283 18.568 697.751 18.928 699.299 20.08C699.407 20.224 699.479 20.332 699.479 20.404C699.479 20.548 699.335 20.62 699.155 20.62H688.751C687.563 21.7 687.023 22.132 685.655 23.14H691.559C692.315 22.312 692.531 22.096 693.359 21.268C694.727 22.204 695.123 22.456 696.419 23.392C696.527 23.536 696.599 23.608 696.599 23.716C696.599 24.004 696.383 24.22 695.555 24.688C695.555 30.088 695.555 30.088 695.663 33.436C695.627 33.76 695.519 33.868 695.267 33.976C694.871 34.156 693.755 34.264 692.747 34.264C692.135 34.264 691.955 34.192 691.847 33.832V33.184H681.803V33.544C681.659 34.12 681.299 34.264 679.931 34.264C679.643 34.264 679.427 34.3 679.247 34.3C679.103 34.3 679.031 34.3 678.995 34.3C678.347 34.3 678.131 34.156 678.095 33.688C678.167 31.672 678.203 30.736 678.203 27.136C678.203 23.824 678.167 22.996 678.059 21.376C679.895 22.06 680.435 22.312 682.235 23.14H684.035C684.287 21.988 684.287 21.988 684.395 20.62H678.527C678.059 20.62 676.655 20.728 675.935 20.8L675.683 19.612C676.511 19.756 677.915 19.864 678.743 19.864H682.163C681.875 19.54 681.839 19.432 681.695 18.892C681.227 17.344 680.687 16.516 679.535 15.616L679.751 15.292C683.819 16.048 685.115 16.732 685.115 18.136C685.115 18.748 684.791 19.36 684.251 19.864ZM681.803 26.056H691.847V23.896H681.803V26.056ZM691.847 26.812H681.803V29.116H691.847V26.812ZM691.847 29.872H681.803V32.428H691.847V29.872ZM667.619 16.768L667.835 16.444C671.003 17.272 672.875 17.992 673.955 18.784C674.783 19.36 675.035 19.828 675.035 20.728C675.035 22.168 674.027 23.68 673.055 23.68C672.659 23.68 672.443 23.5 671.939 22.564C670.571 19.972 669.563 18.64 667.619 16.768ZM673.919 42.436L674.027 42.148C679.103 43.012 681.011 43.948 681.011 45.64C681.011 47.116 680.003 48.52 678.887 48.52C678.383 48.52 678.059 48.232 677.699 47.44C676.691 45.208 675.755 43.948 673.919 42.436ZM735.983 43.084L735.947 43.444C734.111 44.2 733.031 45.316 732.383 47.188C732.239 47.548 732.095 47.692 731.915 47.692C731.591 47.692 730.295 46.936 729.215 46.072C726.191 43.696 723.671 40.42 721.943 36.568C720.827 34.192 720.215 32.14 719.387 28.54C716.939 38.368 711.503 44.668 702.503 48.196L702.287 47.8C706.967 44.488 709.703 41.464 711.971 36.964C713.267 34.408 714.203 31.708 714.851 28.54C715.319 26.38 715.679 23.968 715.679 22.96C715.679 22.852 715.679 22.672 715.679 22.42C717.371 22.744 717.371 22.744 718.595 22.996C718.559 21.664 718.523 21.016 718.523 20.26C718.523 20.188 718.523 20.008 718.523 19.828H712.079C711.503 19.828 710.999 19.864 709.667 19.972L709.487 18.748C710.603 18.964 711.503 19.072 712.223 19.072H717.803C718.487 18.172 718.703 17.92 719.423 17.02C720.431 17.812 720.755 18.064 721.727 18.892C722.015 19.144 722.123 19.288 722.123 19.396C722.123 19.72 721.619 19.972 719.279 20.728C719.639 24.688 720.179 27.172 721.439 30.124C723.203 34.3 725.759 37.504 729.107 39.844C731.159 41.248 732.887 42.076 735.983 43.084ZM752.831 32.608H743.651C742.715 32.608 742.247 32.644 741.563 32.824L741.383 31.564C742.247 31.78 742.823 31.852 743.687 31.852H752.831V28.828H746.747V29.548C746.711 30.412 746.351 30.556 744.191 30.556C742.967 30.556 742.787 30.484 742.787 29.908C742.859 27.928 742.895 26.38 742.895 24.58C742.895 23.572 742.859 22.816 742.751 21.376C744.659 22.096 745.235 22.348 747.071 23.212H752.831V21.952C752.831 21.592 752.831 21.34 752.831 20.44H741.131C740.195 20.44 739.799 20.476 738.935 20.656L738.719 19.36C739.727 19.612 740.267 19.684 741.131 19.684H752.795C752.795 17.668 752.759 17.164 752.579 15.544C753.695 15.652 754.595 15.76 755.171 15.796C757.583 16.012 758.159 16.156 758.159 16.624C758.159 16.984 757.763 17.2 756.719 17.488V19.684H764.819C765.971 18.424 766.331 18.064 767.483 16.876C769.283 18.136 769.787 18.532 771.479 19.9C771.587 20.044 771.659 20.116 771.659 20.188C771.659 20.332 771.479 20.44 771.299 20.44H756.719V23.212H762.695C763.487 22.384 763.739 22.168 764.603 21.376C765.899 22.132 766.295 22.384 767.483 23.212C767.807 23.428 767.951 23.608 767.951 23.788C767.951 24.076 767.807 24.184 766.799 24.76C766.799 27.604 766.799 27.604 766.835 29.116C766.835 29.836 766.547 29.98 765.107 30.088C766.619 31.06 766.619 31.06 767.771 31.852C768.059 32.104 768.167 32.248 768.167 32.392C768.167 32.644 767.915 32.86 767.123 33.292V36.028H767.519C768.347 35.02 768.635 34.696 769.463 33.76C770.651 34.84 771.011 35.164 772.127 36.28C772.199 36.388 772.271 36.496 772.271 36.604C772.271 36.712 772.127 36.784 771.911 36.784H767.123C767.195 39.484 767.195 40.312 767.303 42.688C767.303 43.552 766.799 43.732 764.567 43.732C763.487 43.732 763.307 43.624 763.307 42.976V41.212H756.791C756.827 43.3 756.827 43.3 756.863 44.812C756.863 47.116 756.179 47.98 753.803 48.628C753.119 48.808 752.039 48.988 751.535 48.988C751.175 48.988 751.067 48.844 751.031 48.34C750.959 47.512 750.599 46.864 749.807 46.396C749.123 46 748.583 45.82 745.091 44.992L745.127 44.524C749.591 44.848 749.771 44.848 752.291 44.848C752.327 44.848 752.363 44.848 752.399 44.848C752.723 44.848 752.831 44.74 752.831 44.452V41.212H743.471C742.643 41.212 742.175 41.248 741.383 41.428L741.131 40.168C741.923 40.384 742.607 40.456 743.471 40.456H752.831V36.784H740.411C739.619 36.784 739.187 36.82 738.359 37L738.143 35.704C739.007 35.92 739.691 36.028 740.411 36.028H752.831V32.608ZM752.831 28.072V23.968H746.747V28.072H752.831ZM756.719 31.852H762.947C763.631 31.132 763.631 31.132 764.711 30.088C763.127 30.088 762.983 30.052 762.983 29.476V28.828H756.719V31.852ZM762.983 28.072V23.968H756.719V28.072H762.983ZM756.719 32.608V36.028H763.307V32.608H756.719ZM763.307 36.784H756.719V37.504L756.791 40.456H763.307V36.784ZM779.435 26.992L780.407 27.136C781.991 27.352 782.207 27.424 782.207 27.784C782.207 28.072 781.955 28.252 780.983 28.576V35.956C780.983 36.784 780.983 38.296 780.983 40.312C781.019 43.552 781.019 43.66 781.019 47.8C781.019 48.16 780.911 48.304 780.731 48.412C780.407 48.592 779.435 48.736 778.283 48.736C777.527 48.736 777.239 48.52 777.239 48.016C777.239 47.98 777.239 47.908 777.239 47.836C777.347 43.228 777.419 38.98 777.419 36.28V30.016C776.195 31.708 775.295 32.716 773.531 34.408L773.207 34.12C775.115 30.772 776.159 28.396 777.419 24.508C778.751 20.512 779.291 18.064 779.399 15.724C784.259 16.588 784.835 16.732 784.835 17.2C784.835 17.488 784.403 17.74 783.431 17.956C782.207 21.448 780.803 24.724 779.435 26.992ZM783.503 19.756L783.323 18.676C784.187 18.82 784.547 18.856 785.087 18.856H791.315C792.467 17.524 792.467 17.524 793.547 16.3C794.987 17.452 795.383 17.812 796.715 19.036C796.823 19.18 796.895 19.288 796.895 19.324C796.895 19.396 796.859 19.432 796.859 19.504C800.711 19.864 801.071 19.936 801.071 20.404C801.071 20.692 800.819 20.872 799.883 21.232V29.836C799.883 30.052 799.919 36.028 799.955 39.916C799.919 40.348 799.775 40.492 799.451 40.636C799.127 40.744 798.011 40.888 797.255 40.888C796.427 40.888 796.175 40.708 796.175 40.06C796.283 34.156 796.319 31.636 796.319 26.92C796.319 22.888 796.283 21.556 796.175 19.612H789.767C789.407 22.132 789.047 23.86 788.471 25.624H791.351C792.071 24.868 792.287 24.616 793.043 23.824C794.195 24.652 794.555 24.904 795.599 25.732C795.959 25.984 796.067 26.164 796.067 26.344C796.067 26.632 795.851 26.848 794.951 27.28C794.159 32.104 793.547 34.48 792.323 37.18C790.883 40.456 788.903 43.084 786.239 45.352C785.159 46.288 784.187 47.008 781.955 48.448L781.739 48.16C784.979 44.812 786.527 42.652 788.255 38.944C790.019 35.092 790.811 32.068 791.495 26.38H788.219C787.643 27.964 787.535 28.216 786.815 29.656C787.499 30.124 788.183 30.736 788.867 31.492C789.551 32.32 789.839 32.968 789.839 33.76C789.839 35.272 788.651 36.856 787.535 36.856C787.139 36.856 786.851 36.46 786.851 35.884C786.851 35.776 786.851 35.632 786.887 35.488C787.103 33.94 787.175 33.148 787.175 32.464C787.175 31.672 786.959 30.808 786.563 30.16C785.159 32.788 783.755 34.624 781.559 36.784L781.307 36.532C784.043 31.6 785.447 26.452 785.951 19.612H785.051C784.475 19.612 784.151 19.648 783.503 19.756ZM794.843 44.812L794.879 44.38C799.163 44.596 799.307 44.596 801.647 44.632C802.043 44.596 802.151 44.452 802.151 43.948V19.864C802.151 18.1 802.151 17.74 802.043 16.372C803.123 16.48 803.987 16.588 804.563 16.66C806.867 16.912 807.407 17.092 807.407 17.524C807.407 17.848 806.975 18.1 805.895 18.424V34.516C805.895 36.46 805.931 39.808 805.967 44.668C805.931 46.54 805.427 47.404 804.059 47.98C803.087 48.412 801.719 48.7 800.819 48.7C800.459 48.7 800.387 48.628 800.315 48.052C800.207 47.26 799.847 46.576 799.235 46.18C798.623 45.748 798.119 45.604 794.843 44.812Z" fill="#006281"/>
<rect y="2" width="3" height="60" fill="#006281"/>
<rect x="825" width="3" height="60" fill="#006281"/>
</svg>
