<svg width="237" height="50" viewBox="0 0 237 50" fill="none" xmlns="http://www.w3.org/2000/svg">
<path d="M9.14 10.7V12.34C9.14 13.08 9.14 13.46 9.18 16.4C9.18 16.76 9.2 17.02 9.2 17.3C9.2 18 9.16 18.32 9.06 18.54C8.94 18.86 8.68 19.06 8.38 19.06C8.02 19.06 7.68 18.84 7.32 18.36C6.92 17.82 6.62 17.12 6.62 16.7C6.62 16.48 6.64 16.4 6.78 15.94C7.12 14.92 7.24 12.96 7.24 8.14C7.24 4.54 7.18 3.86 6.9 3.34C6.66 2.92 6.22 2.58 5.52 2.3C5.8 2.14 5.96 2.1 6.3 2.1C6.98 2.1 7.94 2.4 8.76 2.88C9.48 3.3 9.76 3.62 9.76 4.04C9.76 4.2 9.72 4.32 9.6 4.54C9.24 5.1 9.22 5.4 9.14 8.6C11.1 8.74 12.84 9.1 13.98 9.62C15 10.06 15.44 10.66 15.44 11.58C15.44 12.42 15.08 12.98 14.56 12.98C14.28 12.98 14.12 12.88 13.62 12.32C12.34 10.92 10.58 9.7 9.14 9.2V10.7ZM12.42 2.96L12.6 2.62C13.54 2.92 14.16 3.18 14.74 3.58C15.66 4.2 16.08 4.78 16.08 5.42C16.08 5.88 15.82 6.2 15.46 6.2C15.2 6.2 15.04 6.08 14.78 5.62C14.18 4.58 13.38 3.7 12.42 2.96ZM14.48 1.38L14.64 1.06C15.64 1.28 16.38 1.56 16.98 1.94C17.78 2.46 18.14 2.92 18.14 3.48C18.14 3.96 17.9 4.28 17.54 4.28C17.32 4.28 17.18 4.16 16.88 3.74C16.2 2.76 15.5 2.08 14.48 1.38ZM25.18 2.94L25.4 2.8C26.18 3.56 26.74 3.82 27.6 3.82C29.06 3.82 31.24 3.26 32.2 2.66C32.36 2.54 32.52 2.5 32.72 2.5C33.1 2.5 33.86 2.8 34.3 3.14C34.66 3.4 34.8 3.62 34.8 3.9C34.8 4.36 34.48 4.52 33.26 4.72C31.26 5.02 29.32 5.24 28.52 5.24C26.96 5.24 26.14 4.66 25.18 2.94ZM26.06 19.18L25.94 18.98C27.96 17.42 29.36 16 30.68 14.16C32.18 12.08 33.28 10 33.86 8.1C31.3 8.44 30.34 8.62 28.54 9.1C27.16 9.46 26.86 9.56 26.22 9.88C25.94 10.02 25.7 10.08 25.46 10.08C24.62 10.08 23.2 8.34 23.2 7.26C23.2 7.12 23.22 7.02 23.32 6.8C23.84 7.7 24.48 8.1 25.42 8.1C26.18 8.1 29.72 7.6 32.34 7.14C33.54 6.94 33.58 6.92 34.04 6.6C34.22 6.48 34.38 6.44 34.6 6.44C34.88 6.44 35.34 6.72 35.9 7.2C36.52 7.74 36.82 8.16 36.82 8.48C36.82 8.74 36.74 8.86 36.44 9.1C36.12 9.36 35.98 9.56 35.52 10.4C33.18 14.82 30.2 17.58 26.06 19.18ZM40.9545 13.96L40.8545 13.74C43.2945 12.32 45.8545 10.28 48.3145 7.8C50.4545 5.64 51.6745 4.04 51.6745 3.38C51.6745 2.96 51.2145 2.44 50.4745 2.06C50.7345 2 50.8545 1.98 51.1145 1.98C51.7145 1.98 52.3545 2.2 53.1345 2.66C54.0545 3.2 54.5945 3.8 54.5945 4.26C54.5945 4.62 54.4945 4.74 53.7945 5.24C53.7145 5.3 53.7145 5.3 52.4945 6.46C51.0945 7.76 51.0945 7.76 49.6745 8.98C50.3545 9.42 50.8745 9.86 51.0545 10.16C51.2345 10.44 51.2545 10.64 51.2745 12.12C51.2945 13.04 51.2945 13.3 51.4145 17.1C51.4345 17.38 51.4345 17.66 51.4345 17.86C51.4345 18.68 51.1745 19.08 50.6145 19.08C49.8745 19.08 48.7745 17.86 48.7745 17.02C48.7745 16.82 48.7945 16.68 48.8945 16.38C49.1545 15.56 49.3345 13.38 49.3345 11.22C49.3345 10.2 49.2745 9.92 48.9945 9.54C47.3345 10.8 45.9145 11.74 44.7145 12.38C43.5345 13 42.0945 13.6 40.9545 13.96ZM70.3145 3.48H74.4345C75.1545 2.72 75.3745 2.48 76.0945 1.78C77.0945 2.54 77.3745 2.78 78.2945 3.58C78.3745 3.68 78.4145 3.74 78.4145 3.78C78.4145 3.84 78.3345 3.9 78.2145 3.9H70.3145V5.76H72.8545C73.3545 5.28 73.5145 5.12 73.9945 4.64C74.7345 5.14 74.9545 5.28 75.6545 5.8C75.8345 5.92 75.8945 6.02 75.8945 6.12C75.8945 6.28 75.7745 6.4 75.1945 6.72C75.1745 7.66 75.1745 8.44 75.1745 8.92C75.1745 10.5 75.2145 12.44 75.2545 13.58C75.2545 14.02 75.0145 14.1 73.8545 14.1C73.0745 14.1 73.0145 14.08 72.9945 13.78V13.28H65.6545V13.72C65.6545 14.12 65.4945 14.18 64.4145 14.18C63.5145 14.18 63.4145 14.14 63.4145 13.76C63.4745 11.5 63.4745 10.88 63.4745 8.82C63.4745 6.88 63.4545 6.12 63.3945 4.64C64.4745 5.08 64.7945 5.24 65.7945 5.76H68.1145V3.9H61.9945C61.4145 3.9 61.0745 3.94 60.6545 4.02L60.5345 3.32C61.0345 3.44 61.4145 3.48 61.9745 3.48H68.1145V3.32C68.1145 2.36 68.0945 2.02 67.9945 1.14C71.0745 1.46 71.1745 1.48 71.1745 1.76C71.1745 1.96 70.9545 2.08 70.3145 2.24V3.48ZM65.6545 8.04H72.9945V6.18H65.6545V8.04ZM72.9945 8.46H65.6545V10.34H72.9945V8.46ZM72.9945 10.76H65.6545V12.86H72.9945V10.76ZM61.7145 14.92H74.8945C75.6145 14.2 75.8345 13.98 76.5345 13.28C77.5345 14 77.8145 14.24 78.7545 15.02C78.8545 15.1 78.8945 15.16 78.8945 15.22C78.8945 15.28 78.7945 15.34 78.6745 15.34H61.7145C61.0545 15.34 60.7945 15.36 60.2745 15.48L60.1345 14.74C60.6945 14.88 61.0745 14.92 61.7145 14.92ZM60.2345 19.58L60.1545 19.38C61.7945 18.66 62.6945 18.16 63.7545 17.38C64.5945 16.74 65.0345 16.34 65.6145 15.62C66.2745 15.86 66.7745 16.04 67.0945 16.16C68.3945 16.6 68.6745 16.74 68.6745 16.94C68.6745 17.14 68.4145 17.24 67.8345 17.24C67.7745 17.24 67.6345 17.24 67.5145 17.24C65.0745 18.62 63.6345 19.08 60.2345 19.58ZM70.0545 16.16L70.1145 15.98C73.6945 16.14 75.0345 16.34 75.9345 16.86C76.5545 17.2 76.9145 17.88 76.9145 18.68C76.9145 19.32 76.6345 19.74 76.2145 19.74C75.9745 19.74 75.8145 19.66 75.4145 19.34C75.0945 19.06 74.0945 18.32 73.6345 18.02C72.6745 17.38 71.8745 16.96 70.0545 16.16ZM90.1545 4.46H88.2745C88.2145 5.42 88.1945 5.58 88.0745 6.14C87.6145 8.26 86.3745 9.68 84.1945 10.54C83.2345 10.92 82.2345 11.16 80.6145 11.42L80.4945 11.16C82.9945 10.34 84.4545 9.28 85.3345 7.68C85.8545 6.7 86.0745 5.8 86.0945 4.46H83.3145C83.3145 4.54 83.3145 4.6 83.3145 4.62C83.3145 5.48 83.1145 6.38 82.8345 6.86C82.4745 7.46 81.9745 7.8 81.4345 7.8C80.8145 7.8 80.3145 7.2 80.3145 6.46C80.3145 5.94 80.4745 5.72 81.0145 5.42C81.7345 5.04 82.0545 4.76 82.3745 4.3C82.6545 3.86 82.7745 3.48 82.8545 2.7H83.0745C83.2145 3.32 83.2545 3.56 83.2945 4.04H88.0945V2.7C88.0945 1.98 88.0745 1.8 87.9945 1.2C90.8745 1.4 91.3145 1.48 91.3145 1.8C91.3145 2.02 91.1345 2.12 90.3545 2.32V4.04H94.8345C95.3345 3.5 95.4945 3.34 95.9945 2.82C96.9745 3.5 97.2745 3.72 98.1945 4.48C98.3545 4.62 98.3945 4.72 98.3945 4.82C98.3945 4.88 98.3545 4.96 98.3145 5C98.2545 5.06 98.0545 5.12 97.7945 5.12L97.3545 5.14C97.1945 5.16 97.0545 5.18 96.8945 5.2C95.8945 5.92 95.4145 6.22 94.0945 6.98L93.9345 6.9C94.4145 5.98 94.5545 5.6 94.8945 4.46H92.1945V7.98C92.1945 8.42 92.3145 8.46 93.9145 8.46C95.5345 8.46 95.7545 8.42 95.9945 8.08C96.1545 7.86 96.4545 7.18 97.0145 5.84H97.2345L97.1945 7.62L97.1745 7.92C97.1745 8.12 97.2145 8.16 97.5745 8.32C97.9945 8.5 98.1545 8.7 98.1545 9.06C98.1545 9.5 97.8745 9.84 97.4145 9.96C96.8945 10.1 95.6545 10.18 93.6745 10.18C91.5945 10.18 90.9945 10.12 90.5745 9.84C90.2745 9.64 90.1545 9.3 90.1545 8.68V4.46ZM90.4145 12.82V18.18H94.2945C95.0345 17.34 95.2545 17.1 95.9945 16.34C96.9945 17.14 97.3145 17.4 98.3145 18.26C98.3745 18.34 98.4145 18.4 98.4145 18.46C98.4145 18.54 98.3345 18.6 98.2145 18.6H82.3145C81.8145 18.6 81.4145 18.64 80.6145 18.76L80.3745 17.96C81.3545 18.12 81.9545 18.18 82.4745 18.18H88.0745V12.82H83.7545C83.4345 12.82 83.1945 12.86 82.2945 13L82.1145 12.24C82.8745 12.34 83.4745 12.4 83.8745 12.4H93.0745C93.6945 11.64 93.8945 11.42 94.5545 10.68C95.5945 11.46 95.9145 11.72 96.9545 12.54C97.0145 12.6 97.0545 12.64 97.0545 12.68C97.0545 12.76 96.9745 12.82 96.8745 12.82H90.4145ZM102.255 6.46L102.455 6.32C103.195 7.24 103.795 7.48 105.215 7.48C105.955 7.48 107.115 7.38 108.475 7.18C108.475 5.1 108.455 4.54 108.295 4.06C108.115 3.52 107.535 3.1 106.675 2.92C106.935 2.66 107.135 2.6 107.535 2.6C108.295 2.6 109.535 2.88 110.195 3.2C110.795 3.5 111.055 3.78 111.055 4.14C111.055 4.4 111.015 4.5 110.775 4.9C110.515 5.34 110.395 5.88 110.295 6.86C111.875 6.6 113.295 6.14 113.595 5.8C113.815 5.64 113.915 5.6 114.195 5.6C114.495 5.6 115.155 5.82 115.595 6.08C116.015 6.34 116.215 6.6 116.215 6.9C116.215 7.36 115.895 7.54 114.715 7.7C114.595 7.72 114.155 7.8 113.395 7.9C111.755 8.16 110.715 8.32 110.215 8.38C110.195 9.44 110.195 9.5 110.195 9.82C110.195 11.68 110.275 13.28 110.475 15.34C110.495 15.7 110.515 15.9 110.515 16.14C110.515 17.68 109.775 18.92 108.835 18.92C108.355 18.92 108.135 18.72 107.995 18.12C107.895 17.44 107.035 16.62 105.015 15.32L105.095 15.16C106.455 15.58 107.095 15.72 108.355 15.9C108.435 14.18 108.495 11.08 108.495 8.56C107.215 8.68 106.475 8.74 105.875 8.74C103.975 8.74 102.995 8.12 102.255 6.46ZM104.735 10.16L105.015 10.2C104.975 12.04 104.735 13.4 104.175 14.7C103.675 15.88 103.035 16.52 102.375 16.52C101.815 16.52 101.415 15.88 101.415 14.96C101.415 14.68 101.495 14.38 101.595 14.2C101.715 14.02 101.775 13.98 102.195 13.76C103.475 13.04 104.495 11.56 104.735 10.16ZM112.555 10.08L112.715 9.92C114.415 10.72 115.295 11.28 116.115 12.1C116.815 12.8 117.115 13.4 117.115 14.12C117.115 15.24 116.555 16.16 115.875 16.16C115.475 16.16 115.375 16 115.135 15.06C114.575 13.06 113.635 11.22 112.555 10.08ZM115.575 0.62C116.775 0.62 117.735 1.58 117.735 2.78C117.735 3.98 116.775 4.94 115.595 4.94C114.395 4.94 113.415 3.96 113.415 2.78C113.415 1.6 114.395 0.62 115.575 0.62ZM115.575 1.32C114.775 1.32 114.135 1.96 114.135 2.78C114.135 3.58 114.775 4.22 115.575 4.22C116.395 4.22 117.035 3.58 117.035 2.78C117.035 1.96 116.395 1.32 115.575 1.32ZM122.535 4.4L122.635 4.18C124.875 4.54 126.075 4.88 127.015 5.48C127.675 5.88 127.995 6.44 127.995 7.2C127.995 8.14 127.535 8.86 126.915 8.86C126.575 8.86 126.375 8.7 126.075 8.18C125.115 6.44 124.095 5.36 122.535 4.4ZM137.595 5.22L137.835 5.34C136.735 7.64 135.355 9.54 133.335 11.54C131.555 13.3 130.075 14.46 127.535 16.1C127.015 16.44 126.655 16.72 126.455 16.98C126.175 17.32 125.915 17.48 125.615 17.48C125.095 17.48 124.355 16.92 123.655 16.02C123.015 15.2 122.695 14.44 122.695 13.8C122.695 13.62 122.715 13.52 122.795 13.26C123.335 14.18 123.995 14.74 124.535 14.74C125.375 14.74 127.995 13.36 130.375 11.66C133.355 9.52 135.895 7.28 137.595 5.22ZM143.655 19.14L143.515 18.94C145.195 17.68 146.235 16.72 147.575 15.14C149.575 12.76 151.395 9.76 152.555 6.84C152.795 6.24 152.935 5.78 152.935 5.58C152.935 5.44 152.815 5.38 152.575 5.38C151.855 5.38 150.035 5.74 148.315 6.2C146.815 6.6 146.035 6.9 145.135 7.36C144.935 7.48 144.655 7.54 144.415 7.54C143.835 7.54 143.175 7 142.535 6.04C142.175 5.46 141.995 5.02 141.995 4.62C141.995 4.46 142.015 4.36 142.115 4.1C142.595 5.04 143.215 5.42 144.215 5.42C145.075 5.42 147.415 5.1 150.695 4.54C152.195 4.28 152.355 4.24 152.875 3.94C153.015 3.88 153.195 3.82 153.315 3.82C153.615 3.82 154.255 4.2 154.795 4.7C155.475 5.32 155.855 5.84 155.855 6.2C155.855 6.48 155.775 6.64 155.495 6.92C155.135 7.3 155.055 7.4 154.655 8.16C151.675 13.92 148.275 17.3 143.655 19.14ZM157.195 0.699999C158.395 0.699999 159.355 1.66 159.355 2.86C159.355 4.06 158.395 5.02 157.215 5.02C156.015 5.02 155.035 4.04 155.035 2.86C155.035 1.68 156.015 0.699999 157.195 0.699999ZM157.195 1.4C156.395 1.4 155.755 2.04 155.755 2.86C155.755 3.66 156.395 4.3 157.195 4.3C158.015 4.3 158.655 3.66 158.655 2.86C158.655 2.04 158.015 1.4 157.195 1.4ZM162.853 6.6L162.993 6.4C164.893 7.1 166.593 7.9 168.273 8.9C169.713 6.58 170.533 4.78 170.533 3.96C170.533 3.3 170.113 2.76 169.233 2.3C169.433 2.2 169.533 2.18 169.733 2.18C170.573 2.18 171.773 2.72 172.673 3.48C173.253 3.96 173.493 4.34 173.493 4.72C173.493 4.98 173.413 5.1 172.993 5.48C172.733 5.72 172.613 5.9 172.133 6.66C172.053 6.78 172.053 6.78 171.413 7.84C171.313 8 170.973 8.54 170.373 9.46C170.293 9.56 170.193 9.74 170.053 9.96C172.353 11.6 172.813 12.16 172.813 13.32C172.813 14.22 172.393 14.94 171.873 14.94C171.593 14.94 171.393 14.76 171.093 14.3C170.393 13.24 169.813 12.48 168.893 11.52C167.293 13.6 166.193 14.74 164.553 16.02C163.013 17.22 161.793 17.92 159.733 18.78L159.593 18.56C162.473 16.42 165.213 13.46 167.473 10.1C165.993 8.78 164.253 7.46 162.853 6.6ZM179.853 7.92C180.273 8.66 180.393 8.84 180.713 9.08C181.153 9.4 181.613 9.5 182.713 9.5C183.513 9.5 187.173 9.44 190.633 9.36C190.973 9.34 192.273 9.34 192.873 9.34C194.873 9.34 195.493 9.42 195.813 9.7C195.973 9.84 196.053 10.06 196.053 10.3C196.053 10.8 195.613 11.12 194.753 11.24C193.633 11.38 191.873 11.44 185.833 11.48C184.913 11.48 184.813 11.5 183.353 11.56C182.873 11.6 182.773 11.62 182.473 11.74C182.173 11.86 181.973 11.9 181.793 11.9C181.313 11.9 180.773 11.46 180.313 10.66C179.853 9.86 179.613 9.16 179.613 8.58C179.613 8.24 179.633 8.18 179.853 7.92ZM199.473 18.72L199.353 18.52C200.793 17.34 201.593 16.5 202.653 15.06C204.113 13.08 205.153 11.06 206.053 8.44C204.733 8.74 203.793 9.02 203.093 9.36C202.853 9.48 202.693 9.52 202.533 9.52C202.033 9.52 201.413 9.06 200.913 8.32C200.613 7.86 200.393 7.28 200.393 6.92C200.393 6.82 200.413 6.72 200.473 6.52C201.033 7.38 201.553 7.7 202.413 7.7C203.033 7.7 204.813 7.5 206.373 7.24C206.773 5.66 206.973 4.54 206.973 3.84C206.973 3.12 206.533 2.66 205.433 2.22C205.713 2.08 205.893 2.04 206.233 2.04C206.933 2.04 207.993 2.36 208.753 2.8C209.393 3.18 209.653 3.48 209.653 3.84C209.653 4.04 209.613 4.18 209.413 4.5C209.133 5 209.053 5.24 208.553 6.96C209.773 6.78 209.773 6.78 210.713 6.64C211.393 6.54 211.433 6.52 211.873 6.3C212.033 6.22 212.153 6.18 212.313 6.18C212.733 6.18 213.273 6.52 213.953 7.22C214.353 7.62 214.493 7.88 214.493 8.16C214.493 8.34 214.453 8.42 214.173 8.84C214.013 9.08 213.993 9.16 213.633 11.16C212.833 15.32 212.373 16.7 211.473 17.52C210.893 18.06 210.153 18.36 209.413 18.36C209.173 18.36 208.933 18.26 208.833 18.12C208.713 17.98 208.693 17.9 208.613 17.44C208.513 16.94 207.673 16.24 206.053 15.3L206.153 15.08C207.973 15.64 209.173 15.92 209.713 15.92C210.193 15.92 210.433 15.56 210.873 14.16C211.373 12.54 211.993 9.24 211.993 8.1C211.993 7.74 211.833 7.58 211.493 7.58C211.053 7.58 209.333 7.84 208.233 8.08C207.053 11.74 205.633 14.1 203.393 16.14C202.193 17.24 200.893 18.1 199.473 18.72ZM219.853 7.92C220.273 8.66 220.393 8.84 220.713 9.08C221.153 9.4 221.613 9.5 222.713 9.5C223.513 9.5 227.173 9.44 230.633 9.36C230.973 9.34 232.273 9.34 232.873 9.34C234.873 9.34 235.493 9.42 235.813 9.7C235.973 9.84 236.053 10.06 236.053 10.3C236.053 10.8 235.613 11.12 234.753 11.24C233.633 11.38 231.873 11.44 225.833 11.48C224.913 11.48 224.813 11.5 223.353 11.56C222.873 11.6 222.773 11.62 222.473 11.74C222.173 11.86 221.973 11.9 221.793 11.9C221.313 11.9 220.773 11.46 220.313 10.66C219.853 9.86 219.613 9.16 219.613 8.58C219.613 8.24 219.633 8.18 219.853 7.92ZM0.56 46.42L0.46 46.26C1.98 45 3.4 43.36 4.66 41.44C5.72 39.8 6.3 38.54 6.3 37.92C6.3 37.46 5.92 37.04 5.08 36.64C5.36 36.52 5.48 36.48 5.68 36.48C6.32 36.48 7.06 36.78 7.92 37.36C8.76 37.92 9.16 38.38 9.16 38.78C9.16 39 9.06 39.18 8.78 39.42C8.46 39.68 8.36 39.78 8.06 40.18C5.94 43.08 3.16 45.4 0.56 46.42ZM11.28 36.74L11.46 36.56C13.44 37.44 15.36 38.8 16.66 40.2C17.92 41.56 18.34 42.36 18.34 43.44C18.34 44.68 17.78 45.62 17.06 45.62C16.6 45.62 16.46 45.44 16.16 44.52C15.22 41.46 13.5 38.7 11.28 36.74ZM15.94 32.5C17.14 32.5 18.1 33.46 18.1 34.66C18.1 35.86 17.14 36.82 15.96 36.82C14.76 36.82 13.78 35.84 13.78 34.66C13.78 33.48 14.76 32.5 15.94 32.5ZM15.94 33.2C15.14 33.2 14.5 33.84 14.5 34.66C14.5 35.46 15.14 36.1 15.94 36.1C16.76 36.1 17.4 35.46 17.4 34.66C17.4 33.84 16.76 33.2 15.94 33.2ZM22.06 37.92C22.48 38.66 22.6 38.84 22.92 39.08C23.36 39.4 23.82 39.5 24.92 39.5C25.72 39.5 29.38 39.44 32.84 39.36C33.18 39.34 34.48 39.34 35.08 39.34C37.08 39.34 37.7 39.42 38.02 39.7C38.18 39.84 38.26 40.06 38.26 40.3C38.26 40.8 37.82 41.12 36.96 41.24C35.84 41.38 34.08 41.44 28.04 41.48C27.12 41.48 27.02 41.5 25.56 41.56C25.08 41.6 24.98 41.62 24.68 41.74C24.38 41.86 24.18 41.9 24 41.9C23.52 41.9 22.98 41.46 22.52 40.66C22.06 39.86 21.82 39.16 21.82 38.58C21.82 38.24 21.84 38.18 22.06 37.92ZM43.5286 48.78L43.3886 48.58C45.1086 47.3 46.1086 46.34 47.4486 44.78C49.4486 42.4 51.3086 39.32 52.4286 36.48C52.6686 35.88 52.8086 35.4 52.8086 35.22C52.8086 35.08 52.6886 35.02 52.4486 35.02C51.7286 35.02 49.9686 35.36 48.1886 35.84C46.6886 36.24 45.9286 36.52 45.0086 37C44.7886 37.1 44.5086 37.18 44.2886 37.18C43.7086 37.18 43.0286 36.64 42.4286 35.68C42.0486 35.1 41.8686 34.66 41.8686 34.26C41.8686 34.12 41.8886 34 41.9886 33.74C42.4686 34.66 43.0886 35.04 44.0886 35.04C44.9686 35.04 47.2686 34.74 50.5686 34.16C52.0686 33.92 52.2286 33.88 52.7486 33.58C52.8686 33.52 53.0886 33.46 53.2086 33.46C53.4886 33.46 54.1486 33.86 54.6686 34.34C55.3486 34.96 55.7286 35.5 55.7286 35.84C55.7286 36.12 55.6486 36.28 55.3686 36.56C55.0286 36.9 54.9286 37.06 54.5286 37.82C52.6886 41.32 50.8686 43.74 48.6086 45.7C47.0286 47.08 45.7886 47.82 43.5286 48.78ZM62.7725 38.74L62.9525 38.6C63.5725 39.2 64.0525 39.42 64.8125 39.42C65.8925 39.42 67.3325 39.18 68.6925 38.8C69.4525 38.58 69.7525 38.46 70.2925 38.12C70.4125 38.04 70.5325 38 70.6525 38C71.3325 38 72.2125 38.62 72.2125 39.08C72.2125 39.52 71.8725 39.7 70.6925 39.94C69.9125 40.1 68.5525 40.28 67.5125 40.38C68.4525 40.76 68.9325 41.18 68.9325 41.6C68.9325 41.76 68.9325 41.76 68.8125 42.12C68.6725 42.48 68.4325 44.08 68.3125 45.44C69.1525 45.38 69.5325 45.36 70.8525 45.3C71.8525 45.24 71.9925 45.22 72.4725 45.08C72.7125 45 72.7925 44.98 72.9525 44.98C73.2125 44.98 73.6725 45.24 74.1125 45.6C74.4725 45.92 74.6725 46.24 74.6725 46.54C74.6725 46.92 74.4525 47.16 74.0725 47.16C73.9125 47.16 73.8125 47.14 73.1725 46.98C72.1125 46.74 70.8725 46.62 69.1325 46.62C67.2325 46.62 64.7725 47.1 63.3525 47.76C63.1325 47.84 62.9325 47.9 62.7725 47.9C62.4125 47.9 62.0725 47.72 61.6725 47.3C61.1125 46.72 60.7725 46.08 60.7725 45.64C60.7725 45.48 60.7925 45.32 60.8525 45.16C61.2325 45.8 61.8325 46.18 62.4525 46.18C62.7325 46.18 62.9125 46.16 64.4925 45.92C65.0125 45.84 65.4725 45.76 66.7125 45.6C66.7725 44.46 66.7925 43.96 66.7925 43.22C66.7925 41.32 66.7325 40.92 66.3125 40.48C64.9925 40.48 64.6125 40.42 64.0925 40.14C63.5725 39.86 63.1325 39.4 62.7725 38.74ZM80.3925 41.94L80.2525 41.74C82.1725 40.14 83.9325 38 85.3925 35.56C86.0125 34.52 86.2525 33.96 86.2525 33.56C86.2525 33.28 86.1725 33.1 85.9725 32.86C85.7125 32.54 85.5725 32.44 85.0125 32.18C85.2525 32.08 85.3525 32.06 85.5325 32.06C86.2525 32.06 87.3525 32.5 88.1925 33.12C88.6125 33.42 88.8325 33.76 88.8325 34.04C88.8325 34.32 88.7925 34.4 88.2925 35.04C88.2725 35.06 88.0325 35.38 87.7325 35.78C87.9125 35.8 88.0525 35.82 88.1325 35.82C88.4525 35.82 89.5725 35.66 90.2125 35.54C90.9325 35.4 91.1925 35.32 91.5925 35.1C91.9525 34.92 92.0325 34.88 92.1925 34.88C92.5125 34.88 93.0125 35.18 93.5725 35.72C94.0925 36.22 94.3525 36.62 94.3525 36.94C94.3525 37.18 94.2525 37.36 93.9725 37.58C93.5525 37.88 93.5325 37.9 92.9525 38.88C91.5525 41.22 90.6925 42.38 89.4325 43.7C86.9925 46.26 83.9725 48.12 80.7525 49.04L80.6525 48.82C81.9125 48.12 82.5725 47.7 83.5525 46.9C86.0525 44.9 87.9925 42.76 89.5725 40.3C90.2925 39.18 91.2325 37.4 91.4125 36.84C91.4525 36.7 91.4925 36.62 91.4925 36.58C91.5125 36.54 91.5325 36.5 91.5325 36.48C91.5325 36.44 91.4925 36.4 91.4725 36.38C91.4525 36.38 91.4525 36.38 91.4125 36.38C91.3925 36.38 91.3725 36.38 91.3325 36.36C91.3125 36.36 91.2925 36.38 91.2525 36.4C91.2125 36.42 91.1325 36.42 91.0325 36.44C90.8525 36.44 89.9925 36.64 89.5125 36.78C89.0925 36.92 89.0925 36.92 88.7525 37.02C88.6325 37.04 88.5525 37.06 88.4925 37.06C88.1325 37.06 87.6925 36.82 87.2525 36.38C85.2525 38.92 82.7925 40.92 80.3925 41.94ZM103.733 32.2C104.033 32.04 104.193 32 104.513 32C105.113 32 105.993 32.24 106.713 32.58C107.593 33.02 108.013 33.44 108.013 33.9C108.013 34.08 107.973 34.18 107.833 34.44C107.593 34.88 107.553 35.04 107.493 35.76C107.453 36.16 107.413 37.46 107.373 38.52C109.173 38.6 111.033 39 112.193 39.5C113.213 39.96 113.653 40.56 113.653 41.46C113.653 42.32 113.293 42.88 112.773 42.88C112.473 42.88 112.353 42.8 111.833 42.22C110.553 40.8 109.013 39.7 107.373 39.1C107.373 39.34 107.373 40.38 107.373 42.24C107.373 43.92 107.373 43.92 107.433 46.3C107.453 46.64 107.453 46.92 107.453 47.26C107.453 47.92 107.413 48.24 107.333 48.46C107.213 48.78 106.953 48.96 106.633 48.96C106.273 48.96 105.913 48.74 105.553 48.26C105.133 47.74 104.833 47.06 104.833 46.64C104.833 46.4 104.853 46.32 105.013 45.84C105.353 44.86 105.473 42.54 105.473 37.42C105.473 34.54 105.413 33.78 105.113 33.24C104.893 32.82 104.433 32.46 103.733 32.2ZM118.507 48.88L118.387 48.7C121.287 46.4 123.747 42.7 125.087 38.6C123.407 39 122.707 39.22 122.127 39.52C121.887 39.64 121.727 39.68 121.567 39.68C121.067 39.68 120.447 39.22 119.947 38.48C119.627 38.02 119.427 37.46 119.427 37.08C119.427 36.96 119.447 36.86 119.507 36.68C120.067 37.54 120.587 37.86 121.447 37.86C122.027 37.86 123.987 37.64 125.407 37.4C125.807 35.8 126.007 34.7 126.007 34.02C126.007 33.28 125.587 32.84 124.467 32.38C124.747 32.24 124.907 32.2 125.267 32.2C125.987 32.2 127.007 32.52 127.787 32.96C128.407 33.32 128.687 33.64 128.687 34C128.687 34.18 128.627 34.36 128.447 34.66C128.247 35.02 128.147 35.26 128.007 35.72C127.987 35.8 127.907 36.04 127.767 36.46L127.587 37.12C128.687 36.96 129.447 36.84 129.867 36.78C130.447 36.68 130.527 36.66 130.907 36.46C131.067 36.38 131.187 36.34 131.347 36.34C131.767 36.34 132.287 36.68 132.987 37.38C133.367 37.78 133.527 38.04 133.527 38.32C133.527 38.5 133.487 38.58 133.207 39C133.027 39.32 133.007 39.46 132.667 41.32C131.887 45.44 131.407 46.86 130.507 47.68C129.927 48.22 129.187 48.52 128.447 48.52C128.207 48.52 127.967 48.42 127.867 48.28C127.747 48.14 127.727 48.06 127.627 47.6C127.527 47.1 126.787 46.46 125.087 45.46L125.187 45.24C126.947 45.78 128.207 46.08 128.747 46.08C129.227 46.08 129.467 45.72 129.907 44.32C130.407 42.7 131.027 39.42 131.027 38.26C131.027 37.9 130.867 37.74 130.527 37.74C130.107 37.74 128.287 38.02 127.267 38.24C125.747 43.32 122.747 46.96 118.507 48.88ZM131.447 33.16L131.627 32.82C132.567 33.12 133.187 33.38 133.767 33.78C134.687 34.4 135.107 34.98 135.107 35.62C135.107 36.08 134.867 36.4 134.487 36.4C134.227 36.4 134.067 36.28 133.807 35.82C133.207 34.78 132.427 33.9 131.447 33.16ZM133.507 31.58L133.667 31.26C134.687 31.48 135.427 31.76 136.007 32.14C136.807 32.66 137.167 33.12 137.167 33.68C137.167 34.16 136.927 34.48 136.567 34.48C136.347 34.48 136.207 34.36 135.907 33.94C135.227 32.96 134.527 32.28 133.507 31.58ZM137.771 43.96L137.671 43.74C140.111 42.32 142.671 40.28 145.131 37.8C147.271 35.64 148.491 34.04 148.491 33.38C148.491 32.96 148.031 32.44 147.291 32.06C147.551 32 147.671 31.98 147.931 31.98C148.531 31.98 149.171 32.2 149.951 32.66C150.871 33.2 151.411 33.8 151.411 34.26C151.411 34.62 151.311 34.74 150.611 35.24C150.531 35.3 150.531 35.3 149.311 36.46C147.911 37.76 147.911 37.76 146.491 38.98C147.171 39.42 147.691 39.86 147.871 40.16C148.051 40.44 148.071 40.64 148.091 42.12C148.111 43.04 148.111 43.3 148.231 47.1C148.251 47.38 148.251 47.66 148.251 47.86C148.251 48.68 147.991 49.08 147.431 49.08C146.691 49.08 145.591 47.86 145.591 47.02C145.591 46.82 145.611 46.68 145.711 46.38C145.971 45.56 146.151 43.38 146.151 41.22C146.151 40.2 146.091 39.92 145.811 39.54C144.151 40.8 142.731 41.74 141.531 42.38C140.351 43 138.911 43.6 137.771 43.96ZM165.351 40.7V42.34C165.351 43.08 165.351 43.46 165.391 46.4C165.391 46.76 165.411 47.02 165.411 47.3C165.411 48 165.371 48.32 165.271 48.54C165.151 48.86 164.891 49.06 164.591 49.06C164.231 49.06 163.891 48.84 163.531 48.36C163.131 47.82 162.831 47.12 162.831 46.7C162.831 46.48 162.851 46.4 162.991 45.94C163.331 44.92 163.451 42.96 163.451 38.14C163.451 34.54 163.391 33.86 163.111 33.34C162.871 32.92 162.431 32.58 161.731 32.3C162.011 32.14 162.171 32.1 162.511 32.1C163.191 32.1 164.151 32.4 164.971 32.88C165.691 33.3 165.971 33.62 165.971 34.04C165.971 34.2 165.931 34.32 165.811 34.54C165.451 35.1 165.431 35.4 165.351 38.6C167.311 38.74 169.051 39.1 170.191 39.62C171.211 40.06 171.651 40.66 171.651 41.58C171.651 42.42 171.291 42.98 170.771 42.98C170.491 42.98 170.331 42.88 169.831 42.32C168.551 40.92 166.791 39.7 165.351 39.2V40.7ZM168.631 32.96L168.811 32.62C169.751 32.92 170.371 33.18 170.951 33.58C171.871 34.2 172.291 34.78 172.291 35.42C172.291 35.88 172.031 36.2 171.671 36.2C171.411 36.2 171.251 36.08 170.991 35.62C170.391 34.58 169.591 33.7 168.631 32.96ZM170.691 31.38L170.851 31.06C171.851 31.28 172.591 31.56 173.191 31.94C173.991 32.46 174.351 32.92 174.351 33.48C174.351 33.96 174.111 34.28 173.751 34.28C173.531 34.28 173.391 34.16 173.091 33.74C172.411 32.76 171.711 32.08 170.691 31.38Z" fill="white"/>
</svg>
