<svg width="165" height="63" viewBox="0 0 165 63" fill="none" xmlns="http://www.w3.org/2000/svg">
<rect width="165" height="63" fill="#0178AF"/>
<path d="M11.2956 19.0259L11.4048 18.9289C11.8657 19.3898 12.3144 19.5838 12.933 19.5838C13.309 19.5838 13.7214 19.5232 14.1944 19.4019C14.2066 19.0987 14.2066 18.9531 14.2066 18.7105C14.2066 17.7887 14.158 17.3521 14.0489 17.1216C13.9033 16.8184 13.6244 16.6486 13.0786 16.5395C13.309 16.3575 13.4546 16.309 13.7699 16.309C14.2672 16.309 14.8979 16.4424 15.3103 16.6486C15.6014 16.7942 15.7591 17.0004 15.7591 17.2308C15.7591 17.3521 15.7348 17.437 15.5892 17.6674C15.3952 18.0071 15.2982 18.3952 15.2254 19.0987C15.7227 18.9046 15.8925 18.8076 16.2563 18.5165C16.4383 18.3709 16.5717 18.3103 16.7172 18.3103C16.9477 18.3103 17.3116 18.4316 17.4571 18.565C17.542 18.6378 17.5905 18.7469 17.5905 18.8682C17.5905 19.0987 17.3479 19.2927 16.7779 19.5353C16.2078 19.7779 15.662 19.9477 15.1162 20.069C15.0677 20.7603 15.0677 21.0029 15.0556 22.0945C16.2563 21.6457 17.1903 21.4517 18.1363 21.4517C19.9678 21.4517 21.12 22.3492 21.12 23.7804C21.12 25.1267 20.0891 26.1698 18.7549 26.1698C18.0272 26.1698 17.3965 25.8423 16.8992 25.1995C16.5959 24.7992 16.4261 24.4354 16.2442 23.7198L16.3776 23.6713C16.9113 24.6173 17.5056 25.0661 18.2333 25.0661C19.1794 25.0661 19.8222 24.3747 19.8222 23.368C19.8222 22.4705 19.2037 21.9732 18.0757 21.9732C17.1417 21.9732 16.0259 22.3007 15.0677 22.8586C15.0798 23.4044 15.0798 23.4044 15.1405 24.5445C15.1526 24.7507 15.1647 24.9327 15.1647 25.0903C15.1647 25.527 15.0556 25.8787 14.8251 26.1698C14.6068 26.4488 14.3764 26.5822 14.1338 26.5822C13.9761 26.5822 13.8306 26.5215 13.7093 26.4003C13.6608 26.3396 13.6608 26.3396 13.4546 26.1092C12.9573 25.527 12.7268 25.3572 12.2781 25.2601C11.9748 25.1995 11.9142 25.1752 11.7929 25.0782C11.6474 24.969 11.5625 24.7992 11.5625 24.6052C11.5625 24.3626 11.708 24.0958 11.9991 23.8047C12.5328 23.2831 13.0058 22.9799 14.1338 22.4341C14.158 21.7064 14.1702 20.9665 14.1944 20.2266C13.8184 20.2873 13.6486 20.3115 13.3697 20.3115C12.4115 20.3115 11.8172 19.9356 11.2956 19.0259ZM14.0853 23.3559C13.2848 23.8653 12.6783 24.4839 12.6783 24.7629C12.6783 24.8478 12.739 24.9327 12.8602 25.0054C13.115 25.1388 13.4909 25.248 13.7335 25.248C13.9155 25.248 13.964 25.1874 14.0004 24.9569C14.0246 24.7629 14.0853 23.7319 14.0853 23.3559ZM18.391 17.7766V17.6432C18.6457 17.6189 18.7549 17.6189 18.9368 17.6189C19.6646 17.6189 20.2346 17.7524 20.7562 18.0556C21.3141 18.3709 21.6173 18.8076 21.6173 19.2806C21.6173 19.7172 21.3747 19.9719 20.9866 19.9719C20.8774 19.9719 20.7804 19.9477 20.5985 19.887C20.4287 19.8385 20.3316 19.8143 20.1982 19.8143C19.9314 19.8143 19.3977 19.8992 18.6942 20.0447L18.6457 19.9356C19.5797 19.4504 20.1376 19.0987 20.1376 18.9774C20.1376 18.8803 19.9799 18.6256 19.7858 18.4316C19.422 18.0798 19.0702 17.91 18.391 17.7766ZM26.2869 26.9946L26.2263 26.849C26.8813 26.5094 27.2936 26.2304 27.7181 25.8059C28.2882 25.2359 28.5672 24.7265 28.7612 23.9017C28.5308 24.0472 28.3003 24.12 28.0092 24.12C27.0874 24.12 26.384 23.271 26.384 22.143C26.384 21.0029 27.0996 20.1903 28.1063 20.1903C28.361 20.1903 28.5065 20.2266 28.8461 20.3964C28.8461 20.0568 28.8461 19.9598 28.8461 19.8143C28.8461 19.5232 28.8461 19.4261 28.834 19.0016C27.2087 19.1957 25.9595 19.5232 25.0498 19.9962C24.9649 20.0326 24.8072 20.069 24.6981 20.069C24.3463 20.069 23.9824 19.8021 23.6428 19.317C23.4124 18.9652 23.2668 18.6135 23.2668 18.3588C23.2668 18.3103 23.279 18.2496 23.3154 18.1526C23.6671 18.6499 24.0673 18.8682 24.6131 18.8682C24.977 18.8682 24.977 18.8682 27.136 18.5529C27.6211 18.4801 27.985 18.4437 28.8097 18.3467C28.7855 17.4249 28.7248 17.0367 28.555 16.8063C28.361 16.5395 28.0578 16.3818 27.4998 16.2969C27.7181 16.1028 27.8758 16.0543 28.2639 16.0543C28.7248 16.0543 29.1979 16.1271 29.6345 16.2605C30.1075 16.4182 30.3259 16.6122 30.3259 16.8912C30.3259 17.0125 30.3016 17.0974 30.2046 17.2672C30.0226 17.5947 29.9984 17.7038 29.9377 18.2011C31.6237 18.0556 31.7207 18.0434 32.1331 17.8615C32.3514 17.7645 32.4727 17.7402 32.6546 17.7402C32.9821 17.7402 33.5158 17.9707 33.8311 18.2496C33.9888 18.3831 34.0494 18.5043 34.0494 18.6984C34.0494 18.9167 33.8675 19.0623 33.6128 19.0623C33.5036 19.0623 33.3217 19.038 32.8972 18.9774C32.2058 18.8925 31.6843 18.8561 30.908 18.8561C30.4957 18.8561 30.2895 18.8682 29.8771 18.9046C29.8286 19.5474 29.7922 20.3358 29.7922 20.7846C29.7922 20.8331 29.7922 20.9301 29.7922 21.0393C30.1075 21.6336 30.2167 22.0581 30.2167 22.7252C30.2167 24.1079 29.6345 25.2601 28.5308 26.0364C27.9607 26.4366 27.4271 26.6671 26.2869 26.9946ZM28.834 21.9489C28.834 21.0514 28.5429 20.542 28.0456 20.542C27.5605 20.542 27.1845 21.0514 27.1845 21.7064C27.1845 22.4705 27.5483 23.0042 28.082 23.0042C28.555 23.0042 28.834 22.616 28.834 21.9489ZM38.4158 26.9946L38.3552 26.849C39.0101 26.5094 39.4225 26.2304 39.847 25.8059C40.4171 25.2359 40.6961 24.7265 40.8901 23.9017C40.6597 24.0472 40.4292 24.12 40.1381 24.12C39.2163 24.12 38.5129 23.271 38.5129 22.143C38.5129 21.0029 39.2285 20.1903 40.2352 20.1903C40.4899 20.1903 40.6354 20.2266 40.975 20.3964C40.975 20.0568 40.975 19.9598 40.975 19.8143C40.975 19.5232 40.975 19.4261 40.9629 19.0016C39.3376 19.1957 38.0884 19.5232 37.1787 19.9962C37.0938 20.0326 36.9361 20.069 36.8269 20.069C36.4752 20.069 36.1113 19.8021 35.7717 19.317C35.5413 18.9652 35.3957 18.6135 35.3957 18.3588C35.3957 18.3103 35.4079 18.2496 35.4443 18.1526C35.796 18.6499 36.1962 18.8682 36.742 18.8682C37.1059 18.8682 37.1059 18.8682 39.2649 18.5529C39.75 18.4801 40.1139 18.4437 40.9386 18.3467C40.9144 17.4249 40.8537 17.0367 40.6839 16.8063C40.4899 16.5395 40.1867 16.3818 39.6287 16.2969C39.847 16.1028 40.0047 16.0543 40.3928 16.0543C40.8537 16.0543 41.3268 16.1271 41.7634 16.2605C42.2364 16.4182 42.4548 16.6122 42.4548 16.8912C42.4548 17.0125 42.4305 17.0974 42.3335 17.2672C42.1515 17.5947 42.1273 17.7038 42.0666 18.2011C43.7525 18.0556 43.8496 18.0434 44.262 17.8615C44.4803 17.7645 44.6016 17.7402 44.7835 17.7402C45.111 17.7402 45.6447 17.9707 45.96 18.2496C46.1177 18.3831 46.1783 18.5043 46.1783 18.6984C46.1783 18.9167 45.9964 19.0623 45.7417 19.0623C45.6325 19.0623 45.4506 19.038 45.0261 18.9774C44.3347 18.8925 43.8132 18.8561 43.0369 18.8561C42.6246 18.8561 42.4184 18.8682 42.006 18.9046C41.9575 19.5474 41.9211 20.3358 41.9211 20.7846C41.9211 20.8331 41.9211 20.9301 41.9211 21.0393C42.2364 21.6336 42.3456 22.0581 42.3456 22.7252C42.3456 24.1079 41.7634 25.2601 40.6597 26.0364C40.0896 26.4366 39.5559 26.6671 38.4158 26.9946ZM40.9629 21.9489C40.9629 21.0514 40.6718 20.542 40.1745 20.542C39.6894 20.542 39.3134 21.0514 39.3134 21.7064C39.3134 22.4705 39.6772 23.0042 40.2109 23.0042C40.6839 23.0042 40.9629 22.616 40.9629 21.9489ZM48.8709 17.5219L48.9801 17.437C49.9747 17.9343 50.3749 18.4437 50.6418 19.6081C51.4787 19.1714 52.0487 18.9895 53.0797 18.8561C53.2131 18.189 53.2616 17.8009 53.2616 17.4491C53.2616 17.0974 53.1039 16.964 52.6794 16.964C52.5703 16.964 52.4975 16.964 52.3277 16.9882L52.3034 16.8791C52.7643 16.6244 52.9948 16.5395 53.298 16.5395C53.6255 16.5395 54.0378 16.685 54.2804 16.8912C54.4866 17.061 54.5715 17.2551 54.5715 17.4855C54.5715 17.7281 54.4624 18.2739 54.2804 18.844C56.3545 19.0259 57.7857 20.445 57.7857 22.3128C57.7857 23.8411 56.9003 25.0661 55.2629 25.7696C54.4866 26.1092 53.6619 26.2911 52.3641 26.4003L52.3398 26.279C53.9529 25.7574 54.7292 25.3087 55.4327 24.4718C56.027 23.744 56.3423 22.895 56.3423 21.9489C56.3423 21.0635 56.0512 20.3237 55.4933 19.8385C55.1173 19.511 54.7413 19.3534 54.147 19.2806C53.5648 20.8816 52.922 22.1188 52.073 23.271C52.2064 23.4893 52.267 23.5621 52.4732 23.7925C52.8128 24.1685 52.8856 24.302 52.8856 24.5081C52.8856 24.7386 52.7037 24.8963 52.449 24.8963C52.1215 24.8963 51.7334 24.6416 51.3088 24.1321C51.0663 24.4232 50.7388 24.7143 50.3385 24.9933C49.914 25.2965 49.6108 25.4178 49.3076 25.4178C48.9437 25.4178 48.7497 25.1995 48.6769 24.7265C48.6162 24.3262 48.5798 24.2413 48.2888 23.9502C48.0462 23.6955 47.9128 23.3923 47.9128 23.0769C47.9128 22.5797 48.1311 21.9611 48.4707 21.4395C48.8224 20.918 49.2227 20.5177 49.8898 20.0326C49.6108 18.5165 49.4531 18.1283 48.8709 17.5219ZM50.0596 20.7482C49.2833 21.5487 48.9316 22.3128 48.9316 23.2225C48.9316 23.7198 49.2227 24.2413 49.5138 24.2413C49.817 24.2413 50.3143 23.9017 50.7994 23.3802C50.4477 22.5433 50.2294 21.767 50.0596 20.7482ZM50.7752 20.1417C50.8479 20.3601 50.8479 20.3601 51.1148 21.294C51.2361 21.6942 51.3574 22.0217 51.5878 22.4947C52.1821 21.5608 52.6552 20.4692 52.9826 19.2927C52.0123 19.4383 51.4787 19.6445 50.7752 20.1417ZM64.4687 21.573V22.5675C64.4687 23.0163 64.4687 23.2467 64.493 25.0297C64.493 25.248 64.5051 25.4057 64.5051 25.5755C64.5051 26 64.4808 26.1941 64.4202 26.3275C64.3474 26.5215 64.1897 26.6428 64.0078 26.6428C63.7895 26.6428 63.5833 26.5094 63.365 26.2183C63.1224 25.8908 62.9405 25.4663 62.9405 25.2116C62.9405 25.0782 62.9526 25.0297 63.0375 24.7507C63.2437 24.1321 63.3165 22.9435 63.3165 20.0205C63.3165 17.8373 63.2801 17.4249 63.1103 17.1095C62.9647 16.8548 62.6979 16.6486 62.2734 16.4788C62.4432 16.3818 62.5402 16.3575 62.7464 16.3575C63.1588 16.3575 63.741 16.5395 64.2383 16.8306C64.6749 17.0853 64.8447 17.2793 64.8447 17.534C64.8447 17.6311 64.8204 17.7038 64.7477 17.8373C64.5293 18.1769 64.5172 18.3588 64.4687 20.2994C65.6573 20.3843 66.7125 20.6026 67.4039 20.918C68.0225 21.1848 68.2893 21.5487 68.2893 22.1066C68.2893 22.616 68.071 22.9556 67.7556 22.9556C67.5858 22.9556 67.4888 22.895 67.1856 22.5554C66.4093 21.7064 65.342 20.9665 64.4687 20.6633V21.573ZM66.4578 16.8791L66.567 16.6729C67.1371 16.8548 67.5131 17.0125 67.8648 17.2551C68.4227 17.6311 68.6774 17.9828 68.6774 18.3709C68.6774 18.6499 68.5198 18.844 68.3014 18.844C68.1438 18.844 68.0467 18.7712 67.8891 18.4922C67.5252 17.8615 67.04 17.3278 66.4578 16.8791ZM67.7071 15.9209L67.8041 15.7268C68.4106 15.8602 68.8594 16.03 69.2232 16.2605C69.7084 16.5758 69.9267 16.8548 69.9267 17.1944C69.9267 17.4855 69.7812 17.6796 69.5628 17.6796C69.4294 17.6796 69.3445 17.6068 69.1626 17.3521C68.7502 16.7578 68.3257 16.3454 67.7071 15.9209ZM74.1961 16.8669L74.3295 16.782C74.8025 17.2429 75.1421 17.4006 75.6637 17.4006C76.5491 17.4006 77.8711 17.061 78.4533 16.6971C78.5504 16.6244 78.6474 16.6001 78.7687 16.6001C78.9991 16.6001 79.46 16.782 79.7269 16.9882C79.9452 17.1459 80.0301 17.2793 80.0301 17.4491C80.0301 17.7281 79.836 17.8251 79.0962 17.9464C77.8833 18.1283 76.7068 18.2618 76.2216 18.2618C75.2756 18.2618 74.7783 17.91 74.1961 16.8669ZM74.7298 26.7156L74.657 26.5943C75.882 25.6483 76.731 24.7871 77.5315 23.6713C78.4412 22.4098 79.1083 21.1484 79.46 19.9962C77.9075 20.2024 77.3253 20.3115 76.2337 20.6026C75.3968 20.821 75.2149 20.8816 74.8268 21.0757C74.657 21.1606 74.5114 21.197 74.3659 21.197C73.8565 21.197 72.9953 20.1417 72.9953 19.4868C72.9953 19.4019 73.0074 19.3412 73.0681 19.2078C73.3834 19.7536 73.7716 19.9962 74.3416 19.9962C74.8025 19.9962 76.9493 19.693 78.5382 19.414C79.266 19.2927 79.2902 19.2806 79.5692 19.0865C79.6783 19.0138 79.7754 18.9895 79.9088 18.9895C80.0786 18.9895 80.3576 19.1593 80.6972 19.4504C81.0732 19.7779 81.2551 20.0326 81.2551 20.2266C81.2551 20.3843 81.2066 20.4571 81.0246 20.6026C80.8306 20.7603 80.7457 20.8816 80.4667 21.391C79.0476 24.0715 77.2404 25.7453 74.7298 26.7156ZM83.7625 23.55L83.7018 23.4165C85.1815 22.5554 86.734 21.3182 88.2259 19.8143C89.5237 18.5043 90.2635 17.534 90.2635 17.1338C90.2635 16.8791 89.9846 16.5637 89.5358 16.3333C89.6935 16.2969 89.7663 16.2848 89.9239 16.2848C90.2878 16.2848 90.6759 16.4182 91.149 16.6971C91.7069 17.0246 92.0344 17.3885 92.0344 17.6674C92.0344 17.8858 91.9737 17.9585 91.5492 18.2618C91.5007 18.2981 91.5007 18.2981 90.7608 19.0016C89.9118 19.79 89.9118 19.79 89.0507 20.5299C89.463 20.7967 89.7784 21.0635 89.8876 21.2455C89.9967 21.4153 90.0088 21.5366 90.021 22.4341C90.0331 22.992 90.0331 23.1497 90.1059 25.4542C90.118 25.624 90.118 25.7938 90.118 25.9151C90.118 26.4124 89.9603 26.655 89.6207 26.655C89.1719 26.655 88.5049 25.9151 88.5049 25.4057C88.5049 25.2844 88.517 25.1995 88.5776 25.0176C88.7353 24.5203 88.8445 23.1982 88.8445 21.8883C88.8445 21.2697 88.8081 21.0999 88.6383 20.8695C87.6316 21.6336 86.7704 22.2037 86.0427 22.5918C85.3271 22.9678 84.4538 23.3316 83.7625 23.55ZM101.568 17.1944H104.066C104.503 16.7335 104.636 16.588 105.073 16.1635C105.679 16.6244 105.849 16.7699 106.407 17.2551C106.456 17.3157 106.48 17.3521 106.48 17.3764C106.48 17.4127 106.431 17.4491 106.359 17.4491H101.568V18.5771H103.108C103.411 18.286 103.508 18.189 103.799 17.8979C104.248 18.2011 104.382 18.286 104.806 18.6014C104.915 18.6741 104.952 18.7348 104.952 18.7954C104.952 18.8925 104.879 18.9652 104.527 19.1593C104.515 19.7294 104.515 20.2024 104.515 20.4935C104.515 21.4517 104.539 22.6282 104.564 23.3195C104.564 23.5863 104.418 23.6349 103.714 23.6349C103.241 23.6349 103.205 23.6227 103.193 23.4408V23.1376H98.7416V23.4044C98.7416 23.647 98.6446 23.6834 97.9897 23.6834C97.4439 23.6834 97.3832 23.6591 97.3832 23.4287C97.4196 22.0581 97.4196 21.6821 97.4196 20.4328C97.4196 19.2563 97.4075 18.7954 97.3711 17.8979C98.026 18.1647 98.2201 18.2618 98.8266 18.5771H100.234V17.4491H96.5221C96.1703 17.4491 95.9641 17.4734 95.7094 17.5219L95.6367 17.0974C95.9399 17.1702 96.1703 17.1944 96.5099 17.1944H100.234V17.0974C100.234 16.5152 100.221 16.309 100.161 15.7753C102.029 15.9694 102.089 15.9815 102.089 16.1513C102.089 16.2726 101.956 16.3454 101.568 16.4424V17.1944ZM98.7416 19.9598H103.193V18.8318H98.7416V19.9598ZM103.193 20.2145H98.7416V21.3546H103.193V20.2145ZM103.193 21.6093H98.7416V22.8829H103.193V21.6093ZM96.3523 24.1321H104.345C104.782 23.6955 104.915 23.5621 105.34 23.1376C105.946 23.5742 106.116 23.7198 106.686 24.1928C106.747 24.2413 106.771 24.2777 106.771 24.3141C106.771 24.3505 106.71 24.3869 106.638 24.3869H96.3523C95.952 24.3869 95.7943 24.399 95.479 24.4718L95.3941 24.023C95.7337 24.1079 95.9641 24.1321 96.3523 24.1321ZM95.4547 26.9582L95.4062 26.8369C96.4008 26.4003 96.9466 26.097 97.5894 25.624C98.0988 25.2359 98.3657 24.9933 98.7174 24.5567C99.1176 24.7022 99.4209 24.8114 99.6149 24.8841C100.403 25.151 100.573 25.2359 100.573 25.3572C100.573 25.4785 100.415 25.5391 100.064 25.5391C100.027 25.5391 99.9424 25.5391 99.8696 25.5391C98.3899 26.376 97.5166 26.655 95.4547 26.9582ZM101.41 24.8841L101.446 24.775C103.617 24.872 104.43 24.9933 104.976 25.3087C105.352 25.5148 105.57 25.9272 105.57 26.4124C105.57 26.8005 105.4 27.0552 105.146 27.0552C105 27.0552 104.903 27.0067 104.661 26.8126C104.466 26.6428 103.86 26.1941 103.581 26.0121C102.999 25.624 102.514 25.3693 101.41 24.8841ZM113.6 17.7887H112.459C112.423 18.3709 112.411 18.468 112.338 18.8076C112.059 20.0932 111.307 20.9544 109.985 21.4759C109.403 21.7064 108.796 21.8519 107.814 22.0096L107.741 21.8519C109.257 21.3546 110.143 20.7118 110.676 19.7415C110.992 19.1472 111.125 18.6014 111.137 17.7887H109.451C109.451 17.8373 109.451 17.8736 109.451 17.8858C109.451 18.4073 109.33 18.9531 109.16 19.2442C108.942 19.6081 108.639 19.8143 108.311 19.8143C107.935 19.8143 107.632 19.4504 107.632 19.0016C107.632 18.6863 107.729 18.5529 108.057 18.3709C108.493 18.1405 108.687 17.9707 108.881 17.6917C109.051 17.4249 109.124 17.1944 109.172 16.7214H109.306C109.391 17.0974 109.415 17.2429 109.439 17.534H112.35V16.7214C112.35 16.2848 112.338 16.1756 112.29 15.8117C114.036 15.933 114.303 15.9815 114.303 16.1756C114.303 16.309 114.194 16.3697 113.721 16.4909V17.534H116.438C116.741 17.2065 116.838 17.1095 117.141 16.7942C117.735 17.2065 117.917 17.34 118.475 17.8009C118.572 17.8858 118.597 17.9464 118.597 18.0071C118.597 18.0434 118.572 18.092 118.548 18.1162C118.512 18.1526 118.39 18.189 118.233 18.189L117.966 18.2011C117.869 18.2132 117.784 18.2254 117.687 18.2375C117.081 18.6741 116.789 18.8561 115.989 19.317L115.892 19.2685C116.183 18.7105 116.268 18.4801 116.474 17.7887H114.837V19.9234C114.837 20.1903 114.909 20.2145 115.88 20.2145C116.862 20.2145 116.996 20.1903 117.141 19.9841C117.238 19.8506 117.42 19.4383 117.76 18.6256H117.893L117.869 19.7051L117.857 19.887C117.857 20.0083 117.881 20.0326 118.099 20.1296C118.354 20.2388 118.451 20.3601 118.451 20.5784C118.451 20.8452 118.281 21.0514 118.002 21.1242C117.687 21.2091 116.935 21.2576 115.734 21.2576C114.473 21.2576 114.109 21.2212 113.854 21.0514C113.672 20.9301 113.6 20.7239 113.6 20.3479V17.7887ZM113.757 22.8586V26.1092H116.11C116.559 25.5997 116.692 25.4542 117.141 24.9933C117.748 25.4785 117.942 25.6361 118.548 26.1577C118.585 26.2062 118.609 26.2426 118.609 26.279C118.609 26.3275 118.56 26.3639 118.487 26.3639H108.845C108.542 26.3639 108.299 26.3881 107.814 26.4609L107.669 25.9757C108.263 26.0728 108.627 26.1092 108.942 26.1092H112.338V22.8586H109.718C109.524 22.8586 109.379 22.8829 108.833 22.9678L108.724 22.5069C109.185 22.5675 109.548 22.6039 109.791 22.6039H115.37C115.746 22.143 115.868 22.0096 116.268 21.5608C116.899 22.0339 117.093 22.1915 117.723 22.6888C117.76 22.7252 117.784 22.7495 117.784 22.7737C117.784 22.8222 117.735 22.8586 117.675 22.8586H113.757ZM120.938 19.0016L121.059 18.9167C121.508 19.4747 121.871 19.6202 122.733 19.6202C123.181 19.6202 123.885 19.5596 124.71 19.4383C124.71 18.1769 124.697 17.8373 124.6 17.5462C124.491 17.2187 124.14 16.964 123.618 16.8548C123.776 16.6971 123.897 16.6607 124.14 16.6607C124.6 16.6607 125.352 16.8306 125.753 17.0246C126.117 17.2065 126.274 17.3764 126.274 17.5947C126.274 17.7524 126.25 17.813 126.104 18.0556C125.947 18.3224 125.874 18.6499 125.813 19.2442C126.772 19.0865 127.633 18.8076 127.815 18.6014C127.948 18.5043 128.009 18.4801 128.178 18.4801C128.36 18.4801 128.761 18.6135 129.028 18.7712C129.282 18.9289 129.403 19.0865 129.403 19.2685C129.403 19.5474 129.209 19.6566 128.494 19.7536C128.421 19.7657 128.154 19.8143 127.693 19.8749C126.699 20.0326 126.068 20.1296 125.765 20.166C125.753 20.8088 125.753 20.8452 125.753 21.0393C125.753 22.1673 125.801 23.1376 125.923 24.3869C125.935 24.6052 125.947 24.7265 125.947 24.872C125.947 25.8059 125.498 26.5579 124.928 26.5579C124.637 26.5579 124.503 26.4366 124.419 26.0728C124.358 25.6604 123.836 25.1631 122.611 24.3747L122.66 24.2777C123.485 24.5324 123.873 24.6173 124.637 24.7265C124.685 23.6834 124.722 21.8034 124.722 20.2752C123.945 20.3479 123.497 20.3843 123.133 20.3843C121.981 20.3843 121.386 20.0083 120.938 19.0016ZM122.442 21.2455L122.611 21.2697C122.587 22.3856 122.442 23.2104 122.102 23.9987C121.799 24.7143 121.411 25.1025 121.01 25.1025C120.671 25.1025 120.428 24.7143 120.428 24.1564C120.428 23.9866 120.477 23.8047 120.537 23.6955C120.61 23.5863 120.646 23.5621 120.901 23.4287C121.677 22.992 122.296 22.0945 122.442 21.2455ZM127.184 21.197L127.281 21.0999C128.312 21.5851 128.846 21.9247 129.343 22.422C129.767 22.8465 129.949 23.2104 129.949 23.647C129.949 24.3262 129.61 24.8841 129.197 24.8841C128.955 24.8841 128.894 24.7871 128.749 24.2171C128.409 23.0042 127.839 21.8883 127.184 21.197ZM129.015 15.46C129.743 15.46 130.325 16.0422 130.325 16.7699C130.325 17.4976 129.743 18.0798 129.028 18.0798C128.3 18.0798 127.705 17.4855 127.705 16.7699C127.705 16.0543 128.3 15.46 129.015 15.46ZM129.015 15.8845C128.53 15.8845 128.142 16.2726 128.142 16.7699C128.142 17.2551 128.53 17.6432 129.015 17.6432C129.513 17.6432 129.901 17.2551 129.901 16.7699C129.901 16.2726 129.513 15.8845 129.015 15.8845ZM133.236 17.7524L133.297 17.6189C134.655 17.8373 135.383 18.0434 135.953 18.4073C136.353 18.6499 136.547 18.9895 136.547 19.4504C136.547 20.0205 136.268 20.4571 135.892 20.4571C135.686 20.4571 135.565 20.3601 135.383 20.0447C134.801 18.9895 134.182 18.3345 133.236 17.7524ZM142.369 18.2496L142.515 18.3224C141.848 19.7172 141.011 20.8695 139.786 22.0824C138.706 23.1497 137.809 23.8532 136.268 24.8478C135.953 25.0539 135.735 25.2238 135.613 25.3814C135.444 25.5876 135.286 25.6846 135.104 25.6846C134.789 25.6846 134.34 25.345 133.915 24.7992C133.527 24.302 133.333 23.8411 133.333 23.4529C133.333 23.3438 133.345 23.2831 133.394 23.1255C133.721 23.6834 134.122 24.023 134.449 24.023C134.959 24.023 136.547 23.1861 137.991 22.1551C139.798 20.8573 141.338 19.4989 142.369 18.2496ZM146.044 26.6913L145.959 26.5701C146.978 25.8059 147.609 25.2238 148.422 24.2656C149.634 22.8222 150.738 21.0029 151.442 19.2321C151.587 18.8682 151.672 18.5892 151.672 18.468C151.672 18.3831 151.599 18.3467 151.454 18.3467C151.017 18.3467 149.913 18.565 148.87 18.844C147.961 19.0865 147.488 19.2685 146.942 19.5474C146.821 19.6202 146.651 19.6566 146.505 19.6566C146.153 19.6566 145.753 19.3291 145.365 18.7469C145.147 18.3952 145.038 18.1283 145.038 17.8858C145.038 17.7887 145.05 17.7281 145.11 17.5704C145.402 18.1405 145.777 18.3709 146.384 18.3709C146.905 18.3709 148.325 18.1769 150.314 17.8373C151.223 17.6796 151.32 17.6553 151.636 17.4734C151.721 17.437 151.83 17.4006 151.903 17.4006C152.085 17.4006 152.473 17.6311 152.8 17.9343C153.213 18.3103 153.443 18.6256 153.443 18.844C153.443 19.0138 153.394 19.1108 153.225 19.2806C153.006 19.511 152.958 19.5717 152.715 20.0326C150.908 23.5257 148.846 25.5755 146.044 26.6913ZM154.256 15.5085C154.983 15.5085 155.566 16.0907 155.566 16.8184C155.566 17.5462 154.983 18.1283 154.268 18.1283C153.54 18.1283 152.946 17.534 152.946 16.8184C152.946 16.1028 153.54 15.5085 154.256 15.5085ZM154.256 15.933C153.77 15.933 153.382 16.3211 153.382 16.8184C153.382 17.3036 153.77 17.6917 154.256 17.6917C154.753 17.6917 155.141 17.3036 155.141 16.8184C155.141 16.3211 154.753 15.933 154.256 15.933Z" fill="white"/>
<path d="M50.0493 39.2369L50.1342 39.1156C51.2864 39.5401 52.3174 40.0253 53.3362 40.6317C54.2095 39.2248 54.7068 38.1332 54.7068 37.6359C54.7068 37.2357 54.4521 36.9082 53.9184 36.6292C54.0397 36.5686 54.1003 36.5564 54.2216 36.5564C54.731 36.5564 55.4588 36.8839 56.0046 37.3448C56.3563 37.6359 56.5019 37.8664 56.5019 38.0968C56.5019 38.2545 56.4534 38.3273 56.1986 38.5577C56.041 38.7032 55.9682 38.8124 55.6771 39.2733C55.6286 39.3461 55.6286 39.3461 55.2405 39.9889C55.1798 40.0859 54.9736 40.4134 54.6098 40.9714C54.5612 41.032 54.5006 41.1412 54.4157 41.2746C55.8105 42.2691 56.0895 42.6088 56.0895 43.3122C56.0895 43.858 55.8348 44.2947 55.5194 44.2947C55.3496 44.2947 55.2283 44.1855 55.0464 43.9065C54.6219 43.2637 54.2701 42.8028 53.7122 42.2206C52.7419 43.482 52.0748 44.1734 51.0802 44.9496C50.1463 45.6774 49.4065 46.1019 48.1572 46.6234L48.0723 46.49C49.8188 45.1922 51.4805 43.3971 52.8511 41.3595C51.9535 40.559 50.8983 39.7585 50.0493 39.2369ZM60.3589 40.0374C60.6136 40.4862 60.6863 40.5954 60.8804 40.7409C61.1472 40.935 61.4262 40.9956 62.0933 40.9956C62.5784 40.9956 64.798 40.9592 66.8963 40.9107C67.1025 40.8986 67.8909 40.8986 68.2548 40.8986C69.4677 40.8986 69.8437 40.9471 70.0377 41.1169C70.1347 41.2018 70.1833 41.3352 70.1833 41.4808C70.1833 41.784 69.9164 41.9781 69.3949 42.0508C68.7157 42.1357 67.6483 42.1721 63.9854 42.1964C63.4275 42.1964 63.3668 42.2085 62.4814 42.2449C62.1903 42.2691 62.1297 42.2813 61.9477 42.354C61.7658 42.4268 61.6445 42.4511 61.5354 42.4511C61.2443 42.4511 60.9168 42.1842 60.6378 41.6991C60.3589 41.2139 60.2133 40.7894 60.2133 40.4377C60.2133 40.2315 60.2254 40.1951 60.3589 40.0374ZM72.2573 46.587L72.1845 46.4657C73.0578 45.7501 73.543 45.2407 74.1858 44.3674C75.0712 43.1667 75.7019 41.9417 76.2477 40.3528C75.4472 40.5347 74.8771 40.7045 74.4526 40.9107C74.3071 40.9835 74.2101 41.0077 74.113 41.0077C73.8098 41.0077 73.4338 40.7288 73.1306 40.28C72.9487 40.001 72.8152 39.6493 72.8152 39.431C72.8152 39.3703 72.8274 39.3097 72.8637 39.1884C73.2034 39.7099 73.5187 39.904 74.0403 39.904C74.4162 39.904 75.4957 39.7827 76.4418 39.625C76.6844 38.6669 76.8056 37.9876 76.8056 37.5631C76.8056 37.1265 76.5388 36.8475 75.8717 36.5807C76.0415 36.4958 76.1507 36.4715 76.3569 36.4715C76.7814 36.4715 77.4242 36.6656 77.8851 36.9324C78.2732 37.1629 78.4309 37.3448 78.4309 37.5631C78.4309 37.6844 78.4067 37.7693 78.2854 37.9634C78.1156 38.2666 78.067 38.4122 77.7638 39.4552C78.5037 39.3461 78.5037 39.3461 79.0737 39.2612C79.4861 39.2005 79.5104 39.1884 79.7772 39.055C79.8743 39.0065 79.947 38.9822 80.0441 38.9822C80.2988 38.9822 80.6262 39.1884 81.0386 39.6129C81.2812 39.8555 81.3661 40.0132 81.3661 40.183C81.3661 40.2921 81.3418 40.3406 81.172 40.5954C81.075 40.7409 81.0629 40.7894 80.8446 42.0023C80.3594 44.5251 80.0804 45.362 79.5346 45.8593C79.1829 46.1868 78.7341 46.3687 78.2854 46.3687C78.1398 46.3687 77.9943 46.3081 77.9336 46.2232C77.8609 46.1383 77.8487 46.0897 77.8002 45.8108C77.7396 45.5076 77.2302 45.083 76.2477 44.513L76.3084 44.3796C77.4121 44.7192 78.1398 44.889 78.4673 44.889C78.7584 44.889 78.9039 44.6707 79.1708 43.8216C79.474 42.8392 79.85 40.8379 79.85 40.1466C79.85 39.9283 79.753 39.8312 79.5468 39.8312C79.2799 39.8312 78.2368 39.9889 77.5698 40.1345C76.8542 42.354 75.993 43.7853 74.6346 45.0224C73.9068 45.6895 73.1185 46.211 72.2573 46.587ZM84.6166 40.0374C84.8714 40.4862 84.9441 40.5954 85.1382 40.7409C85.405 40.935 85.684 40.9956 86.3511 40.9956C86.8362 40.9956 89.0558 40.9592 91.1541 40.9107C91.3603 40.8986 92.1487 40.8986 92.5126 40.8986C93.7254 40.8986 94.1014 40.9471 94.2955 41.1169C94.3925 41.2018 94.4411 41.3352 94.4411 41.4808C94.4411 41.784 94.1742 41.9781 93.6527 42.0508C92.9735 42.1357 91.9061 42.1721 88.2432 42.1964C87.6853 42.1964 87.6246 42.2085 86.7392 42.2449C86.4481 42.2691 86.3875 42.2813 86.2055 42.354C86.0236 42.4268 85.9023 42.4511 85.7931 42.4511C85.5021 42.4511 85.1746 42.1842 84.8956 41.6991C84.6166 41.2139 84.4711 40.7894 84.4711 40.4377C84.4711 40.2315 84.4832 40.1951 84.6166 40.0374ZM109.643 41.5778L109.631 44.4645C109.849 44.9132 110.019 45.0709 110.456 45.265C111.45 44.4645 111.814 44.0642 112.166 43.4214C112.857 43.6276 113.561 43.8702 113.682 43.9308C113.779 43.9793 113.816 44.0157 113.816 44.0763C113.816 44.1249 113.779 44.1734 113.743 44.1855C113.67 44.2098 113.549 44.234 113.379 44.234C113.343 44.234 113.306 44.2462 113.246 44.2462C112.445 44.7798 111.802 45.0709 110.686 45.362C111.196 45.5197 111.972 45.5925 113.136 45.5925C114.24 45.5925 114.24 45.5925 117.236 45.4105C117.939 45.362 118.061 45.362 118.497 45.3135L118.509 45.4348C117.988 45.6895 117.83 45.9078 117.709 46.5749C117.685 46.6841 117.648 46.7204 117.503 46.7204C117.309 46.7326 114.834 46.769 114.252 46.769C112.578 46.769 111.717 46.6841 111.135 46.4536C110.335 46.1383 109.849 45.5925 109.376 44.5009C108.758 45.5439 108.637 45.7138 108.03 46.4536C108.054 46.5992 108.066 46.7083 108.066 46.7568C108.066 46.9024 108.006 47.0115 107.909 47.0115C107.836 47.0115 107.739 46.9024 107.63 46.7083C107.145 45.8229 107.145 45.8229 106.914 45.3378C107.448 45.1437 107.545 45.0952 108.37 44.6343V41.2624H107.678C107.424 41.2624 107.29 41.2746 107.084 41.3231L106.951 40.9228C107.266 40.9835 107.496 41.0077 107.678 41.0077H108.273C108.54 40.6803 108.637 40.5711 108.952 40.2436C109.376 40.559 109.498 40.656 109.91 40.9714C109.995 41.0563 110.044 41.129 110.044 41.1654C110.044 41.2261 109.983 41.311 109.898 41.3716C109.716 41.5172 109.716 41.5172 109.643 41.5778ZM113.731 38.3515L113.658 38.8124C113.658 38.8245 113.658 38.8245 113.658 38.8245C113.658 38.8852 113.706 38.9337 113.828 38.9701C114.01 39.0307 114.107 39.1641 114.107 39.3582C114.107 39.6008 113.961 39.7706 113.706 39.8676C113.524 39.9283 112.979 39.9768 112.421 39.9768C111.984 39.9768 111.22 39.9525 111.099 39.9404C110.504 39.8676 110.371 39.7099 110.371 39.0429C110.371 39.0186 110.371 38.9822 110.371 38.9216C110.383 38.5698 110.395 38.4243 110.395 37.9634C110.395 37.6602 110.383 37.5025 110.335 37.1871C110.856 37.4176 111.026 37.5025 111.535 37.7815H112.578V36.7748H110.941C110.686 36.7748 110.468 36.799 110.177 36.8354L110.08 36.423C110.335 36.4837 110.662 36.52 110.941 36.52H112.494C112.748 36.2532 112.833 36.1804 113.1 35.9379C113.403 36.1441 113.682 36.3502 113.961 36.5564C114.034 36.6171 114.058 36.6535 114.058 36.6899C114.058 36.7869 114.034 36.8111 113.719 37.0416C113.706 37.1629 113.706 37.2235 113.706 37.3084C113.706 37.3691 113.706 37.4418 113.706 37.551C113.719 37.83 113.719 37.8906 113.719 38.1089C113.682 38.303 113.512 38.3515 112.87 38.3515C112.663 38.3515 112.603 38.3151 112.578 38.1696V38.0362H111.475V38.8367C111.475 39.0186 111.499 39.0671 111.657 39.0792C111.705 39.0914 112.069 39.1035 112.372 39.1035C112.445 39.1035 112.506 39.1035 112.566 39.1035C112.591 39.1035 112.627 39.1035 112.651 39.1035C113.112 39.1035 113.197 39.0186 113.634 38.3273L113.731 38.3515ZM117.624 38.3394L117.709 38.3636L117.66 38.7154V38.7518C117.685 38.8731 117.697 38.8852 117.867 38.9458C118.121 39.0307 118.231 39.152 118.231 39.3582C118.231 39.528 118.121 39.6978 117.939 39.7948C117.697 39.9161 117.26 39.9647 116.254 39.9647C116.144 39.9647 116.023 39.9647 115.902 39.9647C115.78 39.9768 115.696 39.9768 115.659 39.9768C115.15 39.9768 114.701 39.8798 114.58 39.7585C114.434 39.5887 114.422 39.528 114.41 38.4971C114.398 37.7329 114.386 37.3084 114.374 37.2235C114.907 37.4055 115.065 37.4782 115.574 37.7815H116.605V36.7748H114.919C114.689 36.7748 114.543 36.7869 114.276 36.8354L114.192 36.4473C114.422 36.4837 114.786 36.52 114.919 36.52H116.52C116.751 36.2532 116.824 36.1804 117.066 35.9257C117.466 36.1926 117.588 36.2775 117.976 36.5807C118.049 36.6292 118.073 36.6656 118.073 36.702C118.073 36.7626 118.024 36.8354 117.952 36.8839C117.794 36.9931 117.794 36.9931 117.745 37.0295C117.745 37.1022 117.745 37.1386 117.745 37.175V37.9513C117.745 37.9876 117.745 38.0362 117.757 38.1089C117.733 38.2909 117.527 38.3515 116.933 38.3515C116.678 38.3515 116.617 38.3151 116.605 38.1574V38.0362H115.514V38.8973C115.514 39.0307 115.574 39.0792 115.744 39.0792L115.865 39.0671C116.011 39.0671 116.047 39.0671 116.29 39.0792C116.314 39.0792 116.351 39.0792 116.375 39.0792C116.775 39.0792 117.018 39.0429 117.115 38.9701C117.175 38.9337 117.272 38.8245 117.394 38.6669L117.515 38.4849C117.551 38.4364 117.588 38.3879 117.624 38.3394ZM113.173 41.3473H114.665V41.0077C114.665 40.6681 114.652 40.5226 114.604 40.1951C115.805 40.2679 116.241 40.3528 116.241 40.5105C116.241 40.6075 116.12 40.6803 115.853 40.7773V41.3473H116.266C116.532 41.0199 116.629 40.9107 116.908 40.5832C117.369 40.935 117.503 41.0563 117.964 41.4444C118 41.4808 118.024 41.5172 118.024 41.5293C118.024 41.5778 117.964 41.6021 117.891 41.6021H115.853V43.0575H116.435C116.763 42.6694 116.86 42.5602 117.187 42.2085C117.673 42.6088 117.818 42.73 118.279 43.1303C118.315 43.1667 118.34 43.2031 118.34 43.2273C118.34 43.2758 118.279 43.3122 118.206 43.3122H110.844C110.795 43.3122 110.723 43.3122 110.614 43.3244C110.601 43.3244 110.565 43.3365 110.541 43.3365C110.444 43.3365 110.444 43.3365 110.347 43.3607C110.286 43.3729 110.286 43.3729 110.238 43.3729L110.116 42.9605C110.383 43.0211 110.674 43.0575 110.844 43.0575H111.972V41.6021H111.184C111.111 41.6021 110.905 41.6142 110.577 41.6506L110.492 41.2503C110.747 41.311 110.977 41.3473 111.184 41.3473H111.972V41.032C111.972 40.6803 111.96 40.5105 111.899 40.1951C112.142 40.2072 112.324 40.2194 112.433 40.2315C112.7 40.2679 112.87 40.28 112.942 40.28C113.343 40.2921 113.573 40.377 113.573 40.5105C113.573 40.6075 113.452 40.6924 113.173 40.7894V41.3473ZM113.173 41.6021V43.0575H114.665V41.6021H113.173ZM114.471 43.6761L114.531 43.5669C115.356 43.6397 115.878 43.7125 116.326 43.8216C116.629 43.8944 116.921 44.0278 117.09 44.1855C117.224 44.3068 117.284 44.4645 117.284 44.7192C117.284 45.1194 117.066 45.3741 116.739 45.3741C116.545 45.3741 116.411 45.2892 116.181 45.0345C115.683 44.4402 115.113 43.9914 114.471 43.6761ZM107.363 36.2411L107.46 36.1562C107.63 36.2532 107.63 36.2532 108.273 36.5928C109.255 37.1265 109.68 37.5631 109.68 38.0725C109.68 38.6062 109.219 39.1884 108.794 39.1884C108.576 39.1884 108.479 39.055 108.358 38.582C108.079 37.4904 107.872 37.0052 107.363 36.2411Z" fill="white"/>
<path d="M101.391 38.6729V38.8185C104.156 39.0368 105.575 40.2376 105.575 42.3298C105.575 44.6585 103.774 46.0776 100.827 46.0776C98.2435 46.0776 96.3695 44.895 96.3695 43.2576C96.3695 42.5663 96.879 42.166 97.7341 42.166C98.1707 42.166 98.5164 42.2934 98.6619 42.5117C98.7711 42.6573 98.7711 42.6937 98.8075 43.5305C98.8257 44.04 99.044 44.6585 99.2987 44.986C99.5898 45.3681 100.172 45.6046 100.791 45.6046C102.301 45.6046 103.156 44.3856 103.156 42.2752C103.156 41.0199 102.81 40.1102 102.155 39.6372C101.682 39.2915 100.772 39.055 99.7899 39.055H99.2441V38.491H99.7535C101.809 38.4728 102.883 37.3994 102.883 35.3435C102.883 33.5788 102.21 32.6327 100.918 32.6327C100.245 32.6327 99.7535 32.8874 99.4806 33.3969C99.2623 33.7971 99.1349 34.3247 99.1167 34.8705C99.0986 35.4709 99.0622 35.5983 98.8984 35.7802C98.7165 35.9621 98.389 36.0531 97.9524 36.0531C97.1155 36.0531 96.6788 35.7438 96.6788 35.1616C96.6788 33.4696 98.5528 32.1597 100.972 32.1597C102.264 32.1597 103.447 32.5236 104.211 33.1603C104.829 33.688 105.212 34.5248 105.212 35.3981C105.212 37.1811 103.829 38.3636 101.391 38.6729Z" fill="#D3C0A7"/>
</svg>
