<svg width="340" height="78" viewBox="0 0 340 78" fill="none" xmlns="http://www.w3.org/2000/svg">
<path d="M58.2198 19.78V22.076C58.2198 23.112 58.2198 23.644 58.2758 27.76C58.2758 28.264 58.3038 28.628 58.3038 29.02C58.3038 30 58.2478 30.448 58.1078 30.756C57.9398 31.204 57.5758 31.484 57.1558 31.484C56.6518 31.484 56.1758 31.176 55.6718 30.504C55.1118 29.748 54.6918 28.768 54.6918 28.18C54.6918 27.872 54.7198 27.76 54.9158 27.116C55.3918 25.688 55.5598 22.944 55.5598 16.196C55.5598 11.156 55.4758 10.204 55.0838 9.476C54.7478 8.888 54.1318 8.412 53.1518 8.02C53.5438 7.796 53.7678 7.74 54.2438 7.74C55.1958 7.74 56.5398 8.16 57.6878 8.832C58.6958 9.42 59.0878 9.868 59.0878 10.456C59.0878 10.68 59.0318 10.848 58.8638 11.156C58.3598 11.94 58.3318 12.36 58.2198 16.84C60.9638 17.036 63.3998 17.54 64.9958 18.268C66.4238 18.884 67.0398 19.724 67.0398 21.012C67.0398 22.188 66.5358 22.972 65.8078 22.972C65.4158 22.972 65.1918 22.832 64.4918 22.048C62.6998 20.088 60.2358 18.38 58.2198 17.68V19.78ZM62.8118 8.944L63.0638 8.468C64.3798 8.888 65.2478 9.252 66.0598 9.812C67.3478 10.68 67.9358 11.492 67.9358 12.388C67.9358 13.032 67.5718 13.48 67.0678 13.48C66.7038 13.48 66.4798 13.312 66.1158 12.668C65.2758 11.212 64.1558 9.98 62.8118 8.944ZM65.6958 6.732L65.9198 6.284C67.3198 6.592 68.3558 6.984 69.1958 7.516C70.3158 8.244 70.8198 8.888 70.8198 9.672C70.8198 10.344 70.4838 10.792 69.9798 10.792C69.6718 10.792 69.4758 10.624 69.0558 10.036C68.1038 8.664 67.1238 7.712 65.6958 6.732ZM80.6758 8.916L80.9838 8.72C82.0758 9.784 82.8598 10.148 84.0638 10.148C86.1078 10.148 89.1598 9.364 90.5038 8.524C90.7278 8.356 90.9518 8.3 91.2318 8.3C91.7638 8.3 92.8278 8.72 93.4438 9.196C93.9478 9.56 94.1438 9.868 94.1438 10.26C94.1438 10.904 93.6958 11.128 91.9878 11.408C89.1878 11.828 86.4718 12.136 85.3518 12.136C83.1678 12.136 82.0198 11.324 80.6758 8.916ZM81.9078 31.652L81.7398 31.372C84.5678 29.188 86.5278 27.2 88.3758 24.624C90.4758 21.712 92.0158 18.8 92.8278 16.14C89.2438 16.616 87.8998 16.868 85.3798 17.54C83.4478 18.044 83.0278 18.184 82.1318 18.632C81.7398 18.828 81.4038 18.912 81.0678 18.912C79.8918 18.912 77.9038 16.476 77.9038 14.964C77.9038 14.768 77.9318 14.628 78.0718 14.32C78.7998 15.58 79.6958 16.14 81.0118 16.14C82.0758 16.14 87.0318 15.44 90.6998 14.796C92.3798 14.516 92.4358 14.488 93.0798 14.04C93.3318 13.872 93.5558 13.816 93.8638 13.816C94.2558 13.816 94.8998 14.208 95.6838 14.88C96.5518 15.636 96.9718 16.224 96.9718 16.672C96.9718 17.036 96.8598 17.204 96.4398 17.54C95.9918 17.904 95.7958 18.184 95.1518 19.36C91.8758 25.548 87.7038 29.412 81.9078 31.652ZM102.76 24.344L102.62 24.036C106.036 22.048 109.62 19.192 113.064 15.72C116.06 12.696 117.768 10.456 117.768 9.532C117.768 8.944 117.124 8.216 116.088 7.684C116.452 7.6 116.62 7.572 116.984 7.572C117.824 7.572 118.72 7.88 119.812 8.524C121.1 9.28 121.856 10.12 121.856 10.764C121.856 11.268 121.716 11.436 120.736 12.136C120.624 12.22 120.624 12.22 118.916 13.844C116.956 15.664 116.956 15.664 114.968 17.372C115.92 17.988 116.648 18.604 116.9 19.024C117.152 19.416 117.18 19.696 117.208 21.768C117.236 23.056 117.236 23.42 117.404 28.74C117.432 29.132 117.432 29.524 117.432 29.804C117.432 30.952 117.068 31.512 116.284 31.512C115.248 31.512 113.708 29.804 113.708 28.628C113.708 28.348 113.736 28.152 113.876 27.732C114.24 26.584 114.492 23.532 114.492 20.508C114.492 19.08 114.408 18.688 114.016 18.156C111.692 19.92 109.704 21.236 108.024 22.132C106.372 23 104.356 23.84 102.76 24.344ZM143.864 9.672H149.632C150.64 8.608 150.948 8.272 151.956 7.292C153.356 8.356 153.748 8.692 155.036 9.812C155.148 9.952 155.204 10.036 155.204 10.092C155.204 10.176 155.092 10.26 154.924 10.26H143.864V12.864H147.42C148.12 12.192 148.344 11.968 149.016 11.296C150.052 11.996 150.36 12.192 151.34 12.92C151.592 13.088 151.676 13.228 151.676 13.368C151.676 13.592 151.508 13.76 150.696 14.208C150.668 15.524 150.668 16.616 150.668 17.288C150.668 19.5 150.724 22.216 150.78 23.812C150.78 24.428 150.444 24.54 148.82 24.54C147.728 24.54 147.644 24.512 147.616 24.092V23.392H137.34V24.008C137.34 24.568 137.116 24.652 135.604 24.652C134.344 24.652 134.204 24.596 134.204 24.064C134.288 20.9 134.288 20.032 134.288 17.148C134.288 14.432 134.26 13.368 134.176 11.296C135.688 11.912 136.136 12.136 137.536 12.864H140.784V10.26H132.216C131.404 10.26 130.928 10.316 130.34 10.428L130.172 9.448C130.872 9.616 131.404 9.672 132.188 9.672H140.784V9.448C140.784 8.104 140.756 7.628 140.616 6.396C144.928 6.844 145.068 6.872 145.068 7.264C145.068 7.544 144.76 7.712 143.864 7.936V9.672ZM137.34 16.056H147.616V13.452H137.34V16.056ZM147.616 16.644H137.34V19.276H147.616V16.644ZM147.616 19.864H137.34V22.804H147.616V19.864ZM131.824 25.688H150.276C151.284 24.68 151.592 24.372 152.572 23.392C153.972 24.4 154.364 24.736 155.68 25.828C155.82 25.94 155.876 26.024 155.876 26.108C155.876 26.192 155.736 26.276 155.568 26.276H131.824C130.9 26.276 130.536 26.304 129.808 26.472L129.612 25.436C130.396 25.632 130.928 25.688 131.824 25.688ZM129.752 32.212L129.64 31.932C131.936 30.924 133.196 30.224 134.68 29.132C135.856 28.236 136.472 27.676 137.284 26.668C138.208 27.004 138.908 27.256 139.356 27.424C141.176 28.04 141.568 28.236 141.568 28.516C141.568 28.796 141.204 28.936 140.392 28.936C140.308 28.936 140.112 28.936 139.944 28.936C136.528 30.868 134.512 31.512 129.752 32.212ZM143.5 27.424L143.584 27.172C148.596 27.396 150.472 27.676 151.732 28.404C152.6 28.88 153.104 29.832 153.104 30.952C153.104 31.848 152.712 32.436 152.124 32.436C151.788 32.436 151.564 32.324 151.004 31.876C150.556 31.484 149.156 30.448 148.512 30.028C147.168 29.132 146.048 28.544 143.5 27.424ZM171.64 11.044H169.008C168.924 12.388 168.896 12.612 168.728 13.396C168.084 16.364 166.348 18.352 163.296 19.556C161.952 20.088 160.552 20.424 158.284 20.788L158.116 20.424C161.616 19.276 163.66 17.792 164.892 15.552C165.62 14.18 165.928 12.92 165.956 11.044H162.064C162.064 11.156 162.064 11.24 162.064 11.268C162.064 12.472 161.784 13.732 161.392 14.404C160.888 15.244 160.188 15.72 159.432 15.72C158.564 15.72 157.864 14.88 157.864 13.844C157.864 13.116 158.088 12.808 158.844 12.388C159.852 11.856 160.3 11.464 160.748 10.82C161.14 10.204 161.308 9.672 161.42 8.58H161.728C161.924 9.448 161.98 9.784 162.036 10.456H168.756V8.58C168.756 7.572 168.728 7.32 168.616 6.48C172.648 6.76 173.264 6.872 173.264 7.32C173.264 7.628 173.012 7.768 171.92 8.048V10.456H178.192C178.892 9.7 179.116 9.476 179.816 8.748C181.188 9.7 181.608 10.008 182.896 11.072C183.12 11.268 183.176 11.408 183.176 11.548C183.176 11.632 183.12 11.744 183.064 11.8C182.98 11.884 182.7 11.968 182.336 11.968L181.72 11.996C181.496 12.024 181.3 12.052 181.076 12.08C179.676 13.088 179.004 13.508 177.156 14.572L176.932 14.46C177.604 13.172 177.8 12.64 178.276 11.044H174.496V15.972C174.496 16.588 174.664 16.644 176.904 16.644C179.172 16.644 179.48 16.588 179.816 16.112C180.04 15.804 180.46 14.852 181.244 12.976H181.552L181.496 15.468L181.468 15.888C181.468 16.168 181.524 16.224 182.028 16.448C182.616 16.7 182.84 16.98 182.84 17.484C182.84 18.1 182.448 18.576 181.804 18.744C181.076 18.94 179.34 19.052 176.568 19.052C173.656 19.052 172.816 18.968 172.228 18.576C171.808 18.296 171.64 17.82 171.64 16.952V11.044ZM172.004 22.748V30.252H177.436C178.472 29.076 178.78 28.74 179.816 27.676C181.216 28.796 181.664 29.16 183.064 30.364C183.148 30.476 183.204 30.56 183.204 30.644C183.204 30.756 183.092 30.84 182.924 30.84H160.664C159.964 30.84 159.404 30.896 158.284 31.064L157.948 29.944C159.32 30.168 160.16 30.252 160.888 30.252H168.728V22.748H162.68C162.232 22.748 161.896 22.804 160.636 23L160.384 21.936C161.448 22.076 162.288 22.16 162.848 22.16H175.728C176.596 21.096 176.876 20.788 177.8 19.752C179.256 20.844 179.704 21.208 181.16 22.356C181.244 22.44 181.3 22.496 181.3 22.552C181.3 22.664 181.188 22.748 181.048 22.748H172.004ZM188.58 13.844L188.86 13.648C189.896 14.936 190.736 15.272 192.724 15.272C193.76 15.272 195.384 15.132 197.288 14.852C197.288 11.94 197.26 11.156 197.036 10.484C196.784 9.728 195.972 9.14 194.768 8.888C195.132 8.524 195.412 8.44 195.972 8.44C197.036 8.44 198.772 8.832 199.696 9.28C200.536 9.7 200.9 10.092 200.9 10.596C200.9 10.96 200.844 11.1 200.508 11.66C200.144 12.276 199.976 13.032 199.836 14.404C202.048 14.04 204.036 13.396 204.456 12.92C204.764 12.696 204.904 12.64 205.296 12.64C205.716 12.64 206.64 12.948 207.256 13.312C207.844 13.676 208.124 14.04 208.124 14.46C208.124 15.104 207.676 15.356 206.024 15.58C205.856 15.608 205.24 15.72 204.176 15.86C201.88 16.224 200.424 16.448 199.724 16.532C199.696 18.016 199.696 18.1 199.696 18.548C199.696 21.152 199.808 23.392 200.088 26.276C200.116 26.78 200.144 27.06 200.144 27.396C200.144 29.552 199.108 31.288 197.792 31.288C197.12 31.288 196.812 31.008 196.616 30.168C196.476 29.216 195.272 28.068 192.444 26.248L192.556 26.024C194.46 26.612 195.356 26.808 197.12 27.06C197.232 24.652 197.316 20.312 197.316 16.784C195.524 16.952 194.488 17.036 193.648 17.036C190.988 17.036 189.616 16.168 188.58 13.844ZM192.052 19.024L192.444 19.08C192.388 21.656 192.052 23.56 191.268 25.38C190.568 27.032 189.672 27.928 188.748 27.928C187.964 27.928 187.404 27.032 187.404 25.744C187.404 25.352 187.516 24.932 187.656 24.68C187.824 24.428 187.908 24.372 188.496 24.064C190.288 23.056 191.716 20.984 192.052 19.024ZM203 18.912L203.224 18.688C205.604 19.808 206.836 20.592 207.984 21.74C208.964 22.72 209.384 23.56 209.384 24.568C209.384 26.136 208.6 27.424 207.648 27.424C207.088 27.424 206.948 27.2 206.612 25.884C205.828 23.084 204.512 20.508 203 18.912ZM207.228 5.668C208.908 5.668 210.252 7.012 210.252 8.692C210.252 10.372 208.908 11.716 207.256 11.716C205.576 11.716 204.204 10.344 204.204 8.692C204.204 7.04 205.576 5.668 207.228 5.668ZM207.228 6.648C206.108 6.648 205.212 7.544 205.212 8.692C205.212 9.812 206.108 10.708 207.228 10.708C208.376 10.708 209.272 9.812 209.272 8.692C209.272 7.544 208.376 6.648 207.228 6.648ZM216.972 10.96L217.112 10.652C220.248 11.156 221.928 11.632 223.244 12.472C224.168 13.032 224.616 13.816 224.616 14.88C224.616 16.196 223.972 17.204 223.104 17.204C222.628 17.204 222.348 16.98 221.928 16.252C220.584 13.816 219.156 12.304 216.972 10.96ZM238.056 12.108L238.392 12.276C236.852 15.496 234.92 18.156 232.092 20.956C229.6 23.42 227.528 25.044 223.972 27.34C223.244 27.816 222.74 28.208 222.46 28.572C222.068 29.048 221.704 29.272 221.284 29.272C220.556 29.272 219.52 28.488 218.54 27.228C217.644 26.08 217.196 25.016 217.196 24.12C217.196 23.868 217.224 23.728 217.336 23.364C218.092 24.652 219.016 25.436 219.772 25.436C220.948 25.436 224.616 23.504 227.948 21.124C232.12 18.128 235.676 14.992 238.056 12.108ZM246.54 31.596L246.344 31.316C248.696 29.552 250.152 28.208 252.028 25.996C254.828 22.664 257.376 18.464 259 14.376C259.336 13.536 259.532 12.892 259.532 12.612C259.532 12.416 259.364 12.332 259.028 12.332C258.02 12.332 255.472 12.836 253.064 13.48C250.964 14.04 249.872 14.46 248.612 15.104C248.332 15.272 247.94 15.356 247.604 15.356C246.792 15.356 245.868 14.6 244.972 13.256C244.468 12.444 244.216 11.828 244.216 11.268C244.216 11.044 244.244 10.904 244.384 10.54C245.056 11.856 245.924 12.388 247.324 12.388C248.528 12.388 251.804 11.94 256.396 11.156C258.496 10.792 258.72 10.736 259.448 10.316C259.644 10.232 259.896 10.148 260.064 10.148C260.484 10.148 261.38 10.68 262.136 11.38C263.088 12.248 263.62 12.976 263.62 13.48C263.62 13.872 263.508 14.096 263.116 14.488C262.612 15.02 262.5 15.16 261.94 16.224C257.768 24.288 253.008 29.02 246.54 31.596ZM265.496 5.78C267.176 5.78 268.52 7.124 268.52 8.804C268.52 10.484 267.176 11.828 265.524 11.828C263.844 11.828 262.472 10.456 262.472 8.804C262.472 7.152 263.844 5.78 265.496 5.78ZM265.496 6.76C264.376 6.76 263.48 7.656 263.48 8.804C263.48 9.924 264.376 10.82 265.496 10.82C266.644 10.82 267.54 9.924 267.54 8.804C267.54 7.656 266.644 6.76 265.496 6.76ZM281.54 30.28L281.428 29.888C284.424 28.964 286.524 27.732 288.204 25.912C290.08 23.896 291.004 21.432 291.004 18.548C291.004 13.76 288.092 10.904 283.276 10.904C282.912 10.904 282.688 10.904 282.156 10.96C283.136 12.108 283.444 12.864 283.444 13.956C283.444 16.196 282.016 20.116 280 23.504C278.18 26.528 276.556 28.068 275.156 28.068C274.54 28.068 273.952 27.732 273.644 27.256C273.42 26.836 273.252 26.444 273 25.408C272.832 24.736 272.608 24.344 271.796 23.336C271.124 22.496 270.704 21.264 270.704 20.116C270.704 18.352 271.6 16.224 273.056 14.516C275.464 11.66 279.44 9.924 283.612 9.924C289.856 9.924 294.308 13.872 294.308 19.416C294.308 23.476 292.068 26.724 288.008 28.6C286.272 29.412 284.48 29.888 281.54 30.28ZM281.596 11.044C279.328 11.548 277.816 12.36 276.192 13.956C274.26 15.888 273.196 18.268 273.196 20.62C273.196 22.552 274.148 24.54 275.1 24.54C276.024 24.54 277.872 22.216 279.692 18.772C281.092 16.14 281.932 13.816 281.932 12.584C281.932 12.276 281.904 11.912 281.82 11.66C281.764 11.436 281.624 11.044 281.596 11.044ZM158.121 55.392C159.773 55.392 161.089 56.708 161.089 58.36C161.089 60.012 159.745 61.356 158.121 61.356C156.469 61.356 155.125 60.012 155.125 58.36C155.125 56.736 156.469 55.392 158.121 55.392ZM178.785 48.336L179.037 48.14C180.129 49.232 181.109 49.68 182.453 49.68C183.517 49.68 184.945 49.456 186.345 49.036C187.381 48.728 187.773 48.588 188.809 47.972C189.201 47.776 189.369 47.72 189.705 47.72C190.125 47.72 190.573 47.888 191.189 48.308C191.889 48.756 192.225 49.204 192.225 49.68C192.225 50.212 191.833 50.492 190.601 50.772C188.697 51.22 185.421 51.612 183.657 51.612C181.473 51.612 180.017 50.632 178.785 48.336ZM179.653 71.128L179.429 70.904C181.333 68.804 182.537 66.9 183.629 64.212C184.413 62.224 185.057 59.564 185.057 58.248C185.057 57.576 184.973 57.324 184.609 56.932C182.817 57.156 180.129 57.94 178.757 58.612C178.225 58.892 177.917 58.976 177.553 58.976C176.853 58.976 176.013 58.36 175.089 57.128C174.529 56.428 174.305 55.896 174.305 55.364C174.305 55.224 174.333 55.112 174.417 54.804C175.117 55.84 175.985 56.344 177.105 56.344C177.973 56.344 178.225 56.316 182.397 55.672C184.917 55.28 186.149 55.112 190.909 54.58C191.889 54.496 192.673 54.3 193.345 53.992C193.681 53.824 193.905 53.768 194.157 53.768C194.605 53.768 195.277 53.992 195.949 54.356C197.013 54.888 197.545 55.476 197.545 56.036C197.545 56.624 197.097 56.988 196.369 56.988C196.285 56.988 196.173 56.988 195.865 56.932C194.241 56.652 192.253 56.484 190.601 56.484C189.173 56.484 188.025 56.54 186.541 56.708C188.137 57.632 188.445 57.968 188.445 58.696C188.445 59.928 187.269 62.952 185.981 65.052C184.385 67.628 182.453 69.476 179.653 71.128ZM195.137 44.836L195.389 44.416C196.817 44.808 197.825 45.256 198.609 45.816C199.645 46.544 200.093 47.216 200.093 48.028C200.093 48.672 199.757 49.12 199.253 49.12C198.917 49.12 198.749 48.98 198.329 48.308C197.461 46.908 196.537 45.9 195.137 44.836ZM192.225 46.824L192.505 46.348C195.361 47.356 197.153 48.924 197.153 50.408C197.153 51.108 196.789 51.556 196.257 51.556C195.809 51.556 195.725 51.472 195.025 50.156C194.325 48.924 193.373 47.804 192.225 46.824ZM204.963 53.04L205.159 52.76C207.819 53.74 210.199 54.86 212.551 56.26C214.567 53.012 215.715 50.492 215.715 49.344C215.715 48.42 215.127 47.664 213.895 47.02C214.175 46.88 214.315 46.852 214.595 46.852C215.771 46.852 217.451 47.608 218.711 48.672C219.523 49.344 219.859 49.876 219.859 50.408C219.859 50.772 219.747 50.94 219.159 51.472C218.795 51.808 218.627 52.06 217.955 53.124C217.843 53.292 217.843 53.292 216.947 54.776C216.807 55 216.331 55.756 215.491 57.044C215.379 57.184 215.239 57.436 215.043 57.744C218.263 60.04 218.907 60.824 218.907 62.448C218.907 63.708 218.319 64.716 217.591 64.716C217.199 64.716 216.919 64.464 216.499 63.82C215.519 62.336 214.707 61.272 213.419 59.928C211.179 62.84 209.639 64.436 207.343 66.228C205.187 67.908 203.479 68.888 200.595 70.092L200.399 69.784C204.431 66.788 208.267 62.644 211.431 57.94C209.359 56.092 206.923 54.244 204.963 53.04ZM231.423 48.644C231.815 48.42 231.955 48.392 232.459 48.392C233.523 48.392 235.315 49.008 236.183 49.652C236.631 49.988 236.855 50.408 236.855 50.8C236.855 50.828 236.855 50.828 236.855 50.856C236.827 51.108 236.827 51.136 236.603 51.836C236.463 52.312 236.379 53.572 236.379 55.308C236.379 55.756 236.407 56.596 236.435 57.8C236.463 58.472 236.463 59.144 236.463 59.452C236.463 60.32 236.435 60.572 236.379 60.964C236.267 61.608 235.875 61.972 235.343 61.972C234.839 61.972 234.279 61.524 233.803 60.74C233.411 60.068 233.103 59.2 233.103 58.752C233.103 58.528 233.103 58.528 233.271 58.052C233.579 57.268 233.747 55.56 233.747 53.516C233.747 51.556 233.607 50.576 233.215 49.988C232.851 49.372 232.515 49.12 231.423 48.644ZM235.707 70.848L235.539 70.568C238.479 68.692 240.355 66.732 241.615 64.324C242.931 61.692 243.267 59.396 243.267 52.984C243.267 49.82 243.183 48.868 242.791 48.308C242.455 47.748 241.671 47.3 240.579 46.992C241.027 46.656 241.307 46.572 241.867 46.572C242.763 46.572 244.107 46.908 245.199 47.384C246.403 47.944 246.907 48.42 246.907 49.064C246.907 49.288 246.879 49.344 246.711 49.792C246.431 50.492 246.319 51.696 246.235 55.364C246.151 59.368 245.983 60.684 245.507 62.28C244.247 66.312 240.831 69.308 235.707 70.848ZM259.115 55.28L259.283 55.084C262.699 56.456 263.931 57.492 263.931 58.948C263.931 60.012 263.259 60.936 262.503 60.936C262.083 60.936 261.831 60.684 261.607 59.984C260.879 57.688 260.291 56.568 259.115 55.28ZM264.155 54.104L264.351 53.88C265.891 54.44 266.843 54.916 267.683 55.588C268.411 56.232 268.719 56.764 268.719 57.548C268.719 58.612 267.963 59.62 267.179 59.62C266.899 59.62 266.647 59.452 266.507 59.172C266.423 58.976 266.423 58.976 266.143 57.94C265.639 56.092 265.163 55.168 264.155 54.104ZM262.503 70.204L262.279 69.924C265.163 67.74 267.543 65.052 269.727 61.496C271.155 59.144 272.303 56.484 272.303 55.504C272.303 54.804 271.911 54.328 270.819 53.768C271.099 53.628 271.211 53.6 271.463 53.6C272.359 53.6 273.647 54.104 274.739 54.916C275.411 55.392 275.719 55.812 275.719 56.232C275.719 56.568 275.663 56.652 275.327 57.072C275.075 57.352 274.767 57.856 274.263 58.724C272.051 62.7 270.147 65.108 267.599 67.18C266.059 68.412 264.379 69.392 262.503 70.204ZM290.167 46.88C290.587 46.656 290.811 46.6 291.259 46.6C292.099 46.6 293.331 46.936 294.339 47.412C295.571 48.028 296.159 48.616 296.159 49.26C296.159 49.512 296.103 49.652 295.907 50.016C295.571 50.632 295.515 50.856 295.431 51.864C295.375 52.424 295.319 54.244 295.263 55.728C297.783 55.84 300.387 56.4 302.011 57.1C303.439 57.744 304.055 58.584 304.055 59.844C304.055 61.048 303.551 61.832 302.823 61.832C302.403 61.832 302.235 61.72 301.507 60.908C299.715 58.92 297.559 57.38 295.263 56.54C295.263 56.876 295.263 58.332 295.263 60.936C295.263 63.288 295.263 63.288 295.347 66.62C295.375 67.096 295.375 67.488 295.375 67.964C295.375 68.888 295.319 69.336 295.207 69.644C295.039 70.092 294.675 70.344 294.227 70.344C293.723 70.344 293.219 70.036 292.715 69.364C292.127 68.636 291.707 67.684 291.707 67.096C291.707 66.76 291.735 66.648 291.959 65.976C292.435 64.604 292.603 61.356 292.603 54.188C292.603 50.156 292.519 49.092 292.099 48.336C291.791 47.748 291.147 47.244 290.167 46.88Z" fill="#006281"/>
<path d="M39.2051 53.04L39.4011 52.76C42.0611 53.74 44.4411 54.86 46.7931 56.26C48.8091 53.012 49.9571 50.492 49.9571 49.344C49.9571 48.42 49.3691 47.664 48.1371 47.02C48.4171 46.88 48.5571 46.852 48.8371 46.852C50.0131 46.852 51.6931 47.608 52.9531 48.672C53.7651 49.344 54.1011 49.876 54.1011 50.408C54.1011 50.772 53.9891 50.94 53.4011 51.472C53.0371 51.808 52.8691 52.06 52.1971 53.124C52.0851 53.292 52.0851 53.292 51.1891 54.776C51.0491 55 50.5731 55.756 49.7331 57.044C49.6211 57.184 49.4811 57.436 49.2851 57.744C52.5051 60.04 53.1491 60.824 53.1491 62.448C53.1491 63.708 52.5611 64.716 51.8331 64.716C51.4411 64.716 51.1611 64.464 50.7411 63.82C49.7611 62.336 48.9491 61.272 47.6611 59.928C45.4211 62.84 43.8811 64.436 41.5851 66.228C39.4291 67.908 37.7211 68.888 34.8371 70.092L34.6411 69.784C38.6731 66.788 42.5091 62.644 45.6731 57.94C43.6011 56.092 41.1651 54.244 39.2051 53.04ZM65.6651 48.644C66.0571 48.42 66.1971 48.392 66.7011 48.392C67.7651 48.392 69.5571 49.008 70.4251 49.652C70.8731 49.988 71.0971 50.408 71.0971 50.8C71.0971 50.828 71.0971 50.828 71.0971 50.856C71.0691 51.108 71.0691 51.136 70.8451 51.836C70.7051 52.312 70.6211 53.572 70.6211 55.308C70.6211 55.756 70.6491 56.596 70.6771 57.8C70.7051 58.472 70.7051 59.144 70.7051 59.452C70.7051 60.32 70.6771 60.572 70.6211 60.964C70.5091 61.608 70.1171 61.972 69.5851 61.972C69.0811 61.972 68.5211 61.524 68.0451 60.74C67.6531 60.068 67.3451 59.2 67.3451 58.752C67.3451 58.528 67.3451 58.528 67.5131 58.052C67.8211 57.268 67.9891 55.56 67.9891 53.516C67.9891 51.556 67.8491 50.576 67.4571 49.988C67.0931 49.372 66.7571 49.12 65.6651 48.644ZM69.9491 70.848L69.7811 70.568C72.7211 68.692 74.5971 66.732 75.8571 64.324C77.1731 61.692 77.5091 59.396 77.5091 52.984C77.5091 49.82 77.4251 48.868 77.0331 48.308C76.6971 47.748 75.9131 47.3 74.8211 46.992C75.2691 46.656 75.5491 46.572 76.1091 46.572C77.0051 46.572 78.3491 46.908 79.4411 47.384C80.6451 47.944 81.1491 48.42 81.1491 49.064C81.1491 49.288 81.1211 49.344 80.9531 49.792C80.6731 50.492 80.5611 51.696 80.4771 55.364C80.3931 59.368 80.2251 60.684 79.7491 62.28C78.4891 66.312 75.0731 69.308 69.9491 70.848ZM93.3571 55.28L93.5251 55.084C96.9411 56.456 98.1731 57.492 98.1731 58.948C98.1731 60.012 97.5011 60.936 96.7451 60.936C96.3251 60.936 96.0731 60.684 95.8491 59.984C95.1211 57.688 94.5331 56.568 93.3571 55.28ZM98.3971 54.104L98.5931 53.88C100.133 54.44 101.085 54.916 101.925 55.588C102.653 56.232 102.961 56.764 102.961 57.548C102.961 58.612 102.205 59.62 101.421 59.62C101.141 59.62 100.889 59.452 100.749 59.172C100.665 58.976 100.665 58.976 100.385 57.94C99.8811 56.092 99.4051 55.168 98.3971 54.104ZM96.7451 70.204L96.5211 69.924C99.4051 67.74 101.785 65.052 103.969 61.496C105.397 59.144 106.545 56.484 106.545 55.504C106.545 54.804 106.153 54.328 105.061 53.768C105.341 53.628 105.453 53.6 105.705 53.6C106.601 53.6 107.889 54.104 108.981 54.916C109.653 55.392 109.961 55.812 109.961 56.232C109.961 56.568 109.905 56.652 109.569 57.072C109.317 57.352 109.009 57.856 108.505 58.724C106.293 62.7 104.389 65.108 101.841 67.18C100.301 68.412 98.6211 69.392 96.7451 70.204ZM124.409 46.88C124.829 46.656 125.053 46.6 125.501 46.6C126.341 46.6 127.573 46.936 128.581 47.412C129.813 48.028 130.401 48.616 130.401 49.26C130.401 49.512 130.345 49.652 130.149 50.016C129.813 50.632 129.757 50.856 129.673 51.864C129.617 52.424 129.561 54.244 129.505 55.728C132.025 55.84 134.629 56.4 136.253 57.1C137.681 57.744 138.297 58.584 138.297 59.844C138.297 61.048 137.793 61.832 137.065 61.832C136.645 61.832 136.477 61.72 135.749 60.908C133.957 58.92 131.801 57.38 129.505 56.54C129.505 56.876 129.505 58.332 129.505 60.936C129.505 63.288 129.505 63.288 129.589 66.62C129.617 67.096 129.617 67.488 129.617 67.964C129.617 68.888 129.561 69.336 129.449 69.644C129.281 70.092 128.917 70.344 128.469 70.344C127.965 70.344 127.461 70.036 126.957 69.364C126.369 68.636 125.949 67.684 125.949 67.096C125.949 66.76 125.977 66.648 126.201 65.976C126.677 64.604 126.845 61.356 126.845 54.188C126.845 50.156 126.761 49.092 126.341 48.336C126.033 47.748 125.389 47.244 124.409 46.88Z" fill="#D44392"/>
<rect y="3" width="5" height="72" fill="#006281"/>
<rect x="335" y="3" width="5" height="72" fill="#006281"/>
</svg>
