<svg width="997" height="72" viewBox="0 0 997 72" fill="none" xmlns="http://www.w3.org/2000/svg">
<path d="M67.0844 36.48V40.416C67.0844 42.192 67.0844 43.104 67.1804 50.16C67.1804 51.024 67.2284 51.648 67.2284 52.32C67.2284 54 67.1324 54.768 66.8924 55.296C66.6044 56.064 65.9804 56.544 65.2604 56.544C64.3964 56.544 63.5804 56.016 62.7164 54.864C61.7564 53.568 61.0364 51.888 61.0364 50.88C61.0364 50.352 61.0844 50.16 61.4204 49.056C62.2364 46.608 62.5244 41.904 62.5244 30.336C62.5244 21.696 62.3804 20.064 61.7084 18.816C61.1324 17.808 60.0764 16.992 58.3964 16.32C59.0684 15.936 59.4524 15.84 60.2684 15.84C61.9004 15.84 64.2044 16.56 66.1724 17.712C67.9004 18.72 68.5724 19.488 68.5724 20.496C68.5724 20.88 68.4764 21.168 68.1884 21.696C67.3244 23.04 67.2764 23.76 67.0844 31.44C71.7884 31.776 75.9644 32.64 78.7004 33.888C81.1484 34.944 82.2044 36.384 82.2044 38.592C82.2044 40.608 81.3404 41.952 80.0924 41.952C79.4204 41.952 79.0364 41.712 77.8364 40.368C74.7644 37.008 70.5404 34.08 67.0844 32.88V36.48ZM74.9564 17.904L75.3884 17.088C77.6444 17.808 79.1324 18.432 80.5244 19.392C82.7324 20.88 83.7404 22.272 83.7404 23.808C83.7404 24.912 83.1164 25.68 82.2524 25.68C81.6284 25.68 81.2444 25.392 80.6204 24.288C79.1804 21.792 77.2604 19.68 74.9564 17.904ZM79.9004 14.112L80.2844 13.344C82.6844 13.872 84.4604 14.544 85.9004 15.456C87.8204 16.704 88.6844 17.808 88.6844 19.152C88.6844 20.304 88.1084 21.072 87.2444 21.072C86.7164 21.072 86.3804 20.784 85.6604 19.776C84.0284 17.424 82.3484 15.792 79.9004 14.112ZM105.58 17.856L106.108 17.52C107.98 19.344 109.324 19.968 111.388 19.968C114.892 19.968 120.124 18.624 122.428 17.184C122.812 16.896 123.196 16.8 123.676 16.8C124.588 16.8 126.412 17.52 127.468 18.336C128.332 18.96 128.668 19.488 128.668 20.16C128.668 21.264 127.9 21.648 124.972 22.128C120.172 22.848 115.516 23.376 113.596 23.376C109.852 23.376 107.884 21.984 105.58 17.856ZM107.692 56.832L107.404 56.352C112.252 52.608 115.612 49.2 118.78 44.784C122.38 39.792 125.02 34.8 126.412 30.24C120.268 31.056 117.964 31.488 113.644 32.64C110.332 33.504 109.612 33.744 108.076 34.512C107.404 34.848 106.828 34.992 106.252 34.992C104.236 34.992 100.828 30.816 100.828 28.224C100.828 27.888 100.876 27.648 101.116 27.12C102.364 29.28 103.9 30.24 106.156 30.24C107.98 30.24 116.476 29.04 122.764 27.936C125.644 27.456 125.74 27.408 126.844 26.64C127.276 26.352 127.66 26.256 128.188 26.256C128.86 26.256 129.964 26.928 131.308 28.08C132.796 29.376 133.516 30.384 133.516 31.152C133.516 31.776 133.324 32.064 132.604 32.64C131.836 33.264 131.5 33.744 130.396 35.76C124.78 46.368 117.628 52.992 107.692 56.832ZM143.439 44.304L143.199 43.776C149.055 40.368 155.199 35.472 161.103 29.52C166.239 24.336 169.167 20.496 169.167 18.912C169.167 17.904 168.063 16.656 166.287 15.744C166.911 15.6 167.199 15.552 167.823 15.552C169.263 15.552 170.799 16.08 172.671 17.184C174.879 18.48 176.175 19.92 176.175 21.024C176.175 21.888 175.935 22.176 174.255 23.376C174.063 23.52 174.063 23.52 171.135 26.304C167.775 29.424 167.775 29.424 164.367 32.352C165.999 33.408 167.247 34.464 167.679 35.184C168.111 35.856 168.159 36.336 168.207 39.888C168.255 42.096 168.255 42.72 168.543 51.84C168.591 52.512 168.591 53.184 168.591 53.664C168.591 55.632 167.967 56.592 166.623 56.592C164.847 56.592 162.207 53.664 162.207 51.648C162.207 51.168 162.255 50.832 162.495 50.112C163.119 48.144 163.551 42.912 163.551 37.728C163.551 35.28 163.407 34.608 162.735 33.696C158.751 36.72 155.343 38.976 152.463 40.512C149.631 42 146.175 43.44 143.439 44.304ZM213.903 19.152H223.791C225.519 17.328 226.047 16.752 227.775 15.072C230.175 16.896 230.847 17.472 233.055 19.392C233.247 19.632 233.343 19.776 233.343 19.872C233.343 20.016 233.151 20.16 232.863 20.16H213.903V24.624H219.999C221.199 23.472 221.583 23.088 222.735 21.936C224.511 23.136 225.039 23.472 226.719 24.72C227.151 25.008 227.295 25.248 227.295 25.488C227.295 25.872 227.007 26.16 225.615 26.928C225.567 29.184 225.567 31.056 225.567 32.208C225.567 36 225.663 40.656 225.759 43.392C225.759 44.448 225.183 44.64 222.399 44.64C220.527 44.64 220.383 44.592 220.335 43.872V42.672H202.719V43.728C202.719 44.688 202.335 44.832 199.743 44.832C197.583 44.832 197.343 44.736 197.343 43.824C197.487 38.4 197.487 36.912 197.487 31.968C197.487 27.312 197.439 25.488 197.295 21.936C199.887 22.992 200.655 23.376 203.055 24.624H208.623V20.16H193.935C192.543 20.16 191.727 20.256 190.719 20.448L190.431 18.768C191.631 19.056 192.543 19.152 193.887 19.152H208.623V18.768C208.623 16.464 208.575 15.648 208.335 13.536C215.727 14.304 215.967 14.352 215.967 15.024C215.967 15.504 215.439 15.792 213.903 16.176V19.152ZM202.719 30.096H220.335V25.632H202.719V30.096ZM220.335 31.104H202.719V35.616H220.335V31.104ZM220.335 36.624H202.719V41.664H220.335V36.624ZM193.263 46.608H224.895C226.623 44.88 227.151 44.352 228.831 42.672C231.231 44.4 231.903 44.976 234.159 46.848C234.399 47.04 234.495 47.184 234.495 47.328C234.495 47.472 234.255 47.616 233.967 47.616H193.263C191.679 47.616 191.055 47.664 189.807 47.952L189.471 46.176C190.815 46.512 191.727 46.608 193.263 46.608ZM189.711 57.792L189.519 57.312C193.455 55.584 195.615 54.384 198.159 52.512C200.175 50.976 201.231 50.016 202.623 48.288C204.207 48.864 205.407 49.296 206.175 49.584C209.295 50.64 209.967 50.976 209.967 51.456C209.967 51.936 209.343 52.176 207.951 52.176C207.807 52.176 207.471 52.176 207.183 52.176C201.327 55.488 197.871 56.592 189.711 57.792ZM213.279 49.584L213.423 49.152C222.015 49.536 225.231 50.016 227.391 51.264C228.879 52.08 229.743 53.712 229.743 55.632C229.743 57.168 229.071 58.176 228.063 58.176C227.487 58.176 227.103 57.984 226.143 57.216C225.375 56.544 222.975 54.768 221.871 54.048C219.567 52.512 217.647 51.504 213.279 49.584ZM261.519 21.504H257.007C256.863 23.808 256.815 24.192 256.527 25.536C255.423 30.624 252.447 34.032 247.215 36.096C244.911 37.008 242.511 37.584 238.623 38.208L238.335 37.584C244.335 35.616 247.839 33.072 249.951 29.232C251.199 26.88 251.727 24.72 251.775 21.504H245.103C245.103 21.696 245.103 21.84 245.103 21.888C245.103 23.952 244.623 26.112 243.951 27.264C243.087 28.704 241.887 29.52 240.591 29.52C239.103 29.52 237.903 28.08 237.903 26.304C237.903 25.056 238.287 24.528 239.583 23.808C241.311 22.896 242.079 22.224 242.847 21.12C243.519 20.064 243.807 19.152 243.999 17.28H244.527C244.863 18.768 244.959 19.344 245.055 20.496H256.575V17.28C256.575 15.552 256.527 15.12 256.335 13.68C263.247 14.16 264.303 14.352 264.303 15.12C264.303 15.648 263.871 15.888 261.999 16.368V20.496H272.751C273.951 19.2 274.335 18.816 275.535 17.568C277.887 19.2 278.607 19.728 280.815 21.552C281.199 21.888 281.295 22.128 281.295 22.368C281.295 22.512 281.199 22.704 281.103 22.8C280.959 22.944 280.479 23.088 279.855 23.088L278.799 23.136C278.415 23.184 278.079 23.232 277.695 23.28C275.295 25.008 274.143 25.728 270.975 27.552L270.591 27.36C271.743 25.152 272.079 24.24 272.895 21.504H266.415V29.952C266.415 31.008 266.703 31.104 270.543 31.104C274.431 31.104 274.959 31.008 275.535 30.192C275.919 29.664 276.639 28.032 277.983 24.816H278.511L278.415 29.088L278.367 29.808C278.367 30.288 278.463 30.384 279.327 30.768C280.335 31.2 280.719 31.68 280.719 32.544C280.719 33.6 280.047 34.416 278.943 34.704C277.695 35.04 274.719 35.232 269.967 35.232C264.975 35.232 263.535 35.088 262.527 34.416C261.807 33.936 261.519 33.12 261.519 31.632V21.504ZM262.143 41.568V54.432H271.455C273.231 52.416 273.759 51.84 275.535 50.016C277.935 51.936 278.703 52.56 281.103 54.624C281.247 54.816 281.343 54.96 281.343 55.104C281.343 55.296 281.151 55.44 280.863 55.44H242.703C241.503 55.44 240.543 55.536 238.623 55.824L238.047 53.904C240.399 54.288 241.839 54.432 243.087 54.432H256.527V41.568H246.159C245.391 41.568 244.815 41.664 242.655 42L242.223 40.176C244.047 40.416 245.487 40.56 246.447 40.56H268.527C270.015 38.736 270.495 38.208 272.079 36.432C274.575 38.304 275.343 38.928 277.839 40.896C277.983 41.04 278.079 41.136 278.079 41.232C278.079 41.424 277.887 41.568 277.647 41.568H262.143ZM290.559 26.304L291.039 25.968C292.815 28.176 294.255 28.752 297.663 28.752C299.439 28.752 302.223 28.512 305.487 28.032C305.487 23.04 305.439 21.696 305.055 20.544C304.623 19.248 303.231 18.24 301.167 17.808C301.791 17.184 302.271 17.04 303.231 17.04C305.055 17.04 308.031 17.712 309.615 18.48C311.055 19.2 311.679 19.872 311.679 20.736C311.679 21.36 311.583 21.6 311.007 22.56C310.383 23.616 310.095 24.912 309.855 27.264C313.647 26.64 317.055 25.536 317.775 24.72C318.303 24.336 318.543 24.24 319.215 24.24C319.935 24.24 321.519 24.768 322.575 25.392C323.583 26.016 324.063 26.64 324.063 27.36C324.063 28.464 323.295 28.896 320.463 29.28C320.175 29.328 319.119 29.52 317.295 29.76C313.359 30.384 310.863 30.768 309.663 30.912C309.615 33.456 309.615 33.6 309.615 34.368C309.615 38.832 309.807 42.672 310.287 47.616C310.335 48.48 310.383 48.96 310.383 49.536C310.383 53.232 308.607 56.208 306.351 56.208C305.199 56.208 304.671 55.728 304.335 54.288C304.095 52.656 302.031 50.688 297.183 47.568L297.375 47.184C300.639 48.192 302.175 48.528 305.199 48.96C305.391 44.832 305.535 37.392 305.535 31.344C302.463 31.632 300.687 31.776 299.247 31.776C294.687 31.776 292.335 30.288 290.559 26.304ZM296.511 35.184L297.183 35.28C297.087 39.696 296.511 42.96 295.167 46.08C293.967 48.912 292.431 50.448 290.847 50.448C289.503 50.448 288.543 48.912 288.543 46.704C288.543 46.032 288.735 45.312 288.975 44.88C289.263 44.448 289.407 44.352 290.415 43.824C293.487 42.096 295.935 38.544 296.511 35.184ZM315.279 34.992L315.663 34.608C319.743 36.528 321.855 37.872 323.823 39.84C325.503 41.52 326.223 42.96 326.223 44.688C326.223 47.376 324.879 49.584 323.247 49.584C322.287 49.584 322.047 49.2 321.471 46.944C320.127 42.144 317.871 37.728 315.279 34.992ZM322.527 12.288C325.407 12.288 327.711 14.592 327.711 17.472C327.711 20.352 325.407 22.656 322.575 22.656C319.695 22.656 317.343 20.304 317.343 17.472C317.343 14.64 319.695 12.288 322.527 12.288ZM322.527 13.968C320.607 13.968 319.071 15.504 319.071 17.472C319.071 19.392 320.607 20.928 322.527 20.928C324.495 20.928 326.031 19.392 326.031 17.472C326.031 15.504 324.495 13.968 322.527 13.968ZM339.231 21.36L339.471 20.832C344.847 21.696 347.727 22.512 349.983 23.952C351.567 24.912 352.335 26.256 352.335 28.08C352.335 30.336 351.231 32.064 349.743 32.064C348.927 32.064 348.447 31.68 347.727 30.432C345.423 26.256 342.975 23.664 339.231 21.36ZM375.375 23.328L375.951 23.616C373.311 29.136 369.999 33.696 365.151 38.496C360.879 42.72 357.327 45.504 351.231 49.44C349.983 50.256 349.119 50.928 348.639 51.552C347.967 52.368 347.343 52.752 346.623 52.752C345.375 52.752 343.599 51.408 341.919 49.248C340.383 47.28 339.615 45.456 339.615 43.92C339.615 43.488 339.663 43.248 339.855 42.624C341.151 44.832 342.735 46.176 344.031 46.176C346.047 46.176 352.335 42.864 358.047 38.784C365.199 33.648 371.295 28.272 375.375 23.328ZM389.919 56.736L389.583 56.256C393.615 53.232 396.111 50.928 399.327 47.136C404.127 41.424 408.495 34.224 411.279 27.216C411.855 25.776 412.191 24.672 412.191 24.192C412.191 23.856 411.903 23.712 411.327 23.712C409.599 23.712 405.231 24.576 401.103 25.68C397.503 26.64 395.631 27.36 393.471 28.464C392.991 28.752 392.319 28.896 391.743 28.896C390.351 28.896 388.767 27.6 387.231 25.296C386.367 23.904 385.935 22.848 385.935 21.888C385.935 21.504 385.983 21.264 386.223 20.64C387.375 22.896 388.863 23.808 391.263 23.808C393.327 23.808 398.943 23.04 406.815 21.696C410.415 21.072 410.799 20.976 412.047 20.256C412.383 20.112 412.815 19.968 413.103 19.968C413.823 19.968 415.359 20.88 416.655 22.08C418.287 23.568 419.199 24.816 419.199 25.68C419.199 26.352 419.007 26.736 418.335 27.408C417.471 28.32 417.279 28.56 416.319 30.384C409.167 44.208 401.007 52.32 389.919 56.736ZM422.415 12.48C425.295 12.48 427.599 14.784 427.599 17.664C427.599 20.544 425.295 22.848 422.463 22.848C419.583 22.848 417.231 20.496 417.231 17.664C417.231 14.832 419.583 12.48 422.415 12.48ZM422.415 14.16C420.495 14.16 418.959 15.696 418.959 17.664C418.959 19.584 420.495 21.12 422.415 21.12C424.383 21.12 425.919 19.584 425.919 17.664C425.919 15.696 424.383 14.16 422.415 14.16ZM449.919 54.48L449.727 53.808C454.863 52.224 458.463 50.112 461.343 46.992C464.559 43.536 466.143 39.312 466.143 34.368C466.143 26.16 461.151 21.264 452.895 21.264C452.271 21.264 451.887 21.264 450.975 21.36C452.655 23.328 453.183 24.624 453.183 26.496C453.183 30.336 450.735 37.056 447.279 42.864C444.159 48.048 441.375 50.688 438.975 50.688C437.919 50.688 436.911 50.112 436.383 49.296C435.999 48.576 435.711 47.904 435.279 46.128C434.991 44.976 434.607 44.304 433.215 42.576C432.063 41.136 431.343 39.024 431.343 37.056C431.343 34.032 432.879 30.384 435.375 27.456C439.503 22.56 446.319 19.584 453.471 19.584C464.175 19.584 471.807 26.352 471.807 35.856C471.807 42.816 467.967 48.384 461.007 51.6C458.031 52.992 454.959 53.808 449.919 54.48ZM450.015 21.504C446.127 22.368 443.535 23.76 440.751 26.496C437.439 29.808 435.615 33.888 435.615 37.92C435.615 41.232 437.247 44.64 438.879 44.64C440.463 44.64 443.631 40.656 446.751 34.752C449.151 30.24 450.591 26.256 450.591 24.144C450.591 23.616 450.543 22.992 450.399 22.56C450.303 22.176 450.063 21.504 450.015 21.504ZM691.695 30.672C694.527 30.672 696.783 32.928 696.783 35.76C696.783 38.592 694.479 40.896 691.695 40.896C688.863 40.896 686.559 38.592 686.559 35.76C686.559 32.976 688.863 30.672 691.695 30.672ZM727.119 18.576L727.551 18.24C729.423 20.112 731.103 20.88 733.407 20.88C735.231 20.88 737.679 20.496 740.079 19.776C741.855 19.248 742.527 19.008 744.303 17.952C744.975 17.616 745.263 17.52 745.839 17.52C746.559 17.52 747.327 17.808 748.383 18.528C749.583 19.296 750.159 20.064 750.159 20.88C750.159 21.792 749.487 22.272 747.375 22.752C744.111 23.52 738.495 24.192 735.471 24.192C731.727 24.192 729.231 22.512 727.119 18.576ZM728.607 57.648L728.223 57.264C731.487 53.664 733.551 50.4 735.423 45.792C736.767 42.384 737.871 37.824 737.871 35.568C737.871 34.416 737.727 33.984 737.103 33.312C734.031 33.696 729.423 35.04 727.071 36.192C726.159 36.672 725.631 36.816 725.007 36.816C723.807 36.816 722.367 35.76 720.783 33.648C719.823 32.448 719.439 31.536 719.439 30.624C719.439 30.384 719.487 30.192 719.631 29.664C720.831 31.44 722.319 32.304 724.239 32.304C725.727 32.304 726.159 32.256 733.311 31.152C737.631 30.48 739.743 30.192 747.903 29.28C749.583 29.136 750.927 28.8 752.079 28.272C752.655 27.984 753.039 27.888 753.471 27.888C754.239 27.888 755.391 28.272 756.543 28.896C758.367 29.808 759.279 30.816 759.279 31.776C759.279 32.784 758.511 33.408 757.263 33.408C757.119 33.408 756.927 33.408 756.399 33.312C753.615 32.832 750.207 32.544 747.375 32.544C744.927 32.544 742.959 32.64 740.415 32.928C743.151 34.512 743.679 35.088 743.679 36.336C743.679 38.448 741.663 43.632 739.455 47.232C736.719 51.648 733.407 54.816 728.607 57.648ZM755.151 12.576L755.583 11.856C758.031 12.528 759.759 13.296 761.103 14.256C762.879 15.504 763.647 16.656 763.647 18.048C763.647 19.152 763.071 19.92 762.207 19.92C761.631 19.92 761.343 19.68 760.623 18.528C759.135 16.128 757.551 14.4 755.151 12.576ZM750.159 15.984L750.639 15.168C755.535 16.896 758.607 19.584 758.607 22.128C758.607 23.328 757.983 24.096 757.071 24.096C756.303 24.096 756.159 23.952 754.959 21.696C753.759 19.584 752.127 17.664 750.159 15.984ZM771.996 26.64L772.332 26.16C776.892 27.84 780.972 29.76 785.004 32.16C788.46 26.592 790.428 22.272 790.428 20.304C790.428 18.72 789.42 17.424 787.308 16.32C787.788 16.08 788.028 16.032 788.508 16.032C790.524 16.032 793.404 17.328 795.564 19.152C796.956 20.304 797.532 21.216 797.532 22.128C797.532 22.752 797.34 23.04 796.332 23.952C795.708 24.528 795.42 24.96 794.268 26.784C794.076 27.072 794.076 27.072 792.54 29.616C792.3 30 791.484 31.296 790.044 33.504C789.852 33.744 789.612 34.176 789.276 34.704C794.796 38.64 795.9 39.984 795.9 42.768C795.9 44.928 794.892 46.656 793.644 46.656C792.972 46.656 792.492 46.224 791.772 45.12C790.092 42.576 788.7 40.752 786.492 38.448C782.652 43.44 780.012 46.176 776.076 49.248C772.38 52.128 769.452 53.808 764.508 55.872L764.172 55.344C771.084 50.208 777.66 43.104 783.084 35.04C779.532 31.872 775.356 28.704 771.996 26.64ZM817.356 19.104C818.028 18.72 818.268 18.672 819.132 18.672C820.956 18.672 824.028 19.728 825.516 20.832C826.284 21.408 826.668 22.128 826.668 22.8C826.668 22.848 826.668 22.848 826.668 22.896C826.62 23.328 826.62 23.376 826.236 24.576C825.996 25.392 825.852 27.552 825.852 30.528C825.852 31.296 825.9 32.736 825.948 34.8C825.996 35.952 825.996 37.104 825.996 37.632C825.996 39.12 825.948 39.552 825.852 40.224C825.66 41.328 824.988 41.952 824.076 41.952C823.212 41.952 822.252 41.184 821.436 39.84C820.764 38.688 820.236 37.2 820.236 36.432C820.236 36.048 820.236 36.048 820.524 35.232C821.052 33.888 821.34 30.96 821.34 27.456C821.34 24.096 821.1 22.416 820.428 21.408C819.804 20.352 819.228 19.92 817.356 19.104ZM824.7 57.168L824.412 56.688C829.452 53.472 832.668 50.112 834.828 45.984C837.084 41.472 837.66 37.536 837.66 26.544C837.66 21.12 837.516 19.488 836.844 18.528C836.268 17.568 834.924 16.8 833.052 16.272C833.82 15.696 834.3 15.552 835.26 15.552C836.796 15.552 839.1 16.128 840.972 16.944C843.036 17.904 843.9 18.72 843.9 19.824C843.9 20.208 843.852 20.304 843.564 21.072C843.084 22.272 842.892 24.336 842.748 30.624C842.604 37.488 842.316 39.744 841.5 42.48C839.34 49.392 833.484 54.528 824.7 57.168ZM864.828 30.48L865.116 30.144C870.972 32.496 873.084 34.272 873.084 36.768C873.084 38.592 871.932 40.176 870.636 40.176C869.916 40.176 869.484 39.744 869.1 38.544C867.852 34.608 866.844 32.688 864.828 30.48ZM873.468 28.464L873.804 28.08C876.444 29.04 878.076 29.856 879.516 31.008C880.764 32.112 881.292 33.024 881.292 34.368C881.292 36.192 879.996 37.92 878.652 37.92C878.172 37.92 877.74 37.632 877.5 37.152C877.356 36.816 877.356 36.816 876.876 35.04C876.012 31.872 875.196 30.288 873.468 28.464ZM870.636 56.064L870.252 55.584C875.196 51.84 879.276 47.232 883.02 41.136C885.468 37.104 887.436 32.544 887.436 30.864C887.436 29.664 886.764 28.848 884.892 27.888C885.372 27.648 885.564 27.6 885.996 27.6C887.532 27.6 889.74 28.464 891.612 29.856C892.764 30.672 893.292 31.392 893.292 32.112C893.292 32.688 893.196 32.832 892.62 33.552C892.188 34.032 891.66 34.896 890.796 36.384C887.004 43.2 883.74 47.328 879.372 50.88C876.732 52.992 873.852 54.672 870.636 56.064ZM918.06 16.08C918.78 15.696 919.164 15.6 919.932 15.6C921.372 15.6 923.484 16.176 925.212 16.992C927.324 18.048 928.332 19.056 928.332 20.16C928.332 20.592 928.236 20.832 927.9 21.456C927.324 22.512 927.228 22.896 927.084 24.624C926.988 25.584 926.892 28.704 926.796 31.248C931.116 31.44 935.58 32.4 938.364 33.6C940.812 34.704 941.868 36.144 941.868 38.304C941.868 40.368 941.004 41.712 939.756 41.712C939.036 41.712 938.748 41.52 937.5 40.128C934.428 36.72 930.732 34.08 926.796 32.64C926.796 33.216 926.796 35.712 926.796 40.176C926.796 44.208 926.796 44.208 926.94 49.92C926.988 50.736 926.988 51.408 926.988 52.224C926.988 53.808 926.892 54.576 926.7 55.104C926.412 55.872 925.788 56.304 925.02 56.304C924.156 56.304 923.292 55.776 922.428 54.624C921.42 53.376 920.7 51.744 920.7 50.736C920.7 50.16 920.748 49.968 921.132 48.816C921.948 46.464 922.236 40.896 922.236 28.608C922.236 21.696 922.092 19.872 921.372 18.576C920.844 17.568 919.74 16.704 918.06 16.08Z" fill="#006281"/>
<path d="M487.839 26.64L488.175 26.16C492.735 27.84 496.815 29.76 500.847 32.16C504.303 26.592 506.271 22.272 506.271 20.304C506.271 18.72 505.263 17.424 503.151 16.32C503.631 16.08 503.871 16.032 504.351 16.032C506.367 16.032 509.247 17.328 511.407 19.152C512.799 20.304 513.375 21.216 513.375 22.128C513.375 22.752 513.183 23.04 512.175 23.952C511.551 24.528 511.263 24.96 510.111 26.784C509.919 27.072 509.919 27.072 508.383 29.616C508.143 30 507.327 31.296 505.887 33.504C505.695 33.744 505.455 34.176 505.119 34.704C510.639 38.64 511.743 39.984 511.743 42.768C511.743 44.928 510.735 46.656 509.487 46.656C508.815 46.656 508.335 46.224 507.615 45.12C505.935 42.576 504.543 40.752 502.335 38.448C498.495 43.44 495.855 46.176 491.919 49.248C488.223 52.128 485.295 53.808 480.351 55.872L480.015 55.344C486.927 50.208 493.503 43.104 498.927 35.04C495.375 31.872 491.199 28.704 487.839 26.64ZM533.199 19.104C533.871 18.72 534.111 18.672 534.975 18.672C536.799 18.672 539.871 19.728 541.359 20.832C542.127 21.408 542.511 22.128 542.511 22.8C542.511 22.848 542.511 22.848 542.511 22.896C542.463 23.328 542.463 23.376 542.079 24.576C541.839 25.392 541.695 27.552 541.695 30.528C541.695 31.296 541.743 32.736 541.791 34.8C541.839 35.952 541.839 37.104 541.839 37.632C541.839 39.12 541.791 39.552 541.695 40.224C541.503 41.328 540.831 41.952 539.919 41.952C539.055 41.952 538.095 41.184 537.279 39.84C536.607 38.688 536.079 37.2 536.079 36.432C536.079 36.048 536.079 36.048 536.367 35.232C536.895 33.888 537.183 30.96 537.183 27.456C537.183 24.096 536.943 22.416 536.271 21.408C535.647 20.352 535.071 19.92 533.199 19.104ZM540.543 57.168L540.255 56.688C545.295 53.472 548.511 50.112 550.671 45.984C552.927 41.472 553.503 37.536 553.503 26.544C553.503 21.12 553.359 19.488 552.687 18.528C552.111 17.568 550.767 16.8 548.895 16.272C549.663 15.696 550.143 15.552 551.103 15.552C552.639 15.552 554.943 16.128 556.815 16.944C558.879 17.904 559.743 18.72 559.743 19.824C559.743 20.208 559.695 20.304 559.407 21.072C558.927 22.272 558.735 24.336 558.591 30.624C558.447 37.488 558.159 39.744 557.343 42.48C555.183 49.392 549.327 54.528 540.543 57.168ZM580.671 30.48L580.959 30.144C586.815 32.496 588.927 34.272 588.927 36.768C588.927 38.592 587.775 40.176 586.479 40.176C585.759 40.176 585.327 39.744 584.943 38.544C583.695 34.608 582.687 32.688 580.671 30.48ZM589.311 28.464L589.647 28.08C592.287 29.04 593.919 29.856 595.359 31.008C596.607 32.112 597.135 33.024 597.135 34.368C597.135 36.192 595.839 37.92 594.495 37.92C594.015 37.92 593.583 37.632 593.343 37.152C593.199 36.816 593.199 36.816 592.719 35.04C591.855 31.872 591.039 30.288 589.311 28.464ZM586.479 56.064L586.095 55.584C591.039 51.84 595.119 47.232 598.863 41.136C601.311 37.104 603.279 32.544 603.279 30.864C603.279 29.664 602.607 28.848 600.735 27.888C601.215 27.648 601.407 27.6 601.839 27.6C603.375 27.6 605.583 28.464 607.455 29.856C608.607 30.672 609.135 31.392 609.135 32.112C609.135 32.688 609.039 32.832 608.463 33.552C608.031 34.032 607.503 34.896 606.639 36.384C602.847 43.2 599.583 47.328 595.215 50.88C592.575 52.992 589.695 54.672 586.479 56.064ZM633.903 16.08C634.623 15.696 635.007 15.6 635.775 15.6C637.215 15.6 639.327 16.176 641.055 16.992C643.167 18.048 644.175 19.056 644.175 20.16C644.175 20.592 644.079 20.832 643.743 21.456C643.167 22.512 643.071 22.896 642.927 24.624C642.831 25.584 642.735 28.704 642.639 31.248C646.959 31.44 651.423 32.4 654.207 33.6C656.655 34.704 657.711 36.144 657.711 38.304C657.711 40.368 656.847 41.712 655.599 41.712C654.879 41.712 654.591 41.52 653.343 40.128C650.271 36.72 646.575 34.08 642.639 32.64C642.639 33.216 642.639 35.712 642.639 40.176C642.639 44.208 642.639 44.208 642.783 49.92C642.831 50.736 642.831 51.408 642.831 52.224C642.831 53.808 642.735 54.576 642.543 55.104C642.255 55.872 641.631 56.304 640.863 56.304C639.999 56.304 639.135 55.776 638.271 54.624C637.263 53.376 636.543 51.744 636.543 50.736C636.543 50.16 636.591 49.968 636.975 48.816C637.791 46.464 638.079 40.896 638.079 28.608C638.079 21.696 637.935 19.872 637.215 18.576C636.687 17.568 635.583 16.704 633.903 16.08Z" fill="#D44392"/>
<rect width="5" height="72" fill="#006281"/>
<rect x="992" width="5" height="72" fill="#006281"/>
</svg>
