<svg width="340" height="89" viewBox="0 0 340 89" fill="none" xmlns="http://www.w3.org/2000/svg">
<path d="M0 11H324.65L340 44.5L324.65 78H0V11Z" fill="#DB952F"/>
<path d="M37.0172 43.6682L36.9902 43.9652C36.3692 44.3432 36.1262 44.5592 35.8022 45.0722C35.5592 45.4772 35.2892 46.0172 35.1812 46.3412C35.1002 46.5842 35.0192 46.6652 34.8842 46.6652C34.4252 46.6652 32.8592 44.9642 31.6712 43.1822C30.2672 44.7752 29.1602 45.7202 27.2432 46.8812C29.2412 47.0972 29.5652 47.1782 29.5652 47.5022C29.5652 47.7452 29.2952 47.9072 28.5392 48.1232V49.9322H31.1312C31.8602 49.0142 32.1032 48.7442 32.8592 47.8802C34.0472 48.7982 34.4252 49.0952 35.6132 50.0942C35.6942 50.2022 35.7482 50.2562 35.7482 50.3372C35.7482 50.4182 35.6132 50.4992 35.4242 50.4992H28.5392V54.6842H32.1032C32.9402 53.6582 33.2102 53.3342 34.0202 52.3892C35.2622 53.4422 35.6402 53.7662 36.8012 54.8192C36.9092 54.9272 36.9632 55.0082 36.9632 55.0622C36.9632 55.1702 36.8282 55.2512 36.6392 55.2512H20.3852C19.6292 55.2512 19.0892 55.3052 18.4142 55.4402L18.2252 54.4412C18.9542 54.6302 19.5482 54.6842 20.4662 54.6842H25.6772V50.4992H22.0322C21.3302 50.4992 20.8172 50.5532 20.2502 50.6882L20.0612 49.6892C20.7902 49.8782 21.3302 49.9322 22.0322 49.9322H25.6772V49.6622C25.6772 48.4742 25.6502 47.9342 25.5962 46.7192L27.0812 46.8812L26.9462 46.7462C27.3512 46.3142 27.4862 46.2062 27.8102 45.8282H22.0322V46.6112C22.0322 47.1782 21.7892 47.2862 20.5472 47.2862C19.6292 47.2862 19.4942 47.2322 19.4942 46.7732C19.6022 44.5862 19.6022 44.4242 19.6022 41.4542V38.0792H16.9562V40.2662C17.6582 40.6982 17.9282 40.9142 18.4952 41.4542C19.1702 42.1562 19.4402 42.7232 19.4402 43.3982C19.4402 44.2622 18.8732 45.1802 18.3332 45.1802C18.0092 45.1802 17.9822 45.0722 17.8742 43.9922C17.7392 42.5342 17.4422 41.5082 16.9562 40.8332C16.9562 47.4752 16.9562 48.9872 17.0102 55.5752C17.0102 56.2232 16.7402 56.3312 15.2552 56.3312C14.2832 56.3312 14.1212 56.2502 14.1212 55.7102C14.1482 55.3322 14.2292 52.5512 14.3642 47.3132L14.4182 44.3432C13.2842 47.1782 12.5552 48.3662 10.8812 50.1752L10.6382 49.9592C12.2042 46.6382 13.3112 42.7232 14.0402 38.0792H12.8522C12.3122 38.0792 11.8802 38.1332 11.3942 38.2412L11.2052 37.2692C11.8262 37.4312 12.3662 37.5122 12.8522 37.5122H14.2832V34.8932C14.2832 33.5702 14.2562 32.8952 14.1482 31.4102C17.7662 31.7342 18.0362 31.7612 18.0362 32.1122C18.0362 32.3282 17.8742 32.4362 16.9562 32.7872V37.5122H17.1992C17.7122 36.7022 17.7122 36.7022 18.1982 36.0002C18.9002 36.6752 19.0622 36.8642 19.6022 37.4852C19.6022 36.7292 19.6022 36.0812 19.6022 35.5952C19.6022 34.0832 19.5752 33.3002 19.5212 31.7882C20.7632 32.3282 21.1412 32.4902 22.2482 33.1652H25.4882L26.7572 31.6802C27.5942 32.4092 27.8372 32.6252 28.4582 33.1652H32.9672C33.4262 32.7062 33.8852 32.2202 34.3442 31.7612C35.0462 32.3282 35.7212 32.8682 36.3692 33.4082C36.5852 33.5972 36.6662 33.7322 36.6662 33.8402C36.6662 34.0562 36.4502 34.1912 35.7482 34.4612C35.0192 37.5122 34.3172 39.3212 33.0752 41.3192C34.3712 42.4802 35.2352 42.9932 37.0172 43.6682ZM25.8122 42.0482V45.2612H26.1902L27.0542 43.9652C27.6752 44.5862 27.8642 44.7482 28.2962 45.2612C29.3222 43.8842 29.8082 43.1552 30.6992 41.4542C29.7272 39.4022 29.2142 37.2962 28.9172 33.7322H25.8122V37.0262H26.1632C26.5682 36.5402 26.7032 36.3782 27.1352 35.9462C27.7022 36.3782 27.8642 36.5132 28.3772 36.9992C28.5662 37.1612 28.6472 37.2692 28.6472 37.3772C28.6472 37.5392 28.5122 37.6472 27.8912 37.9172C27.8912 40.2122 27.8912 40.2122 27.9182 41.4272C27.9182 41.6432 27.8912 41.7512 27.8102 41.8322C27.6752 41.9672 26.9192 42.0752 26.2712 42.0752C26.2442 42.0752 26.2172 42.0752 26.1632 42.0752C26.0822 42.0752 25.9742 42.0482 25.8122 42.0482ZM23.6252 41.4542H22.0322V45.2612H23.6252V41.4542ZM22.0052 40.8872H25.5422V37.5932H22.0052V40.8872ZM22.0052 37.0262H23.6252V33.7322H22.0052V37.0262ZM33.0482 33.7322H29.4032C29.9162 36.5942 30.4022 37.9172 31.5362 39.5912C32.2922 37.6472 32.6702 36.2162 33.0482 33.7322ZM52.2992 52.7132H58.5632V39.9692C58.5632 38.8892 58.5092 37.6472 58.4012 36.5942C59.3192 36.7022 59.9672 36.7832 60.4262 36.8372C62.2622 37.0262 62.7752 37.1882 62.7752 37.5122C62.7752 37.8092 62.4512 38.0252 61.6682 38.2682C61.6412 40.1312 61.6412 41.6432 61.6412 42.5612C61.6412 47.1512 61.6952 51.4982 61.8032 54.9272C61.8032 55.3322 61.6682 55.5212 61.3442 55.6562C61.0472 55.7642 60.2372 55.8722 59.5352 55.8722C58.7522 55.8722 58.6172 55.7912 58.5632 55.2512V53.2802H43.2002V54.8192C43.2002 55.1702 43.1462 55.3322 42.9572 55.4672C42.7142 55.6562 41.9312 55.7912 41.0402 55.7912C40.1492 55.7912 39.9602 55.6562 39.9602 55.0082C40.0682 51.2822 40.1222 48.1772 40.1222 44.2892C40.1222 39.8882 40.0952 38.2142 39.9332 36.5402C43.4162 36.9722 43.5782 36.9722 43.9022 37.1072C44.1182 37.2152 44.2262 37.3232 44.2262 37.4852C44.2262 37.7822 43.9832 37.9442 43.2002 38.1872V52.7132H49.0862V36.3242C49.0862 34.7852 49.0052 32.9762 48.8972 31.8422C53.0552 32.2472 53.4872 32.3282 53.4872 32.7602C53.4872 33.0842 53.1902 33.2732 52.2992 33.5162V52.7132ZM79.3532 35.1632V53.1452H84.9422C85.6982 52.2272 86.4542 51.3362 87.2102 50.4722C88.6682 51.6332 89.1272 52.0112 90.5582 53.2262C90.6392 53.3342 90.7472 53.4692 90.7472 53.5232C90.7472 53.6312 90.6122 53.7122 90.3962 53.7122H68.2292C67.4192 53.7122 66.4202 53.7662 65.7182 53.8742L65.5562 52.8752C66.3392 53.0372 67.3112 53.1452 68.2292 53.1452H76.1402V35.1632H69.4982C68.6342 35.1632 68.0942 35.1902 67.3652 35.2982L67.2032 34.3532C67.9592 34.5152 68.7422 34.5962 69.4982 34.5962H83.5652C84.5102 33.5162 84.8072 33.1922 85.7522 32.1392C87.1832 33.2462 87.6152 33.5972 89.0192 34.8122C89.1002 34.8932 89.1542 34.9742 89.1542 35.0282C89.1542 35.1092 89.0462 35.1632 88.8842 35.1632H79.3532ZM117.558 37.0802H108.351C111.834 38.3762 111.834 38.3762 111.834 38.6732C111.834 38.9432 111.51 39.0512 110.781 39.0512C110.754 39.0512 110.673 39.0512 110.592 39.0242C108.324 40.6172 108.324 40.6172 107.568 41.0762H111.78C112.59 40.2662 112.86 39.9962 113.643 39.2132C114.831 40.0772 115.209 40.3472 116.316 41.2922C116.397 41.3732 116.451 41.4272 116.451 41.5082C116.451 41.5892 116.316 41.6432 116.154 41.6432H106.137V44.0732H110.268C111.051 43.2632 111.294 43.0202 112.05 42.2642C113.184 43.1012 113.508 43.3442 114.561 44.2352C114.669 44.3162 114.723 44.4242 114.723 44.4782C114.723 44.5862 114.588 44.6402 114.399 44.6402H106.137V47.2322H112.347C113.211 46.3412 113.481 46.0982 114.318 45.2612C115.533 46.1522 115.884 46.4492 117.018 47.3942C117.126 47.4752 117.18 47.5562 117.18 47.6372C117.18 47.7452 117.045 47.7992 116.829 47.7992H106.488C107.622 48.9332 108.459 49.5272 109.62 50.0672C111.861 51.0932 114.264 51.6332 117.639 51.8492V52.2272C116.694 52.6322 116.262 53.1452 115.749 54.5492C115.587 55.0082 115.56 55.0352 115.344 55.0352C114.993 55.0352 113.454 54.4682 112.347 53.9552C109.755 52.6862 108 51.0662 106.137 48.2042V50.9042C106.137 52.2002 106.137 53.1722 106.218 55.6022C106.218 56.1692 105.867 56.2772 104.22 56.2772C103.329 56.2772 103.194 56.1962 103.194 55.7372C103.248 54.2792 103.329 51.6602 103.329 51.0392V49.3922C101.277 51.3362 99.9812 52.2542 98.0642 53.2262C96.4712 54.0362 95.1482 54.4952 92.4752 55.2242L92.3132 54.9002C94.6352 53.7122 96.4172 52.5242 98.2802 50.8502C99.3872 49.8512 100.008 49.1762 101.115 47.7992H95.2292C94.6352 47.7992 93.9602 47.8532 93.2852 47.9882L93.1502 46.9892C94.0142 47.1782 94.5272 47.2322 95.2292 47.2322H103.329V44.6402H97.7132C96.9842 44.6402 96.3632 44.6942 95.6072 44.8022L95.4452 43.8302C96.2552 43.9922 96.8762 44.0732 97.7132 44.0732H103.329V41.6432H96.1202C95.4452 41.6432 95.0402 41.6702 94.3112 41.8052L94.1492 40.8332C94.9052 41.0222 95.4452 41.0762 96.1202 41.0762H100.71C100.494 40.8602 100.44 40.7252 100.332 40.2662C100.008 38.9162 99.7382 38.2412 99.0092 37.2962L99.2252 37.0802H94.7432C93.9602 37.0802 93.3392 37.1342 92.8262 37.2152L92.6642 36.2432C93.3932 36.4322 94.0682 36.5132 94.7432 36.5132H101.142V33.9482C101.142 32.7602 101.115 32.3012 101.007 31.3022C104.004 31.5182 104.22 31.5452 104.517 31.6532C104.706 31.7072 104.814 31.8152 104.814 31.9502C104.814 32.1932 104.598 32.3282 103.788 32.5442V36.5132H105.786V33.9212C105.786 32.8952 105.759 32.4092 105.705 31.3562C109.107 31.5722 109.485 31.6262 109.485 32.0042C109.485 32.2202 109.269 32.3552 108.459 32.5982V36.5132H109.512C110.538 34.6502 111.321 32.8412 111.672 31.5992C114.534 32.6522 115.371 33.0302 115.371 33.3272C115.371 33.5702 115.047 33.6782 114.291 33.6782C114.264 33.6782 114.183 33.6782 114.075 33.6782C111.861 35.6222 111.753 35.7032 110.538 36.5132H113.211C114.021 35.6762 114.021 35.6762 115.047 34.5692C116.235 35.4602 116.586 35.7302 117.747 36.7292C117.828 36.8102 117.882 36.8912 117.882 36.9452C117.882 37.0262 117.747 37.0802 117.558 37.0802ZM108.054 37.0802H99.2252C101.952 38.0252 102.951 38.7002 102.951 39.5912C102.951 40.1852 102.6 40.7252 102.033 41.0762H106.299C107.19 39.6182 107.649 38.5922 108.054 37.0802ZM95.2292 31.9232L95.4452 31.7072C98.5502 32.7332 99.6032 33.4352 99.6032 34.5152C99.6032 35.4062 98.7122 36.4322 97.9292 36.4322C97.4702 36.4322 97.2002 36.1082 97.0382 35.3522C96.7682 34.1912 96.2822 33.2732 95.2292 31.9232ZM137.052 42.8852H139.995C140.751 41.9132 141.021 41.5892 141.75 40.5902C143.019 41.6162 143.397 41.9402 144.585 42.9932C144.693 43.1282 144.747 43.2092 144.747 43.2632C144.747 43.3712 144.612 43.4522 144.45 43.4522H137.322C137.862 44.7482 138.591 45.8552 139.617 46.9892C141.264 48.7172 142.965 49.7972 145.233 50.5262V50.7962C144.234 51.4712 143.937 51.9842 143.586 53.6852C143.505 53.9552 143.424 54.0902 143.262 54.0902C143.019 54.0902 142.101 53.3072 141.264 52.3892C139.374 50.2832 138.267 48.0962 137.079 44.0462L137.106 48.7712C137.133 52.3622 137.133 52.3622 137.214 55.5212C137.214 55.8452 137.16 56.0072 136.998 56.0882C136.728 56.2772 136.026 56.3852 135.135 56.3852C134.325 56.3852 134.136 56.2772 134.136 55.7912C134.271 52.4972 134.271 52.4972 134.298 49.5542L134.325 47.1242C131.949 50.5262 130.005 52.2272 126.333 54.1442L126.171 53.9282C128.466 51.6602 129.546 50.3102 130.977 47.8532C131.868 46.2872 132.543 44.9372 133.11 43.4522H129.033C129.195 43.7762 129.222 43.9382 129.222 44.1812C129.222 45.2342 128.358 46.3412 127.548 46.3412C127.116 46.3412 126.9 46.0172 126.846 45.1802C126.684 43.2902 126.36 42.2912 125.604 41.1572C125.604 41.8052 125.604 41.8052 125.604 42.4802C125.604 48.2582 125.604 52.3892 125.631 55.4672C125.631 56.1692 125.28 56.3042 123.552 56.3042C122.823 56.3042 122.634 56.1962 122.634 55.7372C122.769 52.6592 122.769 52.6592 122.877 46.7192L122.931 44.3702C121.797 46.9352 120.825 48.4472 119.178 50.2022L118.908 50.0132C120.015 47.7992 120.663 46.0172 121.446 43.1822C121.986 41.2382 122.202 40.2662 122.553 38.1332H120.933C120.312 38.1332 120.015 38.1602 119.475 38.2952L119.259 37.3232C119.853 37.5122 120.285 37.5662 120.933 37.5662H122.769V34.8122C122.769 33.5162 122.742 32.8412 122.607 31.5452C123.444 31.6262 124.065 31.6802 124.497 31.7072C126.144 31.8692 126.603 31.9772 126.603 32.2742C126.603 32.5172 126.333 32.6792 125.604 32.9222V37.5662H126.009C126.576 36.7832 126.765 36.5402 127.305 35.8382C128.25 36.6482 128.466 36.8372 129.357 37.7012C129.87 35.7572 130.032 34.8392 130.194 32.9762C133.596 33.8132 134.001 33.9482 134.001 34.2452C134.001 34.4612 133.785 34.5692 132.975 34.7582C132.408 36.0812 132.138 36.5672 131.652 37.4582H134.19V34.5692C134.19 33.0032 134.19 32.5982 134.136 31.4642C134.919 31.5722 135.513 31.6532 135.918 31.6802C137.862 31.8962 138.159 31.9772 138.159 32.3012C138.159 32.5442 137.889 32.7062 137.052 33.0302V37.4582H139.266C140.022 36.5132 140.265 36.1892 140.994 35.2982C142.236 36.2702 142.587 36.5672 143.775 37.6202C143.883 37.7282 143.937 37.8092 143.937 37.8632C143.937 37.9712 143.829 38.0252 143.667 38.0252H137.052V42.8852ZM134.19 42.8852V38.0252H131.328C130.545 39.3482 129.384 40.7252 128.115 41.8592L127.899 41.6972C128.52 40.2932 128.763 39.6722 129.249 38.1332H125.604V40.6712C127.035 41.3732 127.737 41.8862 128.682 42.8852H134.19ZM149.229 37.1612H160.623C160.596 36.3782 160.569 35.9192 160.569 34.9472C160.515 33.2192 160.488 32.7062 160.353 31.5452C163.944 31.8692 164.133 31.8962 164.457 32.0582C164.565 32.1122 164.646 32.2472 164.646 32.3282C164.646 32.5982 164.376 32.7602 163.539 32.9762C163.512 34.2722 163.512 35.0552 163.512 35.3792C163.512 35.8652 163.512 36.1622 163.539 37.1612H166.536C166.968 36.6752 167.076 36.5402 167.373 36.1892C166.914 36.1352 166.86 36.0542 166.536 35.0822C166.212 34.1912 165.78 33.4622 164.808 32.2472L164.916 32.0312C166.536 32.4362 167.157 32.6252 167.778 32.9492C168.696 33.4082 169.074 33.8672 169.074 34.4882C169.074 34.7852 169.02 34.9742 168.831 35.3522C169.992 36.1892 170.181 36.3512 171.261 37.2692C171.369 37.4042 171.423 37.4852 171.423 37.5662C171.423 37.6742 171.288 37.7282 171.099 37.7282H163.566C163.647 40.1042 163.809 41.7512 164.079 43.2632C164.457 45.4232 165.267 47.5562 166.32 49.1492C166.887 50.0132 167.373 50.5262 168.642 51.5522C169.776 49.3922 170.1 48.6902 171.099 46.4762L171.396 46.5572L170.586 51.2282C170.532 51.5522 170.478 51.9572 170.478 52.1732C170.478 52.5242 170.559 52.6862 170.991 53.1722C171.315 53.5772 171.45 53.8742 171.45 54.2792C171.45 55.1432 170.775 55.8722 169.992 55.8722C168.912 55.8722 167.454 54.9542 165.888 53.3342C163.215 50.5532 161.676 46.9352 161.028 41.9402C160.839 40.6172 160.758 39.5372 160.65 37.7282H149.229C148.23 37.7282 147.582 37.7822 146.934 37.9172L146.772 36.8912C147.474 37.0532 148.419 37.1612 149.229 37.1612ZM155.412 42.9932V49.8782C157.356 49.4732 159.057 49.0412 161.352 48.3932L161.46 48.7172C158.22 50.5532 153.819 52.5512 149.283 54.2252C149.148 55.2512 149.013 55.6022 148.716 55.6022C148.392 55.6022 148.176 55.0352 147.042 51.3362C148.446 51.2282 149.337 51.0932 152.442 50.4992V42.9932H149.769C149.094 42.9932 148.527 43.0472 147.906 43.2092L147.744 42.1562C148.419 42.3452 149.094 42.4262 149.769 42.4262H155.79C156.6 41.5082 156.87 41.2112 157.653 40.3472C158.841 41.2922 159.219 41.5892 160.407 42.5882C160.515 42.7232 160.542 42.7772 160.542 42.8312C160.542 42.9392 160.434 42.9932 160.299 42.9932H155.412ZM197.316 46.4222H185.949C183.897 49.1492 182.439 50.8502 180.765 52.4162C185.787 52.3352 188.325 52.2002 191.052 51.9572C189.972 50.0402 189.486 49.3382 188.055 47.8262L188.271 47.6102C190.431 48.6362 191.835 49.4732 193.239 50.5802C194.643 51.7142 195.21 52.4702 195.21 53.2802C195.21 54.6842 194.238 56.1422 193.32 56.1422C192.969 56.1422 192.861 56.0072 192.564 55.3052C192.051 53.9282 191.889 53.5772 191.484 52.7402C191.241 52.8212 191.241 52.8212 190.863 52.9292C188.109 53.6582 182.979 54.6842 177.471 55.5482C177.282 56.3582 177.147 56.6282 176.877 56.6282C176.58 56.6282 176.58 56.6282 175.581 52.3082C176.661 52.4162 177.309 52.4432 178.632 52.4432C178.659 52.4432 179.199 52.4432 179.523 52.4432C180.549 50.2292 181.035 48.9332 181.791 46.4222H176.391C175.797 46.4222 175.419 46.4492 174.717 46.5842L174.501 45.6122C175.284 45.8012 175.824 45.8552 176.472 45.8552H192.159C193.023 44.8292 193.293 44.5322 194.157 43.5602C195.615 44.5862 196.074 44.8832 197.451 45.9902C197.559 46.0712 197.613 46.1792 197.613 46.2332C197.613 46.3412 197.478 46.4222 197.316 46.4222ZM173.367 44.1272L173.178 43.8302C175.689 41.9942 177.579 40.2392 179.442 37.9712C181.494 35.4872 182.709 33.4352 183.357 31.4102C184.275 31.5992 185.004 31.7342 185.49 31.8422C187.434 32.2202 188.028 32.4092 188.028 32.7062C188.028 32.9492 187.812 33.0572 186.921 33.2462C188.514 35.4872 189.918 36.7022 192.348 37.9442C194.427 38.9972 196.101 39.5102 199.017 39.9692V40.2662C198.126 40.6442 197.694 41.1302 197.181 42.2372C197.073 42.4802 196.938 42.9122 196.857 43.1282C196.776 43.3982 196.695 43.4792 196.533 43.4792C196.263 43.4792 195.183 42.9932 194.211 42.3992C192.213 41.2112 190.404 39.5642 188.838 37.5122C187.677 36.0002 187.11 35.0282 186.516 33.4622C183.168 38.5112 179.037 41.8592 173.367 44.1272ZM179.496 42.1832L179.28 41.2652C180.036 41.4272 180.549 41.4812 181.278 41.4812H186.786C187.623 40.4822 187.893 40.1852 188.757 39.2672C190.08 40.2392 190.485 40.5632 191.808 41.6162C191.943 41.7242 191.997 41.8052 191.997 41.8862C191.997 41.9942 191.889 42.0482 191.673 42.0482H181.116C180.576 42.0482 180.225 42.0752 179.496 42.1832ZM207.009 42.9392V43.2092C208.17 43.5062 208.548 43.6412 209.385 43.9922C211.248 44.7752 211.95 45.4772 211.95 46.5032C211.95 47.5562 211.14 48.6362 210.357 48.6362C209.979 48.6362 209.763 48.3662 209.439 47.5562C208.629 45.5042 207.981 44.4512 207.009 43.6412V49.6352C207.009 52.4162 207.009 53.9282 207.063 55.6292C207.063 55.8992 207.009 56.0072 206.847 56.1152C206.577 56.3042 205.929 56.4122 205.119 56.4122C204.201 56.4122 203.958 56.2772 203.931 55.7912C204.012 53.6042 204.093 51.0662 204.093 49.8512V45.7742C202.932 46.7192 202.122 47.2592 200.259 48.3662L200.043 48.0422C201.798 46.4492 202.878 45.2072 204.174 43.3172C205.632 41.1842 206.442 39.6722 207.198 37.5932H202.365C201.474 37.5932 201.15 37.6202 200.556 37.7282L200.367 36.7562C201.015 36.9452 201.663 37.0262 202.392 37.0262H204.012V33.9482C204.012 32.9492 203.985 32.5712 203.85 31.6802C207.846 32.0312 208.008 32.0852 208.008 32.4362C208.008 32.6792 207.765 32.8412 206.955 33.1382V37.0262H207.657C208.251 36.2972 208.413 36.1082 209.061 35.4332C210.06 36.2702 210.357 36.5402 211.275 37.3772C211.518 37.6472 211.572 37.7282 211.572 37.8092C211.572 38.0792 211.329 38.1872 210.195 38.4032C209.007 40.4012 208.197 41.5892 207.009 42.9392ZM215.406 41.4542H212.247C211.356 41.4542 211.005 41.4812 210.33 41.6162L210.141 40.6442C210.951 40.8332 211.356 40.8872 212.247 40.8872H215.406V35.2442C215.406 33.7862 215.352 33.0572 215.19 31.6532C216.081 31.7342 216.783 31.7882 217.242 31.8152C219.132 31.9772 219.645 32.1122 219.645 32.4362C219.645 32.7062 219.321 32.8952 218.484 33.1652V40.8872H220.185C221.076 39.8342 221.346 39.5102 222.21 38.4572C223.587 39.5102 223.992 39.8612 225.261 41.0222C225.369 41.1302 225.396 41.2112 225.396 41.2652C225.396 41.3732 225.288 41.4542 225.126 41.4542H218.484V54.4682H220.482C221.508 53.2802 221.508 53.2802 222.642 51.9842C223.965 53.0912 224.37 53.4422 225.666 54.6572C225.774 54.7652 225.801 54.8192 225.801 54.9002C225.801 54.9812 225.693 55.0352 225.531 55.0352H210.924C209.952 55.0352 209.493 55.0622 208.764 55.1972L208.548 54.2522C209.304 54.4142 209.979 54.4682 210.897 54.4682H215.406V41.4542Z" fill="white"/>
<path fill-rule="evenodd" clip-rule="evenodd" d="M278.688 49.4437L253.337 89L247 79.1127L269.183 44.5L247 9.88733L253.337 0L278.688 39.5563C279.528 40.8676 280 42.6458 280 44.5C280 46.3541 279.528 48.1324 278.688 49.4437Z" fill="#0180BB"/>
<path fill-rule="evenodd" clip-rule="evenodd" d="M306.688 49.4437L281.337 89L275 79.1127L297.183 44.5L275 9.88733L281.337 0L306.688 39.5563C307.528 40.8676 308 42.6458 308 44.5C308 46.3541 307.528 48.1324 306.688 49.4437Z" fill="#0180BB"/>
</svg>
