<svg width="816" height="112" viewBox="0 0 816 112" fill="none" xmlns="http://www.w3.org/2000/svg">
<path d="M0 14.1123H778.312L815.136 56.3982L778.312 98.6841H0V14.1123Z" fill="#DB952F"/>
<path d="M284.427 56.3688L284.386 56.8207C283.441 57.3959 283.072 57.7246 282.579 58.5052C282.209 59.1214 281.798 59.9431 281.634 60.4361C281.51 60.8059 281.387 60.9292 281.182 60.9292C280.483 60.9292 278.1 58.3408 276.293 55.6292C274.156 58.0532 272.472 59.4912 269.555 61.2578C272.595 61.5865 273.088 61.7098 273.088 62.2028C273.088 62.5726 272.677 62.8191 271.527 63.1477V65.9004H275.471C276.58 64.5035 276.95 64.0927 278.1 62.778C279.908 64.1749 280.483 64.6268 282.291 66.1469C282.414 66.3113 282.496 66.3934 282.496 66.5167C282.496 66.6399 282.291 66.7632 282.003 66.7632H271.527V73.1313H276.95C278.224 71.5701 278.634 71.0771 279.867 69.6391C281.757 71.2414 282.332 71.7345 284.099 73.3368C284.263 73.5011 284.345 73.6244 284.345 73.7065C284.345 73.8709 284.14 73.9941 283.852 73.9941H259.119C257.969 73.9941 257.147 74.0763 256.12 74.2817L255.832 72.7616C256.942 73.0492 257.846 73.1313 259.242 73.1313H267.172V66.7632H261.625C260.557 66.7632 259.777 66.8454 258.914 67.0508L258.626 65.5307C259.735 65.8182 260.557 65.9004 261.625 65.9004H267.172V65.4896C267.172 63.6818 267.131 62.8601 267.049 61.0113L269.308 61.2578L269.103 61.0524C269.719 60.3951 269.924 60.2307 270.417 59.6555H261.625V60.847C261.625 61.7098 261.256 61.8741 259.366 61.8741C257.969 61.8741 257.763 61.7919 257.763 61.0935C257.928 57.7656 257.928 57.5191 257.928 52.9998V47.8642H253.901V51.1921C254.97 51.8494 255.38 52.1781 256.243 52.9998C257.27 54.068 257.681 54.9308 257.681 55.9579C257.681 57.2726 256.818 58.6695 255.997 58.6695C255.504 58.6695 255.463 58.5052 255.298 56.8618C255.093 54.6432 254.641 53.082 253.901 52.0549C253.901 62.1617 253.901 64.4625 253.984 74.4871C253.984 75.4732 253.573 75.6375 251.313 75.6375C249.834 75.6375 249.588 75.5142 249.588 74.6926C249.629 74.1174 249.752 69.8856 249.957 61.9152L250.039 57.3959C248.314 61.7098 247.205 63.5175 244.657 66.2702L244.288 65.9415C246.671 60.8881 248.355 54.9308 249.464 47.8642H247.657C246.835 47.8642 246.177 47.9464 245.438 48.1107L245.15 46.6317C246.095 46.8782 246.917 47.0014 247.657 47.0014H249.834V43.0162C249.834 41.0031 249.793 39.9759 249.629 37.7163C255.134 38.2093 255.545 38.2504 255.545 38.7845C255.545 39.1132 255.298 39.2775 253.901 39.8116V47.0014H254.271C255.052 45.7689 255.052 45.7689 255.791 44.7007C256.86 45.7278 257.106 46.0154 257.928 46.9603C257.928 45.81 257.928 44.8239 257.928 44.0844C257.928 41.7837 257.887 40.5922 257.804 38.2915C259.694 39.1132 260.27 39.3597 261.954 40.3868H266.884L268.815 38.1271C270.089 39.2364 270.459 39.5651 271.404 40.3868H278.265C278.963 39.6883 279.662 38.9488 280.36 38.2504C281.428 39.1132 282.455 39.9349 283.441 40.7566C283.77 41.0441 283.893 41.2496 283.893 41.4139C283.893 41.7426 283.565 41.948 282.496 42.3589C281.387 47.0014 280.319 49.7541 278.429 52.7944C280.401 54.561 281.716 55.3416 284.427 56.3688ZM267.377 53.9037V58.7928H267.952L269.267 56.8207C270.212 57.7656 270.5 58.0121 271.157 58.7928C272.718 56.6974 273.458 55.5881 274.814 52.9998C273.335 49.8774 272.554 46.6728 272.102 41.2496H267.377V46.2619H267.911C268.528 45.5224 268.733 45.2759 269.39 44.6185C270.253 45.2759 270.5 45.4813 271.28 46.2208C271.568 46.4673 271.691 46.6317 271.691 46.796C271.691 47.0425 271.486 47.2069 270.541 47.6177C270.541 51.1099 270.541 51.1099 270.582 52.9587C270.582 53.2874 270.541 53.4517 270.417 53.575C270.212 53.7804 269.062 53.9448 268.076 53.9448C268.035 53.9448 267.993 53.9448 267.911 53.9448C267.788 53.9448 267.624 53.9037 267.377 53.9037ZM264.049 52.9998H261.625V58.7928H264.049V52.9998ZM261.584 52.137H266.966V47.1247H261.584V52.137ZM261.584 46.2619H264.049V41.2496H261.584V46.2619ZM278.388 41.2496H272.841C273.622 45.6046 274.362 47.6177 276.087 50.165C277.238 47.2069 277.813 45.0294 278.388 41.2496ZM307.681 70.1321H317.213V50.7401C317.213 49.0968 317.131 47.2069 316.967 45.6046C318.363 45.7689 319.349 45.8921 320.048 45.9743C322.842 46.2619 323.622 46.5084 323.622 47.0014C323.622 47.4534 323.129 47.782 321.938 48.1518C321.897 50.9867 321.897 53.2874 321.897 54.6843C321.897 61.6687 321.979 68.2833 322.143 73.5011C322.143 74.1174 321.938 74.405 321.445 74.6104C320.993 74.7747 319.76 74.9391 318.692 74.9391C317.501 74.9391 317.295 74.8158 317.213 73.9941V70.9949H293.836V73.3368C293.836 73.8709 293.754 74.1174 293.466 74.3228C293.096 74.6104 291.905 74.8158 290.549 74.8158C289.193 74.8158 288.906 74.6104 288.906 73.6244C289.07 67.9547 289.152 63.2299 289.152 57.3137C289.152 50.6169 289.111 48.0696 288.865 45.5224C294.164 46.1797 294.411 46.1797 294.904 46.3852C295.233 46.5495 295.397 46.7138 295.397 46.9603C295.397 47.4123 295.027 47.6588 293.836 48.0286V70.1321H302.792V45.1937C302.792 42.8519 302.669 40.0992 302.505 38.3736C308.832 38.9899 309.489 39.1132 309.489 39.7705C309.489 40.2635 309.037 40.5511 307.681 40.9209V70.1321ZM348.848 43.4271V70.7895H357.353C358.503 69.3926 359.654 68.0368 360.804 66.7221C363.023 68.4888 363.721 69.0639 365.898 70.9128C366.022 71.0771 366.186 71.2825 366.186 71.3647C366.186 71.529 365.981 71.6523 365.652 71.6523H331.921C330.689 71.6523 329.169 71.7345 328.1 71.8988L327.854 70.3787C329.045 70.6252 330.524 70.7895 331.921 70.7895H343.959V43.4271H333.852C332.538 43.4271 331.716 43.4681 330.607 43.6325L330.36 42.1945C331.511 42.441 332.702 42.5643 333.852 42.5643H355.257C356.695 40.9209 357.147 40.4279 358.585 38.8256C360.763 40.51 361.42 41.0441 363.557 42.893C363.68 43.0162 363.762 43.1395 363.762 43.2216C363.762 43.3449 363.598 43.4271 363.351 43.4271H348.848ZM406.983 46.3441H392.973C398.273 48.3161 398.273 48.3161 398.273 48.7681C398.273 49.1789 397.78 49.3433 396.671 49.3433C396.63 49.3433 396.507 49.3433 396.383 49.3022C392.932 51.7262 392.932 51.7262 391.782 52.4246H398.191C399.424 51.1921 399.834 50.7812 401.026 49.5898C402.834 50.9045 403.409 51.3153 405.093 52.7533C405.217 52.8766 405.299 52.9587 405.299 53.082C405.299 53.2052 405.093 53.2874 404.847 53.2874H389.604V56.985H395.89C397.082 55.7525 397.452 55.3827 398.602 54.2324C400.327 55.506 400.82 55.8757 402.423 57.2315C402.587 57.3548 402.669 57.5191 402.669 57.6013C402.669 57.7656 402.464 57.8478 402.176 57.8478H389.604V61.7919H399.054C400.369 60.4361 400.779 60.0664 402.053 58.7928C403.902 60.1486 404.436 60.6005 406.161 62.0385C406.326 62.1617 406.408 62.285 406.408 62.4082C406.408 62.5726 406.203 62.6547 405.874 62.6547H390.138C391.864 64.3803 393.138 65.2841 394.904 66.1058C398.314 67.6671 401.971 68.4888 407.106 68.8174V69.3926C405.668 70.0089 405.011 70.7895 404.231 72.9259C403.984 73.6244 403.943 73.6654 403.614 73.6654C403.08 73.6654 400.738 72.8027 399.054 72.022C395.11 70.0911 392.439 67.626 389.604 63.271V67.3795C389.604 69.3515 389.604 70.8306 389.728 74.5282C389.728 75.391 389.193 75.5553 386.687 75.5553C385.332 75.5553 385.126 75.4321 385.126 74.7336C385.208 72.5151 385.332 68.5298 385.332 67.5849V65.0787C382.209 68.0368 380.237 69.4337 377.32 70.9128C374.896 72.1453 372.883 72.8437 368.815 73.953L368.569 73.46C372.102 71.6523 374.814 69.8446 377.649 67.2973C379.333 65.7772 380.278 64.75 381.963 62.6547H373.006C372.102 62.6547 371.075 62.7369 370.048 62.9423L369.843 61.4222C371.157 61.7098 371.938 61.7919 373.006 61.7919H385.332V57.8478H376.786C375.677 57.8478 374.732 57.93 373.581 58.0943L373.335 56.6153C374.567 56.8618 375.512 56.985 376.786 56.985H385.332V53.2874H374.362C373.335 53.2874 372.719 53.3285 371.609 53.5339L371.363 52.0549C372.513 52.3425 373.335 52.4246 374.362 52.4246H381.346C381.018 52.0959 380.935 51.8905 380.771 51.1921C380.278 49.1378 379.867 48.1107 378.758 46.6728L379.087 46.3441H372.267C371.075 46.3441 370.13 46.4262 369.35 46.5495L369.103 45.0704C370.212 45.358 371.239 45.4813 372.267 45.4813H382.004V41.5782C382.004 39.7705 381.963 39.0721 381.798 37.5519C386.359 37.8806 386.687 37.9217 387.139 38.086C387.427 38.1682 387.591 38.3326 387.591 38.538C387.591 38.9077 387.263 39.1132 386.03 39.4418V45.4813H389.07V41.5372C389.07 39.9759 389.029 39.2364 388.947 37.6341C394.124 37.9628 394.699 38.045 394.699 38.6201C394.699 38.9488 394.37 39.1542 393.138 39.524V45.4813H394.74C396.301 42.6465 397.493 39.8938 398.027 38.0039C402.382 39.6062 403.655 40.1814 403.655 40.6333C403.655 41.0031 403.162 41.1674 402.012 41.1674C401.971 41.1674 401.848 41.1674 401.683 41.1674C398.314 44.1255 398.15 44.2488 396.301 45.4813H400.369C401.601 44.2077 401.601 44.2077 403.162 42.5232C404.97 43.879 405.504 44.2898 407.271 45.81C407.394 45.9332 407.476 46.0565 407.476 46.1387C407.476 46.2619 407.271 46.3441 406.983 46.3441ZM392.521 46.3441H379.087C383.236 47.782 384.756 48.8092 384.756 50.165C384.756 51.0688 384.222 51.8905 383.359 52.4246H389.851C391.207 50.206 391.905 48.6448 392.521 46.3441ZM373.006 38.4969L373.335 38.1682C378.06 39.7294 379.662 40.7976 379.662 42.441C379.662 43.7968 378.306 45.358 377.115 45.358C376.416 45.358 376.005 44.865 375.759 43.7147C375.348 41.948 374.608 40.5511 373.006 38.4969ZM436.646 55.1773H441.125C442.275 53.6982 442.686 53.2052 443.795 51.6851C445.726 53.2463 446.301 53.7393 448.109 55.3416C448.273 55.5471 448.356 55.6703 448.356 55.7525C448.356 55.9168 448.15 56.0401 447.904 56.0401H437.057C437.879 58.0121 438.988 59.6966 440.549 61.4222C443.056 64.0516 445.644 65.695 449.095 66.8043V67.2151C447.575 68.2422 447.123 69.0229 446.589 71.6112C446.466 72.022 446.342 72.2275 446.096 72.2275C445.726 72.2275 444.329 71.036 443.056 69.6391C440.18 66.4345 438.495 63.1067 436.687 56.9439L436.729 64.1338C436.77 69.598 436.77 69.598 436.893 74.405C436.893 74.898 436.811 75.1445 436.564 75.2677C436.153 75.5553 435.085 75.7197 433.729 75.7197C432.497 75.7197 432.209 75.5553 432.209 74.8158C432.415 69.8035 432.415 69.8035 432.456 65.3252L432.497 61.6276C428.881 66.8043 425.923 69.3926 420.336 72.3096L420.089 71.981C423.581 68.5298 425.225 66.4756 427.402 62.7369C428.758 60.354 429.785 58.2997 430.648 56.0401H424.444C424.691 56.5331 424.732 56.7796 424.732 57.1494C424.732 58.7517 423.417 60.4361 422.185 60.4361C421.527 60.4361 421.199 59.9431 421.116 58.6695C420.87 55.7936 420.377 54.2734 419.226 52.5479C419.226 53.5339 419.226 53.5339 419.226 54.561C419.226 63.3532 419.226 69.6391 419.268 74.3228C419.268 75.391 418.733 75.5964 416.104 75.5964C414.995 75.5964 414.707 75.4321 414.707 74.7336C414.913 70.05 414.913 70.05 415.077 61.0113L415.159 57.437C413.433 61.34 411.954 63.6408 409.448 66.3113L409.037 66.0237C410.722 62.6547 411.708 59.9431 412.899 55.6292C413.721 52.6711 414.05 51.1921 414.584 47.9464H412.119C411.174 47.9464 410.722 47.9875 409.9 48.1929L409.572 46.7138C410.475 47.0014 411.133 47.0836 412.119 47.0836H414.913V42.893C414.913 40.9209 414.871 39.8938 414.666 37.9217C415.94 38.045 416.885 38.1271 417.542 38.1682C420.048 38.4147 420.747 38.5791 420.747 39.031C420.747 39.4008 420.336 39.6473 419.226 40.017V47.0836H419.843C420.705 45.8921 420.993 45.5224 421.815 44.4542C423.253 45.6867 423.581 45.9743 424.937 47.289C425.718 44.3309 425.964 42.934 426.211 40.0992C431.388 41.3728 432.004 41.5782 432.004 42.0302C432.004 42.3589 431.675 42.5232 430.443 42.8108C429.58 44.8239 429.169 45.5635 428.429 46.9193H432.291V42.5232C432.291 40.1403 432.291 39.524 432.209 37.7984C433.401 37.9628 434.305 38.086 434.921 38.1271C437.879 38.4558 438.331 38.5791 438.331 39.0721C438.331 39.4418 437.92 39.6883 436.646 40.1814V46.9193H440.015C441.166 45.4813 441.535 44.9883 442.645 43.6325C444.535 45.1115 445.069 45.5635 446.876 47.1658C447.041 47.3301 447.123 47.4534 447.123 47.5355C447.123 47.6999 446.959 47.782 446.712 47.782H436.646V55.1773ZM432.291 55.1773V47.782H427.936C426.745 49.7952 424.978 51.8905 423.047 53.6161L422.719 53.3696C423.664 51.2332 424.033 50.2882 424.773 47.9464H419.226V51.8083C421.404 52.8766 422.472 53.6572 423.91 55.1773H432.291ZM455.176 46.4673H472.513C472.472 45.2759 472.431 44.5774 472.431 43.0984C472.349 40.469 472.308 39.6883 472.103 37.9217C477.567 38.4147 477.854 38.4558 478.347 38.7023C478.512 38.7845 478.635 38.9899 478.635 39.1132C478.635 39.524 478.224 39.7705 476.951 40.0992C476.909 42.0713 476.909 43.2627 476.909 43.7557C476.909 44.4953 476.909 44.9472 476.951 46.4673H481.511C482.168 45.7278 482.333 45.5224 482.785 44.9883C482.086 44.9061 482.004 44.7829 481.511 43.3038C481.018 41.948 480.361 40.8387 478.882 38.9899L479.046 38.6612C481.511 39.2775 482.456 39.5651 483.401 40.0581C484.798 40.7566 485.373 41.455 485.373 42.3999C485.373 42.8519 485.291 43.1395 485.003 43.7147C486.77 44.9883 487.057 45.2348 488.701 46.6317C488.865 46.8371 488.947 46.9603 488.947 47.0836C488.947 47.2479 488.742 47.3301 488.454 47.3301H476.992C477.115 50.9456 477.361 53.4517 477.772 55.7525C478.347 59.0393 479.58 62.285 481.182 64.709C482.045 66.0237 482.785 66.8043 484.716 68.3655C486.441 65.0787 486.934 64.0105 488.454 60.6416L488.906 60.7648L487.674 67.8725C487.591 68.3655 487.509 68.9818 487.509 69.3105C487.509 69.8446 487.633 70.0911 488.29 70.8306C488.783 71.4469 488.988 71.8988 488.988 72.5151C488.988 73.8298 487.961 74.9391 486.77 74.9391C485.126 74.9391 482.908 73.5422 480.525 71.0771C476.458 66.8454 474.116 61.34 473.13 53.7393C472.842 51.7262 472.719 50.0828 472.554 47.3301H455.176C453.655 47.3301 452.669 47.4123 451.683 47.6177L451.437 46.0565C452.505 46.303 453.943 46.4673 455.176 46.4673ZM464.584 55.3416V65.8182C467.542 65.202 470.13 64.5446 473.623 63.5586L473.787 64.0516C468.857 66.8454 462.16 69.8856 455.258 72.4329C455.052 73.9941 454.847 74.5282 454.395 74.5282C453.902 74.5282 453.573 73.6654 451.848 68.0368C453.984 67.8725 455.34 67.6671 460.065 66.7632V55.3416H455.997C454.97 55.3416 454.107 55.4238 453.162 55.6703L452.916 54.068C453.943 54.3556 454.97 54.4789 455.997 54.4789H465.159C466.392 53.082 466.803 52.63 467.994 51.3153C469.802 52.7533 470.377 53.2052 472.185 54.7254C472.349 54.9308 472.39 55.013 472.39 55.0951C472.39 55.2595 472.226 55.3416 472.02 55.3416H464.584ZM528.348 60.5594H511.051C507.928 64.709 505.71 67.2973 503.163 69.6802C510.804 69.557 514.666 69.3515 518.816 68.9818C517.172 66.0648 516.433 64.9966 514.255 62.6958L514.584 62.3671C517.871 63.9284 520.007 65.202 522.144 66.8865C524.28 68.612 525.143 69.7624 525.143 70.9949C525.143 73.1313 523.664 75.3499 522.267 75.3499C521.733 75.3499 521.569 75.1445 521.117 74.0763C520.336 71.981 520.09 71.4469 519.473 70.1732C519.103 70.2965 519.103 70.2965 518.528 70.4608C514.338 71.5701 506.532 73.1313 498.15 74.446C497.863 75.6786 497.657 76.0894 497.246 76.0894C496.794 76.0894 496.794 76.0894 495.274 69.5159C496.918 69.6802 497.904 69.7213 499.917 69.7213C499.958 69.7213 500.78 69.7213 501.273 69.7213C502.834 66.3524 503.573 64.3803 504.724 60.5594H496.507C495.603 60.5594 495.028 60.6005 493.96 60.8059L493.631 59.3269C494.822 59.6145 495.644 59.6966 496.63 59.6966H520.5C521.815 58.1354 522.226 57.6835 523.541 56.2044C525.759 57.7656 526.458 58.2176 528.553 59.902C528.717 60.0253 528.799 60.1896 528.799 60.2718C528.799 60.4361 528.594 60.5594 528.348 60.5594ZM491.905 57.0672L491.618 56.6153C495.439 53.8215 498.315 51.151 501.149 47.6999C504.272 43.9201 506.121 40.7976 507.107 37.7163C508.504 38.0039 509.613 38.2093 510.352 38.3736C513.311 38.9488 514.214 39.2364 514.214 39.6883C514.214 40.0581 513.886 40.2225 512.53 40.51C514.954 43.9201 517.09 45.7689 520.788 47.6588C523.951 49.2611 526.499 50.0417 530.936 50.7401V51.1921C529.58 51.7673 528.923 52.5068 528.142 54.1913C527.978 54.561 527.772 55.2184 527.649 55.5471C527.526 55.9579 527.403 56.0812 527.156 56.0812C526.745 56.0812 525.102 55.3416 523.623 54.4378C520.583 52.63 517.83 50.1239 515.447 47.0014C513.68 44.7007 512.818 43.2216 511.914 40.8387C506.819 48.5216 500.533 53.6161 491.905 57.0672ZM501.232 54.1091L500.903 52.7122C502.053 52.9587 502.834 53.0409 503.943 53.0409H512.324C513.598 51.5208 514.009 51.0688 515.324 49.6719C517.337 51.151 517.953 51.644 519.966 53.2463C520.172 53.4107 520.254 53.5339 520.254 53.6572C520.254 53.8215 520.09 53.9037 519.761 53.9037H503.697C502.875 53.9037 502.341 53.9448 501.232 54.1091ZM543.097 55.2595V55.6703C544.864 56.1222 545.439 56.3277 546.712 56.8618C549.547 58.0532 550.615 59.1214 550.615 60.6827C550.615 62.285 549.383 63.9284 548.191 63.9284C547.616 63.9284 547.288 63.5175 546.795 62.285C545.562 59.1625 544.576 57.5602 543.097 56.3277V65.4485C543.097 69.6802 543.097 71.981 543.179 74.5693C543.179 74.9801 543.097 75.1445 542.85 75.3088C542.44 75.5964 541.454 75.7608 540.221 75.7608C538.824 75.7608 538.454 75.5553 538.413 74.8158C538.537 71.4879 538.66 67.626 538.66 65.7772V59.5734C536.893 61.0113 535.661 61.833 532.826 63.5175L532.497 63.0245C535.168 60.6005 536.811 58.7106 538.783 55.8347C541.002 52.589 542.234 50.2882 543.385 47.1247H536.03C534.675 47.1247 534.182 47.1658 533.278 47.3301L532.99 45.8511C533.976 46.1387 534.962 46.2619 536.071 46.2619H538.537V41.5782C538.537 40.0581 538.495 39.4829 538.29 38.1271C544.371 38.6612 544.617 38.7434 544.617 39.2775C544.617 39.6473 544.247 39.8938 543.015 40.3457V46.2619H544.083C544.987 45.1526 545.233 44.865 546.219 43.8379C547.74 45.1115 548.191 45.5224 549.588 46.796C549.958 47.2069 550.04 47.3301 550.04 47.4534C550.04 47.8642 549.671 48.0286 547.945 48.3572C546.137 51.3975 544.905 53.2052 543.097 55.2595ZM555.874 52.9998H551.067C549.712 52.9998 549.178 53.0409 548.15 53.2463L547.863 51.7673C549.095 52.0549 549.712 52.137 551.067 52.137H555.874V43.5503C555.874 41.3317 555.792 40.2225 555.546 38.086C556.901 38.2093 557.97 38.2915 558.668 38.3326C561.544 38.5791 562.325 38.7845 562.325 39.2775C562.325 39.6883 561.832 39.9759 560.558 40.3868V52.137H563.146C564.502 50.5347 564.913 50.0417 566.228 48.4394C568.323 50.0417 568.939 50.5758 570.87 52.3425C571.035 52.5068 571.076 52.63 571.076 52.7122C571.076 52.8766 570.911 52.9998 570.665 52.9998H560.558V72.8027H563.598C565.159 70.9949 565.159 70.9949 566.885 69.0229C568.898 70.7073 569.514 71.2414 571.487 73.0902C571.651 73.2546 571.692 73.3368 571.692 73.46C571.692 73.5833 571.528 73.6654 571.281 73.6654H549.054C547.575 73.6654 546.877 73.7065 545.767 73.9119L545.439 72.474C546.589 72.7205 547.616 72.8027 549.013 72.8027H555.874V52.9998Z" fill="white"/>
<path fill-rule="evenodd" clip-rule="evenodd" d="M675.803 62.5578L629.775 111.84L618.27 99.5217L658.545 56.3986L618.27 13.2754L629.775 0.957031L675.803 50.2394C677.328 51.873 678.185 54.0885 678.185 56.3986C678.185 58.7086 677.328 60.9241 675.803 62.5578Z" fill="#0180BB"/>
<path fill-rule="evenodd" clip-rule="evenodd" d="M727.158 62.5578L681.13 111.84L669.625 99.5217L709.901 56.3986L669.625 13.2754L681.13 0.957031L727.158 50.2394C728.683 51.873 729.54 54.0885 729.54 56.3986C729.54 58.7086 728.683 60.9241 727.158 62.5578Z" fill="#0180BB"/>
</svg>
