<svg width="637" height="60" viewBox="0 0 637 60" fill="none" xmlns="http://www.w3.org/2000/svg">
<path d="M55.8763 29.024H59.8003C60.8083 27.728 61.1683 27.296 62.1403 25.964C63.8323 27.332 64.3363 27.764 65.9203 29.168C66.0643 29.348 66.1363 29.456 66.1363 29.528C66.1363 29.672 65.9563 29.78 65.7403 29.78H56.2363C56.9563 31.508 57.9283 32.984 59.2963 34.496C61.4923 36.8 63.7603 38.24 66.7843 39.212V39.572C65.4523 40.472 65.0563 41.156 64.5883 43.424C64.4803 43.784 64.3723 43.964 64.1563 43.964C63.8323 43.964 62.6083 42.92 61.4923 41.696C58.9723 38.888 57.4963 35.972 55.9123 30.572L55.9483 36.872C55.9843 41.66 55.9843 41.66 56.0923 45.872C56.0923 46.304 56.0203 46.52 55.8043 46.628C55.4443 46.88 54.5083 47.024 53.3203 47.024C52.2403 47.024 51.9883 46.88 51.9883 46.232C52.1683 41.84 52.1683 41.84 52.2043 37.916L52.2403 34.676C49.0723 39.212 46.4803 41.48 41.5843 44.036L41.3683 43.748C44.4283 40.724 45.8683 38.924 47.7763 35.648C48.9643 33.56 49.8643 31.76 50.6203 29.78H45.1843C45.4003 30.212 45.4363 30.428 45.4363 30.752C45.4363 32.156 44.2843 33.632 43.2043 33.632C42.6283 33.632 42.3403 33.2 42.2683 32.084C42.0523 29.564 41.6203 28.232 40.6123 26.72C40.6123 27.584 40.6123 27.584 40.6123 28.484C40.6123 36.188 40.6123 41.696 40.6483 45.8C40.6483 46.736 40.1803 46.916 37.8763 46.916C36.9043 46.916 36.6523 46.772 36.6523 46.16C36.8323 42.056 36.8323 42.056 36.9763 34.136L37.0483 31.004C35.5363 34.424 34.2403 36.44 32.0443 38.78L31.6843 38.528C33.1603 35.576 34.0243 33.2 35.0683 29.42C35.7883 26.828 36.0763 25.532 36.5443 22.688H34.3843C33.5563 22.688 33.1603 22.724 32.4403 22.904L32.1523 21.608C32.9443 21.86 33.5203 21.932 34.3843 21.932H36.8323V18.26C36.8323 16.532 36.7963 15.632 36.6163 13.904C37.7323 14.012 38.5603 14.084 39.1363 14.12C41.3323 14.336 41.9443 14.48 41.9443 14.876C41.9443 15.2 41.5843 15.416 40.6123 15.74V21.932H41.1523C41.9083 20.888 42.1603 20.564 42.8803 19.628C44.1403 20.708 44.4283 20.96 45.6163 22.112C46.3003 19.52 46.5163 18.296 46.7323 15.812C51.2683 16.928 51.8083 17.108 51.8083 17.504C51.8083 17.792 51.5203 17.936 50.4403 18.188C49.6843 19.952 49.3243 20.6 48.6763 21.788H52.0603V17.936C52.0603 15.848 52.0603 15.308 51.9883 13.796C53.0323 13.94 53.8243 14.048 54.3643 14.084C56.9563 14.372 57.3523 14.48 57.3523 14.912C57.3523 15.236 56.9923 15.452 55.8763 15.884V21.788H58.8283C59.8363 20.528 60.1603 20.096 61.1323 18.908C62.7883 20.204 63.2563 20.6 64.8403 22.004C64.9843 22.148 65.0563 22.256 65.0563 22.328C65.0563 22.472 64.9123 22.544 64.6963 22.544H55.8763V29.024ZM52.0603 29.024V22.544H48.2443C47.2003 24.308 45.6523 26.144 43.9603 27.656L43.6723 27.44C44.5003 25.568 44.8243 24.74 45.4723 22.688H40.6123V26.072C42.5203 27.008 43.4563 27.692 44.7163 29.024H52.0603ZM72.1123 21.392H87.3043C87.2683 20.348 87.2323 19.736 87.2323 18.44C87.1603 16.136 87.1243 15.452 86.9443 13.904C91.7323 14.336 91.9843 14.372 92.4163 14.588C92.5603 14.66 92.6683 14.84 92.6683 14.948C92.6683 15.308 92.3083 15.524 91.1923 15.812C91.1563 17.54 91.1563 18.584 91.1563 19.016C91.1563 19.664 91.1563 20.06 91.1923 21.392H95.1883C95.7643 20.744 95.9083 20.564 96.3043 20.096C95.6923 20.024 95.6203 19.916 95.1883 18.62C94.7563 17.432 94.1803 16.46 92.8843 14.84L93.0283 14.552C95.1883 15.092 96.0163 15.344 96.8443 15.776C98.0683 16.388 98.5723 17 98.5723 17.828C98.5723 18.224 98.5003 18.476 98.2483 18.98C99.7963 20.096 100.048 20.312 101.488 21.536C101.632 21.716 101.704 21.824 101.704 21.932C101.704 22.076 101.524 22.148 101.272 22.148H91.2283C91.3363 25.316 91.5523 27.512 91.9123 29.528C92.4163 32.408 93.4963 35.252 94.9003 37.376C95.6563 38.528 96.3043 39.212 97.9963 40.58C99.5083 37.7 99.9403 36.764 101.272 33.812L101.668 33.92L100.588 40.148C100.516 40.58 100.444 41.12 100.444 41.408C100.444 41.876 100.552 42.092 101.128 42.74C101.56 43.28 101.74 43.676 101.74 44.216C101.74 45.368 100.84 46.34 99.7963 46.34C98.3563 46.34 96.4123 45.116 94.3243 42.956C90.7603 39.248 88.7083 34.424 87.8443 27.764C87.5923 26 87.4843 24.56 87.3403 22.148H72.1123C70.7803 22.148 69.9163 22.22 69.0523 22.4L68.8363 21.032C69.7723 21.248 71.0323 21.392 72.1123 21.392ZM80.3563 29.168V38.348C82.9483 37.808 85.2163 37.232 88.2763 36.368L88.4203 36.8C84.1003 39.248 78.2323 41.912 72.1843 44.144C72.0043 45.512 71.8243 45.98 71.4283 45.98C70.9963 45.98 70.7083 45.224 69.1963 40.292C71.0683 40.148 72.2563 39.968 76.3963 39.176V29.168H72.8323C71.9323 29.168 71.1763 29.24 70.3483 29.456L70.1323 28.052C71.0323 28.304 71.9323 28.412 72.8323 28.412H80.8603C81.9403 27.188 82.3003 26.792 83.3443 25.64C84.9283 26.9 85.4323 27.296 87.0163 28.628C87.1603 28.808 87.1963 28.88 87.1963 28.952C87.1963 29.096 87.0523 29.168 86.8723 29.168H80.3563ZM136.228 33.74H121.072C118.336 37.376 116.392 39.644 114.16 41.732C120.856 41.624 124.24 41.444 127.876 41.12C126.436 38.564 125.788 37.628 123.88 35.612L124.168 35.324C127.048 36.692 128.92 37.808 130.792 39.284C132.664 40.796 133.42 41.804 133.42 42.884C133.42 44.756 132.124 46.7 130.9 46.7C130.432 46.7 130.288 46.52 129.892 45.584C129.208 43.748 128.992 43.28 128.452 42.164C128.128 42.272 128.128 42.272 127.624 42.416C123.952 43.388 117.112 44.756 109.768 45.908C109.516 46.988 109.336 47.348 108.976 47.348C108.58 47.348 108.58 47.348 107.248 41.588C108.688 41.732 109.552 41.768 111.316 41.768C111.352 41.768 112.072 41.768 112.504 41.768C113.872 38.816 114.52 37.088 115.528 33.74H108.328C107.536 33.74 107.032 33.776 106.096 33.956L105.808 32.66C106.852 32.912 107.572 32.984 108.436 32.984H129.352C130.504 31.616 130.864 31.22 132.016 29.924C133.96 31.292 134.572 31.688 136.408 33.164C136.552 33.272 136.624 33.416 136.624 33.488C136.624 33.632 136.444 33.74 136.228 33.74ZM104.296 30.68L104.044 30.284C107.392 27.836 109.912 25.496 112.396 22.472C115.132 19.16 116.752 16.424 117.616 13.724C118.84 13.976 119.812 14.156 120.46 14.3C123.052 14.804 123.844 15.056 123.844 15.452C123.844 15.776 123.556 15.92 122.368 16.172C124.492 19.16 126.364 20.78 129.604 22.436C132.376 23.84 134.608 24.524 138.496 25.136V25.532C137.308 26.036 136.732 26.684 136.048 28.16C135.904 28.484 135.724 29.06 135.616 29.348C135.508 29.708 135.4 29.816 135.184 29.816C134.824 29.816 133.384 29.168 132.088 28.376C129.424 26.792 127.012 24.596 124.924 21.86C123.376 19.844 122.62 18.548 121.828 16.46C117.364 23.192 111.856 27.656 104.296 30.68ZM112.468 28.088L112.18 26.864C113.188 27.08 113.872 27.152 114.844 27.152H122.188C123.304 25.82 123.664 25.424 124.816 24.2C126.58 25.496 127.12 25.928 128.884 27.332C129.064 27.476 129.136 27.584 129.136 27.692C129.136 27.836 128.992 27.908 128.704 27.908H114.628C113.908 27.908 113.44 27.944 112.468 28.088ZM149.152 29.096V29.456C150.7 29.852 151.204 30.032 152.32 30.5C154.804 31.544 155.74 32.48 155.74 33.848C155.74 35.252 154.66 36.692 153.616 36.692C153.112 36.692 152.824 36.332 152.392 35.252C151.312 32.516 150.448 31.112 149.152 30.032V38.024C149.152 41.732 149.152 43.748 149.224 46.016C149.224 46.376 149.152 46.52 148.936 46.664C148.576 46.916 147.712 47.06 146.632 47.06C145.408 47.06 145.084 46.88 145.048 46.232C145.156 43.316 145.264 39.932 145.264 38.312V32.876C143.716 34.136 142.636 34.856 140.152 36.332L139.864 35.9C142.204 33.776 143.644 32.12 145.372 29.6C147.316 26.756 148.396 24.74 149.404 21.968H142.96C141.772 21.968 141.34 22.004 140.548 22.148L140.296 20.852C141.16 21.104 142.024 21.212 142.996 21.212H145.156V17.108C145.156 15.776 145.12 15.272 144.94 14.084C150.268 14.552 150.484 14.624 150.484 15.092C150.484 15.416 150.16 15.632 149.08 16.028V21.212H150.016C150.808 20.24 151.024 19.988 151.888 19.088C153.22 20.204 153.616 20.564 154.84 21.68C155.164 22.04 155.236 22.148 155.236 22.256C155.236 22.616 154.912 22.76 153.4 23.048C151.816 25.712 150.736 27.296 149.152 29.096ZM160.348 27.116H156.136C154.948 27.116 154.48 27.152 153.58 27.332L153.328 26.036C154.408 26.288 154.948 26.36 156.136 26.36H160.348V18.836C160.348 16.892 160.276 15.92 160.06 14.048C161.248 14.156 162.184 14.228 162.796 14.264C165.316 14.48 166 14.66 166 15.092C166 15.452 165.568 15.704 164.452 16.064V26.36H166.72C167.908 24.956 168.268 24.524 169.42 23.12C171.256 24.524 171.796 24.992 173.488 26.54C173.632 26.684 173.668 26.792 173.668 26.864C173.668 27.008 173.524 27.116 173.308 27.116H164.452V44.468H167.116C168.484 42.884 168.484 42.884 169.996 41.156C171.76 42.632 172.3 43.1 174.028 44.72C174.172 44.864 174.208 44.936 174.208 45.044C174.208 45.152 174.064 45.224 173.848 45.224H154.372C153.076 45.224 152.464 45.26 151.492 45.44L151.204 44.18C152.212 44.396 153.112 44.468 154.336 44.468H160.348V27.116ZM182.74 45.872L182.452 45.548C185.404 42.848 187.6 39.68 189.148 35.864C190.264 33.128 191.2 29.42 191.2 27.62C191.2 26.828 190.948 26.36 190.3 25.856C189.868 25.496 189.364 25.244 188.716 25.064C189.112 24.704 189.436 24.596 190.084 24.596C191.416 24.596 194.296 25.856 195.628 27.008C198.472 25.028 202.396 21.176 202.396 20.42C202.396 20.096 202.072 19.988 201.064 19.988C199.12 19.988 194.836 20.6 191.2 21.356C188.32 22.004 186.628 22.544 184.864 23.444C184 23.876 183.712 23.948 183.28 23.948C182.344 23.948 181.084 22.976 180.076 21.428C179.428 20.42 178.96 19.232 178.96 18.512C178.96 18.188 179.032 17.864 179.176 17.468C180.076 19.124 181.264 19.808 183.172 19.808C184.432 19.808 185.008 19.772 189.976 19.196C196.276 18.44 198.256 18.224 199.696 18.008C200.776 17.864 200.776 17.864 201.856 17.432C202.108 17.324 202.288 17.288 202.504 17.288C203.152 17.288 203.8 17.648 204.952 18.62C206.752 20.168 207.868 21.608 207.868 22.4C207.868 22.904 207.616 23.3 207.148 23.516C206.896 23.66 206.788 23.696 206.068 23.84C205.636 23.948 205.24 24.056 204.664 24.344C201.532 25.82 200.308 26.324 195.808 28.052C195.196 30.104 194.8 31.472 194.548 32.156C193.036 36.44 191.092 39.5 188.032 42.236C186.268 43.82 184.684 44.936 182.74 45.872ZM213.304 44.216L213.016 43.892C214.528 42.308 215.32 41.228 216.364 39.32C218.164 36.008 219.208 33.056 219.928 29.096C220.18 27.8 220.36 26.216 220.36 25.424C220.36 23.876 219.568 22.94 217.696 22.292C218.128 22.004 218.416 21.932 219.064 21.932C219.964 21.932 221.656 22.544 223.096 23.408C224.32 24.164 224.968 24.884 224.968 25.532C224.968 25.928 224.86 26.216 224.536 26.9C224.32 27.296 224.32 27.332 223.132 31.472C222.016 35.252 220.108 38.564 217.66 40.94C216.256 42.272 215.14 43.136 213.304 44.216ZM245.776 27.584L246.1 27.836C244.588 30.752 243.616 32.12 241.852 34.136C239.944 36.26 236.596 39.14 234.004 40.904C232.996 41.588 232.816 41.732 232.132 42.416C231.772 42.776 231.448 42.956 231.088 42.956C229.9 42.956 227.956 40.436 227.956 38.888C227.956 38.636 227.956 38.636 228.136 38.132C228.496 37.124 228.568 35.828 228.568 27.908C228.568 24.524 228.424 21.068 228.28 20.024C228.028 18.62 227.164 17.828 225.508 17.396C225.94 16.964 226.228 16.856 226.804 16.856C227.92 16.856 229.648 17.36 231.16 18.152C232.528 18.836 233.176 19.52 233.176 20.24C233.176 20.636 233.104 20.852 232.708 21.644C232.528 22.076 232.384 22.904 232.24 24.488C231.988 27.044 231.592 34.676 231.592 36.692C231.592 36.836 231.592 37.196 231.628 37.556C236.38 35.72 242.212 31.616 245.776 27.584ZM245.972 40.616L245.792 40.328C248.492 38.096 251.084 35.108 253.352 31.616C255.26 28.7 256.304 26.432 256.304 25.316C256.304 24.848 256.016 24.344 255.476 23.84C255.188 23.552 254.9 23.372 254.108 22.976C254.612 22.796 254.828 22.724 255.224 22.724C256.304 22.724 257.672 23.228 259.22 24.308C260.732 25.28 261.452 26.144 261.452 26.864C261.452 27.26 261.272 27.62 260.768 28.016C260.12 28.52 260.084 28.592 259.04 29.96C255.584 34.676 250.328 38.96 245.972 40.616ZM265.268 23.192L265.592 22.832C269.12 24.452 272.612 26.864 274.952 29.384C277.22 31.868 277.976 33.308 277.976 35.252C277.976 37.484 276.968 39.176 275.636 39.176C274.844 39.176 274.592 38.852 274.052 37.196C272.36 31.688 269.264 26.72 265.268 23.192ZM273.332 15.596L273.62 15.02C275.456 15.416 276.788 15.92 277.832 16.604C279.272 17.54 279.92 18.368 279.92 19.376C279.92 20.24 279.488 20.816 278.84 20.816C278.444 20.816 278.192 20.6 277.652 19.844C276.428 18.08 275.168 16.856 273.332 15.596ZM269.624 18.44L269.948 17.828C271.64 18.368 272.756 18.836 273.8 19.556C275.456 20.672 276.212 21.716 276.212 22.868C276.212 23.696 275.78 24.272 275.096 24.272C274.628 24.272 274.34 24.056 273.872 23.228C272.792 21.356 271.388 19.772 269.624 18.44ZM287.66 26.36L287.876 26.108C292.268 27.872 293.852 29.204 293.852 31.076C293.852 32.444 292.988 33.632 292.016 33.632C291.476 33.632 291.152 33.308 290.864 32.408C289.928 29.456 289.172 28.016 287.66 26.36ZM294.14 24.848L294.392 24.56C296.372 25.28 297.596 25.892 298.676 26.756C299.612 27.584 300.008 28.268 300.008 29.276C300.008 30.644 299.036 31.94 298.028 31.94C297.668 31.94 297.344 31.724 297.164 31.364C297.056 31.112 297.056 31.112 296.696 29.78C296.048 27.404 295.436 26.216 294.14 24.848ZM292.016 45.548L291.728 45.188C295.436 42.38 298.496 38.924 301.304 34.352C303.14 31.328 304.616 27.908 304.616 26.648C304.616 25.748 304.112 25.136 302.708 24.416C303.068 24.236 303.212 24.2 303.536 24.2C304.688 24.2 306.344 24.848 307.748 25.892C308.612 26.504 309.008 27.044 309.008 27.584C309.008 28.016 308.936 28.124 308.504 28.664C308.18 29.024 307.784 29.672 307.136 30.788C304.292 35.9 301.844 38.996 298.568 41.66C296.588 43.244 294.428 44.504 292.016 45.548ZM321.572 33.092L321.32 32.732C324.776 29.852 327.944 26 330.572 21.608C331.688 19.736 332.12 18.728 332.12 18.008C332.12 17.504 331.976 17.18 331.616 16.748C331.148 16.172 330.896 15.992 329.888 15.524C330.32 15.344 330.5 15.308 330.824 15.308C332.12 15.308 334.1 16.1 335.612 17.216C336.368 17.756 336.764 18.368 336.764 18.872C336.764 19.376 336.692 19.52 335.792 20.672C335.756 20.708 335.324 21.284 334.784 22.004C335.108 22.04 335.36 22.076 335.504 22.076C336.08 22.076 338.096 21.788 339.248 21.572C340.544 21.32 341.012 21.176 341.732 20.78C342.38 20.456 342.524 20.384 342.812 20.384C343.388 20.384 344.288 20.924 345.296 21.896C346.232 22.796 346.7 23.516 346.7 24.092C346.7 24.524 346.52 24.848 346.016 25.244C345.26 25.784 345.224 25.82 344.18 27.584C341.66 31.796 340.112 33.884 337.844 36.26C333.452 40.868 328.016 44.216 322.22 45.872L322.04 45.476C324.308 44.216 325.496 43.46 327.26 42.02C331.76 38.42 335.252 34.568 338.096 30.14C339.392 28.124 341.084 24.92 341.408 23.912C341.48 23.66 341.552 23.516 341.552 23.444C341.588 23.372 341.624 23.3 341.624 23.264C341.624 23.192 341.552 23.12 341.516 23.084C341.48 23.084 341.48 23.084 341.408 23.084C341.372 23.084 341.336 23.084 341.264 23.048C341.228 23.048 341.192 23.084 341.12 23.12C341.048 23.156 340.904 23.156 340.724 23.192C340.4 23.192 338.852 23.552 337.988 23.804C337.232 24.056 337.232 24.056 336.62 24.236C336.404 24.272 336.26 24.308 336.152 24.308C335.504 24.308 334.712 23.876 333.92 23.084C330.32 27.656 325.892 31.256 321.572 33.092ZM369.596 44.36L369.452 43.856C373.304 42.668 376.004 41.084 378.164 38.744C380.576 36.152 381.764 32.984 381.764 29.276C381.764 23.12 378.02 19.448 371.828 19.448C371.36 19.448 371.072 19.448 370.388 19.52C371.648 20.996 372.044 21.968 372.044 23.372C372.044 26.252 370.208 31.292 367.616 35.648C365.276 39.536 363.188 41.516 361.388 41.516C360.596 41.516 359.84 41.084 359.444 40.472C359.156 39.932 358.94 39.428 358.616 38.096C358.4 37.232 358.112 36.728 357.068 35.432C356.204 34.352 355.664 32.768 355.664 31.292C355.664 29.024 356.816 26.288 358.688 24.092C361.784 20.42 366.896 18.188 372.26 18.188C380.288 18.188 386.012 23.264 386.012 30.392C386.012 35.612 383.132 39.788 377.912 42.2C375.68 43.244 373.376 43.856 369.596 44.36ZM369.668 19.628C366.752 20.276 364.808 21.32 362.72 23.372C360.236 25.856 358.868 28.916 358.868 31.94C358.868 34.424 360.092 36.98 361.316 36.98C362.504 36.98 364.88 33.992 367.22 29.564C369.02 26.18 370.1 23.192 370.1 21.608C370.1 21.212 370.064 20.744 369.956 20.42C369.884 20.132 369.704 19.628 369.668 19.628ZM391.556 23.3L391.88 23.012C393.248 24.38 394.58 24.956 396.416 24.956C397.532 24.956 398.756 24.776 400.16 24.416C400.196 23.516 400.196 23.084 400.196 22.364C400.196 19.628 400.052 18.332 399.728 17.648C399.296 16.748 398.468 16.244 396.848 15.92C397.532 15.38 397.964 15.236 398.9 15.236C400.376 15.236 402.248 15.632 403.472 16.244C404.336 16.676 404.804 17.288 404.804 17.972C404.804 18.332 404.732 18.584 404.3 19.268C403.724 20.276 403.436 21.428 403.22 23.516C404.696 22.94 405.2 22.652 406.28 21.788C406.82 21.356 407.216 21.176 407.648 21.176C408.332 21.176 409.412 21.536 409.844 21.932C410.096 22.148 410.24 22.472 410.24 22.832C410.24 23.516 409.52 24.092 407.828 24.812C406.136 25.532 404.516 26.036 402.896 26.396C402.752 28.448 402.752 29.168 402.716 32.408C406.28 31.076 409.052 30.5 411.86 30.5C417.296 30.5 420.716 33.164 420.716 37.412C420.716 41.408 417.656 44.504 413.696 44.504C411.536 44.504 409.664 43.532 408.188 41.624C407.288 40.436 406.784 39.356 406.244 37.232L406.64 37.088C408.224 39.896 409.988 41.228 412.148 41.228C414.956 41.228 416.864 39.176 416.864 36.188C416.864 33.524 415.028 32.048 411.68 32.048C408.908 32.048 405.596 33.02 402.752 34.676C402.788 36.296 402.788 36.296 402.968 39.68C403.004 40.292 403.04 40.832 403.04 41.3C403.04 42.596 402.716 43.64 402.032 44.504C401.384 45.332 400.7 45.728 399.98 45.728C399.512 45.728 399.08 45.548 398.72 45.188C398.576 45.008 398.576 45.008 397.964 44.324C396.488 42.596 395.804 42.092 394.472 41.804C393.572 41.624 393.392 41.552 393.032 41.264C392.6 40.94 392.348 40.436 392.348 39.86C392.348 39.14 392.78 38.348 393.644 37.484C395.228 35.936 396.632 35.036 399.98 33.416C400.052 31.256 400.088 29.06 400.16 26.864C399.044 27.044 398.54 27.116 397.712 27.116C394.868 27.116 393.104 26 391.556 23.3ZM399.836 36.152C397.46 37.664 395.66 39.5 395.66 40.328C395.66 40.58 395.84 40.832 396.2 41.048C396.956 41.444 398.072 41.768 398.792 41.768C399.332 41.768 399.476 41.588 399.584 40.904C399.656 40.328 399.836 37.268 399.836 36.152ZM412.616 19.592V19.196C413.372 19.124 413.696 19.124 414.236 19.124C416.396 19.124 418.088 19.52 419.636 20.42C421.292 21.356 422.192 22.652 422.192 24.056C422.192 25.352 421.472 26.108 420.32 26.108C419.996 26.108 419.708 26.036 419.168 25.856C418.664 25.712 418.376 25.64 417.98 25.64C417.188 25.64 415.604 25.892 413.516 26.324L413.372 26C416.144 24.56 417.8 23.516 417.8 23.156C417.8 22.868 417.332 22.112 416.756 21.536C415.676 20.492 414.632 19.988 412.616 19.592ZM436.052 46.952L435.872 46.52C437.816 45.512 439.04 44.684 440.3 43.424C441.992 41.732 442.82 40.22 443.396 37.772C442.712 38.204 442.028 38.42 441.164 38.42C438.428 38.42 436.34 35.9 436.34 32.552C436.34 29.168 438.464 26.756 441.452 26.756C442.208 26.756 442.64 26.864 443.648 27.368C443.648 26.36 443.648 26.072 443.648 25.64C443.648 24.776 443.648 24.488 443.612 23.228C438.788 23.804 435.08 24.776 432.38 26.18C432.128 26.288 431.66 26.396 431.336 26.396C430.292 26.396 429.212 25.604 428.204 24.164C427.52 23.12 427.088 22.076 427.088 21.32C427.088 21.176 427.124 20.996 427.232 20.708C428.276 22.184 429.464 22.832 431.084 22.832C432.164 22.832 432.164 22.832 438.572 21.896C440.012 21.68 441.092 21.572 443.54 21.284C443.468 18.548 443.288 17.396 442.784 16.712C442.208 15.92 441.308 15.452 439.652 15.2C440.3 14.624 440.768 14.48 441.92 14.48C443.288 14.48 444.692 14.696 445.988 15.092C447.392 15.56 448.04 16.136 448.04 16.964C448.04 17.324 447.968 17.576 447.68 18.08C447.14 19.052 447.068 19.376 446.888 20.852C451.892 20.42 452.18 20.384 453.404 19.844C454.052 19.556 454.412 19.484 454.952 19.484C455.924 19.484 457.508 20.168 458.444 20.996C458.912 21.392 459.092 21.752 459.092 22.328C459.092 22.976 458.552 23.408 457.796 23.408C457.472 23.408 456.932 23.336 455.672 23.156C453.62 22.904 452.072 22.796 449.768 22.796C448.544 22.796 447.932 22.832 446.708 22.94C446.564 24.848 446.456 27.188 446.456 28.52C446.456 28.664 446.456 28.952 446.456 29.276C447.392 31.04 447.716 32.3 447.716 34.28C447.716 38.384 445.988 41.804 442.712 44.108C441.02 45.296 439.436 45.98 436.052 46.952ZM443.612 31.976C443.612 29.312 442.748 27.8 441.272 27.8C439.832 27.8 438.716 29.312 438.716 31.256C438.716 33.524 439.796 35.108 441.38 35.108C442.784 35.108 443.612 33.956 443.612 31.976ZM472.052 46.952L471.872 46.52C473.816 45.512 475.04 44.684 476.3 43.424C477.992 41.732 478.82 40.22 479.396 37.772C478.712 38.204 478.028 38.42 477.164 38.42C474.428 38.42 472.34 35.9 472.34 32.552C472.34 29.168 474.464 26.756 477.452 26.756C478.208 26.756 478.64 26.864 479.648 27.368C479.648 26.36 479.648 26.072 479.648 25.64C479.648 24.776 479.648 24.488 479.612 23.228C474.788 23.804 471.08 24.776 468.38 26.18C468.128 26.288 467.66 26.396 467.336 26.396C466.292 26.396 465.212 25.604 464.204 24.164C463.52 23.12 463.088 22.076 463.088 21.32C463.088 21.176 463.124 20.996 463.232 20.708C464.276 22.184 465.464 22.832 467.084 22.832C468.164 22.832 468.164 22.832 474.572 21.896C476.012 21.68 477.092 21.572 479.54 21.284C479.468 18.548 479.288 17.396 478.784 16.712C478.208 15.92 477.308 15.452 475.652 15.2C476.3 14.624 476.768 14.48 477.92 14.48C479.288 14.48 480.692 14.696 481.988 15.092C483.392 15.56 484.04 16.136 484.04 16.964C484.04 17.324 483.968 17.576 483.68 18.08C483.14 19.052 483.068 19.376 482.888 20.852C487.892 20.42 488.18 20.384 489.404 19.844C490.052 19.556 490.412 19.484 490.952 19.484C491.924 19.484 493.508 20.168 494.444 20.996C494.912 21.392 495.092 21.752 495.092 22.328C495.092 22.976 494.552 23.408 493.796 23.408C493.472 23.408 492.932 23.336 491.672 23.156C489.62 22.904 488.072 22.796 485.768 22.796C484.544 22.796 483.932 22.832 482.708 22.94C482.564 24.848 482.456 27.188 482.456 28.52C482.456 28.664 482.456 28.952 482.456 29.276C483.392 31.04 483.716 32.3 483.716 34.28C483.716 38.384 481.988 41.804 478.712 44.108C477.02 45.296 475.436 45.98 472.052 46.952ZM479.612 31.976C479.612 29.312 478.748 27.8 477.272 27.8C475.832 27.8 474.716 29.312 474.716 31.256C474.716 33.524 475.796 35.108 477.38 35.108C478.784 35.108 479.612 33.956 479.612 31.976ZM503.084 18.836L503.408 18.584C506.36 20.06 507.548 21.572 508.34 25.028C510.824 23.732 512.516 23.192 515.576 22.796C515.972 20.816 516.116 19.664 516.116 18.62C516.116 17.576 515.648 17.18 514.388 17.18C514.064 17.18 513.848 17.18 513.344 17.252L513.272 16.928C514.64 16.172 515.324 15.92 516.224 15.92C517.196 15.92 518.42 16.352 519.14 16.964C519.752 17.468 520.004 18.044 520.004 18.728C520.004 19.448 519.68 21.068 519.14 22.76C525.296 23.3 529.544 27.512 529.544 33.056C529.544 37.592 526.916 41.228 522.056 43.316C519.752 44.324 517.304 44.864 513.452 45.188L513.38 44.828C518.168 43.28 520.472 41.948 522.56 39.464C524.324 37.304 525.26 34.784 525.26 31.976C525.26 29.348 524.396 27.152 522.74 25.712C521.624 24.74 520.508 24.272 518.744 24.056C517.016 28.808 515.108 32.48 512.588 35.9C512.984 36.548 513.164 36.764 513.776 37.448C514.784 38.564 515 38.96 515 39.572C515 40.256 514.46 40.724 513.704 40.724C512.732 40.724 511.58 39.968 510.32 38.456C509.6 39.32 508.628 40.184 507.44 41.012C506.18 41.912 505.28 42.272 504.38 42.272C503.3 42.272 502.724 41.624 502.508 40.22C502.328 39.032 502.22 38.78 501.356 37.916C500.636 37.16 500.24 36.26 500.24 35.324C500.24 33.848 500.888 32.012 501.896 30.464C502.94 28.916 504.128 27.728 506.108 26.288C505.28 21.788 504.812 20.636 503.084 18.836ZM506.612 28.412C504.308 30.788 503.264 33.056 503.264 35.756C503.264 37.232 504.128 38.78 504.992 38.78C505.892 38.78 507.368 37.772 508.808 36.224C507.764 33.74 507.116 31.436 506.612 28.412ZM508.736 26.612C508.952 27.26 508.952 27.26 509.744 30.032C510.104 31.22 510.464 32.192 511.148 33.596C512.912 30.824 514.316 27.584 515.288 24.092C512.408 24.524 510.824 25.136 508.736 26.612ZM565.22 26.216V34.388C565.22 38.564 565.22 38.564 565.256 41.3C565.256 41.696 565.256 42.056 565.256 42.2C565.256 42.488 565.256 42.812 565.256 43.28C565.22 44.54 564.968 45.08 564.14 45.692C563.348 46.232 561.62 46.736 560.468 46.736C560.144 46.736 560.072 46.628 560.072 46.124C560.036 45.296 559.892 44.648 559.64 44.18C559.316 43.604 559.028 43.424 557.408 42.848C557.372 43.316 557.228 43.496 556.904 43.604C556.58 43.712 555.68 43.82 554.924 43.82C554.096 43.82 553.844 43.676 553.808 43.1V42.02H547.94V43.784C547.94 44.108 547.832 44.216 547.616 44.324C547.292 44.468 546.32 44.54 545.204 44.54C544.592 44.54 544.376 44.396 544.34 44.036C544.376 42.308 544.412 41.624 544.412 40.328C544.412 36.476 544.376 34.352 544.34 32.876C543.188 33.308 542.756 33.452 541.316 33.812L541.136 33.416C543.476 31.904 544.448 30.608 544.952 28.556C545.168 27.548 545.24 26.9 545.312 25.136H540.56V36.944L540.596 45.764C540.488 46.664 540.128 46.772 537.644 46.772C536.708 46.772 536.564 46.664 536.492 46.052C536.636 41.696 536.708 39.14 536.708 35.648C536.708 27.008 536.708 26.9 536.492 22.076C538.508 23.012 539.084 23.3 540.884 24.38H544.808C544.304 24.02 544.232 23.84 544.016 22.868C543.728 21.32 543.188 20.168 542.216 18.872L542.324 18.728H537.68C537.068 18.728 536.384 18.8 535.124 18.98L534.836 17.612C536.24 17.864 537.032 17.972 537.68 17.972H548.588V15.848C548.588 15.092 548.552 14.552 548.444 13.436C549.776 13.544 550.784 13.652 551.432 13.688C553.664 13.832 554.384 14.012 554.384 14.48C554.384 14.84 554.096 14.984 552.8 15.416V17.972H560.72C561.872 16.604 562.232 16.208 563.492 14.948C565.364 16.352 565.904 16.82 567.704 18.296C567.74 18.368 567.812 18.44 567.812 18.476C567.812 18.62 567.632 18.728 567.452 18.728H556.256C557.948 19.268 559.424 19.808 560.18 20.132C560.432 20.276 560.612 20.456 560.612 20.6C560.612 20.96 560.36 21.068 558.992 21.176C556.436 23.3 556.112 23.552 554.924 24.38H561.044C561.908 23.48 562.16 23.228 563.024 22.328C564.608 23.372 565.04 23.696 566.372 24.812C566.516 24.956 566.588 25.064 566.588 25.172C566.588 25.46 566.264 25.676 565.22 26.216ZM548.3 34.496H553.556C554.312 33.704 554.564 33.452 555.428 32.624C556.688 33.452 557.084 33.704 558.2 34.496C558.38 34.64 558.452 34.748 558.452 34.856C558.452 35.144 558.092 35.468 557.336 35.864C557.336 36.584 557.336 37.088 557.336 37.484C557.336 38.132 557.336 38.276 557.372 39.608C557.372 40.472 557.408 41.192 557.408 41.768C557.408 42.056 557.408 42.056 557.408 42.38C558.452 42.524 558.992 42.56 560.792 42.632C561.188 42.632 561.332 42.524 561.332 42.236V25.136H555.392V28.52C555.392 29.24 555.428 29.24 557.156 29.24C557.768 29.24 557.912 29.168 558.128 28.808C558.38 28.304 558.452 28.052 559.244 25.856H559.568L559.64 28.232C559.64 28.736 559.712 28.844 560.036 28.988C560.792 29.312 561.008 29.636 561.008 30.32C561.008 31.544 560.108 31.94 557.264 31.94C553.772 31.94 553.124 31.868 552.584 31.4C552.224 31.112 552.152 30.68 552.152 28.772V25.136H549.056C548.732 29.024 547.688 30.824 544.736 32.624C546.464 33.452 546.788 33.596 548.3 34.496ZM555.392 18.728H542.864C544.808 19.52 545.744 19.952 546.464 20.348C547.364 20.852 547.832 21.536 547.832 22.436C547.832 23.336 547.364 24.02 546.5 24.38H553.34C554.24 22.652 554.996 20.492 555.392 18.728ZM547.94 35.252V41.264H553.808V35.252H547.94ZM581.204 26.108V27.692C581.204 28.088 581.132 28.268 580.952 28.412C580.664 28.592 579.692 28.736 578.54 28.736C577.424 28.736 577.172 28.592 577.136 27.98C577.208 24.992 577.244 23.48 577.244 19.844C577.244 16.928 577.244 16.136 577.136 14.012C579.188 14.876 579.8 15.164 581.708 16.208H592.4C593.3 15.236 593.588 14.948 594.524 14.048C595.892 15.02 596.288 15.308 597.512 16.316C597.836 16.604 597.944 16.784 597.944 16.964C597.944 17.288 597.728 17.468 596.612 18.044C596.612 18.836 596.612 19.52 596.612 19.88C596.612 21.212 596.648 22.832 596.756 27.512C596.756 28.016 596.612 28.232 596.216 28.376C595.892 28.52 594.668 28.664 593.84 28.664C592.976 28.664 592.688 28.484 592.688 27.872V26.108H581.204ZM581.204 16.964V25.352H592.688V16.964H581.204ZM575.876 43.532V45.368C575.876 45.8 575.804 45.98 575.552 46.124C575.156 46.304 574.256 46.448 573.212 46.448C572.168 46.448 571.916 46.268 571.916 45.62C572.024 41.444 572.06 40.436 572.06 39.104C572.06 32.192 572.06 31.292 571.916 29.384C573.86 30.32 574.4 30.608 576.2 31.652H581.24C582.068 30.644 582.356 30.356 583.22 29.42C584.48 30.356 584.84 30.644 585.92 31.508C586.28 31.796 586.388 31.976 586.388 32.192C586.388 32.48 586.136 32.696 585.236 33.2C585.236 36.044 585.272 41.516 585.344 44.936C585.308 45.764 584.696 46.016 582.716 46.016C581.78 46.016 581.492 45.836 581.456 45.296V43.532H575.876ZM575.876 32.408V42.776H581.456V32.408H575.876ZM592.148 43.532V45.188C592.112 45.62 592.004 45.8 591.608 45.944C591.32 46.052 590.168 46.16 589.448 46.16C588.62 46.16 588.332 45.98 588.296 45.368C588.404 41.084 588.404 40.22 588.404 38.456C588.404 33.092 588.368 31.292 588.296 29.384C590.204 30.32 590.78 30.608 592.508 31.652H597.62C598.484 30.68 598.772 30.356 599.636 29.456C600.968 30.464 601.364 30.752 602.552 31.724C602.876 31.976 602.984 32.156 602.984 32.336C602.984 32.624 602.696 32.84 601.796 33.308C601.796 38.42 601.832 43.208 601.904 45.224C601.868 45.584 601.796 45.764 601.616 45.872C601.256 46.124 600.356 46.268 599.384 46.268C598.268 46.268 598.016 46.16 597.98 45.548V43.532H592.148ZM592.148 32.408V42.776H597.98V32.408H592.148Z" fill="#006281"/>
<rect width="3" height="60" fill="#006281"/>
<rect x="634" width="3" height="60" fill="#006281"/>
</svg>
