<svg width="321" height="72" viewBox="0 0 321 72" fill="none" xmlns="http://www.w3.org/2000/svg">
<path d="M57.7508 18.016H60.3668C61.0388 17.152 61.2788 16.864 61.9268 15.976C63.0548 16.888 63.3908 17.176 64.4468 18.112C64.5428 18.232 64.5908 18.304 64.5908 18.352C64.5908 18.448 64.4708 18.52 64.3268 18.52H57.9908C58.4708 19.672 59.1188 20.656 60.0308 21.664C61.4948 23.2 63.0068 24.16 65.0228 24.808V25.048C64.1348 25.648 63.8708 26.104 63.5588 27.616C63.4868 27.856 63.4148 27.976 63.2708 27.976C63.0548 27.976 62.2388 27.28 61.4948 26.464C59.8148 24.592 58.8308 22.648 57.7748 19.048L57.7988 23.248C57.8228 26.44 57.8228 26.44 57.8948 29.248C57.8948 29.536 57.8468 29.68 57.7028 29.752C57.4628 29.92 56.8388 30.016 56.0468 30.016C55.3268 30.016 55.1588 29.92 55.1588 29.488C55.2788 26.56 55.2788 26.56 55.3028 23.944L55.3268 21.784C53.2148 24.808 51.4868 26.32 48.2228 28.024L48.0788 27.832C50.1188 25.816 51.0788 24.616 52.3508 22.432C53.1428 21.04 53.7428 19.84 54.2468 18.52H50.6228C50.7668 18.808 50.7908 18.952 50.7908 19.168C50.7908 20.104 50.0228 21.088 49.3028 21.088C48.9188 21.088 48.7268 20.8 48.6788 20.056C48.5348 18.376 48.2468 17.488 47.5748 16.48C47.5748 17.056 47.5748 17.056 47.5748 17.656C47.5748 22.792 47.5748 26.464 47.5988 29.2C47.5988 29.824 47.2868 29.944 45.7508 29.944C45.1028 29.944 44.9348 29.848 44.9348 29.44C45.0548 26.704 45.0548 26.704 45.1508 21.424L45.1988 19.336C44.1908 21.616 43.3268 22.96 41.8628 24.52L41.6228 24.352C42.6068 22.384 43.1828 20.8 43.8788 18.28C44.3588 16.552 44.5508 15.688 44.8628 13.792H43.4228C42.8708 13.792 42.6068 13.816 42.1268 13.936L41.9348 13.072C42.4628 13.24 42.8468 13.288 43.4228 13.288H45.0548V10.84C45.0548 9.688 45.0308 9.088 44.9108 7.936C45.6548 8.008 46.2068 8.056 46.5908 8.08C48.0548 8.224 48.4628 8.32 48.4628 8.584C48.4628 8.8 48.2228 8.944 47.5748 9.16V13.288H47.9348C48.4388 12.592 48.6068 12.376 49.0868 11.752C49.9268 12.472 50.1188 12.64 50.9108 13.408C51.3668 11.68 51.5108 10.864 51.6548 9.208C54.6788 9.952 55.0388 10.072 55.0388 10.336C55.0388 10.528 54.8468 10.624 54.1268 10.792C53.6228 11.968 53.3828 12.4 52.9508 13.192H55.2068V10.624C55.2068 9.232 55.2068 8.872 55.1588 7.864C55.8548 7.96 56.3828 8.032 56.7428 8.056C58.4708 8.248 58.7348 8.32 58.7348 8.608C58.7348 8.824 58.4948 8.968 57.7508 9.256V13.192H59.7188C60.3908 12.352 60.6068 12.064 61.2548 11.272C62.3588 12.136 62.6708 12.4 63.7268 13.336C63.8228 13.432 63.8708 13.504 63.8708 13.552C63.8708 13.648 63.7748 13.696 63.6308 13.696H57.7508V18.016ZM55.2068 18.016V13.696H52.6628C51.9668 14.872 50.9348 16.096 49.8068 17.104L49.6148 16.96C50.1668 15.712 50.3828 15.16 50.8148 13.792H47.5748V16.048C48.8468 16.672 49.4708 17.128 50.3108 18.016H55.2068ZM68.5748 12.928H78.7028C78.6788 12.232 78.6548 11.824 78.6548 10.96C78.6068 9.424 78.5828 8.968 78.4628 7.936C81.6548 8.224 81.8228 8.248 82.1108 8.392C82.2068 8.44 82.2788 8.56 82.2788 8.632C82.2788 8.872 82.0388 9.016 81.2948 9.208C81.2708 10.36 81.2708 11.056 81.2708 11.344C81.2708 11.776 81.2708 12.04 81.2948 12.928H83.9588C84.3428 12.496 84.4388 12.376 84.7028 12.064C84.2948 12.016 84.2468 11.944 83.9588 11.08C83.6708 10.288 83.2868 9.64 82.4228 8.56L82.5188 8.368C83.9588 8.728 84.5108 8.896 85.0628 9.184C85.8788 9.592 86.2148 10 86.2148 10.552C86.2148 10.816 86.1668 10.984 85.9988 11.32C87.0308 12.064 87.1988 12.208 88.1588 13.024C88.2548 13.144 88.3028 13.216 88.3028 13.288C88.3028 13.384 88.1828 13.432 88.0148 13.432H81.3188C81.3908 15.544 81.5348 17.008 81.7748 18.352C82.1108 20.272 82.8308 22.168 83.7668 23.584C84.2708 24.352 84.7028 24.808 85.8308 25.72C86.8388 23.8 87.1268 23.176 88.0148 21.208L88.2788 21.28L87.5588 25.432C87.5108 25.72 87.4628 26.08 87.4628 26.272C87.4628 26.584 87.5348 26.728 87.9188 27.16C88.2068 27.52 88.3268 27.784 88.3268 28.144C88.3268 28.912 87.7268 29.56 87.0308 29.56C86.0708 29.56 84.7748 28.744 83.3828 27.304C81.0068 24.832 79.6388 21.616 79.0628 17.176C78.8948 16 78.8228 15.04 78.7268 13.432H68.5748C67.6868 13.432 67.1108 13.48 66.5348 13.6L66.3908 12.688C67.0148 12.832 67.8548 12.928 68.5748 12.928ZM74.0708 18.112V24.232C75.7988 23.872 77.3108 23.488 79.3508 22.912L79.4468 23.2C76.5668 24.832 72.6548 26.608 68.6228 28.096C68.5028 29.008 68.3828 29.32 68.1188 29.32C67.8308 29.32 67.6388 28.816 66.6308 25.528C67.8788 25.432 68.6708 25.312 71.4308 24.784V18.112H69.0548C68.4548 18.112 67.9508 18.16 67.3988 18.304L67.2548 17.368C67.8548 17.536 68.4548 17.608 69.0548 17.608H74.4068C75.1268 16.792 75.3668 16.528 76.0628 15.76C77.1188 16.6 77.4548 16.864 78.5108 17.752C78.6068 17.872 78.6308 17.92 78.6308 17.968C78.6308 18.064 78.5348 18.112 78.4148 18.112H74.0708ZM111.319 21.16H101.215C99.3908 23.584 98.0948 25.096 96.6068 26.488C101.071 26.416 103.327 26.296 105.751 26.08C104.791 24.376 104.359 23.752 103.087 22.408L103.279 22.216C105.199 23.128 106.447 23.872 107.695 24.856C108.943 25.864 109.447 26.536 109.447 27.256C109.447 28.504 108.583 29.8 107.767 29.8C107.455 29.8 107.359 29.68 107.095 29.056C106.639 27.832 106.495 27.52 106.135 26.776C105.919 26.848 105.919 26.848 105.583 26.944C103.135 27.592 98.5748 28.504 93.6788 29.272C93.5108 29.992 93.3908 30.232 93.1508 30.232C92.8868 30.232 92.8868 30.232 91.9988 26.392C92.9588 26.488 93.5348 26.512 94.7108 26.512C94.7348 26.512 95.2148 26.512 95.5028 26.512C96.4148 24.544 96.8468 23.392 97.5188 21.16H92.7188C92.1908 21.16 91.8548 21.184 91.2308 21.304L91.0388 20.44C91.7348 20.608 92.2148 20.656 92.7908 20.656H106.735C107.503 19.744 107.743 19.48 108.511 18.616C109.807 19.528 110.215 19.792 111.439 20.776C111.535 20.848 111.583 20.944 111.583 20.992C111.583 21.088 111.463 21.16 111.319 21.16ZM90.0308 19.12L89.8628 18.856C92.0948 17.224 93.7748 15.664 95.4308 13.648C97.2548 11.44 98.3348 9.616 98.9108 7.816C99.7268 7.984 100.375 8.104 100.807 8.2C102.535 8.536 103.063 8.704 103.063 8.968C103.063 9.184 102.871 9.28 102.079 9.448C103.495 11.44 104.743 12.52 106.903 13.624C108.751 14.56 110.239 15.016 112.831 15.424V15.688C112.039 16.024 111.655 16.456 111.199 17.44C111.103 17.656 110.983 18.04 110.911 18.232C110.839 18.472 110.767 18.544 110.623 18.544C110.383 18.544 109.423 18.112 108.559 17.584C106.783 16.528 105.175 15.064 103.783 13.24C102.751 11.896 102.247 11.032 101.719 9.64C98.7428 14.128 95.0708 17.104 90.0308 19.12ZM95.4788 17.392L95.2868 16.576C95.9588 16.72 96.4148 16.768 97.0628 16.768H101.959C102.703 15.88 102.943 15.616 103.711 14.8C104.887 15.664 105.247 15.952 106.423 16.888C106.543 16.984 106.591 17.056 106.591 17.128C106.591 17.224 106.495 17.272 106.303 17.272H96.9188C96.4388 17.272 96.1268 17.296 95.4788 17.392ZM119.935 18.064V18.304C120.967 18.568 121.303 18.688 122.047 19C123.703 19.696 124.327 20.32 124.327 21.232C124.327 22.168 123.607 23.128 122.911 23.128C122.575 23.128 122.383 22.888 122.095 22.168C121.375 20.344 120.799 19.408 119.935 18.688V24.016C119.935 26.488 119.935 27.832 119.983 29.344C119.983 29.584 119.935 29.68 119.791 29.776C119.551 29.944 118.975 30.04 118.255 30.04C117.439 30.04 117.223 29.92 117.199 29.488C117.271 27.544 117.343 25.288 117.343 24.208V20.584C116.311 21.424 115.591 21.904 113.935 22.888L113.743 22.6C115.303 21.184 116.263 20.08 117.415 18.4C118.711 16.504 119.431 15.16 120.103 13.312H115.807C115.015 13.312 114.727 13.336 114.199 13.432L114.031 12.568C114.607 12.736 115.183 12.808 115.831 12.808H117.271V10.072C117.271 9.184 117.247 8.848 117.127 8.056C120.679 8.368 120.823 8.416 120.823 8.728C120.823 8.944 120.607 9.088 119.887 9.352V12.808H120.511C121.039 12.16 121.183 11.992 121.759 11.392C122.647 12.136 122.911 12.376 123.727 13.12C123.943 13.36 123.991 13.432 123.991 13.504C123.991 13.744 123.775 13.84 122.767 14.032C121.711 15.808 120.991 16.864 119.935 18.064ZM127.399 16.744H124.591C123.799 16.744 123.487 16.768 122.887 16.888L122.719 16.024C123.439 16.192 123.799 16.24 124.591 16.24H127.399V11.224C127.399 9.928 127.351 9.28 127.207 8.032C127.999 8.104 128.623 8.152 129.031 8.176C130.711 8.32 131.167 8.44 131.167 8.728C131.167 8.968 130.879 9.136 130.135 9.376V16.24H131.647C132.439 15.304 132.679 15.016 133.447 14.08C134.671 15.016 135.031 15.328 136.159 16.36C136.255 16.456 136.279 16.528 136.279 16.576C136.279 16.672 136.183 16.744 136.039 16.744H130.135V28.312H131.911C132.823 27.256 132.823 27.256 133.831 26.104C135.007 27.088 135.367 27.4 136.519 28.48C136.615 28.576 136.639 28.624 136.639 28.696C136.639 28.768 136.543 28.816 136.399 28.816H123.415C122.551 28.816 122.143 28.84 121.495 28.96L121.303 28.12C121.975 28.264 122.575 28.312 123.391 28.312H127.399V16.744ZM142.327 29.248L142.135 29.032C144.103 27.232 145.567 25.12 146.599 22.576C147.343 20.752 147.967 18.28 147.967 17.08C147.967 16.552 147.799 16.24 147.367 15.904C147.079 15.664 146.743 15.496 146.311 15.376C146.575 15.136 146.791 15.064 147.223 15.064C148.111 15.064 150.031 15.904 150.919 16.672C152.815 15.352 155.431 12.784 155.431 12.28C155.431 12.064 155.215 11.992 154.543 11.992C153.247 11.992 150.391 12.4 147.967 12.904C146.047 13.336 144.919 13.696 143.743 14.296C143.167 14.584 142.975 14.632 142.687 14.632C142.063 14.632 141.223 13.984 140.551 12.952C140.119 12.28 139.807 11.488 139.807 11.008C139.807 10.792 139.855 10.576 139.951 10.312C140.551 11.416 141.343 11.872 142.615 11.872C143.455 11.872 143.839 11.848 147.151 11.464C151.351 10.96 152.671 10.816 153.631 10.672C154.351 10.576 154.351 10.576 155.071 10.288C155.239 10.216 155.359 10.192 155.503 10.192C155.935 10.192 156.367 10.432 157.135 11.08C158.335 12.112 159.079 13.072 159.079 13.6C159.079 13.936 158.911 14.2 158.599 14.344C158.431 14.44 158.359 14.464 157.879 14.56C157.591 14.632 157.327 14.704 156.943 14.896C154.855 15.88 154.039 16.216 151.039 17.368C150.631 18.736 150.367 19.648 150.199 20.104C149.191 22.96 147.895 25 145.855 26.824C144.679 27.88 143.623 28.624 142.327 29.248ZM162.703 28.144L162.511 27.928C163.519 26.872 164.047 26.152 164.743 24.88C165.943 22.672 166.639 20.704 167.119 18.064C167.287 17.2 167.407 16.144 167.407 15.616C167.407 14.584 166.879 13.96 165.631 13.528C165.919 13.336 166.111 13.288 166.543 13.288C167.143 13.288 168.271 13.696 169.231 14.272C170.047 14.776 170.479 15.256 170.479 15.688C170.479 15.952 170.407 16.144 170.191 16.6C170.047 16.864 170.047 16.888 169.255 19.648C168.511 22.168 167.239 24.376 165.607 25.96C164.671 26.848 163.927 27.424 162.703 28.144ZM184.351 17.056L184.567 17.224C183.559 19.168 182.911 20.08 181.735 21.424C180.463 22.84 178.231 24.76 176.503 25.936C175.831 26.392 175.711 26.488 175.255 26.944C175.015 27.184 174.799 27.304 174.559 27.304C173.767 27.304 172.471 25.624 172.471 24.592C172.471 24.424 172.471 24.424 172.591 24.088C172.831 23.416 172.879 22.552 172.879 17.272C172.879 15.016 172.783 12.712 172.687 12.016C172.519 11.08 171.943 10.552 170.839 10.264C171.127 9.976 171.319 9.904 171.703 9.904C172.447 9.904 173.599 10.24 174.607 10.768C175.519 11.224 175.951 11.68 175.951 12.16C175.951 12.424 175.903 12.568 175.639 13.096C175.519 13.384 175.423 13.936 175.327 14.992C175.159 16.696 174.895 21.784 174.895 23.128C174.895 23.224 174.895 23.464 174.919 23.704C178.087 22.48 181.975 19.744 184.351 17.056ZM184.481 25.744L184.361 25.552C186.161 24.064 187.889 22.072 189.401 19.744C190.673 17.8 191.369 16.288 191.369 15.544C191.369 15.232 191.177 14.896 190.817 14.56C190.625 14.368 190.433 14.248 189.905 13.984C190.241 13.864 190.385 13.816 190.649 13.816C191.369 13.816 192.281 14.152 193.313 14.872C194.321 15.52 194.801 16.096 194.801 16.576C194.801 16.84 194.681 17.08 194.345 17.344C193.913 17.68 193.889 17.728 193.193 18.64C190.889 21.784 187.385 24.64 184.481 25.744ZM197.345 14.128L197.561 13.888C199.913 14.968 202.241 16.576 203.801 18.256C205.313 19.912 205.817 20.872 205.817 22.168C205.817 23.656 205.145 24.784 204.257 24.784C203.729 24.784 203.561 24.568 203.201 23.464C202.073 19.792 200.009 16.48 197.345 14.128ZM202.721 9.064L202.913 8.68C204.137 8.944 205.025 9.28 205.721 9.736C206.681 10.36 207.113 10.912 207.113 11.584C207.113 12.16 206.825 12.544 206.393 12.544C206.129 12.544 205.961 12.4 205.601 11.896C204.785 10.72 203.945 9.904 202.721 9.064ZM200.249 10.96L200.465 10.552C201.593 10.912 202.337 11.224 203.033 11.704C204.137 12.448 204.641 13.144 204.641 13.912C204.641 14.464 204.353 14.848 203.897 14.848C203.585 14.848 203.393 14.704 203.081 14.152C202.361 12.904 201.425 11.848 200.249 10.96ZM212.273 16.24L212.417 16.072C215.345 17.248 216.401 18.136 216.401 19.384C216.401 20.296 215.825 21.088 215.177 21.088C214.817 21.088 214.601 20.872 214.409 20.272C213.785 18.304 213.281 17.344 212.273 16.24ZM216.593 15.232L216.761 15.04C218.081 15.52 218.897 15.928 219.617 16.504C220.241 17.056 220.505 17.512 220.505 18.184C220.505 19.096 219.857 19.96 219.185 19.96C218.945 19.96 218.729 19.816 218.609 19.576C218.537 19.408 218.537 19.408 218.297 18.52C217.865 16.936 217.457 16.144 216.593 15.232ZM215.177 29.032L214.985 28.792C217.457 26.92 219.497 24.616 221.369 21.568C222.593 19.552 223.577 17.272 223.577 16.432C223.577 15.832 223.241 15.424 222.305 14.944C222.545 14.824 222.641 14.8 222.857 14.8C223.625 14.8 224.729 15.232 225.665 15.928C226.241 16.336 226.505 16.696 226.505 17.056C226.505 17.344 226.457 17.416 226.169 17.776C225.953 18.016 225.689 18.448 225.257 19.192C223.361 22.6 221.729 24.664 219.545 26.44C218.225 27.496 216.785 28.336 215.177 29.032ZM234.881 20.728L234.713 20.488C237.017 18.568 239.129 16 240.881 13.072C241.625 11.824 241.913 11.152 241.913 10.672C241.913 10.336 241.817 10.12 241.577 9.832C241.265 9.448 241.097 9.328 240.425 9.016C240.713 8.896 240.833 8.872 241.049 8.872C241.913 8.872 243.233 9.4 244.241 10.144C244.745 10.504 245.009 10.912 245.009 11.248C245.009 11.584 244.961 11.68 244.361 12.448C244.337 12.472 244.049 12.856 243.689 13.336C243.905 13.36 244.073 13.384 244.169 13.384C244.553 13.384 245.897 13.192 246.665 13.048C247.529 12.88 247.841 12.784 248.321 12.52C248.753 12.304 248.849 12.256 249.041 12.256C249.425 12.256 250.025 12.616 250.697 13.264C251.321 13.864 251.633 14.344 251.633 14.728C251.633 15.016 251.513 15.232 251.177 15.496C250.673 15.856 250.649 15.88 249.953 17.056C248.273 19.864 247.241 21.256 245.729 22.84C242.801 25.912 239.177 28.144 235.313 29.248L235.193 28.984C236.705 28.144 237.497 27.64 238.673 26.68C241.673 24.28 244.001 21.712 245.897 18.76C246.761 17.416 247.889 15.28 248.105 14.608C248.153 14.44 248.201 14.344 248.201 14.296C248.225 14.248 248.249 14.2 248.249 14.176C248.249 14.128 248.201 14.08 248.177 14.056C248.153 14.056 248.153 14.056 248.105 14.056C248.081 14.056 248.057 14.056 248.009 14.032C247.985 14.032 247.961 14.056 247.913 14.08C247.865 14.104 247.769 14.104 247.649 14.128C247.433 14.128 246.401 14.368 245.825 14.536C245.321 14.704 245.321 14.704 244.913 14.824C244.769 14.848 244.673 14.872 244.601 14.872C244.169 14.872 243.641 14.584 243.113 14.056C240.713 17.104 237.761 19.504 234.881 20.728ZM266.897 28.24L266.801 27.904C269.369 27.112 271.169 26.056 272.609 24.496C274.217 22.768 275.009 20.656 275.009 18.184C275.009 14.08 272.513 11.632 268.385 11.632C268.073 11.632 267.881 11.632 267.425 11.68C268.265 12.664 268.529 13.312 268.529 14.248C268.529 16.168 267.305 19.528 265.577 22.432C264.017 25.024 262.625 26.344 261.425 26.344C260.897 26.344 260.393 26.056 260.129 25.648C259.937 25.288 259.793 24.952 259.577 24.064C259.433 23.488 259.241 23.152 258.545 22.288C257.969 21.568 257.609 20.512 257.609 19.528C257.609 18.016 258.377 16.192 259.625 14.728C261.689 12.28 265.097 10.792 268.673 10.792C274.025 10.792 277.841 14.176 277.841 18.928C277.841 22.408 275.921 25.192 272.441 26.8C270.953 27.496 269.417 27.904 266.897 28.24ZM266.945 11.752C265.001 12.184 263.705 12.88 262.313 14.248C260.657 15.904 259.745 17.944 259.745 19.96C259.745 21.616 260.561 23.32 261.377 23.32C262.169 23.32 263.753 21.328 265.313 18.376C266.513 16.12 267.233 14.128 267.233 13.072C267.233 12.808 267.209 12.496 267.137 12.28C267.089 12.088 266.969 11.752 266.945 11.752ZM90.252 48.2L90.468 48.008C91.38 48.92 92.268 49.304 93.492 49.304C94.236 49.304 95.052 49.184 95.988 48.944C96.012 48.344 96.012 48.056 96.012 47.576C96.012 45.752 95.916 44.888 95.7 44.432C95.412 43.832 94.86 43.496 93.78 43.28C94.236 42.92 94.524 42.824 95.148 42.824C96.132 42.824 97.38 43.088 98.196 43.496C98.772 43.784 99.084 44.192 99.084 44.648C99.084 44.888 99.036 45.056 98.748 45.512C98.364 46.184 98.172 46.952 98.028 48.344C99.012 47.96 99.348 47.768 100.068 47.192C100.428 46.904 100.692 46.784 100.98 46.784C101.436 46.784 102.156 47.024 102.444 47.288C102.612 47.432 102.708 47.648 102.708 47.888C102.708 48.344 102.228 48.728 101.1 49.208C99.972 49.688 98.892 50.024 97.812 50.264C97.716 51.632 97.716 52.112 97.692 54.272C100.068 53.384 101.916 53 103.788 53C107.412 53 109.692 54.776 109.692 57.608C109.692 60.272 107.652 62.336 105.012 62.336C103.572 62.336 102.324 61.688 101.34 60.416C100.74 59.624 100.404 58.904 100.044 57.488L100.308 57.392C101.364 59.264 102.54 60.152 103.98 60.152C105.852 60.152 107.124 58.784 107.124 56.792C107.124 55.016 105.9 54.032 103.668 54.032C101.82 54.032 99.612 54.68 97.716 55.784C97.74 56.864 97.74 56.864 97.86 59.12C97.884 59.528 97.908 59.888 97.908 60.2C97.908 61.064 97.692 61.76 97.236 62.336C96.804 62.888 96.348 63.152 95.868 63.152C95.556 63.152 95.268 63.032 95.028 62.792C94.932 62.672 94.932 62.672 94.524 62.216C93.54 61.064 93.084 60.728 92.196 60.536C91.596 60.416 91.476 60.368 91.236 60.176C90.948 59.96 90.78 59.624 90.78 59.24C90.78 58.76 91.068 58.232 91.644 57.656C92.7 56.624 93.636 56.024 95.868 54.944C95.916 53.504 95.94 52.04 95.988 50.576C95.244 50.696 94.908 50.744 94.356 50.744C92.46 50.744 91.284 50 90.252 48.2ZM95.772 56.768C94.188 57.776 92.988 59 92.988 59.552C92.988 59.72 93.108 59.888 93.348 60.032C93.852 60.296 94.596 60.512 95.076 60.512C95.436 60.512 95.532 60.392 95.604 59.936C95.652 59.552 95.772 57.512 95.772 56.768ZM104.292 45.728V45.464C104.796 45.416 105.012 45.416 105.372 45.416C106.812 45.416 107.94 45.68 108.972 46.28C110.076 46.904 110.676 47.768 110.676 48.704C110.676 49.568 110.196 50.072 109.428 50.072C109.212 50.072 109.02 50.024 108.66 49.904C108.324 49.808 108.132 49.76 107.868 49.76C107.34 49.76 106.284 49.928 104.892 50.216L104.796 50C106.644 49.04 107.748 48.344 107.748 48.104C107.748 47.912 107.436 47.408 107.052 47.024C106.332 46.328 105.636 45.992 104.292 45.728ZM119.916 63.968L119.796 63.68C121.092 63.008 121.908 62.456 122.748 61.616C123.876 60.488 124.428 59.48 124.812 57.848C124.356 58.136 123.9 58.28 123.324 58.28C121.5 58.28 120.108 56.6 120.108 54.368C120.108 52.112 121.524 50.504 123.516 50.504C124.02 50.504 124.308 50.576 124.98 50.912C124.98 50.24 124.98 50.048 124.98 49.76C124.98 49.184 124.98 48.992 124.956 48.152C121.74 48.536 119.268 49.184 117.468 50.12C117.3 50.192 116.988 50.264 116.772 50.264C116.076 50.264 115.356 49.736 114.684 48.776C114.228 48.08 113.94 47.384 113.94 46.88C113.94 46.784 113.964 46.664 114.036 46.472C114.732 47.456 115.524 47.888 116.604 47.888C117.324 47.888 117.324 47.888 121.596 47.264C122.556 47.12 123.276 47.048 124.908 46.856C124.86 45.032 124.74 44.264 124.404 43.808C124.02 43.28 123.42 42.968 122.316 42.8C122.748 42.416 123.06 42.32 123.828 42.32C124.74 42.32 125.676 42.464 126.54 42.728C127.476 43.04 127.908 43.424 127.908 43.976C127.908 44.216 127.86 44.384 127.668 44.72C127.308 45.368 127.26 45.584 127.14 46.568C130.476 46.28 130.668 46.256 131.484 45.896C131.916 45.704 132.156 45.656 132.516 45.656C133.164 45.656 134.22 46.112 134.844 46.664C135.156 46.928 135.276 47.168 135.276 47.552C135.276 47.984 134.916 48.272 134.412 48.272C134.196 48.272 133.836 48.224 132.996 48.104C131.628 47.936 130.596 47.864 129.06 47.864C128.244 47.864 127.836 47.888 127.02 47.96C126.924 49.232 126.852 50.792 126.852 51.68C126.852 51.776 126.852 51.968 126.852 52.184C127.476 53.36 127.692 54.2 127.692 55.52C127.692 58.256 126.54 60.536 124.356 62.072C123.228 62.864 122.172 63.32 119.916 63.968ZM124.956 53.984C124.956 52.208 124.38 51.2 123.396 51.2C122.436 51.2 121.692 52.208 121.692 53.504C121.692 55.016 122.412 56.072 123.468 56.072C124.404 56.072 124.956 55.304 124.956 53.984ZM143.916 63.968L143.796 63.68C145.092 63.008 145.908 62.456 146.748 61.616C147.876 60.488 148.428 59.48 148.812 57.848C148.356 58.136 147.9 58.28 147.324 58.28C145.5 58.28 144.108 56.6 144.108 54.368C144.108 52.112 145.524 50.504 147.516 50.504C148.02 50.504 148.308 50.576 148.98 50.912C148.98 50.24 148.98 50.048 148.98 49.76C148.98 49.184 148.98 48.992 148.956 48.152C145.74 48.536 143.268 49.184 141.468 50.12C141.3 50.192 140.988 50.264 140.772 50.264C140.076 50.264 139.356 49.736 138.684 48.776C138.228 48.08 137.94 47.384 137.94 46.88C137.94 46.784 137.964 46.664 138.036 46.472C138.732 47.456 139.524 47.888 140.604 47.888C141.324 47.888 141.324 47.888 145.596 47.264C146.556 47.12 147.276 47.048 148.908 46.856C148.86 45.032 148.74 44.264 148.404 43.808C148.02 43.28 147.42 42.968 146.316 42.8C146.748 42.416 147.06 42.32 147.828 42.32C148.74 42.32 149.676 42.464 150.54 42.728C151.476 43.04 151.908 43.424 151.908 43.976C151.908 44.216 151.86 44.384 151.668 44.72C151.308 45.368 151.26 45.584 151.14 46.568C154.476 46.28 154.668 46.256 155.484 45.896C155.916 45.704 156.156 45.656 156.516 45.656C157.164 45.656 158.22 46.112 158.844 46.664C159.156 46.928 159.276 47.168 159.276 47.552C159.276 47.984 158.916 48.272 158.412 48.272C158.196 48.272 157.836 48.224 156.996 48.104C155.628 47.936 154.596 47.864 153.06 47.864C152.244 47.864 151.836 47.888 151.02 47.96C150.924 49.232 150.852 50.792 150.852 51.68C150.852 51.776 150.852 51.968 150.852 52.184C151.476 53.36 151.692 54.2 151.692 55.52C151.692 58.256 150.54 60.536 148.356 62.072C147.228 62.864 146.172 63.32 143.916 63.968ZM148.956 53.984C148.956 52.208 148.38 51.2 147.396 51.2C146.436 51.2 145.692 52.208 145.692 53.504C145.692 55.016 146.412 56.072 147.468 56.072C148.404 56.072 148.956 55.304 148.956 53.984ZM164.604 45.224L164.82 45.056C166.788 46.04 167.58 47.048 168.108 49.352C169.764 48.488 170.892 48.128 172.932 47.864C173.196 46.544 173.292 45.776 173.292 45.08C173.292 44.384 172.98 44.12 172.14 44.12C171.924 44.12 171.78 44.12 171.444 44.168L171.396 43.952C172.308 43.448 172.764 43.28 173.364 43.28C174.012 43.28 174.828 43.568 175.308 43.976C175.716 44.312 175.884 44.696 175.884 45.152C175.884 45.632 175.668 46.712 175.308 47.84C179.412 48.2 182.244 51.008 182.244 54.704C182.244 57.728 180.492 60.152 177.252 61.544C175.716 62.216 174.084 62.576 171.516 62.792L171.468 62.552C174.66 61.52 176.196 60.632 177.588 58.976C178.764 57.536 179.388 55.856 179.388 53.984C179.388 52.232 178.812 50.768 177.708 49.808C176.964 49.16 176.22 48.848 175.044 48.704C173.892 51.872 172.62 54.32 170.94 56.6C171.204 57.032 171.324 57.176 171.732 57.632C172.404 58.376 172.548 58.64 172.548 59.048C172.548 59.504 172.188 59.816 171.684 59.816C171.036 59.816 170.268 59.312 169.428 58.304C168.948 58.88 168.3 59.456 167.508 60.008C166.668 60.608 166.068 60.848 165.468 60.848C164.748 60.848 164.364 60.416 164.22 59.48C164.1 58.688 164.028 58.52 163.452 57.944C162.972 57.44 162.708 56.84 162.708 56.216C162.708 55.232 163.14 54.008 163.812 52.976C164.508 51.944 165.3 51.152 166.62 50.192C166.068 47.192 165.756 46.424 164.604 45.224ZM166.956 51.608C165.42 53.192 164.724 54.704 164.724 56.504C164.724 57.488 165.3 58.52 165.876 58.52C166.476 58.52 167.46 57.848 168.42 56.816C167.724 55.16 167.292 53.624 166.956 51.608ZM168.372 50.408C168.516 50.84 168.516 50.84 169.044 52.688C169.284 53.48 169.524 54.128 169.98 55.064C171.156 53.216 172.092 51.056 172.74 48.728C170.82 49.016 169.764 49.424 168.372 50.408ZM206.028 50.144V55.592C206.028 58.376 206.028 58.376 206.052 60.2C206.052 60.464 206.052 60.704 206.052 60.8C206.052 60.992 206.052 61.208 206.052 61.52C206.028 62.36 205.86 62.72 205.308 63.128C204.78 63.488 203.628 63.824 202.86 63.824C202.644 63.824 202.596 63.752 202.596 63.416C202.572 62.864 202.476 62.432 202.308 62.12C202.092 61.736 201.9 61.616 200.82 61.232C200.796 61.544 200.7 61.664 200.484 61.736C200.268 61.808 199.668 61.88 199.164 61.88C198.612 61.88 198.444 61.784 198.42 61.4V60.68H194.508V61.856C194.508 62.072 194.436 62.144 194.292 62.216C194.076 62.312 193.428 62.36 192.684 62.36C192.276 62.36 192.132 62.264 192.108 62.024C192.132 60.872 192.156 60.416 192.156 59.552C192.156 56.984 192.132 55.568 192.108 54.584C191.34 54.872 191.052 54.968 190.092 55.208L189.972 54.944C191.532 53.936 192.18 53.072 192.516 51.704C192.66 51.032 192.708 50.6 192.756 49.424H189.588V57.296L189.612 63.176C189.54 63.776 189.3 63.848 187.644 63.848C187.02 63.848 186.924 63.776 186.876 63.368C186.972 60.464 187.02 58.76 187.02 56.432C187.02 50.672 187.02 50.6 186.876 47.384C188.22 48.008 188.604 48.2 189.804 48.92H192.42C192.084 48.68 192.036 48.56 191.892 47.912C191.7 46.88 191.34 46.112 190.692 45.248L190.764 45.152H187.668C187.26 45.152 186.804 45.2 185.964 45.32L185.772 44.408C186.708 44.576 187.236 44.648 187.668 44.648H194.94V43.232C194.94 42.728 194.916 42.368 194.844 41.624C195.732 41.696 196.404 41.768 196.836 41.792C198.324 41.888 198.804 42.008 198.804 42.32C198.804 42.56 198.612 42.656 197.748 42.944V44.648H203.028C203.796 43.736 204.036 43.472 204.876 42.632C206.124 43.568 206.484 43.88 207.684 44.864C207.708 44.912 207.756 44.96 207.756 44.984C207.756 45.08 207.636 45.152 207.516 45.152H200.052C201.18 45.512 202.164 45.872 202.668 46.088C202.836 46.184 202.956 46.304 202.956 46.4C202.956 46.64 202.788 46.712 201.876 46.784C200.172 48.2 199.956 48.368 199.164 48.92H203.244C203.82 48.32 203.988 48.152 204.564 47.552C205.62 48.248 205.908 48.464 206.796 49.208C206.892 49.304 206.94 49.376 206.94 49.448C206.94 49.64 206.724 49.784 206.028 50.144ZM194.748 55.664H198.252C198.756 55.136 198.924 54.968 199.5 54.416C200.34 54.968 200.604 55.136 201.348 55.664C201.468 55.76 201.516 55.832 201.516 55.904C201.516 56.096 201.276 56.312 200.772 56.576C200.772 57.056 200.772 57.392 200.772 57.656C200.772 58.088 200.772 58.184 200.796 59.072C200.796 59.648 200.82 60.128 200.82 60.512C200.82 60.704 200.82 60.704 200.82 60.92C201.516 61.016 201.876 61.04 203.076 61.088C203.34 61.088 203.436 61.016 203.436 60.824V49.424H199.476V51.68C199.476 52.16 199.5 52.16 200.652 52.16C201.06 52.16 201.156 52.112 201.3 51.872C201.468 51.536 201.516 51.368 202.044 49.904H202.26L202.308 51.488C202.308 51.824 202.356 51.896 202.572 51.992C203.076 52.208 203.22 52.424 203.22 52.88C203.22 53.696 202.62 53.96 200.724 53.96C198.396 53.96 197.964 53.912 197.604 53.6C197.364 53.408 197.316 53.12 197.316 51.848V49.424H195.252C195.036 52.016 194.34 53.216 192.372 54.416C193.524 54.968 193.74 55.064 194.748 55.664ZM199.476 45.152H191.124C192.42 45.68 193.044 45.968 193.524 46.232C194.124 46.568 194.436 47.024 194.436 47.624C194.436 48.224 194.124 48.68 193.548 48.92H198.108C198.708 47.768 199.212 46.328 199.476 45.152ZM194.508 56.168V60.176H198.42V56.168H194.508ZM216.684 50.072V51.128C216.684 51.392 216.636 51.512 216.516 51.608C216.324 51.728 215.676 51.824 214.908 51.824C214.164 51.824 213.996 51.728 213.972 51.32C214.02 49.328 214.044 48.32 214.044 45.896C214.044 43.952 214.044 43.424 213.972 42.008C215.34 42.584 215.748 42.776 217.02 43.472H224.148C224.748 42.824 224.94 42.632 225.564 42.032C226.476 42.68 226.74 42.872 227.556 43.544C227.772 43.736 227.844 43.856 227.844 43.976C227.844 44.192 227.7 44.312 226.956 44.696C226.956 45.224 226.956 45.68 226.956 45.92C226.956 46.808 226.98 47.888 227.052 51.008C227.052 51.344 226.956 51.488 226.692 51.584C226.476 51.68 225.66 51.776 225.108 51.776C224.532 51.776 224.34 51.656 224.34 51.248V50.072H216.684ZM216.684 43.976V49.568H224.34V43.976H216.684ZM213.132 61.688V62.912C213.132 63.2 213.084 63.32 212.916 63.416C212.652 63.536 212.052 63.632 211.356 63.632C210.66 63.632 210.492 63.512 210.492 63.08C210.564 60.296 210.588 59.624 210.588 58.736C210.588 54.128 210.588 53.528 210.492 52.256C211.788 52.88 212.148 53.072 213.348 53.768H216.708C217.26 53.096 217.452 52.904 218.028 52.28C218.868 52.904 219.108 53.096 219.828 53.672C220.068 53.864 220.14 53.984 220.14 54.128C220.14 54.32 219.972 54.464 219.372 54.8C219.372 56.696 219.396 60.344 219.444 62.624C219.42 63.176 219.012 63.344 217.692 63.344C217.068 63.344 216.876 63.224 216.852 62.864V61.688H213.132ZM213.132 54.272V61.184H216.852V54.272H213.132ZM223.98 61.688V62.792C223.956 63.08 223.884 63.2 223.62 63.296C223.428 63.368 222.66 63.44 222.18 63.44C221.628 63.44 221.436 63.32 221.412 62.912C221.484 60.056 221.484 59.48 221.484 58.304C221.484 54.728 221.46 53.528 221.412 52.256C222.684 52.88 223.068 53.072 224.22 53.768H227.628C228.204 53.12 228.396 52.904 228.972 52.304C229.86 52.976 230.124 53.168 230.916 53.816C231.132 53.984 231.204 54.104 231.204 54.224C231.204 54.416 231.012 54.56 230.412 54.872C230.412 58.28 230.436 61.472 230.484 62.816C230.46 63.056 230.412 63.176 230.292 63.248C230.052 63.416 229.452 63.512 228.804 63.512C228.06 63.512 227.892 63.44 227.868 63.032V61.688H223.98ZM223.98 54.272V61.184H227.868V54.272H223.98Z" fill="#006281"/>
<rect width="5" height="72" fill="#006281"/>
<rect x="316" width="5" height="72" fill="#006281"/>
</svg>
