<svg width="321" height="72" viewBox="0 0 321 72" fill="none" xmlns="http://www.w3.org/2000/svg">
<path d="M75.616 18.712L75.592 18.976C75.04 19.312 74.824 19.504 74.536 19.96C74.32 20.32 74.08 20.8 73.984 21.088C73.912 21.304 73.84 21.376 73.72 21.376C73.312 21.376 71.92 19.864 70.864 18.28C69.616 19.696 68.632 20.536 66.928 21.568C68.704 21.76 68.992 21.832 68.992 22.12C68.992 22.336 68.752 22.48 68.08 22.672V24.28H70.384C71.032 23.464 71.248 23.224 71.92 22.456C72.976 23.272 73.312 23.536 74.368 24.424C74.44 24.52 74.488 24.568 74.488 24.64C74.488 24.712 74.368 24.784 74.2 24.784H68.08V28.504H71.248C71.992 27.592 72.232 27.304 72.952 26.464C74.056 27.4 74.392 27.688 75.424 28.624C75.52 28.72 75.568 28.792 75.568 28.84C75.568 28.936 75.448 29.008 75.28 29.008H60.832C60.16 29.008 59.68 29.056 59.08 29.176L58.912 28.288C59.56 28.456 60.088 28.504 60.904 28.504H65.536V24.784H62.296C61.672 24.784 61.216 24.832 60.712 24.952L60.544 24.064C61.192 24.232 61.672 24.28 62.296 24.28H65.536V24.04C65.536 22.984 65.512 22.504 65.464 21.424L66.784 21.568L66.664 21.448C67.024 21.064 67.144 20.968 67.432 20.632H62.296V21.328C62.296 21.832 62.08 21.928 60.976 21.928C60.16 21.928 60.04 21.88 60.04 21.472C60.136 19.528 60.136 19.384 60.136 16.744V13.744H57.784V15.688C58.408 16.072 58.648 16.264 59.152 16.744C59.752 17.368 59.992 17.872 59.992 18.472C59.992 19.24 59.488 20.056 59.008 20.056C58.72 20.056 58.696 19.96 58.6 19C58.48 17.704 58.216 16.792 57.784 16.192C57.784 22.096 57.784 23.44 57.832 29.296C57.832 29.872 57.592 29.968 56.272 29.968C55.408 29.968 55.264 29.896 55.264 29.416C55.288 29.08 55.36 26.608 55.48 21.952L55.528 19.312C54.52 21.832 53.872 22.888 52.384 24.496L52.168 24.304C53.56 21.352 54.544 17.872 55.192 13.744H54.136C53.656 13.744 53.272 13.792 52.84 13.888L52.672 13.024C53.224 13.168 53.704 13.24 54.136 13.24H55.408V10.912C55.408 9.736 55.384 9.136 55.288 7.816C58.504 8.104 58.744 8.128 58.744 8.44C58.744 8.632 58.6 8.728 57.784 9.04V13.24H58C58.456 12.52 58.456 12.52 58.888 11.896C59.512 12.496 59.656 12.664 60.136 13.216C60.136 12.544 60.136 11.968 60.136 11.536C60.136 10.192 60.112 9.496 60.064 8.152C61.168 8.632 61.504 8.776 62.488 9.376H65.368L66.496 8.056C67.24 8.704 67.456 8.896 68.008 9.376H72.016C72.424 8.968 72.832 8.536 73.24 8.128C73.864 8.632 74.464 9.112 75.04 9.592C75.232 9.76 75.304 9.88 75.304 9.976C75.304 10.168 75.112 10.288 74.488 10.528C73.84 13.24 73.216 14.848 72.112 16.624C73.264 17.656 74.032 18.112 75.616 18.712ZM65.656 17.272V20.128H65.992L66.76 18.976C67.312 19.528 67.48 19.672 67.864 20.128C68.776 18.904 69.208 18.256 70 16.744C69.136 14.92 68.68 13.048 68.416 9.88H65.656V12.808H65.968C66.328 12.376 66.448 12.232 66.832 11.848C67.336 12.232 67.48 12.352 67.936 12.784C68.104 12.928 68.176 13.024 68.176 13.12C68.176 13.264 68.056 13.36 67.504 13.6C67.504 15.64 67.504 15.64 67.528 16.72C67.528 16.912 67.504 17.008 67.432 17.08C67.312 17.2 66.64 17.296 66.064 17.296C66.04 17.296 66.016 17.296 65.968 17.296C65.896 17.296 65.8 17.272 65.656 17.272ZM63.712 16.744H62.296V20.128H63.712V16.744ZM62.272 16.24H65.416V13.312H62.272V16.24ZM62.272 12.808H63.712V9.88H62.272V12.808ZM72.088 9.88H68.848C69.304 12.424 69.736 13.6 70.744 15.088C71.416 13.36 71.752 12.088 72.088 9.88ZM89.2 26.752H94.768V15.424C94.768 14.464 94.72 13.36 94.624 12.424C95.44 12.52 96.016 12.592 96.424 12.64C98.056 12.808 98.512 12.952 98.512 13.24C98.512 13.504 98.224 13.696 97.528 13.912C97.504 15.568 97.504 16.912 97.504 17.728C97.504 21.808 97.552 25.672 97.648 28.72C97.648 29.08 97.528 29.248 97.24 29.368C96.976 29.464 96.256 29.56 95.632 29.56C94.936 29.56 94.816 29.488 94.768 29.008V27.256H81.112V28.624C81.112 28.936 81.064 29.08 80.896 29.2C80.68 29.368 79.984 29.488 79.192 29.488C78.4 29.488 78.232 29.368 78.232 28.792C78.328 25.48 78.376 22.72 78.376 19.264C78.376 15.352 78.352 13.864 78.208 12.376C81.304 12.76 81.448 12.76 81.736 12.88C81.928 12.976 82.024 13.072 82.024 13.216C82.024 13.48 81.808 13.624 81.112 13.84V26.752H86.344V12.184C86.344 10.816 86.272 9.208 86.176 8.2C89.872 8.56 90.256 8.632 90.256 9.016C90.256 9.304 89.992 9.472 89.2 9.688V26.752ZM113.248 11.152V27.136H118.216C118.888 26.32 119.56 25.528 120.232 24.76C121.528 25.792 121.936 26.128 123.208 27.208C123.28 27.304 123.376 27.424 123.376 27.472C123.376 27.568 123.256 27.64 123.064 27.64H103.36C102.64 27.64 101.752 27.688 101.128 27.784L100.984 26.896C101.68 27.04 102.544 27.136 103.36 27.136H110.392V11.152H104.488C103.72 11.152 103.24 11.176 102.592 11.272L102.448 10.432C103.12 10.576 103.816 10.648 104.488 10.648H116.992C117.832 9.688 118.096 9.4 118.936 8.464C120.208 9.448 120.592 9.76 121.84 10.84C121.912 10.912 121.96 10.984 121.96 11.032C121.96 11.104 121.864 11.152 121.72 11.152H113.248ZM147.208 12.856H139.024C142.12 14.008 142.12 14.008 142.12 14.272C142.12 14.512 141.832 14.608 141.184 14.608C141.16 14.608 141.088 14.608 141.016 14.584C139 16 139 16 138.328 16.408H142.072C142.792 15.688 143.032 15.448 143.728 14.752C144.784 15.52 145.12 15.76 146.104 16.6C146.176 16.672 146.224 16.72 146.224 16.792C146.224 16.864 146.104 16.912 145.96 16.912H137.056V19.072H140.728C141.424 18.352 141.64 18.136 142.312 17.464C143.32 18.208 143.608 18.424 144.544 19.216C144.64 19.288 144.688 19.384 144.688 19.432C144.688 19.528 144.568 19.576 144.4 19.576H137.056V21.88H142.576C143.344 21.088 143.584 20.872 144.328 20.128C145.408 20.92 145.72 21.184 146.728 22.024C146.824 22.096 146.872 22.168 146.872 22.24C146.872 22.336 146.752 22.384 146.56 22.384H137.368C138.376 23.392 139.12 23.92 140.152 24.4C142.144 25.312 144.28 25.792 147.28 25.984V26.32C146.44 26.68 146.056 27.136 145.6 28.384C145.456 28.792 145.432 28.816 145.24 28.816C144.928 28.816 143.56 28.312 142.576 27.856C140.272 26.728 138.712 25.288 137.056 22.744V25.144C137.056 26.296 137.056 27.16 137.128 29.32C137.128 29.824 136.816 29.92 135.352 29.92C134.56 29.92 134.44 29.848 134.44 29.44C134.488 28.144 134.56 25.816 134.56 25.264V23.8C132.736 25.528 131.584 26.344 129.88 27.208C128.464 27.928 127.288 28.336 124.912 28.984L124.768 28.696C126.832 27.64 128.416 26.584 130.072 25.096C131.056 24.208 131.608 23.608 132.592 22.384H127.36C126.832 22.384 126.232 22.432 125.632 22.552L125.512 21.664C126.28 21.832 126.736 21.88 127.36 21.88H134.56V19.576H129.568C128.92 19.576 128.368 19.624 127.696 19.72L127.552 18.856C128.272 19 128.824 19.072 129.568 19.072H134.56V16.912H128.152C127.552 16.912 127.192 16.936 126.544 17.056L126.4 16.192C127.072 16.36 127.552 16.408 128.152 16.408H132.232C132.04 16.216 131.992 16.096 131.896 15.688C131.608 14.488 131.368 13.888 130.72 13.048L130.912 12.856H126.928C126.232 12.856 125.68 12.904 125.224 12.976L125.08 12.112C125.728 12.28 126.328 12.352 126.928 12.352H132.616V10.072C132.616 9.016 132.592 8.608 132.496 7.72C135.16 7.912 135.352 7.936 135.616 8.032C135.784 8.08 135.88 8.176 135.88 8.296C135.88 8.512 135.688 8.632 134.968 8.824V12.352H136.744V10.048C136.744 9.136 136.72 8.704 136.672 7.768C139.696 7.96 140.032 8.008 140.032 8.344C140.032 8.536 139.84 8.656 139.12 8.872V12.352H140.056C140.968 10.696 141.664 9.088 141.976 7.984C144.52 8.92 145.264 9.256 145.264 9.52C145.264 9.736 144.976 9.832 144.304 9.832C144.28 9.832 144.208 9.832 144.112 9.832C142.144 11.56 142.048 11.632 140.968 12.352H143.344C144.064 11.608 144.064 11.608 144.976 10.624C146.032 11.416 146.344 11.656 147.376 12.544C147.448 12.616 147.496 12.688 147.496 12.736C147.496 12.808 147.376 12.856 147.208 12.856ZM138.76 12.856H130.912C133.336 13.696 134.224 14.296 134.224 15.088C134.224 15.616 133.912 16.096 133.408 16.408H137.2C137.992 15.112 138.4 14.2 138.76 12.856ZM127.36 8.272L127.552 8.08C130.312 8.992 131.248 9.616 131.248 10.576C131.248 11.368 130.456 12.28 129.76 12.28C129.352 12.28 129.112 11.992 128.968 11.32C128.728 10.288 128.296 9.472 127.36 8.272ZM164.536 18.016H167.152C167.824 17.152 168.064 16.864 168.712 15.976C169.84 16.888 170.176 17.176 171.232 18.112C171.328 18.232 171.376 18.304 171.376 18.352C171.376 18.448 171.256 18.52 171.112 18.52H164.776C165.256 19.672 165.904 20.656 166.816 21.664C168.28 23.2 169.792 24.16 171.808 24.808V25.048C170.92 25.648 170.656 26.104 170.344 27.616C170.272 27.856 170.2 27.976 170.056 27.976C169.84 27.976 169.024 27.28 168.28 26.464C166.6 24.592 165.616 22.648 164.56 19.048L164.584 23.248C164.608 26.44 164.608 26.44 164.68 29.248C164.68 29.536 164.632 29.68 164.488 29.752C164.248 29.92 163.624 30.016 162.832 30.016C162.112 30.016 161.944 29.92 161.944 29.488C162.064 26.56 162.064 26.56 162.088 23.944L162.112 21.784C160 24.808 158.272 26.32 155.008 28.024L154.864 27.832C156.904 25.816 157.864 24.616 159.136 22.432C159.928 21.04 160.528 19.84 161.032 18.52H157.408C157.552 18.808 157.576 18.952 157.576 19.168C157.576 20.104 156.808 21.088 156.088 21.088C155.704 21.088 155.512 20.8 155.464 20.056C155.32 18.376 155.032 17.488 154.36 16.48C154.36 17.056 154.36 17.056 154.36 17.656C154.36 22.792 154.36 26.464 154.384 29.2C154.384 29.824 154.072 29.944 152.536 29.944C151.888 29.944 151.72 29.848 151.72 29.44C151.84 26.704 151.84 26.704 151.936 21.424L151.984 19.336C150.976 21.616 150.112 22.96 148.648 24.52L148.408 24.352C149.392 22.384 149.968 20.8 150.664 18.28C151.144 16.552 151.336 15.688 151.648 13.792H150.208C149.656 13.792 149.392 13.816 148.912 13.936L148.72 13.072C149.248 13.24 149.632 13.288 150.208 13.288H151.84V10.84C151.84 9.688 151.816 9.088 151.696 7.936C152.44 8.008 152.992 8.056 153.376 8.08C154.84 8.224 155.248 8.32 155.248 8.584C155.248 8.8 155.008 8.944 154.36 9.16V13.288H154.72C155.224 12.592 155.392 12.376 155.872 11.752C156.712 12.472 156.904 12.64 157.696 13.408C158.152 11.68 158.296 10.864 158.44 9.208C161.464 9.952 161.824 10.072 161.824 10.336C161.824 10.528 161.632 10.624 160.912 10.792C160.408 11.968 160.168 12.4 159.736 13.192H161.992V10.624C161.992 9.232 161.992 8.872 161.944 7.864C162.64 7.96 163.168 8.032 163.528 8.056C165.256 8.248 165.52 8.32 165.52 8.608C165.52 8.824 165.28 8.968 164.536 9.256V13.192H166.504C167.176 12.352 167.392 12.064 168.04 11.272C169.144 12.136 169.456 12.4 170.512 13.336C170.608 13.432 170.656 13.504 170.656 13.552C170.656 13.648 170.56 13.696 170.416 13.696H164.536V18.016ZM161.992 18.016V13.696H159.448C158.752 14.872 157.72 16.096 156.592 17.104L156.4 16.96C156.952 15.712 157.168 15.16 157.6 13.792H154.36V16.048C155.632 16.672 156.256 17.128 157.096 18.016H161.992ZM175.36 12.928H185.488C185.464 12.232 185.44 11.824 185.44 10.96C185.392 9.424 185.368 8.968 185.248 7.936C188.44 8.224 188.608 8.248 188.896 8.392C188.992 8.44 189.064 8.56 189.064 8.632C189.064 8.872 188.824 9.016 188.08 9.208C188.056 10.36 188.056 11.056 188.056 11.344C188.056 11.776 188.056 12.04 188.08 12.928H190.744C191.128 12.496 191.224 12.376 191.488 12.064C191.08 12.016 191.032 11.944 190.744 11.08C190.456 10.288 190.072 9.64 189.208 8.56L189.304 8.368C190.744 8.728 191.296 8.896 191.848 9.184C192.664 9.592 193 10 193 10.552C193 10.816 192.952 10.984 192.784 11.32C193.816 12.064 193.984 12.208 194.944 13.024C195.04 13.144 195.088 13.216 195.088 13.288C195.088 13.384 194.968 13.432 194.8 13.432H188.104C188.176 15.544 188.32 17.008 188.56 18.352C188.896 20.272 189.616 22.168 190.552 23.584C191.056 24.352 191.488 24.808 192.616 25.72C193.624 23.8 193.912 23.176 194.8 21.208L195.064 21.28L194.344 25.432C194.296 25.72 194.248 26.08 194.248 26.272C194.248 26.584 194.32 26.728 194.704 27.16C194.992 27.52 195.112 27.784 195.112 28.144C195.112 28.912 194.512 29.56 193.816 29.56C192.856 29.56 191.56 28.744 190.168 27.304C187.792 24.832 186.424 21.616 185.848 17.176C185.68 16 185.608 15.04 185.512 13.432H175.36C174.472 13.432 173.896 13.48 173.32 13.6L173.176 12.688C173.8 12.832 174.64 12.928 175.36 12.928ZM180.856 18.112V24.232C182.584 23.872 184.096 23.488 186.136 22.912L186.232 23.2C183.352 24.832 179.44 26.608 175.408 28.096C175.288 29.008 175.168 29.32 174.904 29.32C174.616 29.32 174.424 28.816 173.416 25.528C174.664 25.432 175.456 25.312 178.216 24.784V18.112H175.84C175.24 18.112 174.736 18.16 174.184 18.304L174.04 17.368C174.64 17.536 175.24 17.608 175.84 17.608H181.192C181.912 16.792 182.152 16.528 182.848 15.76C183.904 16.6 184.24 16.864 185.296 17.752C185.392 17.872 185.416 17.92 185.416 17.968C185.416 18.064 185.32 18.112 185.2 18.112H180.856ZM218.104 21.16H208C206.176 23.584 204.88 25.096 203.392 26.488C207.856 26.416 210.112 26.296 212.536 26.08C211.576 24.376 211.144 23.752 209.872 22.408L210.064 22.216C211.984 23.128 213.232 23.872 214.48 24.856C215.728 25.864 216.232 26.536 216.232 27.256C216.232 28.504 215.368 29.8 214.552 29.8C214.24 29.8 214.144 29.68 213.88 29.056C213.424 27.832 213.28 27.52 212.92 26.776C212.704 26.848 212.704 26.848 212.368 26.944C209.92 27.592 205.36 28.504 200.464 29.272C200.296 29.992 200.176 30.232 199.936 30.232C199.672 30.232 199.672 30.232 198.784 26.392C199.744 26.488 200.32 26.512 201.496 26.512C201.52 26.512 202 26.512 202.288 26.512C203.2 24.544 203.632 23.392 204.304 21.16H199.504C198.976 21.16 198.64 21.184 198.016 21.304L197.824 20.44C198.52 20.608 199 20.656 199.576 20.656H213.52C214.288 19.744 214.528 19.48 215.296 18.616C216.592 19.528 217 19.792 218.224 20.776C218.32 20.848 218.368 20.944 218.368 20.992C218.368 21.088 218.248 21.16 218.104 21.16ZM196.816 19.12L196.648 18.856C198.88 17.224 200.56 15.664 202.216 13.648C204.04 11.44 205.12 9.616 205.696 7.816C206.512 7.984 207.16 8.104 207.592 8.2C209.32 8.536 209.848 8.704 209.848 8.968C209.848 9.184 209.656 9.28 208.864 9.448C210.28 11.44 211.528 12.52 213.688 13.624C215.536 14.56 217.024 15.016 219.616 15.424V15.688C218.824 16.024 218.44 16.456 217.984 17.44C217.888 17.656 217.768 18.04 217.696 18.232C217.624 18.472 217.552 18.544 217.408 18.544C217.168 18.544 216.208 18.112 215.344 17.584C213.568 16.528 211.96 15.064 210.568 13.24C209.536 11.896 209.032 11.032 208.504 9.64C205.528 14.128 201.856 17.104 196.816 19.12ZM202.264 17.392L202.072 16.576C202.744 16.72 203.2 16.768 203.848 16.768H208.744C209.488 15.88 209.728 15.616 210.496 14.8C211.672 15.664 212.032 15.952 213.208 16.888C213.328 16.984 213.376 17.056 213.376 17.128C213.376 17.224 213.28 17.272 213.088 17.272H203.704C203.224 17.272 202.912 17.296 202.264 17.392ZM226.72 18.064V18.304C227.752 18.568 228.088 18.688 228.832 19C230.488 19.696 231.112 20.32 231.112 21.232C231.112 22.168 230.392 23.128 229.696 23.128C229.36 23.128 229.168 22.888 228.88 22.168C228.16 20.344 227.584 19.408 226.72 18.688V24.016C226.72 26.488 226.72 27.832 226.768 29.344C226.768 29.584 226.72 29.68 226.576 29.776C226.336 29.944 225.76 30.04 225.04 30.04C224.224 30.04 224.008 29.92 223.984 29.488C224.056 27.544 224.128 25.288 224.128 24.208V20.584C223.096 21.424 222.376 21.904 220.72 22.888L220.528 22.6C222.088 21.184 223.048 20.08 224.2 18.4C225.496 16.504 226.216 15.16 226.888 13.312H222.592C221.8 13.312 221.512 13.336 220.984 13.432L220.816 12.568C221.392 12.736 221.968 12.808 222.616 12.808H224.056V10.072C224.056 9.184 224.032 8.848 223.912 8.056C227.464 8.368 227.608 8.416 227.608 8.728C227.608 8.944 227.392 9.088 226.672 9.352V12.808H227.296C227.824 12.16 227.968 11.992 228.544 11.392C229.432 12.136 229.696 12.376 230.512 13.12C230.728 13.36 230.776 13.432 230.776 13.504C230.776 13.744 230.56 13.84 229.552 14.032C228.496 15.808 227.776 16.864 226.72 18.064ZM234.184 16.744H231.376C230.584 16.744 230.272 16.768 229.672 16.888L229.504 16.024C230.224 16.192 230.584 16.24 231.376 16.24H234.184V11.224C234.184 9.928 234.136 9.28 233.992 8.032C234.784 8.104 235.408 8.152 235.816 8.176C237.496 8.32 237.952 8.44 237.952 8.728C237.952 8.968 237.664 9.136 236.92 9.376V16.24H238.432C239.224 15.304 239.464 15.016 240.232 14.08C241.456 15.016 241.816 15.328 242.944 16.36C243.04 16.456 243.064 16.528 243.064 16.576C243.064 16.672 242.968 16.744 242.824 16.744H236.92V28.312H238.696C239.608 27.256 239.608 27.256 240.616 26.104C241.792 27.088 242.152 27.4 243.304 28.48C243.4 28.576 243.424 28.624 243.424 28.696C243.424 28.768 243.328 28.816 243.184 28.816H230.2C229.336 28.816 228.928 28.84 228.28 28.96L228.088 28.12C228.76 28.264 229.36 28.312 230.176 28.312H234.184V16.744ZM255.112 28.24L255.016 27.904C257.584 27.112 259.384 26.056 260.824 24.496C262.432 22.768 263.224 20.656 263.224 18.184C263.224 14.08 260.728 11.632 256.6 11.632C256.288 11.632 256.096 11.632 255.64 11.68C256.48 12.664 256.744 13.312 256.744 14.248C256.744 16.168 255.52 19.528 253.792 22.432C252.232 25.024 250.84 26.344 249.64 26.344C249.112 26.344 248.608 26.056 248.344 25.648C248.152 25.288 248.008 24.952 247.792 24.064C247.648 23.488 247.456 23.152 246.76 22.288C246.184 21.568 245.824 20.512 245.824 19.528C245.824 18.016 246.592 16.192 247.84 14.728C249.904 12.28 253.312 10.792 256.888 10.792C262.24 10.792 266.056 14.176 266.056 18.928C266.056 22.408 264.136 25.192 260.656 26.8C259.168 27.496 257.632 27.904 255.112 28.24ZM255.16 11.752C253.216 12.184 251.92 12.88 250.528 14.248C248.872 15.904 247.96 17.944 247.96 19.96C247.96 21.616 248.776 23.32 249.592 23.32C250.384 23.32 251.968 21.328 253.528 18.376C254.728 16.12 255.448 14.128 255.448 13.072C255.448 12.808 255.424 12.496 255.352 12.28C255.304 12.088 255.184 11.752 255.16 11.752ZM89.752 48.2L89.968 48.008C90.88 48.92 91.768 49.304 92.992 49.304C93.736 49.304 94.552 49.184 95.488 48.944C95.512 48.344 95.512 48.056 95.512 47.576C95.512 45.752 95.416 44.888 95.2 44.432C94.912 43.832 94.36 43.496 93.28 43.28C93.736 42.92 94.024 42.824 94.648 42.824C95.632 42.824 96.88 43.088 97.696 43.496C98.272 43.784 98.584 44.192 98.584 44.648C98.584 44.888 98.536 45.056 98.248 45.512C97.864 46.184 97.672 46.952 97.528 48.344C98.512 47.96 98.848 47.768 99.568 47.192C99.928 46.904 100.192 46.784 100.48 46.784C100.936 46.784 101.656 47.024 101.944 47.288C102.112 47.432 102.208 47.648 102.208 47.888C102.208 48.344 101.728 48.728 100.6 49.208C99.472 49.688 98.392 50.024 97.312 50.264C97.216 51.632 97.216 52.112 97.192 54.272C99.568 53.384 101.416 53 103.288 53C106.912 53 109.192 54.776 109.192 57.608C109.192 60.272 107.152 62.336 104.512 62.336C103.072 62.336 101.824 61.688 100.84 60.416C100.24 59.624 99.904 58.904 99.544 57.488L99.808 57.392C100.864 59.264 102.04 60.152 103.48 60.152C105.352 60.152 106.624 58.784 106.624 56.792C106.624 55.016 105.4 54.032 103.168 54.032C101.32 54.032 99.112 54.68 97.216 55.784C97.24 56.864 97.24 56.864 97.36 59.12C97.384 59.528 97.408 59.888 97.408 60.2C97.408 61.064 97.192 61.76 96.736 62.336C96.304 62.888 95.848 63.152 95.368 63.152C95.056 63.152 94.768 63.032 94.528 62.792C94.432 62.672 94.432 62.672 94.024 62.216C93.04 61.064 92.584 60.728 91.696 60.536C91.096 60.416 90.976 60.368 90.736 60.176C90.448 59.96 90.28 59.624 90.28 59.24C90.28 58.76 90.568 58.232 91.144 57.656C92.2 56.624 93.136 56.024 95.368 54.944C95.416 53.504 95.44 52.04 95.488 50.576C94.744 50.696 94.408 50.744 93.856 50.744C91.96 50.744 90.784 50 89.752 48.2ZM95.272 56.768C93.688 57.776 92.488 59 92.488 59.552C92.488 59.72 92.608 59.888 92.848 60.032C93.352 60.296 94.096 60.512 94.576 60.512C94.936 60.512 95.032 60.392 95.104 59.936C95.152 59.552 95.272 57.512 95.272 56.768ZM103.792 45.728V45.464C104.296 45.416 104.512 45.416 104.872 45.416C106.312 45.416 107.44 45.68 108.472 46.28C109.576 46.904 110.176 47.768 110.176 48.704C110.176 49.568 109.696 50.072 108.928 50.072C108.712 50.072 108.52 50.024 108.16 49.904C107.824 49.808 107.632 49.76 107.368 49.76C106.84 49.76 105.784 49.928 104.392 50.216L104.296 50C106.144 49.04 107.248 48.344 107.248 48.104C107.248 47.912 106.936 47.408 106.552 47.024C105.832 46.328 105.136 45.992 103.792 45.728ZM119.416 63.968L119.296 63.68C120.592 63.008 121.408 62.456 122.248 61.616C123.376 60.488 123.928 59.48 124.312 57.848C123.856 58.136 123.4 58.28 122.824 58.28C121 58.28 119.608 56.6 119.608 54.368C119.608 52.112 121.024 50.504 123.016 50.504C123.52 50.504 123.808 50.576 124.48 50.912C124.48 50.24 124.48 50.048 124.48 49.76C124.48 49.184 124.48 48.992 124.456 48.152C121.24 48.536 118.768 49.184 116.968 50.12C116.8 50.192 116.488 50.264 116.272 50.264C115.576 50.264 114.856 49.736 114.184 48.776C113.728 48.08 113.44 47.384 113.44 46.88C113.44 46.784 113.464 46.664 113.536 46.472C114.232 47.456 115.024 47.888 116.104 47.888C116.824 47.888 116.824 47.888 121.096 47.264C122.056 47.12 122.776 47.048 124.408 46.856C124.36 45.032 124.24 44.264 123.904 43.808C123.52 43.28 122.92 42.968 121.816 42.8C122.248 42.416 122.56 42.32 123.328 42.32C124.24 42.32 125.176 42.464 126.04 42.728C126.976 43.04 127.408 43.424 127.408 43.976C127.408 44.216 127.36 44.384 127.168 44.72C126.808 45.368 126.76 45.584 126.64 46.568C129.976 46.28 130.168 46.256 130.984 45.896C131.416 45.704 131.656 45.656 132.016 45.656C132.664 45.656 133.72 46.112 134.344 46.664C134.656 46.928 134.776 47.168 134.776 47.552C134.776 47.984 134.416 48.272 133.912 48.272C133.696 48.272 133.336 48.224 132.496 48.104C131.128 47.936 130.096 47.864 128.56 47.864C127.744 47.864 127.336 47.888 126.52 47.96C126.424 49.232 126.352 50.792 126.352 51.68C126.352 51.776 126.352 51.968 126.352 52.184C126.976 53.36 127.192 54.2 127.192 55.52C127.192 58.256 126.04 60.536 123.856 62.072C122.728 62.864 121.672 63.32 119.416 63.968ZM124.456 53.984C124.456 52.208 123.88 51.2 122.896 51.2C121.936 51.2 121.192 52.208 121.192 53.504C121.192 55.016 121.912 56.072 122.968 56.072C123.904 56.072 124.456 55.304 124.456 53.984ZM143.416 63.968L143.296 63.68C144.592 63.008 145.408 62.456 146.248 61.616C147.376 60.488 147.928 59.48 148.312 57.848C147.856 58.136 147.4 58.28 146.824 58.28C145 58.28 143.608 56.6 143.608 54.368C143.608 52.112 145.024 50.504 147.016 50.504C147.52 50.504 147.808 50.576 148.48 50.912C148.48 50.24 148.48 50.048 148.48 49.76C148.48 49.184 148.48 48.992 148.456 48.152C145.24 48.536 142.768 49.184 140.968 50.12C140.8 50.192 140.488 50.264 140.272 50.264C139.576 50.264 138.856 49.736 138.184 48.776C137.728 48.08 137.44 47.384 137.44 46.88C137.44 46.784 137.464 46.664 137.536 46.472C138.232 47.456 139.024 47.888 140.104 47.888C140.824 47.888 140.824 47.888 145.096 47.264C146.056 47.12 146.776 47.048 148.408 46.856C148.36 45.032 148.24 44.264 147.904 43.808C147.52 43.28 146.92 42.968 145.816 42.8C146.248 42.416 146.56 42.32 147.328 42.32C148.24 42.32 149.176 42.464 150.04 42.728C150.976 43.04 151.408 43.424 151.408 43.976C151.408 44.216 151.36 44.384 151.168 44.72C150.808 45.368 150.76 45.584 150.64 46.568C153.976 46.28 154.168 46.256 154.984 45.896C155.416 45.704 155.656 45.656 156.016 45.656C156.664 45.656 157.72 46.112 158.344 46.664C158.656 46.928 158.776 47.168 158.776 47.552C158.776 47.984 158.416 48.272 157.912 48.272C157.696 48.272 157.336 48.224 156.496 48.104C155.128 47.936 154.096 47.864 152.56 47.864C151.744 47.864 151.336 47.888 150.52 47.96C150.424 49.232 150.352 50.792 150.352 51.68C150.352 51.776 150.352 51.968 150.352 52.184C150.976 53.36 151.192 54.2 151.192 55.52C151.192 58.256 150.04 60.536 147.856 62.072C146.728 62.864 145.672 63.32 143.416 63.968ZM148.456 53.984C148.456 52.208 147.88 51.2 146.896 51.2C145.936 51.2 145.192 52.208 145.192 53.504C145.192 55.016 145.912 56.072 146.968 56.072C147.904 56.072 148.456 55.304 148.456 53.984ZM164.104 45.224L164.32 45.056C166.288 46.04 167.08 47.048 167.608 49.352C169.264 48.488 170.392 48.128 172.432 47.864C172.696 46.544 172.792 45.776 172.792 45.08C172.792 44.384 172.48 44.12 171.64 44.12C171.424 44.12 171.28 44.12 170.944 44.168L170.896 43.952C171.808 43.448 172.264 43.28 172.864 43.28C173.512 43.28 174.328 43.568 174.808 43.976C175.216 44.312 175.384 44.696 175.384 45.152C175.384 45.632 175.168 46.712 174.808 47.84C178.912 48.2 181.744 51.008 181.744 54.704C181.744 57.728 179.992 60.152 176.752 61.544C175.216 62.216 173.584 62.576 171.016 62.792L170.968 62.552C174.16 61.52 175.696 60.632 177.088 58.976C178.264 57.536 178.888 55.856 178.888 53.984C178.888 52.232 178.312 50.768 177.208 49.808C176.464 49.16 175.72 48.848 174.544 48.704C173.392 51.872 172.12 54.32 170.44 56.6C170.704 57.032 170.824 57.176 171.232 57.632C171.904 58.376 172.048 58.64 172.048 59.048C172.048 59.504 171.688 59.816 171.184 59.816C170.536 59.816 169.768 59.312 168.928 58.304C168.448 58.88 167.8 59.456 167.008 60.008C166.168 60.608 165.568 60.848 164.968 60.848C164.248 60.848 163.864 60.416 163.72 59.48C163.6 58.688 163.528 58.52 162.952 57.944C162.472 57.44 162.208 56.84 162.208 56.216C162.208 55.232 162.64 54.008 163.312 52.976C164.008 51.944 164.8 51.152 166.12 50.192C165.568 47.192 165.256 46.424 164.104 45.224ZM166.456 51.608C164.92 53.192 164.224 54.704 164.224 56.504C164.224 57.488 164.8 58.52 165.376 58.52C165.976 58.52 166.96 57.848 167.92 56.816C167.224 55.16 166.792 53.624 166.456 51.608ZM167.872 50.408C168.016 50.84 168.016 50.84 168.544 52.688C168.784 53.48 169.024 54.128 169.48 55.064C170.656 53.216 171.592 51.056 172.24 48.728C170.32 49.016 169.264 49.424 167.872 50.408ZM205.528 50.144V55.592C205.528 58.376 205.528 58.376 205.552 60.2C205.552 60.464 205.552 60.704 205.552 60.8C205.552 60.992 205.552 61.208 205.552 61.52C205.528 62.36 205.36 62.72 204.808 63.128C204.28 63.488 203.128 63.824 202.36 63.824C202.144 63.824 202.096 63.752 202.096 63.416C202.072 62.864 201.976 62.432 201.808 62.12C201.592 61.736 201.4 61.616 200.32 61.232C200.296 61.544 200.2 61.664 199.984 61.736C199.768 61.808 199.168 61.88 198.664 61.88C198.112 61.88 197.944 61.784 197.92 61.4V60.68H194.008V61.856C194.008 62.072 193.936 62.144 193.792 62.216C193.576 62.312 192.928 62.36 192.184 62.36C191.776 62.36 191.632 62.264 191.608 62.024C191.632 60.872 191.656 60.416 191.656 59.552C191.656 56.984 191.632 55.568 191.608 54.584C190.84 54.872 190.552 54.968 189.592 55.208L189.472 54.944C191.032 53.936 191.68 53.072 192.016 51.704C192.16 51.032 192.208 50.6 192.256 49.424H189.088V57.296L189.112 63.176C189.04 63.776 188.8 63.848 187.144 63.848C186.52 63.848 186.424 63.776 186.376 63.368C186.472 60.464 186.52 58.76 186.52 56.432C186.52 50.672 186.52 50.6 186.376 47.384C187.72 48.008 188.104 48.2 189.304 48.92H191.92C191.584 48.68 191.536 48.56 191.392 47.912C191.2 46.88 190.84 46.112 190.192 45.248L190.264 45.152H187.168C186.76 45.152 186.304 45.2 185.464 45.32L185.272 44.408C186.208 44.576 186.736 44.648 187.168 44.648H194.44V43.232C194.44 42.728 194.416 42.368 194.344 41.624C195.232 41.696 195.904 41.768 196.336 41.792C197.824 41.888 198.304 42.008 198.304 42.32C198.304 42.56 198.112 42.656 197.248 42.944V44.648H202.528C203.296 43.736 203.536 43.472 204.376 42.632C205.624 43.568 205.984 43.88 207.184 44.864C207.208 44.912 207.256 44.96 207.256 44.984C207.256 45.08 207.136 45.152 207.016 45.152H199.552C200.68 45.512 201.664 45.872 202.168 46.088C202.336 46.184 202.456 46.304 202.456 46.4C202.456 46.64 202.288 46.712 201.376 46.784C199.672 48.2 199.456 48.368 198.664 48.92H202.744C203.32 48.32 203.488 48.152 204.064 47.552C205.12 48.248 205.408 48.464 206.296 49.208C206.392 49.304 206.44 49.376 206.44 49.448C206.44 49.64 206.224 49.784 205.528 50.144ZM194.248 55.664H197.752C198.256 55.136 198.424 54.968 199 54.416C199.84 54.968 200.104 55.136 200.848 55.664C200.968 55.76 201.016 55.832 201.016 55.904C201.016 56.096 200.776 56.312 200.272 56.576C200.272 57.056 200.272 57.392 200.272 57.656C200.272 58.088 200.272 58.184 200.296 59.072C200.296 59.648 200.32 60.128 200.32 60.512C200.32 60.704 200.32 60.704 200.32 60.92C201.016 61.016 201.376 61.04 202.576 61.088C202.84 61.088 202.936 61.016 202.936 60.824V49.424H198.976V51.68C198.976 52.16 199 52.16 200.152 52.16C200.56 52.16 200.656 52.112 200.8 51.872C200.968 51.536 201.016 51.368 201.544 49.904H201.76L201.808 51.488C201.808 51.824 201.856 51.896 202.072 51.992C202.576 52.208 202.72 52.424 202.72 52.88C202.72 53.696 202.12 53.96 200.224 53.96C197.896 53.96 197.464 53.912 197.104 53.6C196.864 53.408 196.816 53.12 196.816 51.848V49.424H194.752C194.536 52.016 193.84 53.216 191.872 54.416C193.024 54.968 193.24 55.064 194.248 55.664ZM198.976 45.152H190.624C191.92 45.68 192.544 45.968 193.024 46.232C193.624 46.568 193.936 47.024 193.936 47.624C193.936 48.224 193.624 48.68 193.048 48.92H197.608C198.208 47.768 198.712 46.328 198.976 45.152ZM194.008 56.168V60.176H197.92V56.168H194.008ZM216.184 50.072V51.128C216.184 51.392 216.136 51.512 216.016 51.608C215.824 51.728 215.176 51.824 214.408 51.824C213.664 51.824 213.496 51.728 213.472 51.32C213.52 49.328 213.544 48.32 213.544 45.896C213.544 43.952 213.544 43.424 213.472 42.008C214.84 42.584 215.248 42.776 216.52 43.472H223.648C224.248 42.824 224.44 42.632 225.064 42.032C225.976 42.68 226.24 42.872 227.056 43.544C227.272 43.736 227.344 43.856 227.344 43.976C227.344 44.192 227.2 44.312 226.456 44.696C226.456 45.224 226.456 45.68 226.456 45.92C226.456 46.808 226.48 47.888 226.552 51.008C226.552 51.344 226.456 51.488 226.192 51.584C225.976 51.68 225.16 51.776 224.608 51.776C224.032 51.776 223.84 51.656 223.84 51.248V50.072H216.184ZM216.184 43.976V49.568H223.84V43.976H216.184ZM212.632 61.688V62.912C212.632 63.2 212.584 63.32 212.416 63.416C212.152 63.536 211.552 63.632 210.856 63.632C210.16 63.632 209.992 63.512 209.992 63.08C210.064 60.296 210.088 59.624 210.088 58.736C210.088 54.128 210.088 53.528 209.992 52.256C211.288 52.88 211.648 53.072 212.848 53.768H216.208C216.76 53.096 216.952 52.904 217.528 52.28C218.368 52.904 218.608 53.096 219.328 53.672C219.568 53.864 219.64 53.984 219.64 54.128C219.64 54.32 219.472 54.464 218.872 54.8C218.872 56.696 218.896 60.344 218.944 62.624C218.92 63.176 218.512 63.344 217.192 63.344C216.568 63.344 216.376 63.224 216.352 62.864V61.688H212.632ZM212.632 54.272V61.184H216.352V54.272H212.632ZM223.48 61.688V62.792C223.456 63.08 223.384 63.2 223.12 63.296C222.928 63.368 222.16 63.44 221.68 63.44C221.128 63.44 220.936 63.32 220.912 62.912C220.984 60.056 220.984 59.48 220.984 58.304C220.984 54.728 220.96 53.528 220.912 52.256C222.184 52.88 222.568 53.072 223.72 53.768H227.128C227.704 53.12 227.896 52.904 228.472 52.304C229.36 52.976 229.624 53.168 230.416 53.816C230.632 53.984 230.704 54.104 230.704 54.224C230.704 54.416 230.512 54.56 229.912 54.872C229.912 58.28 229.936 61.472 229.984 62.816C229.96 63.056 229.912 63.176 229.792 63.248C229.552 63.416 228.952 63.512 228.304 63.512C227.56 63.512 227.392 63.44 227.368 63.032V61.688H223.48ZM223.48 54.272V61.184H227.368V54.272H223.48Z" fill="#006281"/>
<rect width="5" height="72" fill="#006281"/>
<rect x="316" width="5" height="72" fill="#006281"/>
</svg>
