<svg width="606" height="62" viewBox="0 0 606 62" fill="none" xmlns="http://www.w3.org/2000/svg">
<path d="M51.756 22.42H54.888C54.888 18.316 54.852 17.884 54.636 15.796C55.716 15.904 56.544 16.012 57.084 16.048C59.568 16.3 60.144 16.444 60.144 16.876C60.144 17.164 59.748 17.416 58.632 17.812V22.42H62.196C63.024 21.484 63.312 21.196 64.212 20.26C65.472 21.232 65.832 21.52 67.02 22.42C67.344 22.708 67.452 22.888 67.452 23.032C67.452 23.356 67.128 23.608 66.156 24.004C66.192 34.228 66.192 35.74 66.372 39.88C66.372 40.276 66.264 40.456 65.904 40.6C65.58 40.744 64.5 40.852 63.6 40.852C62.7 40.852 62.448 40.708 62.448 40.168V38.548H58.668C58.668 40.312 58.668 41.248 58.812 48.016C58.812 48.484 58.668 48.664 58.236 48.808C57.948 48.916 56.58 49.024 55.788 49.024C54.96 49.024 54.708 48.808 54.708 48.16C54.78 45.352 54.78 45.352 54.852 38.548H51.396V39.952C51.36 40.312 51.288 40.456 51.108 40.564C50.748 40.744 49.776 40.888 48.696 40.888C47.832 40.888 47.58 40.708 47.58 40.06V39.988C47.688 34.624 47.724 32.968 47.724 28C47.724 26.272 47.724 25.588 47.688 24.328C47.4 24.508 47.328 24.544 46.5 24.724C44.772 27.856 43.944 29.188 42.36 31.096V31.168C42.972 31.384 43.8 31.78 44.628 32.284C46.356 33.292 47.148 34.3 47.148 35.452C47.148 36.784 46.176 38.188 45.24 38.188C44.592 38.188 44.376 37.9 44.232 36.856C44.016 35.164 43.548 33.544 43.008 32.536C42.864 32.284 42.684 32.104 42.36 31.852V39.772C42.36 44.308 42.36 45.496 42.432 48.052C42.396 48.808 41.82 48.988 39.696 48.988C38.724 48.988 38.508 48.844 38.508 48.16C38.544 47.476 38.616 44.812 38.688 40.204V34.732C37.284 35.884 36.312 36.604 33.936 38.116L33.648 37.684C35.736 35.632 37.248 33.724 38.976 31.024C40.524 28.648 41.46 26.668 42.576 23.716H36.996C35.808 23.716 35.34 23.752 34.548 23.896L34.332 22.6C35.304 22.852 36.024 22.96 36.924 22.96H38.688V19.036C38.688 18.064 38.616 17.344 38.436 15.868C42.756 16.372 43.044 16.408 43.44 16.588C43.692 16.696 43.836 16.84 43.836 16.984C43.836 17.344 43.44 17.596 42.36 17.92V22.96H43.224C43.98 22.132 43.98 22.132 44.844 21.232C45.996 22.168 46.32 22.456 47.364 23.428C47.508 23.572 47.544 23.644 47.688 23.788C47.652 22.42 47.616 21.916 47.508 20.26C49.416 21.16 49.956 21.448 51.756 22.42ZM58.668 37.792H62.448V30.592H58.632L58.668 37.792ZM54.852 37.792L54.888 30.592H51.396V37.792H54.852ZM58.632 29.836H62.448V23.176H58.632V29.836ZM51.396 29.836H54.888C54.888 29.44 54.888 29.44 54.888 23.176H51.396V29.836ZM85.452 33.76L85.236 32.536C82.788 35.02 80.412 36.604 76.596 38.224L76.452 37.936C79.188 35.704 80.484 34.372 81.96 32.248C82.824 30.988 83.292 30.196 84.012 28.576H81.6C80.664 28.576 80.088 28.612 79.26 28.792L79.044 27.532C79.98 27.748 80.7 27.82 81.636 27.82H84.084V22.024H82.68C81.816 22.024 81.168 22.096 80.34 22.24L80.16 20.98C81.06 21.196 81.78 21.268 82.608 21.268H84.084V19.036C84.084 18.028 84.048 17.416 83.904 16.048C85.02 16.156 85.848 16.228 86.424 16.264C88.728 16.48 89.304 16.624 89.304 17.02C89.304 17.38 88.908 17.596 87.864 17.848V21.268H92.436V18.748C92.436 17.74 92.4 17.236 92.256 16.084C93.336 16.156 94.236 16.228 94.776 16.3C97.116 16.48 97.692 16.624 97.692 17.02C97.692 17.344 97.332 17.56 96.252 17.884V21.268H97.44C98.34 20.116 98.628 19.756 99.564 18.604C101.148 19.828 101.616 20.188 103.128 21.52C103.236 21.628 103.308 21.772 103.308 21.844C103.308 21.952 103.164 22.024 102.948 22.024H96.252V27.82H97.872C98.844 26.524 99.132 26.128 100.14 24.904C101.796 26.236 102.264 26.632 103.884 28.072C103.992 28.18 104.064 28.288 104.064 28.396C104.064 28.504 103.92 28.576 103.668 28.576H93.948C94.992 29.692 95.604 30.196 96.756 30.88C98.916 32.104 101.004 32.716 104.388 33.112V33.508C103.632 33.976 103.344 34.264 102.84 35.092C102.516 35.668 102.228 36.352 102.12 36.892C102.048 37.18 101.94 37.288 101.724 37.288C101.58 37.288 101.256 37.144 100.32 36.604C99.06 35.92 97.98 35.092 96.864 33.976C96.612 34.156 96.504 34.228 96.252 34.372C96.252 36.1 96.252 36.1 96.36 39.664C96.324 40.348 95.82 40.528 93.912 40.528C92.724 40.528 92.616 40.492 92.58 39.988V38.8H86.136V43.768C86.136 44.704 86.244 44.74 88.08 44.74C88.836 44.74 89.952 44.74 91.428 44.776C91.536 44.776 91.716 44.776 91.716 44.776C94.74 44.776 96.252 44.668 96.72 44.452C97.44 44.128 98.088 42.796 99.78 38.224L100.14 38.296L99.852 43.012C99.852 43.084 99.852 43.192 99.852 43.264C99.852 43.732 99.96 43.876 100.464 44.056C101.436 44.38 101.868 44.884 101.868 45.712C101.868 46.576 101.256 47.296 100.284 47.584C99.06 47.944 97.008 48.052 92.292 48.052C84.444 48.052 83.94 48.016 83.184 47.548C82.572 47.116 82.356 46.612 82.356 45.424L82.392 42.472V39.016C82.392 37.756 82.392 37.288 82.32 35.884C84.192 36.748 84.732 37.036 86.496 38.044H92.58V33.544H87.72C86.784 33.544 86.316 33.58 85.452 33.76ZM93.336 28.576H88.224C86.964 30.556 86.46 31.24 85.272 32.5C86.028 32.68 86.928 32.788 87.72 32.788H92.292C93.048 31.996 93.264 31.78 93.948 31.132C94.776 31.816 95.064 32.032 95.928 32.752C94.884 31.492 94.272 30.52 93.336 28.576ZM92.436 27.82V22.024H87.864V27.82H92.436ZM69.864 38.008L69.936 37.612C71.34 37.9 71.88 38.008 72.276 38.008C73.104 38.008 73.392 37.576 74.94 34.336C76.56 30.916 78.18 27.136 79.836 22.924L80.268 23.104L76.02 38.044C75.84 38.692 75.732 39.16 75.732 39.448C75.732 39.916 75.804 40.24 76.236 41.536C76.776 43.048 76.956 43.876 76.956 44.632C76.956 46.756 75.192 48.592 73.248 48.592C72.528 48.592 72.132 48.16 72.132 47.476C72.132 47.188 72.132 47.08 72.456 44.812C72.708 43.084 72.816 42.004 72.816 41.104C72.816 39.448 72.456 39.088 69.864 38.008ZM72.024 16.84L72.24 16.516C77.244 17.668 79.152 18.748 79.152 20.476C79.152 22.024 78.072 23.5 76.992 23.5C76.524 23.5 76.308 23.284 75.876 22.276C74.94 20.116 73.968 18.712 72.024 16.84ZM69.72 24.652L69.864 24.328C72.276 24.868 73.536 25.3 74.868 26.02C75.948 26.596 76.416 27.28 76.416 28.288C76.416 29.764 75.3 31.24 74.148 31.24C73.572 31.24 73.428 31.024 72.996 29.872C72.348 27.928 71.484 26.56 69.72 24.652ZM115.476 29.188V31.888C118.86 33.04 120.336 34.228 120.336 35.812C120.336 37.144 119.256 38.656 118.284 38.656C117.816 38.656 117.636 38.332 117.42 37.216C116.952 34.804 116.412 33.58 115.476 32.644V34.804C115.476 39.628 115.476 41.248 115.62 48.196C115.584 48.88 115.188 48.988 113.172 48.988C111.984 48.988 111.804 48.916 111.804 48.34C111.84 46.648 111.84 46.648 111.912 44.416C111.984 42.328 111.984 41.752 112.056 38.872L112.128 35.776C110.148 39.592 109.104 40.996 106.152 43.768L105.864 43.48C107.484 40.78 108.528 38.476 109.788 34.948C110.508 32.788 111.12 30.7 111.444 29.188H108.456C107.808 29.188 107.34 29.26 106.728 29.404L106.512 28.144C107.196 28.36 107.808 28.432 108.42 28.432H111.984V20.656C111.984 18.496 111.912 17.632 111.696 15.796C115.98 16.192 116.124 16.192 116.484 16.336C116.772 16.444 116.88 16.588 116.88 16.768C116.88 17.056 116.664 17.2 115.512 17.668V28.432H116.34C117.132 27.496 117.384 27.208 118.14 26.272C119.184 27.136 119.472 27.388 120.264 28.144L120.444 28.432H127.032V24.58H123.072C122.532 24.58 122.136 24.616 121.524 24.76L121.308 23.608C121.92 23.752 122.424 23.824 123.072 23.824H127.032V20.476H122.028C121.524 20.548 121.416 20.548 121.092 20.62C119.436 23.392 118.86 24.112 116.16 27.172L115.908 27.028C117.168 23.32 117.672 21.124 117.996 18.1C120.048 18.784 120.336 18.892 122.172 19.72H127.032V19.432C127.032 17.704 126.996 17.056 126.816 15.724C131.316 16.12 131.352 16.12 131.748 16.264C132 16.372 132.108 16.48 132.108 16.66C132.108 17.02 131.784 17.236 130.632 17.668V19.72H133.872C134.88 18.604 135.204 18.244 136.248 17.164C137.832 18.352 138.3 18.712 139.704 19.972C139.812 20.116 139.884 20.188 139.884 20.26C139.884 20.404 139.704 20.476 139.488 20.476H130.632V23.824H133.332C134.268 22.744 134.592 22.42 135.564 21.376C137.004 22.528 137.436 22.888 138.768 24.076C138.876 24.22 138.948 24.292 138.948 24.364C138.948 24.508 138.804 24.58 138.588 24.58H130.632V28.432H134.34C135.096 27.568 135.888 26.704 136.716 25.768C138.264 26.992 138.732 27.388 140.136 28.72C140.244 28.828 140.316 28.936 140.316 29.008C140.316 29.116 140.172 29.188 139.992 29.188H115.476ZM133.368 40.852H124.764V43.588C124.764 44.992 124.764 45.928 124.8 48.016C124.764 48.772 124.404 48.916 122.352 48.916C121.236 48.916 121.092 48.808 121.092 48.16C121.2 45.136 121.236 43.264 121.236 37.72C121.236 33.724 121.2 32.428 121.056 29.98C122.928 30.772 123.468 31.024 125.268 31.888H133.044C133.872 31.06 134.124 30.808 134.916 30.052C136.248 30.88 136.608 31.132 137.796 32.032C138.048 32.212 138.156 32.356 138.156 32.536C138.156 32.824 137.904 33.004 137.04 33.508V40.348C137.04 40.42 137.076 42.364 137.148 45.388C137.112 47.008 136.644 47.836 135.42 48.304C134.664 48.628 133.404 48.88 132.504 48.88C132.036 48.88 131.964 48.808 131.928 48.304C131.712 46.396 131.208 46 127.896 45.1L127.932 44.704C130.02 44.848 130.74 44.884 132.864 44.884C133.26 44.884 133.368 44.776 133.368 44.38V40.852ZM124.764 35.956H133.368V32.644H124.764V35.956ZM133.368 36.712H124.764V40.096H133.368V36.712ZM106.8 18.208L107.052 18.028C109.536 20.152 110.976 22.348 110.976 24.076C110.976 25.408 109.752 26.992 108.744 26.992C108.204 26.992 108.06 26.668 107.988 25.48C107.88 21.844 107.736 20.98 106.8 18.208ZM171.42 25.948L171.744 25.696C173.436 26.668 174.048 27.064 174.552 27.604C175.2 28.216 175.488 28.828 175.488 29.44C175.488 30.556 174.444 31.816 173.508 31.816C173.076 31.816 172.86 31.492 172.68 30.304C172.644 29.872 172.572 29.584 172.464 29.116C172.068 29.26 170.124 29.8 166.704 30.808C166.524 31.636 166.488 31.744 166.38 31.816C166.128 32.032 166.128 32.032 166.128 32.032C166.092 31.996 166.092 31.996 165.948 31.924C165.732 31.816 165.732 31.816 165.48 30.772C165.264 29.944 165.192 29.512 164.94 28.396C165.3 28.468 165.444 28.468 165.732 28.468C165.768 28.468 165.876 28.468 166.02 28.468C166.128 28.468 166.272 28.468 166.488 28.468C168.864 25.3 170.88 22.06 171.564 20.188C172.392 20.584 173.076 20.872 173.508 21.088C175.2 21.88 175.56 22.096 175.56 22.42C175.56 22.744 175.2 22.816 174.12 22.816H173.976C170.268 26.56 169.62 27.136 168.036 28.396C168.864 28.36 170.268 28.252 172.248 28.108C171.924 27.064 171.816 26.74 171.42 25.948ZM165.624 34.372H171.132C171.888 33.544 172.572 32.752 173.256 32.032C174.516 33.112 174.912 33.472 176.136 34.588C176.244 34.732 176.316 34.84 176.316 34.912C176.316 35.056 176.172 35.128 175.884 35.128H165.804C166.236 36.604 166.668 37.612 167.46 38.98C168.504 37.612 168.792 37.108 169.404 35.668C173.976 37.576 173.976 37.576 173.976 37.9C173.976 38.26 173.58 38.368 172.356 38.368H172.176C170.88 39.952 170.34 40.564 169.368 41.5C170.484 42.688 171.096 43.192 172.68 44.056C173.76 42.436 173.76 42.436 175.848 38.656L176.208 38.8L175.164 43.48C175.02 44.452 175.02 44.452 175.02 44.668C175.02 44.92 175.056 44.992 175.632 45.712C175.92 46.036 176.064 46.432 176.064 46.864C176.064 47.944 175.272 48.736 174.228 48.736C172.176 48.736 169.368 46.9 166.704 43.84C165.264 44.884 163.824 45.712 162.204 46.468C160.332 47.332 158.856 47.8 155.508 48.592L155.364 48.16C159.756 46.144 162.168 44.524 165.048 41.644C163.824 39.7 162.996 37.648 162.42 35.128H157.812C157.74 36.316 157.704 36.82 157.632 37.432C160.836 38.656 162.168 39.808 162.168 41.284C162.168 42.508 161.196 43.768 160.26 43.768C159.792 43.768 159.576 43.408 159.324 42.184C158.784 39.88 158.424 39.016 157.56 37.972C157.236 40.168 156.696 41.86 155.832 43.48C154.752 45.532 153.528 46.828 150.72 48.844L150.432 48.52C152.34 45.82 153.204 43.804 153.78 40.78C154.104 38.872 154.14 38.584 154.176 35.128H153.42C152.7 35.128 152.16 35.2 151.512 35.38L151.224 34.12C152.16 34.336 152.556 34.372 153.42 34.372H162.276C161.916 32.464 161.592 30.268 161.412 28C161.304 26.812 161.304 26.812 161.232 22.96H160.8C158.928 25.444 156.84 27.856 155.184 29.332C156.372 29.296 156.372 29.296 158.964 29.08C158.856 28.216 158.82 27.928 158.424 26.56L158.676 26.344C160.368 27.532 161.34 28.972 161.34 30.268C161.34 31.348 160.512 32.464 159.72 32.464C159.324 32.464 159.252 32.248 159.144 31.024C159.144 30.628 159.144 30.628 159.072 30.052C157.74 30.664 156.876 31.024 154.356 31.924C154.212 32.716 154.068 33.004 153.816 33.004C153.528 33.004 153.492 32.968 152.952 30.736C152.808 31.96 152.088 32.968 151.332 32.968C151.008 32.968 150.864 32.68 150.792 31.708C150.576 29.584 150.324 28.72 149.604 27.496C149.604 35.956 149.64 45.28 149.676 47.872C149.676 47.908 149.676 47.98 149.676 47.98C149.676 48.7 149.172 48.88 147.336 48.88C146.112 48.88 145.932 48.808 145.932 48.16C145.932 47.692 146.04 44.056 146.22 37.252L146.256 33.508C144.888 36.892 143.988 38.332 141.648 40.888L141.324 40.636C143.448 36.136 144.924 30.7 145.752 24.472H143.88C143.232 24.472 142.764 24.544 142.08 24.688L141.864 23.428C142.62 23.644 143.124 23.716 143.88 23.716H146.076V19.972C146.076 18.352 146.04 17.524 145.896 15.76C150.828 16.156 151.044 16.192 151.044 16.66C151.044 16.948 150.9 17.02 149.604 17.488V23.716H149.964C150.648 22.888 150.828 22.636 151.476 21.808C152.484 22.78 152.772 23.068 153.636 24.04C153.744 24.148 153.78 24.22 153.78 24.292C153.78 24.4 153.636 24.472 153.42 24.472H149.604V26.848C149.892 27.028 149.892 27.028 150.324 27.316C151.476 28.036 151.908 28.432 152.592 29.368C153.132 29.368 153.528 29.368 153.78 29.368C155.868 26.38 157.488 23.212 158.496 20.368C160.692 21.52 160.692 21.52 161.232 21.808C161.16 17.92 161.16 17.92 161.016 15.76C165.012 16.084 165.372 16.12 165.804 16.264C166.056 16.372 166.2 16.48 166.2 16.66C166.2 16.984 165.804 17.2 164.724 17.452C164.688 21.304 164.688 21.556 164.688 22.744C164.688 27.784 164.976 31.492 165.624 34.372ZM152.124 20.224L152.376 19.972C153.276 20.368 153.564 20.476 154.104 20.764C154.824 19.144 155.256 17.38 155.4 15.904C159.504 17.344 159.936 17.524 159.936 17.884C159.936 18.172 159.612 18.28 158.352 18.388C156.66 19.936 156.084 20.476 155.04 21.268C155.58 21.592 155.724 21.7 155.904 21.844C156.372 22.204 156.624 22.708 156.624 23.248C156.624 24.472 155.832 25.732 155.04 25.732C154.644 25.732 154.572 25.624 154.176 24.256C153.708 22.636 153.348 21.916 152.124 20.224ZM165.012 20.116L165.228 19.828C166.092 20.224 166.38 20.368 166.956 20.692C167.892 18.892 168.396 17.632 168.828 15.976C169.764 16.372 170.448 16.624 170.916 16.804C172.932 17.596 173.256 17.74 173.256 18.064C173.256 18.388 172.968 18.496 171.528 18.496C169.728 19.972 169.368 20.224 167.892 21.268C168.828 21.88 169.152 22.384 169.152 23.14C169.152 24.148 168.324 25.228 167.532 25.228C167.064 25.228 166.884 24.904 166.668 23.752C166.38 22.204 165.948 21.232 165.012 20.116ZM167.676 30.844L167.892 30.592C170.628 31.276 171.492 31.78 171.492 32.608C171.492 33.436 170.772 34.3 170.088 34.3C169.584 34.3 169.368 34.048 168.972 33.004C168.648 32.176 168.252 31.564 167.676 30.844ZM201.804 31.024H205.728C206.736 29.728 207.096 29.296 208.068 27.964C209.76 29.332 210.264 29.764 211.848 31.168C211.992 31.348 212.064 31.456 212.064 31.528C212.064 31.672 211.884 31.78 211.668 31.78H202.164C202.884 33.508 203.856 34.984 205.224 36.496C207.42 38.8 209.688 40.24 212.712 41.212V41.572C211.38 42.472 210.984 43.156 210.516 45.424C210.408 45.784 210.3 45.964 210.084 45.964C209.76 45.964 208.536 44.92 207.42 43.696C204.9 40.888 203.424 37.972 201.84 32.572L201.876 38.872C201.912 43.66 201.912 43.66 202.02 47.872C202.02 48.304 201.948 48.52 201.732 48.628C201.372 48.88 200.436 49.024 199.248 49.024C198.168 49.024 197.916 48.88 197.916 48.232C198.096 43.84 198.096 43.84 198.132 39.916L198.168 36.676C195 41.212 192.408 43.48 187.512 46.036L187.296 45.748C190.356 42.724 191.796 40.924 193.704 37.648C194.892 35.56 195.792 33.76 196.548 31.78H191.112C191.328 32.212 191.364 32.428 191.364 32.752C191.364 34.156 190.212 35.632 189.132 35.632C188.556 35.632 188.268 35.2 188.196 34.084C187.98 31.564 187.548 30.232 186.54 28.72C186.54 29.584 186.54 29.584 186.54 30.484C186.54 38.188 186.54 43.696 186.576 47.8C186.576 48.736 186.108 48.916 183.804 48.916C182.832 48.916 182.58 48.772 182.58 48.16C182.76 44.056 182.76 44.056 182.904 36.136L182.976 33.004C181.464 36.424 180.168 38.44 177.972 40.78L177.612 40.528C179.088 37.576 179.952 35.2 180.996 31.42C181.716 28.828 182.004 27.532 182.472 24.688H180.312C179.484 24.688 179.088 24.724 178.368 24.904L178.08 23.608C178.872 23.86 179.448 23.932 180.312 23.932H182.76V20.26C182.76 18.532 182.724 17.632 182.544 15.904C183.66 16.012 184.488 16.084 185.064 16.12C187.26 16.336 187.872 16.48 187.872 16.876C187.872 17.2 187.512 17.416 186.54 17.74V23.932H187.08C187.836 22.888 188.088 22.564 188.808 21.628C190.068 22.708 190.356 22.96 191.544 24.112C192.228 21.52 192.444 20.296 192.66 17.812C197.196 18.928 197.736 19.108 197.736 19.504C197.736 19.792 197.448 19.936 196.368 20.188C195.612 21.952 195.252 22.6 194.604 23.788H197.988V19.936C197.988 17.848 197.988 17.308 197.916 15.796C198.96 15.94 199.752 16.048 200.292 16.084C202.884 16.372 203.28 16.48 203.28 16.912C203.28 17.236 202.92 17.452 201.804 17.884V23.788H204.756C205.764 22.528 206.088 22.096 207.06 20.908C208.716 22.204 209.184 22.6 210.768 24.004C210.912 24.148 210.984 24.256 210.984 24.328C210.984 24.472 210.84 24.544 210.624 24.544H201.804V31.024ZM197.988 31.024V24.544H194.172C193.128 26.308 191.58 28.144 189.888 29.656L189.6 29.44C190.428 27.568 190.752 26.74 191.4 24.688H186.54V28.072C188.448 29.008 189.384 29.692 190.644 31.024H197.988ZM218.04 23.392H233.232C233.196 22.348 233.16 21.736 233.16 20.44C233.088 18.136 233.052 17.452 232.872 15.904C237.66 16.336 237.912 16.372 238.344 16.588C238.488 16.66 238.596 16.84 238.596 16.948C238.596 17.308 238.236 17.524 237.12 17.812C237.084 19.54 237.084 20.584 237.084 21.016C237.084 21.664 237.084 22.06 237.12 23.392H241.116C241.692 22.744 241.836 22.564 242.232 22.096C241.62 22.024 241.548 21.916 241.116 20.62C240.684 19.432 240.108 18.46 238.812 16.84L238.956 16.552C241.116 17.092 241.944 17.344 242.772 17.776C243.996 18.388 244.5 19 244.5 19.828C244.5 20.224 244.428 20.476 244.176 20.98C245.724 22.096 245.976 22.312 247.416 23.536C247.56 23.716 247.632 23.824 247.632 23.932C247.632 24.076 247.452 24.148 247.2 24.148H237.156C237.264 27.316 237.48 29.512 237.84 31.528C238.344 34.408 239.424 37.252 240.828 39.376C241.584 40.528 242.232 41.212 243.924 42.58C245.436 39.7 245.868 38.764 247.2 35.812L247.596 35.92L246.516 42.148C246.444 42.58 246.372 43.12 246.372 43.408C246.372 43.876 246.48 44.092 247.056 44.74C247.488 45.28 247.668 45.676 247.668 46.216C247.668 47.368 246.768 48.34 245.724 48.34C244.284 48.34 242.34 47.116 240.252 44.956C236.688 41.248 234.636 36.424 233.772 29.764C233.52 28 233.412 26.56 233.268 24.148H218.04C216.708 24.148 215.844 24.22 214.98 24.4L214.764 23.032C215.7 23.248 216.96 23.392 218.04 23.392ZM226.284 31.168V40.348C228.876 39.808 231.144 39.232 234.204 38.368L234.348 38.8C230.028 41.248 224.16 43.912 218.112 46.144C217.932 47.512 217.752 47.98 217.356 47.98C216.924 47.98 216.636 47.224 215.124 42.292C216.996 42.148 218.184 41.968 222.324 41.176V31.168H218.76C217.86 31.168 217.104 31.24 216.276 31.456L216.06 30.052C216.96 30.304 217.86 30.412 218.76 30.412H226.788C227.868 29.188 228.228 28.792 229.272 27.64C230.856 28.9 231.36 29.296 232.944 30.628C233.088 30.808 233.124 30.88 233.124 30.952C233.124 31.096 232.98 31.168 232.8 31.168H226.284ZM282.156 35.74H267C264.264 39.376 262.32 41.644 260.088 43.732C266.784 43.624 270.168 43.444 273.804 43.12C272.364 40.564 271.716 39.628 269.808 37.612L270.096 37.324C272.976 38.692 274.848 39.808 276.72 41.284C278.592 42.796 279.348 43.804 279.348 44.884C279.348 46.756 278.052 48.7 276.828 48.7C276.36 48.7 276.216 48.52 275.82 47.584C275.136 45.748 274.92 45.28 274.38 44.164C274.056 44.272 274.056 44.272 273.552 44.416C269.88 45.388 263.04 46.756 255.696 47.908C255.444 48.988 255.264 49.348 254.904 49.348C254.508 49.348 254.508 49.348 253.176 43.588C254.616 43.732 255.48 43.768 257.244 43.768C257.28 43.768 258 43.768 258.432 43.768C259.8 40.816 260.448 39.088 261.456 35.74H254.256C253.464 35.74 252.96 35.776 252.024 35.956L251.736 34.66C252.78 34.912 253.5 34.984 254.364 34.984H275.28C276.432 33.616 276.792 33.22 277.944 31.924C279.888 33.292 280.5 33.688 282.336 35.164C282.48 35.272 282.552 35.416 282.552 35.488C282.552 35.632 282.372 35.74 282.156 35.74ZM250.224 32.68L249.972 32.284C253.32 29.836 255.84 27.496 258.324 24.472C261.06 21.16 262.68 18.424 263.544 15.724C264.768 15.976 265.74 16.156 266.388 16.3C268.98 16.804 269.772 17.056 269.772 17.452C269.772 17.776 269.484 17.92 268.296 18.172C270.42 21.16 272.292 22.78 275.532 24.436C278.304 25.84 280.536 26.524 284.424 27.136V27.532C283.236 28.036 282.66 28.684 281.976 30.16C281.832 30.484 281.652 31.06 281.544 31.348C281.436 31.708 281.328 31.816 281.112 31.816C280.752 31.816 279.312 31.168 278.016 30.376C275.352 28.792 272.94 26.596 270.852 23.86C269.304 21.844 268.548 20.548 267.756 18.46C263.292 25.192 257.784 29.656 250.224 32.68ZM258.396 30.088L258.108 28.864C259.116 29.08 259.8 29.152 260.772 29.152H268.116C269.232 27.82 269.592 27.424 270.744 26.2C272.508 27.496 273.048 27.928 274.812 29.332C274.992 29.476 275.064 29.584 275.064 29.692C275.064 29.836 274.92 29.908 274.632 29.908H260.556C259.836 29.908 259.368 29.944 258.396 30.088ZM295.08 31.096V31.456C296.628 31.852 297.132 32.032 298.248 32.5C300.732 33.544 301.668 34.48 301.668 35.848C301.668 37.252 300.588 38.692 299.544 38.692C299.04 38.692 298.752 38.332 298.32 37.252C297.24 34.516 296.376 33.112 295.08 32.032V40.024C295.08 43.732 295.08 45.748 295.152 48.016C295.152 48.376 295.08 48.52 294.864 48.664C294.504 48.916 293.64 49.06 292.56 49.06C291.336 49.06 291.012 48.88 290.976 48.232C291.084 45.316 291.192 41.932 291.192 40.312V34.876C289.644 36.136 288.564 36.856 286.08 38.332L285.792 37.9C288.132 35.776 289.572 34.12 291.3 31.6C293.244 28.756 294.324 26.74 295.332 23.968H288.888C287.7 23.968 287.268 24.004 286.476 24.148L286.224 22.852C287.088 23.104 287.952 23.212 288.924 23.212H291.084V19.108C291.084 17.776 291.048 17.272 290.868 16.084C296.196 16.552 296.412 16.624 296.412 17.092C296.412 17.416 296.088 17.632 295.008 18.028V23.212H295.944C296.736 22.24 296.952 21.988 297.816 21.088C299.148 22.204 299.544 22.564 300.768 23.68C301.092 24.04 301.164 24.148 301.164 24.256C301.164 24.616 300.84 24.76 299.328 25.048C297.744 27.712 296.664 29.296 295.08 31.096ZM306.276 29.116H302.064C300.876 29.116 300.408 29.152 299.508 29.332L299.256 28.036C300.336 28.288 300.876 28.36 302.064 28.36H306.276V20.836C306.276 18.892 306.204 17.92 305.988 16.048C307.176 16.156 308.112 16.228 308.724 16.264C311.244 16.48 311.928 16.66 311.928 17.092C311.928 17.452 311.496 17.704 310.38 18.064V28.36H312.648C313.836 26.956 314.196 26.524 315.348 25.12C317.184 26.524 317.724 26.992 319.416 28.54C319.56 28.684 319.596 28.792 319.596 28.864C319.596 29.008 319.452 29.116 319.236 29.116H310.38V46.468H313.044C314.412 44.884 314.412 44.884 315.924 43.156C317.688 44.632 318.228 45.1 319.956 46.72C320.1 46.864 320.136 46.936 320.136 47.044C320.136 47.152 319.992 47.224 319.776 47.224H300.3C299.004 47.224 298.392 47.26 297.42 47.44L297.132 46.18C298.14 46.396 299.04 46.468 300.264 46.468H306.276V29.116ZM337.668 46.36L337.524 45.856C341.376 44.668 344.076 43.084 346.236 40.744C348.648 38.152 349.836 34.984 349.836 31.276C349.836 25.12 346.092 21.448 339.9 21.448C339.432 21.448 339.144 21.448 338.46 21.52C339.72 22.996 340.116 23.968 340.116 25.372C340.116 28.252 338.28 33.292 335.688 37.648C333.348 41.536 331.26 43.516 329.46 43.516C328.668 43.516 327.912 43.084 327.516 42.472C327.228 41.932 327.012 41.428 326.688 40.096C326.472 39.232 326.184 38.728 325.14 37.432C324.276 36.352 323.736 34.768 323.736 33.292C323.736 31.024 324.888 28.288 326.76 26.092C329.856 22.42 334.968 20.188 340.332 20.188C348.36 20.188 354.084 25.264 354.084 32.392C354.084 37.612 351.204 41.788 345.984 44.2C343.752 45.244 341.448 45.856 337.668 46.36ZM337.74 21.628C334.824 22.276 332.88 23.32 330.792 25.372C328.308 27.856 326.94 30.916 326.94 33.94C326.94 36.424 328.164 38.98 329.388 38.98C330.576 38.98 332.952 35.992 335.292 31.564C337.092 28.18 338.172 25.192 338.172 23.608C338.172 23.212 338.136 22.744 338.028 22.42C337.956 22.132 337.776 21.628 337.74 21.628ZM359.628 25.3L359.952 25.012C361.32 26.38 362.652 26.956 364.488 26.956C365.604 26.956 366.828 26.776 368.232 26.416C368.268 25.516 368.268 25.084 368.268 24.364C368.268 21.628 368.124 20.332 367.8 19.648C367.368 18.748 366.54 18.244 364.92 17.92C365.604 17.38 366.036 17.236 366.972 17.236C368.448 17.236 370.32 17.632 371.544 18.244C372.408 18.676 372.876 19.288 372.876 19.972C372.876 20.332 372.804 20.584 372.372 21.268C371.796 22.276 371.508 23.428 371.292 25.516C372.768 24.94 373.272 24.652 374.352 23.788C374.892 23.356 375.288 23.176 375.72 23.176C376.404 23.176 377.484 23.536 377.916 23.932C378.168 24.148 378.312 24.472 378.312 24.832C378.312 25.516 377.592 26.092 375.9 26.812C374.208 27.532 372.588 28.036 370.968 28.396C370.824 30.448 370.824 31.168 370.788 34.408C374.352 33.076 377.124 32.5 379.932 32.5C385.368 32.5 388.788 35.164 388.788 39.412C388.788 43.408 385.728 46.504 381.768 46.504C379.608 46.504 377.736 45.532 376.26 43.624C375.36 42.436 374.856 41.356 374.316 39.232L374.712 39.088C376.296 41.896 378.06 43.228 380.22 43.228C383.028 43.228 384.936 41.176 384.936 38.188C384.936 35.524 383.1 34.048 379.752 34.048C376.98 34.048 373.668 35.02 370.824 36.676C370.86 38.296 370.86 38.296 371.04 41.68C371.076 42.292 371.112 42.832 371.112 43.3C371.112 44.596 370.788 45.64 370.104 46.504C369.456 47.332 368.772 47.728 368.052 47.728C367.584 47.728 367.152 47.548 366.792 47.188C366.648 47.008 366.648 47.008 366.036 46.324C364.56 44.596 363.876 44.092 362.544 43.804C361.644 43.624 361.464 43.552 361.104 43.264C360.672 42.94 360.42 42.436 360.42 41.86C360.42 41.14 360.852 40.348 361.716 39.484C363.3 37.936 364.704 37.036 368.052 35.416C368.124 33.256 368.16 31.06 368.232 28.864C367.116 29.044 366.612 29.116 365.784 29.116C362.94 29.116 361.176 28 359.628 25.3ZM367.908 38.152C365.532 39.664 363.732 41.5 363.732 42.328C363.732 42.58 363.912 42.832 364.272 43.048C365.028 43.444 366.144 43.768 366.864 43.768C367.404 43.768 367.548 43.588 367.656 42.904C367.728 42.328 367.908 39.268 367.908 38.152ZM380.688 21.592V21.196C381.444 21.124 381.768 21.124 382.308 21.124C384.468 21.124 386.16 21.52 387.708 22.42C389.364 23.356 390.264 24.652 390.264 26.056C390.264 27.352 389.544 28.108 388.392 28.108C388.068 28.108 387.78 28.036 387.24 27.856C386.736 27.712 386.448 27.64 386.052 27.64C385.26 27.64 383.676 27.892 381.588 28.324L381.444 28C384.216 26.56 385.872 25.516 385.872 25.156C385.872 24.868 385.404 24.112 384.828 23.536C383.748 22.492 382.704 21.988 380.688 21.592ZM404.124 48.952L403.944 48.52C405.888 47.512 407.112 46.684 408.372 45.424C410.064 43.732 410.892 42.22 411.468 39.772C410.784 40.204 410.1 40.42 409.236 40.42C406.5 40.42 404.412 37.9 404.412 34.552C404.412 31.168 406.536 28.756 409.524 28.756C410.28 28.756 410.712 28.864 411.72 29.368C411.72 28.36 411.72 28.072 411.72 27.64C411.72 26.776 411.72 26.488 411.684 25.228C406.86 25.804 403.152 26.776 400.452 28.18C400.2 28.288 399.732 28.396 399.408 28.396C398.364 28.396 397.284 27.604 396.276 26.164C395.592 25.12 395.16 24.076 395.16 23.32C395.16 23.176 395.196 22.996 395.304 22.708C396.348 24.184 397.536 24.832 399.156 24.832C400.236 24.832 400.236 24.832 406.644 23.896C408.084 23.68 409.164 23.572 411.612 23.284C411.54 20.548 411.36 19.396 410.856 18.712C410.28 17.92 409.38 17.452 407.724 17.2C408.372 16.624 408.84 16.48 409.992 16.48C411.36 16.48 412.764 16.696 414.06 17.092C415.464 17.56 416.112 18.136 416.112 18.964C416.112 19.324 416.04 19.576 415.752 20.08C415.212 21.052 415.14 21.376 414.96 22.852C419.964 22.42 420.252 22.384 421.476 21.844C422.124 21.556 422.484 21.484 423.024 21.484C423.996 21.484 425.58 22.168 426.516 22.996C426.984 23.392 427.164 23.752 427.164 24.328C427.164 24.976 426.624 25.408 425.868 25.408C425.544 25.408 425.004 25.336 423.744 25.156C421.692 24.904 420.144 24.796 417.84 24.796C416.616 24.796 416.004 24.832 414.78 24.94C414.636 26.848 414.528 29.188 414.528 30.52C414.528 30.664 414.528 30.952 414.528 31.276C415.464 33.04 415.788 34.3 415.788 36.28C415.788 40.384 414.06 43.804 410.784 46.108C409.092 47.296 407.508 47.98 404.124 48.952ZM411.684 33.976C411.684 31.312 410.82 29.8 409.344 29.8C407.904 29.8 406.788 31.312 406.788 33.256C406.788 35.524 407.868 37.108 409.452 37.108C410.856 37.108 411.684 35.956 411.684 33.976ZM440.124 48.952L439.944 48.52C441.888 47.512 443.112 46.684 444.372 45.424C446.064 43.732 446.892 42.22 447.468 39.772C446.784 40.204 446.1 40.42 445.236 40.42C442.5 40.42 440.412 37.9 440.412 34.552C440.412 31.168 442.536 28.756 445.524 28.756C446.28 28.756 446.712 28.864 447.72 29.368C447.72 28.36 447.72 28.072 447.72 27.64C447.72 26.776 447.72 26.488 447.684 25.228C442.86 25.804 439.152 26.776 436.452 28.18C436.2 28.288 435.732 28.396 435.408 28.396C434.364 28.396 433.284 27.604 432.276 26.164C431.592 25.12 431.16 24.076 431.16 23.32C431.16 23.176 431.196 22.996 431.304 22.708C432.348 24.184 433.536 24.832 435.156 24.832C436.236 24.832 436.236 24.832 442.644 23.896C444.084 23.68 445.164 23.572 447.612 23.284C447.54 20.548 447.36 19.396 446.856 18.712C446.28 17.92 445.38 17.452 443.724 17.2C444.372 16.624 444.84 16.48 445.992 16.48C447.36 16.48 448.764 16.696 450.06 17.092C451.464 17.56 452.112 18.136 452.112 18.964C452.112 19.324 452.04 19.576 451.752 20.08C451.212 21.052 451.14 21.376 450.96 22.852C455.964 22.42 456.252 22.384 457.476 21.844C458.124 21.556 458.484 21.484 459.024 21.484C459.996 21.484 461.58 22.168 462.516 22.996C462.984 23.392 463.164 23.752 463.164 24.328C463.164 24.976 462.624 25.408 461.868 25.408C461.544 25.408 461.004 25.336 459.744 25.156C457.692 24.904 456.144 24.796 453.84 24.796C452.616 24.796 452.004 24.832 450.78 24.94C450.636 26.848 450.528 29.188 450.528 30.52C450.528 30.664 450.528 30.952 450.528 31.276C451.464 33.04 451.788 34.3 451.788 36.28C451.788 40.384 450.06 43.804 446.784 46.108C445.092 47.296 443.508 47.98 440.124 48.952ZM447.684 33.976C447.684 31.312 446.82 29.8 445.344 29.8C443.904 29.8 442.788 31.312 442.788 33.256C442.788 35.524 443.868 37.108 445.452 37.108C446.856 37.108 447.684 35.956 447.684 33.976ZM471.156 20.836L471.48 20.584C474.432 22.06 475.62 23.572 476.412 27.028C478.896 25.732 480.588 25.192 483.648 24.796C484.044 22.816 484.188 21.664 484.188 20.62C484.188 19.576 483.72 19.18 482.46 19.18C482.136 19.18 481.92 19.18 481.416 19.252L481.344 18.928C482.712 18.172 483.396 17.92 484.296 17.92C485.268 17.92 486.492 18.352 487.212 18.964C487.824 19.468 488.076 20.044 488.076 20.728C488.076 21.448 487.752 23.068 487.212 24.76C493.368 25.3 497.616 29.512 497.616 35.056C497.616 39.592 494.988 43.228 490.128 45.316C487.824 46.324 485.376 46.864 481.524 47.188L481.452 46.828C486.24 45.28 488.544 43.948 490.632 41.464C492.396 39.304 493.332 36.784 493.332 33.976C493.332 31.348 492.468 29.152 490.812 27.712C489.696 26.74 488.58 26.272 486.816 26.056C485.088 30.808 483.18 34.48 480.66 37.9C481.056 38.548 481.236 38.764 481.848 39.448C482.856 40.564 483.072 40.96 483.072 41.572C483.072 42.256 482.532 42.724 481.776 42.724C480.804 42.724 479.652 41.968 478.392 40.456C477.672 41.32 476.7 42.184 475.512 43.012C474.252 43.912 473.352 44.272 472.452 44.272C471.372 44.272 470.796 43.624 470.58 42.22C470.4 41.032 470.292 40.78 469.428 39.916C468.708 39.16 468.312 38.26 468.312 37.324C468.312 35.848 468.96 34.012 469.968 32.464C471.012 30.916 472.2 29.728 474.18 28.288C473.352 23.788 472.884 22.636 471.156 20.836ZM474.684 30.412C472.38 32.788 471.336 35.056 471.336 37.756C471.336 39.232 472.2 40.78 473.064 40.78C473.964 40.78 475.44 39.772 476.88 38.224C475.836 35.74 475.188 33.436 474.684 30.412ZM476.808 28.612C477.024 29.26 477.024 29.26 477.816 32.032C478.176 33.22 478.536 34.192 479.22 35.596C480.984 32.824 482.388 29.584 483.36 26.092C480.48 26.524 478.896 27.136 476.808 28.612ZM533.292 28.216V36.388C533.292 40.564 533.292 40.564 533.328 43.3C533.328 43.696 533.328 44.056 533.328 44.2C533.328 44.488 533.328 44.812 533.328 45.28C533.292 46.54 533.04 47.08 532.212 47.692C531.42 48.232 529.692 48.736 528.54 48.736C528.216 48.736 528.144 48.628 528.144 48.124C528.108 47.296 527.964 46.648 527.712 46.18C527.388 45.604 527.1 45.424 525.48 44.848C525.444 45.316 525.3 45.496 524.976 45.604C524.652 45.712 523.752 45.82 522.996 45.82C522.168 45.82 521.916 45.676 521.88 45.1V44.02H516.012V45.784C516.012 46.108 515.904 46.216 515.688 46.324C515.364 46.468 514.392 46.54 513.276 46.54C512.664 46.54 512.448 46.396 512.412 46.036C512.448 44.308 512.484 43.624 512.484 42.328C512.484 38.476 512.448 36.352 512.412 34.876C511.26 35.308 510.828 35.452 509.388 35.812L509.208 35.416C511.548 33.904 512.52 32.608 513.024 30.556C513.24 29.548 513.312 28.9 513.384 27.136H508.632V38.944L508.668 47.764C508.56 48.664 508.2 48.772 505.716 48.772C504.78 48.772 504.636 48.664 504.564 48.052C504.708 43.696 504.78 41.14 504.78 37.648C504.78 29.008 504.78 28.9 504.564 24.076C506.58 25.012 507.156 25.3 508.956 26.38H512.88C512.376 26.02 512.304 25.84 512.088 24.868C511.8 23.32 511.26 22.168 510.288 20.872L510.396 20.728H505.752C505.14 20.728 504.456 20.8 503.196 20.98L502.908 19.612C504.312 19.864 505.104 19.972 505.752 19.972H516.66V17.848C516.66 17.092 516.624 16.552 516.516 15.436C517.848 15.544 518.856 15.652 519.504 15.688C521.736 15.832 522.456 16.012 522.456 16.48C522.456 16.84 522.168 16.984 520.872 17.416V19.972H528.792C529.944 18.604 530.304 18.208 531.564 16.948C533.436 18.352 533.976 18.82 535.776 20.296C535.812 20.368 535.884 20.44 535.884 20.476C535.884 20.62 535.704 20.728 535.524 20.728H524.328C526.02 21.268 527.496 21.808 528.252 22.132C528.504 22.276 528.684 22.456 528.684 22.6C528.684 22.96 528.432 23.068 527.064 23.176C524.508 25.3 524.184 25.552 522.996 26.38H529.116C529.98 25.48 530.232 25.228 531.096 24.328C532.68 25.372 533.112 25.696 534.444 26.812C534.588 26.956 534.66 27.064 534.66 27.172C534.66 27.46 534.336 27.676 533.292 28.216ZM516.372 36.496H521.628C522.384 35.704 522.636 35.452 523.5 34.624C524.76 35.452 525.156 35.704 526.272 36.496C526.452 36.64 526.524 36.748 526.524 36.856C526.524 37.144 526.164 37.468 525.408 37.864C525.408 38.584 525.408 39.088 525.408 39.484C525.408 40.132 525.408 40.276 525.444 41.608C525.444 42.472 525.48 43.192 525.48 43.768C525.48 44.056 525.48 44.056 525.48 44.38C526.524 44.524 527.064 44.56 528.864 44.632C529.26 44.632 529.404 44.524 529.404 44.236V27.136H523.464V30.52C523.464 31.24 523.5 31.24 525.228 31.24C525.84 31.24 525.984 31.168 526.2 30.808C526.452 30.304 526.524 30.052 527.316 27.856H527.64L527.712 30.232C527.712 30.736 527.784 30.844 528.108 30.988C528.864 31.312 529.08 31.636 529.08 32.32C529.08 33.544 528.18 33.94 525.336 33.94C521.844 33.94 521.196 33.868 520.656 33.4C520.296 33.112 520.224 32.68 520.224 30.772V27.136H517.128C516.804 31.024 515.76 32.824 512.808 34.624C514.536 35.452 514.86 35.596 516.372 36.496ZM523.464 20.728H510.936C512.88 21.52 513.816 21.952 514.536 22.348C515.436 22.852 515.904 23.536 515.904 24.436C515.904 25.336 515.436 26.02 514.572 26.38H521.412C522.312 24.652 523.068 22.492 523.464 20.728ZM516.012 37.252V43.264H521.88V37.252H516.012ZM549.276 28.108V29.692C549.276 30.088 549.204 30.268 549.024 30.412C548.736 30.592 547.764 30.736 546.612 30.736C545.496 30.736 545.244 30.592 545.208 29.98C545.28 26.992 545.316 25.48 545.316 21.844C545.316 18.928 545.316 18.136 545.208 16.012C547.26 16.876 547.872 17.164 549.78 18.208H560.472C561.372 17.236 561.66 16.948 562.596 16.048C563.964 17.02 564.36 17.308 565.584 18.316C565.908 18.604 566.016 18.784 566.016 18.964C566.016 19.288 565.8 19.468 564.684 20.044C564.684 20.836 564.684 21.52 564.684 21.88C564.684 23.212 564.72 24.832 564.828 29.512C564.828 30.016 564.684 30.232 564.288 30.376C563.964 30.52 562.74 30.664 561.912 30.664C561.048 30.664 560.76 30.484 560.76 29.872V28.108H549.276ZM549.276 18.964V27.352H560.76V18.964H549.276ZM543.948 45.532V47.368C543.948 47.8 543.876 47.98 543.624 48.124C543.228 48.304 542.328 48.448 541.284 48.448C540.24 48.448 539.988 48.268 539.988 47.62C540.096 43.444 540.132 42.436 540.132 41.104C540.132 34.192 540.132 33.292 539.988 31.384C541.932 32.32 542.472 32.608 544.272 33.652H549.312C550.14 32.644 550.428 32.356 551.292 31.42C552.552 32.356 552.912 32.644 553.992 33.508C554.352 33.796 554.46 33.976 554.46 34.192C554.46 34.48 554.208 34.696 553.308 35.2C553.308 38.044 553.344 43.516 553.416 46.936C553.38 47.764 552.768 48.016 550.788 48.016C549.852 48.016 549.564 47.836 549.528 47.296V45.532H543.948ZM543.948 34.408V44.776H549.528V34.408H543.948ZM560.22 45.532V47.188C560.184 47.62 560.076 47.8 559.68 47.944C559.392 48.052 558.24 48.16 557.52 48.16C556.692 48.16 556.404 47.98 556.368 47.368C556.476 43.084 556.476 42.22 556.476 40.456C556.476 35.092 556.44 33.292 556.368 31.384C558.276 32.32 558.852 32.608 560.58 33.652H565.692C566.556 32.68 566.844 32.356 567.708 31.456C569.04 32.464 569.436 32.752 570.624 33.724C570.948 33.976 571.056 34.156 571.056 34.336C571.056 34.624 570.768 34.84 569.868 35.308C569.868 40.42 569.904 45.208 569.976 47.224C569.94 47.584 569.868 47.764 569.688 47.872C569.328 48.124 568.428 48.268 567.456 48.268C566.34 48.268 566.088 48.16 566.052 47.548V45.532H560.22ZM560.22 34.408V44.776H566.052V34.408H560.22Z" fill="#006281"/>
<rect y="2" width="3" height="60" fill="#006281"/>
<rect x="603" width="3" height="60" fill="#006281"/>
</svg>
